<svg width="24" height="25" viewBox="0 0 24 25" fill="none" xmlns="http://www.w3.org/2000/svg">
<path d="M9 2.5V4.5M15 2.5V4.5M9 20.5V22.5M15 20.5V22.5M20 9.5H22M20 14.5H22M2 9.5H4M2 14.5H4M8.8 20.5H15.2C16.8802 20.5 17.7202 20.5 18.362 20.173C18.9265 19.8854 19.3854 19.4265 19.673 18.862C20 18.2202 20 17.3802 20 15.7V9.3C20 7.61984 20 6.77976 19.673 6.13803C19.3854 5.57354 18.9265 5.1146 18.362 4.82698C17.7202 4.5 16.8802 4.5 15.2 4.5H8.8C7.11984 4.5 6.27976 4.5 5.63803 4.82698C5.07354 5.1146 4.6146 5.57354 4.32698 6.13803C4 6.77976 4 7.61984 4 9.3V15.7C4 17.3802 4 18.2202 4.32698 18.862C4.6146 19.4265 5.07354 19.8854 5.63803 20.173C6.27976 20.5 7.11984 20.5 8.8 20.5ZM10.6 15.5H13.4C13.9601 15.5 14.2401 15.5 14.454 15.391C14.6422 15.2951 14.7951 15.1422 14.891 14.954C15 14.7401 15 14.4601 15 13.9V11.1C15 10.5399 15 10.2599 14.891 10.046C14.7951 9.85785 14.6422 9.70487 14.454 9.60899C14.2401 9.5 13.9601 9.5 13.4 9.5H10.6C10.0399 9.5 9.75992 9.5 9.54601 9.60899C9.35785 9.70487 9.20487 9.85785 9.10899 10.046C9 10.2599 9 10.5399 9 11.1V13.9C9 14.4601 9 14.7401 9.10899 14.954C9.20487 15.1422 9.35785 15.2951 9.54601 15.391C9.75992 15.5 10.0399 15.5 10.6 15.5Z" stroke="#6B777D" stroke-width="2" stroke-linecap="round" stroke-linejoin="round"/>
</svg>
