<svg width="24" height="25" viewBox="0 0 24 25" fill="none" xmlns="http://www.w3.org/2000/svg">
<path d="M20 10V7.3C20 5.61984 20 4.77976 19.673 4.13803C19.3854 3.57354 18.9265 3.1146 18.362 2.82698C17.7202 2.5 16.8802 2.5 15.2 2.5H8.8C7.11984 2.5 6.27976 2.5 5.63803 2.82698C5.07354 3.1146 4.6146 3.57354 4.32698 4.13803C4 4.77976 4 5.61984 4 7.3V17.7C4 19.3802 4 20.2202 4.32698 20.862C4.6146 21.4265 5.07354 21.8854 5.63803 22.173C6.27976 22.5 7.11984 22.5 8.8 22.5H14M14 11.5H8M10 15.5H8M16 7.5H8M16.5 15.5022C16.6762 15.0014 17.024 14.579 17.4817 14.31C17.9395 14.0409 18.4777 13.9426 19.001 14.0324C19.5243 14.1221 19.999 14.3942 20.3409 14.8004C20.6829 15.2066 20.87 15.7207 20.8692 16.2517C20.8692 17.7506 18.6209 18.5 18.6209 18.5M18.6499 21.5H18.6599" stroke="#6B777D" stroke-width="2" stroke-linecap="round" stroke-linejoin="round"/>
</svg>
