<svg width="18" height="18" viewBox="0 0 18 18" fill="none" xmlns="http://www.w3.org/2000/svg">
<path id="insta" d="M8.99999 4.38503C6.44549 4.38503 4.38502 6.4455 4.38502 9C4.38502 11.5545 6.44549 13.615 8.99999 13.615C11.5545 13.615 13.615 11.5545 13.615 9C13.615 6.4455 11.5545 4.38503 8.99999 4.38503ZM8.99999 12.0003C7.3492 12.0003 5.99965 10.6548 5.99965 9C5.99965 7.3452 7.34519 5.99967 8.99999 5.99967C10.6548 5.99967 12.0003 7.3452 12.0003 9C12.0003 10.6548 10.6508 12.0003 8.99999 12.0003ZM14.8802 4.19625C14.8802 4.79471 14.3982 5.27268 13.8037 5.27268C13.2053 5.27268 12.7273 4.79069 12.7273 4.19625C12.7273 3.60181 13.2093 3.11983 13.8037 3.11983C14.3982 3.11983 14.8802 3.60181 14.8802 4.19625ZM17.9367 5.28874C17.8684 3.84681 17.5391 2.56956 16.4827 1.51724C15.4304 0.464911 14.1532 0.135557 12.7112 0.0632601C11.2251 -0.0210867 6.77082 -0.0210867 5.28471 0.0632601C3.8468 0.131541 2.56955 0.460895 1.51321 1.51322C0.456867 2.56555 0.131529 3.8428 0.0592317 5.28473C-0.025115 6.77084 -0.025115 11.2251 0.0592317 12.7113C0.127512 14.1532 0.456867 15.4304 1.51321 16.4828C2.56955 17.5351 3.84279 17.8644 5.28471 17.9367C6.77082 18.0211 11.2251 18.0211 12.7112 17.9367C14.1532 17.8685 15.4304 17.5391 16.4827 16.4828C17.5351 15.4304 17.8644 14.1532 17.9367 12.7113C18.0211 11.2251 18.0211 6.77485 17.9367 5.28874ZM16.0168 14.3058C15.7035 15.093 15.0971 15.6995 14.3058 16.0168C13.1209 16.4868 10.3094 16.3783 8.99999 16.3783C7.69061 16.3783 4.87503 16.4828 3.69418 16.0168C2.90694 15.7036 2.30045 15.0971 1.98314 14.3058C1.51321 13.1209 1.62166 10.3094 1.62166 9C1.62166 7.69062 1.51723 4.87504 1.98314 3.69419C2.29643 2.90695 2.90292 2.30046 3.69418 1.98315C4.87905 1.51322 7.69061 1.62167 8.99999 1.62167C10.3094 1.62167 13.1249 1.51724 14.3058 1.98315C15.093 2.29644 15.6995 2.90293 16.0168 3.69419C16.4868 4.87906 16.3783 7.69062 16.3783 9C16.3783 10.3094 16.4868 13.125 16.0168 14.3058Z" fill="white"/>
</svg>
