<svg width="18" height="18" viewBox="0 0 18 18" fill="none" xmlns="http://www.w3.org/2000/svg">
<path id="in" d="M4.0248 18H0.292933V5.98232H4.0248V18ZM2.15686 4.343C0.963529 4.343 -0.00439453 3.35458 -0.00439453 2.16125C-0.00439452 1.58805 0.223308 1.03833 0.628622 0.633016C1.03394 0.227703 1.58366 0 2.15686 0C2.73006 0 3.27978 0.227703 3.6851 0.633016C4.09041 1.03833 4.31811 1.58805 4.31811 2.16125C4.31811 3.35458 3.34979 4.343 2.15686 4.343ZM17.992 18H14.2682V12.1499C14.2682 10.7556 14.24 8.96766 12.3279 8.96766C10.3876 8.96766 10.0903 10.4824 10.0903 12.0494V18H6.36244V5.98232H9.94163V7.62164H9.99386C10.4921 6.67743 11.7091 5.68097 13.5248 5.68097C17.3017 5.68097 17.996 8.16808 17.996 11.3985V18H17.992Z" fill="white"/>
</svg>
