<svg width="102" height="32" viewBox="0 0 102 32" fill="none" xmlns="http://www.w3.org/2000/svg">
<g clip-path="url(#clip0_5828_8485)">
<path d="M32.1712 15.9992C32.1745 18.2681 31.6909 20.5115 30.7526 22.5795L24.1369 15.9992L30.7459 9.42604C31.6902 11.4898 32.1764 13.7317 32.1712 15.9992Z" fill="#FBAE17"/>
<path d="M22.694 1.41311L1.41879 22.5733C0.476638 20.5088 -0.00726083 18.2668 8.23389e-05 15.9996C-0.000450227 13.8984 0.41531 11.8177 1.2236 9.87622C2.03187 7.93478 3.21684 6.17074 4.7108 4.68493C6.20476 3.19912 7.97845 2.0206 9.93049 1.21676C11.8825 0.412918 13.9747 -0.000591429 16.0875 4.42882e-06C18.3656 -0.00168527 20.6179 0.480138 22.694 1.41311Z" fill="#F05B40"/>
<path d="M30.7439 9.42665C29.1346 5.86759 26.2711 3.01753 22.6938 1.41432L1.41864 22.5745C3.03059 26.1324 5.89626 28.9804 9.47476 30.581L30.7439 9.42665Z" fill="#F6921E"/>
<path d="M24.1168 32.0001H16.0866C13.8066 32.0043 11.5525 31.5198 9.47757 30.5798L16.0866 24.0133L24.1168 32.0001Z" fill="#FBAE17"/>
<path d="M36.4176 31.9999H24.1176L10.7977 18.7517C10.5713 18.5261 10.4172 18.239 10.3547 17.9263C10.2924 17.6138 10.3245 17.2897 10.4472 16.9953C10.5698 16.7008 10.7774 16.449 11.0438 16.2719C11.3101 16.0947 11.6233 16 11.9438 15.9997H24.1379L30.754 22.58L37.5374 29.32C37.7579 29.54 37.9079 29.8199 37.9684 30.1247C38.0289 30.4294 37.9974 30.7451 37.8775 31.0318C37.7576 31.3187 37.555 31.5638 37.2951 31.736C37.0353 31.9084 36.7299 32.0001 36.4176 31.9999Z" fill="#FFC132"/>
<path d="M47.1956 10.2661H48.0161V13.2243C48.0161 15.1862 48.9862 16.2233 50.8211 16.2233C51.6592 16.2181 52.4752 15.9568 53.1584 15.4746C53.1998 15.4469 53.2296 15.4053 53.2422 15.3575C53.255 15.3096 53.2498 15.2588 53.2275 15.2146L52.5996 13.9598C52.5868 13.9343 52.5685 13.9117 52.5464 13.8935C52.5243 13.8753 52.4986 13.8619 52.471 13.8542C52.4429 13.8464 52.4136 13.8445 52.3847 13.8487C52.3559 13.8529 52.3283 13.8629 52.3035 13.8783C51.9037 14.1488 51.4375 14.307 50.9546 14.3359C50.3375 14.3359 50.011 13.9416 50.011 13.1956V10.2669H52.3328C52.3872 10.2669 52.4394 10.2454 52.4779 10.2072C52.5164 10.169 52.5378 10.1171 52.5378 10.063V8.63577C52.5378 8.58164 52.5164 8.52976 52.4779 8.49143C52.4395 8.45316 52.3873 8.43151 52.3328 8.43137H50.011V6.45749C50.011 6.40343 49.9894 6.35159 49.9509 6.31336C49.9125 6.27513 49.8602 6.25364 49.8058 6.25364H48.2179C48.1634 6.25364 48.1113 6.27504 48.0727 6.31326C48.0342 6.35148 48.0126 6.40339 48.0124 6.45749V8.43137H47.1917C47.1372 8.43151 47.0851 8.45316 47.0466 8.49143C47.008 8.52969 46.9864 8.58164 46.9863 8.63577V10.063C46.9865 10.0901 46.992 10.1168 47.0026 10.1417C47.0133 10.1665 47.0288 10.1891 47.0482 10.208C47.0677 10.2268 47.0908 10.2418 47.1161 10.2518C47.1414 10.2617 47.1684 10.2666 47.1956 10.2661Z" fill="#4F4F4F"/>
<path d="M57.5413 16.2234C58.6761 16.2697 59.7869 15.8901 60.6531 15.1601C60.6917 15.1271 60.7167 15.0811 60.7232 15.0308C60.7297 14.9806 60.7172 14.9296 60.6882 14.888L59.9021 13.7689C59.8858 13.7462 59.8652 13.7269 59.8413 13.7123C59.8175 13.6976 59.7908 13.6879 59.763 13.6836C59.7353 13.6788 59.7067 13.68 59.6794 13.6872C59.6522 13.6944 59.6269 13.7074 59.6052 13.7253C59.0464 14.1703 58.3559 14.421 57.64 14.4388C57.2037 14.468 56.7715 14.3401 56.4223 14.0786C56.073 13.8171 55.8301 13.4395 55.7381 13.0147H60.8368C60.8882 13.0147 60.9376 12.9955 60.9755 12.961C61.0132 12.9265 61.0367 12.8792 61.041 12.8283C61.0582 12.6424 61.0725 12.434 61.0725 12.2247C61.0654 9.8801 59.573 8.24265 57.4433 8.24265C55.199 8.24265 53.6337 9.88344 53.6337 12.2331C53.6337 14.5827 55.2392 16.2234 57.5413 16.2234ZM55.7432 11.4126C55.8058 11.0218 56.01 10.6674 56.3176 10.4161C56.6252 10.1648 57.0147 10.034 57.4127 10.0486C58.2353 10.0486 58.7942 10.5307 59.0006 11.4126H55.7432Z" fill="#4F4F4F"/>
<path d="M65.9628 16.2234C66.5005 16.2395 67.035 16.1386 67.5293 15.9278C68.0236 15.7169 68.4657 15.4013 68.8244 15.0029C68.8566 14.9653 68.8744 14.9173 68.8737 14.8678C68.873 14.8183 68.8545 14.7707 68.8216 14.7338L67.8468 13.6521C67.8095 13.6114 67.7575 13.5869 67.7022 13.5842C67.6477 13.585 67.595 13.6044 67.5532 13.6392C67.1162 14.0689 66.5312 14.3177 65.9166 14.3352C64.7968 14.3352 63.9831 13.4516 63.9831 12.2336C63.9831 11.0154 64.7968 10.1314 65.9166 10.1314C66.216 10.1331 66.5119 10.1947 66.7866 10.313C67.0614 10.4313 67.3092 10.6035 67.5152 10.8194C67.5555 10.8555 67.6077 10.8754 67.662 10.8752C67.7165 10.873 67.7682 10.8497 67.8057 10.8103L68.8182 9.73612C68.8524 9.69956 68.8723 9.6519 68.8737 9.60206C68.8744 9.55223 68.8579 9.50368 68.8258 9.46535C68.4691 9.06406 68.0271 8.74623 67.5321 8.5349C67.0372 8.32356 66.5012 8.22395 65.9628 8.24315C65.4289 8.21857 64.8958 8.30498 64.3974 8.49684C63.8991 8.6887 63.4464 8.98188 63.0685 9.35737C62.6906 9.73292 62.3959 10.1827 62.2028 10.6779C62.0098 11.1732 61.9227 11.703 61.9475 12.2336C61.9228 12.764 62.0098 13.2937 62.2028 13.7889C62.3959 14.2841 62.6908 14.7338 63.0687 15.1093C63.4466 15.4848 63.8991 15.7779 64.3974 15.9697C64.8957 16.1615 65.429 16.2479 65.9628 16.2234Z" fill="#4F4F4F"/>
<path d="M75.2267 15.8316C75.2267 15.8857 75.2479 15.9376 75.2863 15.9758C75.3253 16.014 75.3773 16.0355 75.4314 16.0355H77.0196C77.0744 16.0355 77.1264 16.014 77.1647 15.9758C77.2037 15.9376 77.225 15.8857 77.225 15.8316V11.3091C77.24 10.8974 77.1688 10.487 77.0148 10.1042C76.8615 9.7214 76.6294 9.37464 76.333 9.08609C76.0372 8.79755 75.684 8.57348 75.2959 8.42839C74.9077 8.28323 74.4929 8.22019 74.0787 8.2432C73.3462 8.21998 72.6315 8.47258 72.0777 8.9504V5.01658C72.0777 4.96245 72.0558 4.91054 72.0175 4.87226C71.9791 4.83398 71.9264 4.81245 71.8724 4.81234H70.2842C70.2301 4.81245 70.1774 4.83398 70.139 4.87226C70.1007 4.91054 70.0788 4.96245 70.0788 5.01658V15.8329C70.0788 15.887 70.1007 15.9389 70.139 15.9771C70.1781 16.0153 70.2301 16.0367 70.2842 16.0367H71.8724C71.9264 16.0367 71.9791 16.0153 72.0175 15.9771C72.0558 15.9389 72.0777 15.887 72.0777 15.8329V11.8442C72.0599 11.6202 72.09 11.3949 72.1674 11.1835C72.2441 10.9722 72.3659 10.7796 72.5241 10.6188C72.6822 10.4581 72.8732 10.3329 73.084 10.2516C73.2949 10.1704 73.5208 10.1349 73.7467 10.1477C74.7003 10.1477 75.2267 10.7446 75.2267 11.8292V15.8316Z" fill="#4F4F4F"/>
<path d="M54.6016 20.7414H53.0217C52.9671 20.7414 52.9149 20.7629 52.8763 20.8012C52.8378 20.8395 52.816 20.8914 52.816 20.9456V21.2984C52.2451 20.7998 51.5058 20.5336 50.7459 20.5534C48.5652 20.5534 46.9202 22.269 46.9202 24.5442C46.9202 26.8193 48.5652 28.5336 50.7459 28.5336C51.5047 28.5545 52.2436 28.291 52.816 27.7957V31.1466C52.8161 31.2007 52.838 31.2526 52.8765 31.2909C52.9151 31.3291 52.9672 31.3504 53.0217 31.3504H54.6016C54.6561 31.3504 54.7082 31.3291 54.7467 31.2909C54.7852 31.2526 54.8071 31.2007 54.8072 31.1466V20.9456C54.8072 20.8914 54.7854 20.8395 54.7469 20.8012C54.7084 20.7629 54.6561 20.7414 54.6016 20.7414ZM52.9141 24.5442C52.9141 25.7814 52.1007 26.6458 50.9348 26.6458C49.7688 26.6458 48.9558 25.7814 48.9558 24.5442C48.9558 23.3069 49.7696 22.4416 50.9348 22.4416C52.0998 22.4416 52.9141 23.3061 52.9141 24.5442Z" fill="#4F4F4F"/>
<path d="M63.5656 20.7414H61.9785C61.9241 20.7415 61.8719 20.7631 61.8334 20.8015C61.7949 20.8397 61.7733 20.8915 61.7733 20.9457V24.9493C61.7733 26.0751 61.2475 26.6459 60.2101 26.6459C59.1727 26.6459 58.6461 26.0751 58.6461 24.9493V20.9457C58.6461 20.8915 58.6244 20.8395 58.5858 20.8013C58.5473 20.7629 58.495 20.7414 58.4405 20.7414H56.8534C56.8264 20.7414 56.7998 20.7467 56.7749 20.7569C56.75 20.7672 56.7273 20.7823 56.7083 20.8013C56.6892 20.8202 56.6742 20.8428 56.6639 20.8676C56.6536 20.8924 56.6483 20.9188 56.6484 20.9457V25.092C56.6484 27.6322 58.5665 28.5337 60.2101 28.5337C61.8537 28.5337 63.7711 27.6322 63.7711 25.092V20.9457C63.7711 20.9188 63.7658 20.8923 63.7555 20.8674C63.7452 20.8427 63.7303 20.8201 63.7112 20.8011C63.6921 20.7822 63.6693 20.7671 63.6443 20.7569C63.6194 20.7466 63.5926 20.7413 63.5656 20.7414Z" fill="#4F4F4F"/>
<path d="M72.7719 20.7414H71.1926C71.1659 20.7413 71.1392 20.7466 71.1139 20.7568C71.0892 20.767 71.0666 20.7821 71.0475 20.8011C71.0283 20.8201 71.0132 20.8426 71.003 20.8674C70.9927 20.8922 70.9872 20.9187 70.9872 20.9456V21.2985C70.4163 20.7999 69.677 20.5338 68.9171 20.5534C66.7358 20.5534 65.0911 22.269 65.0911 24.5442C65.0911 26.8193 66.7358 28.5336 68.9171 28.5336C69.6756 28.5543 70.4149 28.2909 70.9872 27.7957V28.1418C70.9872 28.1686 70.9927 28.1951 71.003 28.2199C71.0132 28.2447 71.0283 28.2671 71.0475 28.286C71.0666 28.305 71.0892 28.32 71.1139 28.3302C71.1392 28.3404 71.1659 28.3457 71.1926 28.3457H72.7719C72.8266 28.3457 72.8793 28.3242 72.9177 28.286C72.956 28.2477 72.9779 28.196 72.9779 28.1418V20.9448C72.9779 20.8908 72.956 20.839 72.9177 20.8009C72.8787 20.7628 72.8266 20.7414 72.7719 20.7414ZM71.0851 24.5442C71.0851 25.7814 70.2712 26.6459 69.106 26.6459C67.9411 26.6459 67.1268 25.7814 67.1268 24.5442C67.1268 23.307 67.9403 22.4416 69.106 22.4416C70.2718 22.4416 71.0851 23.3061 71.0851 24.5442Z" fill="#4F4F4F"/>
<path d="M80.0591 20.7708C79.6463 20.6149 79.2075 20.5409 78.7659 20.5533C78.0731 20.5275 77.3954 20.7636 76.8711 21.2142V20.9455C76.8711 20.9187 76.8656 20.8921 76.8553 20.8673C76.845 20.8425 76.83 20.82 76.8108 20.801C76.7916 20.782 76.7691 20.767 76.7444 20.7567C76.7191 20.7465 76.6924 20.7412 76.6657 20.7412H75.1001C75.0453 20.7412 74.9933 20.7628 74.955 20.8011C74.9159 20.8394 74.8947 20.8914 74.8947 20.9455V28.1425C74.8947 28.1966 74.9166 28.2484 74.955 28.2866C74.9933 28.3248 75.0453 28.3464 75.1001 28.3464H76.6801C76.7341 28.3464 76.7868 28.3248 76.8252 28.2866C76.8635 28.2484 76.8854 28.1966 76.8854 28.1425V24.1837C76.8854 23.1187 77.4673 22.4577 78.4038 22.4577C78.7858 22.4567 79.1637 22.5384 79.5107 22.6973C79.5388 22.7118 79.5689 22.7198 79.6004 22.7205C79.6312 22.7214 79.662 22.7149 79.6908 22.7019C79.7188 22.689 79.7442 22.67 79.764 22.646C79.7839 22.6221 79.7982 22.594 79.8051 22.5639L80.1823 21.0092C80.1939 20.9614 80.1878 20.9108 80.1652 20.867C80.1426 20.8232 80.1049 20.789 80.0591 20.7708Z" fill="#4F4F4F"/>
<path d="M86.546 26.2704C86.533 26.2448 86.5152 26.2223 86.4933 26.2041C86.4707 26.1859 86.4453 26.1725 86.418 26.1648C86.3899 26.1565 86.3598 26.1543 86.331 26.1585C86.3023 26.1627 86.2749 26.173 86.2502 26.1889C85.8504 26.4591 85.3843 26.6173 84.901 26.6465C84.2842 26.6465 83.9576 26.2521 83.9576 25.5058V22.5775H86.279C86.3338 22.5775 86.3858 22.556 86.4241 22.5177C86.4631 22.4794 86.4844 22.4274 86.4844 22.3732V20.9462C86.4844 20.892 86.4631 20.8401 86.4241 20.8018C86.3858 20.7635 86.3338 20.742 86.279 20.742H83.9576V18.7677C83.9576 18.7135 83.9357 18.6616 83.8974 18.6232C83.8591 18.5849 83.8063 18.5633 83.7523 18.5633H82.1648C82.1107 18.5635 82.0587 18.5851 82.0196 18.6234C81.9813 18.6617 81.9594 18.7135 81.9594 18.7677V20.742H81.1386C81.0838 20.742 81.0318 20.7635 80.9935 20.8018C80.9545 20.8401 80.9332 20.892 80.9332 20.9462V22.3732C80.9332 22.4274 80.9545 22.4794 80.9935 22.5177C81.0318 22.556 81.0838 22.5775 81.1386 22.5775H81.9594V25.5357C81.9594 27.4972 82.9301 28.5343 84.764 28.5343C85.6026 28.5293 86.4186 28.2679 87.1018 27.7855C87.1429 27.758 87.173 27.7164 87.186 27.6686C87.1984 27.6207 87.1929 27.5698 87.171 27.5256L86.546 26.2704Z" fill="#4F4F4F"/>
<path d="M91.3892 20.5533C89.1446 20.5533 87.5797 22.1945 87.5797 24.5441C87.5797 26.8938 89.187 28.5337 91.4892 28.5337C92.6235 28.5801 93.7346 28.2005 94.6005 27.4704C94.6396 27.4374 94.6642 27.3913 94.6711 27.3411C94.6772 27.2908 94.6649 27.24 94.6361 27.1983L93.8496 26.0796C93.8331 26.0569 93.8126 26.0375 93.7886 26.0229C93.7654 26.0082 93.7387 25.9984 93.7106 25.9943C93.6832 25.9903 93.6545 25.992 93.6271 25.9991C93.6004 26.0063 93.5751 26.0188 93.5525 26.036C92.9939 26.4809 92.3031 26.7314 91.5878 26.7493C91.151 26.7786 90.7191 26.6507 90.3699 26.3891C90.0208 26.1275 89.7778 25.7499 89.6861 25.325H94.7854C94.8367 25.3249 94.886 25.3057 94.9243 25.2711C94.962 25.2364 94.9853 25.1888 94.9901 25.1378C95.0058 24.9527 95.0202 24.7438 95.0202 24.5345C95.0113 22.1907 93.5189 20.5533 91.3892 20.5533ZM89.6888 23.7233C89.7511 23.3324 89.9558 22.9779 90.2631 22.7265C90.5705 22.4752 90.9607 22.3445 91.3584 22.3592C92.1813 22.3592 92.7399 22.8409 92.9466 23.7233H89.6888Z" fill="#4F4F4F"/>
<path d="M101.577 20.7708C101.165 20.6148 100.726 20.5409 100.285 20.5533C99.5917 20.5275 98.914 20.7636 98.3889 21.2142V20.9455C98.3889 20.8914 98.367 20.8394 98.3287 20.8011C98.2904 20.7628 98.2376 20.7412 98.1836 20.7412H96.618C96.5639 20.7412 96.5112 20.7628 96.4728 20.8011C96.4338 20.8394 96.4126 20.8914 96.4126 20.9455V28.1425C96.4126 28.1966 96.4345 28.2484 96.4728 28.2866C96.5112 28.3248 96.5639 28.3464 96.618 28.3464H98.1979C98.2527 28.3464 98.3047 28.3249 98.3431 28.2866C98.3814 28.2484 98.4033 28.1966 98.4033 28.1425V24.1837C98.4033 23.1187 98.9852 22.4577 99.9224 22.4577C100.304 22.4564 100.682 22.5382 101.028 22.6973C101.056 22.7118 101.087 22.7198 101.118 22.7205C101.149 22.7214 101.18 22.715 101.209 22.7019C101.237 22.689 101.262 22.67 101.282 22.646C101.302 22.6221 101.316 22.594 101.323 22.5639L101.7 21.0092C101.712 20.9614 101.706 20.9109 101.684 20.8671C101.66 20.8233 101.623 20.789 101.577 20.7708Z" fill="#4F4F4F"/>
</g>
<defs>
<clipPath id="clip0_5828_8485">
<rect width="102" height="32" fill="white"/>
</clipPath>
</defs>
</svg>
