<svg width="95" height="30" viewBox="0 0 95 30" fill="none" xmlns="http://www.w3.org/2000/svg">
<g id="Techq logo" clip-path="url(#clip0_5828_7610)">
<path id="Vector" d="M29.9633 14.9983C29.9664 17.1253 29.516 19.2285 28.6421 21.1673L22.4805 14.9983L28.6359 8.83594C29.5154 10.7707 29.9682 12.8725 29.9633 14.9983Z" fill="#FBAE17"/>
<path id="Vector_2" d="M21.1365 1.32479L1.32142 21.1624C0.443927 19.227 -0.00676253 17.1251 7.66882e-05 14.9996C-0.000419329 13.0297 0.386808 11.0791 1.13962 9.25896C1.89243 7.43885 2.99608 5.78507 4.38751 4.39212C5.77895 2.99917 7.43091 1.89431 9.24898 1.14071C11.0671 0.38711 13.0156 -0.000554465 14.9834 4.15202e-06C17.1052 -0.00157994 19.2029 0.45013 21.1365 1.32479Z" fill="#F05B40"/>
<path id="Vector_3" d="M28.634 8.83773C27.1352 5.50111 24.4682 2.82918 21.1364 1.32617L1.32129 21.1638C2.82261 24.4993 5.49162 27.1694 8.82454 28.6699L28.634 8.83773Z" fill="#F6921E"/>
<path id="Vector_4" d="M22.4618 29.9993H14.9826C12.8591 30.0033 10.7597 29.5491 8.82715 28.6678L14.9826 22.5117L22.4618 29.9993Z" fill="#FBAE17"/>
<path id="Vector_5" d="M33.9183 30.0001H22.4625L10.0567 17.5799C9.84579 17.3685 9.70227 17.0993 9.64412 16.8062C9.58604 16.5131 9.61594 16.2094 9.7302 15.9333C9.84439 15.6573 10.0378 15.4212 10.2859 15.2551C10.5339 15.089 10.8256 15.0003 11.1241 15H22.4814L28.6434 21.169L34.9613 27.4878C35.1667 27.694 35.3064 27.9564 35.3627 28.2421C35.4191 28.5278 35.3897 28.8237 35.2781 29.0926C35.1664 29.3615 34.9777 29.5913 34.7357 29.7528C34.4936 29.9143 34.2092 30.0004 33.9183 30.0001Z" fill="#FFC132"/>
<path id="Vector_6" d="M43.9567 9.62492H44.7209V12.3983C44.7209 14.2375 45.6244 15.2098 47.3334 15.2098C48.1139 15.205 48.874 14.9599 49.5103 14.5079C49.5488 14.482 49.5766 14.4429 49.5883 14.3981C49.6002 14.3532 49.5954 14.3056 49.5746 14.2641L48.9898 13.0878C48.9779 13.0639 48.9609 13.0427 48.9403 13.0256C48.9196 13.0085 48.8958 12.996 48.87 12.9888C48.8439 12.9815 48.8165 12.9798 48.7897 12.9836C48.7629 12.9875 48.7371 12.9969 48.7141 13.0113C48.3417 13.265 47.9075 13.4133 47.4577 13.4404C46.883 13.4404 46.5789 13.0707 46.5789 12.3714V9.62569H48.7413C48.792 9.62569 48.8407 9.60558 48.8765 9.56971C48.9123 9.5339 48.9323 9.48526 48.9323 9.43458V8.09652C48.9323 8.04578 48.9123 7.99714 48.8765 7.9612C48.8407 7.92533 48.7921 7.90503 48.7413 7.9049H46.5789V6.05438C46.5789 6.0037 46.5587 5.95511 46.5229 5.91927C46.4871 5.88343 46.4384 5.86328 46.3877 5.86328H44.9088C44.8581 5.86328 44.8095 5.88334 44.7736 5.91917C44.7377 5.955 44.7176 6.00366 44.7175 6.05438V7.9049H43.9531C43.9023 7.90503 43.8538 7.92533 43.8179 7.9612C43.782 7.99707 43.7618 8.04578 43.7617 8.09652V9.43458C43.7619 9.45992 43.7671 9.48495 43.777 9.50831C43.7869 9.53161 43.8013 9.5528 43.8194 9.57048C43.8376 9.58816 43.8591 9.6022 43.8826 9.61152C43.9062 9.62084 43.9314 9.62544 43.9567 9.62492Z" fill="white"/>
<path id="Vector_7" d="M53.5926 15.2085C54.6495 15.2519 55.6841 14.8961 56.4908 14.2117C56.5268 14.1807 56.5501 14.1376 56.5561 14.0905C56.5622 14.0433 56.5506 13.9956 56.5236 13.9565L55.7914 12.9074C55.7762 12.8861 55.7571 12.8681 55.7348 12.8543C55.7125 12.8406 55.6877 12.8315 55.6619 12.8275C55.636 12.8229 55.6094 12.8241 55.584 12.8308C55.5586 12.8375 55.5351 12.8497 55.5149 12.8665C54.9944 13.2838 54.3513 13.5188 53.6845 13.5355C53.2782 13.5628 52.8756 13.4429 52.5504 13.1978C52.2251 12.9526 51.9989 12.5986 51.9131 12.2004H56.662C56.7098 12.2004 56.7558 12.1824 56.7911 12.15C56.8263 12.1177 56.8481 12.0733 56.8522 12.0256C56.8682 11.8513 56.8815 11.6559 56.8815 11.4598C56.8749 9.26167 55.4849 7.72656 53.5013 7.72656C51.411 7.72656 49.9531 9.2648 49.9531 11.4676C49.9531 13.6704 51.4484 15.2085 53.5926 15.2085ZM51.9179 10.6984C51.9762 10.332 52.1664 9.99973 52.4529 9.76414C52.7394 9.52854 53.1022 9.40599 53.4728 9.41965C54.239 9.41965 54.7595 9.87163 54.9517 10.6984H51.9179Z" fill="white"/>
<path id="Vector_8" d="M61.436 15.208C61.9367 15.223 62.4346 15.1284 62.895 14.9308C63.3553 14.7332 63.767 14.4372 64.1011 14.0638C64.1311 14.0285 64.1477 13.9835 64.147 13.9371C64.1464 13.8907 64.1292 13.8461 64.0986 13.8114L63.1906 12.7974C63.1559 12.7592 63.1075 12.7363 63.056 12.7337C63.0052 12.7344 62.9562 12.7526 62.9172 12.7853C62.5102 13.1881 61.9654 13.4214 61.3929 13.4378C60.3499 13.4378 59.5921 12.6094 59.5921 11.4675C59.5921 10.3255 60.3499 9.49675 61.3929 9.49675C61.6717 9.49828 61.9474 9.55611 62.2032 9.66698C62.4591 9.77785 62.69 9.93934 62.8818 10.1417C62.9193 10.1756 62.968 10.1942 63.0185 10.194C63.0693 10.192 63.1174 10.1702 63.1523 10.1332L64.0954 9.12615C64.1273 9.09187 64.1458 9.04719 64.147 9.00047C64.1477 8.95375 64.1324 8.90824 64.1024 8.8723C63.7702 8.49609 63.3586 8.19813 62.8976 8C62.4366 7.80187 61.9374 7.70849 61.436 7.72649C60.9387 7.70345 60.4422 7.78445 59.978 7.96432C59.5138 8.14419 59.0922 8.41904 58.7403 8.77107C58.3883 9.12315 58.1138 9.54481 57.934 10.0091C57.7542 10.4734 57.6731 10.9701 57.6962 11.4675C57.6732 11.9648 57.7542 12.4614 57.934 12.9256C58.1138 13.3899 58.3885 13.8115 58.7405 14.1635C59.0924 14.5156 59.5138 14.7903 59.978 14.9701C60.4421 15.15 60.9388 15.231 61.436 15.208Z" fill="white"/>
<path id="Vector_9" d="M70.0641 14.8423C70.0641 14.893 70.0839 14.9416 70.1196 14.9774C70.1559 15.0133 70.2044 15.0334 70.2547 15.0334H71.7339C71.7849 15.0334 71.8334 15.0133 71.8691 14.9774C71.9054 14.9416 71.9252 14.893 71.9252 14.8423V10.6025C71.9392 10.2164 71.8729 9.83173 71.7295 9.47281C71.5866 9.11396 71.3705 8.78888 71.0944 8.51837C70.819 8.24785 70.49 8.03779 70.1285 7.90177C69.767 7.76568 69.3806 7.70658 68.9949 7.72815C68.3127 7.70639 67.647 7.9432 67.1312 8.39115V4.7032C67.1312 4.65244 67.1108 4.60379 67.0751 4.5679C67.0394 4.532 66.9903 4.51182 66.9399 4.51172H65.4607C65.4104 4.51182 65.3613 4.532 65.3256 4.5679C65.2899 4.60379 65.2695 4.65244 65.2695 4.7032V14.8434C65.2695 14.8942 65.2899 14.9428 65.3256 14.9787C65.3619 15.0145 65.4104 15.0346 65.4607 15.0346H66.9399C66.9903 15.0346 67.0394 15.0145 67.0751 14.9787C67.1108 14.9428 67.1312 14.8942 67.1312 14.8434V11.1041C67.1146 10.894 67.1427 10.6828 67.2147 10.4847C67.2861 10.2866 67.3996 10.106 67.5469 9.9553C67.6942 9.8046 67.8721 9.68728 68.0685 9.61107C68.2648 9.53492 68.4752 9.5016 68.6856 9.5136C69.5738 9.5136 70.0641 10.0733 70.0641 11.09V14.8423Z" fill="white"/>
<path id="Vector_10" d="M50.8544 19.4448H49.3829C49.3321 19.4448 49.2835 19.4649 49.2476 19.5009C49.2117 19.5368 49.1914 19.5855 49.1914 19.6363V19.967C48.6596 19.4995 47.9711 19.25 47.2633 19.2685C45.2322 19.2685 43.7002 20.8769 43.7002 23.0099C43.7002 25.1429 45.2322 26.75 47.2633 26.75C47.97 26.7696 48.6582 26.5226 49.1914 26.0582V29.1997C49.1915 29.2504 49.2119 29.2991 49.2477 29.3349C49.2836 29.3708 49.3322 29.3908 49.3829 29.3908H50.8544C50.9051 29.3908 50.9537 29.3708 50.9896 29.3349C51.0255 29.2991 51.0459 29.2504 51.0459 29.1997V19.6363C51.0459 19.5855 51.0257 19.5368 50.9898 19.5009C50.9539 19.4649 50.9052 19.4448 50.8544 19.4448ZM49.2828 23.0099C49.2828 24.1698 48.5252 24.9802 47.4392 24.9802C46.3533 24.9802 45.5961 24.1698 45.5961 23.0099C45.5961 21.85 46.3541 21.0387 47.4392 21.0387C48.5243 21.0387 49.2828 21.8492 49.2828 23.0099Z" fill="white"/>
<path id="Vector_11" d="M59.2033 19.4453H57.7251C57.6744 19.4454 57.6258 19.4657 57.5899 19.5016C57.5541 19.5375 57.5339 19.5861 57.5339 19.6368V23.3902C57.5339 24.4456 57.0442 24.9808 56.078 24.9808C55.1118 24.9808 54.6214 24.4456 54.6214 23.3902V19.6368C54.6214 19.586 54.6011 19.5373 54.5652 19.5014C54.5293 19.4655 54.4806 19.4453 54.4299 19.4453H52.9517C52.9266 19.4453 52.9018 19.4503 52.8786 19.4599C52.8554 19.4695 52.8343 19.4836 52.8165 19.5014C52.7987 19.5192 52.7848 19.5404 52.7752 19.5636C52.7656 19.5868 52.7607 19.6117 52.7607 19.6368V23.524C52.7607 25.9055 54.5473 26.7506 56.078 26.7506C57.6089 26.7506 59.3946 25.9055 59.3946 23.524V19.6368C59.3947 19.6117 59.3897 19.5868 59.3801 19.5635C59.3705 19.5402 59.3566 19.5191 59.3388 19.5013C59.321 19.4835 59.2998 19.4694 59.2765 19.4598C59.2533 19.4502 59.2284 19.4452 59.2033 19.4453Z" fill="white"/>
<path id="Vector_12" d="M67.7777 19.4448H66.3068C66.2819 19.4447 66.2571 19.4496 66.2335 19.4593C66.2105 19.4688 66.1895 19.4829 66.1716 19.5007C66.1538 19.5185 66.1398 19.5397 66.1302 19.5629C66.1206 19.5861 66.1155 19.611 66.1155 19.6363V19.967C65.5838 19.4996 64.8952 19.2501 64.1875 19.2685C62.1559 19.2685 60.624 20.8769 60.624 23.0099C60.624 25.1428 62.1559 26.75 64.1875 26.75C64.8939 26.7694 65.5825 26.5225 66.1155 26.0582V26.3827C66.1155 26.4078 66.1206 26.4327 66.1302 26.4559C66.1398 26.4791 66.1538 26.5001 66.1716 26.5179C66.1895 26.5356 66.2105 26.5497 66.2335 26.5593C66.2571 26.5689 66.2819 26.5738 66.3068 26.5738H67.7777C67.8287 26.5738 67.8778 26.5536 67.9135 26.5178C67.9492 26.4819 67.9696 26.4334 67.9696 26.3827V19.6355C67.9696 19.5848 67.9492 19.5363 67.9135 19.5005C67.8772 19.4648 67.8287 19.4448 67.7777 19.4448ZM66.2067 23.0099C66.2067 24.1698 65.4486 24.9802 64.3635 24.9802C63.2785 24.9802 62.5201 24.1698 62.5201 23.0099C62.5201 21.85 63.2777 21.0387 64.3635 21.0387C65.4493 21.0387 66.2067 21.8492 66.2067 23.0099Z" fill="white"/>
<path id="Vector_13" d="M74.5648 19.4713C74.1804 19.3252 73.7717 19.2559 73.3604 19.2674C72.7152 19.2433 72.084 19.4646 71.5956 19.8871V19.6351C71.5956 19.61 71.5905 19.5851 71.5809 19.5619C71.5714 19.5386 71.5573 19.5174 71.5395 19.4997C71.5216 19.4819 71.5006 19.4678 71.4776 19.4581C71.454 19.4486 71.4292 19.4436 71.4043 19.4436H69.9462C69.8952 19.4436 69.8467 19.4638 69.811 19.4997C69.7746 19.5357 69.7549 19.5844 69.7549 19.6351V26.3823C69.7549 26.4331 69.7753 26.4816 69.811 26.5175C69.8467 26.5533 69.8952 26.5734 69.9462 26.5734H71.4177C71.4681 26.5734 71.5172 26.5533 71.5529 26.5175C71.5886 26.4816 71.609 26.4331 71.609 26.3823V22.6709C71.609 21.6725 72.1509 21.0529 73.0231 21.0529C73.3789 21.0518 73.7309 21.1285 74.0541 21.2775C74.0803 21.291 74.1083 21.2985 74.1376 21.2992C74.1663 21.3 74.195 21.2939 74.2218 21.2817C74.2479 21.2697 74.2715 21.2518 74.29 21.2293C74.3085 21.2069 74.3219 21.1806 74.3283 21.1524L74.6796 19.6949C74.6904 19.65 74.6847 19.6026 74.6636 19.5615C74.6426 19.5204 74.6075 19.4884 74.5648 19.4713Z" fill="white"/>
<path id="Vector_14" d="M80.6065 24.6277C80.5943 24.6037 80.5778 24.5826 80.5574 24.5655C80.5363 24.5485 80.5127 24.5359 80.4872 24.5287C80.4611 24.521 80.433 24.5189 80.4063 24.5228C80.3795 24.5267 80.354 24.5364 80.331 24.5513C79.9587 24.8046 79.5245 24.9529 79.0743 24.9803C78.4999 24.9803 78.1958 24.6106 78.1958 23.9109V21.1656H80.3578C80.4088 21.1656 80.4573 21.1455 80.493 21.1095C80.5293 21.0736 80.5491 21.0249 80.5491 20.9741V19.6363C80.5491 19.5855 80.5293 19.5368 80.493 19.5009C80.4573 19.465 80.4088 19.4448 80.3578 19.4448H78.1958V17.5939C78.1958 17.5432 78.1754 17.4944 78.1396 17.4585C78.1039 17.4226 78.0548 17.4023 78.0045 17.4023H76.5259C76.4756 17.4025 76.4271 17.4227 76.3908 17.4586C76.3551 17.4945 76.3346 17.5432 76.3346 17.5939V19.4448H75.5702C75.5192 19.4448 75.4707 19.465 75.435 19.5009C75.3987 19.5368 75.3789 19.5855 75.3789 19.6363V20.9741C75.3789 21.0249 75.3987 21.0736 75.435 21.1095C75.4707 21.1455 75.5192 21.1656 75.5702 21.1656H76.3346V23.9389C76.3346 25.7778 77.2387 26.7501 78.9468 26.7501C79.7279 26.7454 80.4879 26.5004 81.1242 26.0482C81.1624 26.0224 81.1905 25.9834 81.2026 25.9385C81.2141 25.8936 81.209 25.8459 81.1886 25.8045L80.6065 24.6277Z" fill="white"/>
<path id="Vector_15" d="M85.1175 19.2695C83.0269 19.2695 81.5693 20.8081 81.5693 23.0109C81.5693 25.2137 83.0664 26.7511 85.2106 26.7511C86.2671 26.7946 87.3019 26.4388 88.1084 25.7543C88.1447 25.7234 88.1677 25.6801 88.1741 25.633C88.1798 25.5859 88.1683 25.5383 88.1416 25.4992L87.409 24.4504C87.3937 24.4291 87.3745 24.411 87.3522 24.3972C87.3305 24.3834 87.3057 24.3743 87.2795 24.3704C87.254 24.3667 87.2273 24.3683 87.2018 24.375C87.1769 24.3817 87.1533 24.3934 87.1323 24.4095C86.612 24.8266 85.9687 25.0615 85.3024 25.0783C84.8956 25.1057 84.4933 24.9858 84.1681 24.7406C83.843 24.4953 83.6166 24.1413 83.5312 23.743H88.2805C88.3284 23.7429 88.3743 23.7249 88.41 23.6924C88.445 23.6599 88.4667 23.6153 88.4712 23.5675C88.4858 23.394 88.4992 23.1981 88.4992 23.0019C88.4909 20.8046 87.101 19.2695 85.1175 19.2695ZM83.5337 22.2414C83.5918 21.8749 83.7824 21.5426 84.0687 21.3069C84.3549 21.0713 84.7184 20.9488 85.0888 20.9626C85.8552 20.9626 86.3754 21.4141 86.568 22.2414H83.5337Z" fill="white"/>
<path id="Vector_16" d="M94.6058 19.4713C94.222 19.3251 93.8133 19.2559 93.4027 19.2674C92.7568 19.2433 92.1256 19.4646 91.6366 19.8871V19.6351C91.6366 19.5844 91.6162 19.5357 91.5805 19.4997C91.5448 19.4638 91.4957 19.4436 91.4453 19.4436H89.9872C89.9368 19.4436 89.8877 19.4638 89.852 19.4997C89.8157 19.5357 89.7959 19.5844 89.7959 19.6351V26.3823C89.7959 26.4331 89.8163 26.4816 89.852 26.5175C89.8877 26.5533 89.9368 26.5734 89.9872 26.5734H91.4587C91.5097 26.5734 91.5582 26.5533 91.5939 26.5175C91.6296 26.4816 91.65 26.433 91.65 26.3823V22.6709C91.65 21.6725 92.1919 21.0529 93.0648 21.0529C93.4206 21.0516 93.7719 21.1283 94.0945 21.2775C94.1206 21.291 94.1493 21.2985 94.178 21.2992C94.2073 21.3 94.236 21.294 94.2628 21.2817C94.2889 21.2697 94.3125 21.2518 94.331 21.2293C94.3495 21.2069 94.3629 21.1806 94.3693 21.1524L94.7206 19.6949C94.7314 19.65 94.7263 19.6027 94.7053 19.5617C94.6836 19.5206 94.6486 19.4885 94.6058 19.4713Z" fill="white"/>
</g>
<defs>
<clipPath id="clip0_5828_7610">
<rect width="95" height="30" fill="white"/>
</clipPath>
</defs>
</svg>
