<svg width="184" height="26" viewBox="0 0 184 26" fill="none" xmlns="http://www.w3.org/2000/svg">
<path d="M33.6974 13.9276V20H31.255V9.63636H33.5895V11.3974H33.7109C33.9493 10.8171 34.3294 10.3561 34.8512 10.0142C35.3775 9.67235 36.0275 9.50142 36.8011 9.50142C37.5163 9.50142 38.1393 9.65436 38.6701 9.96023C39.2054 10.2661 39.6192 10.7092 39.9116 11.2894C40.2085 11.8697 40.3546 12.5736 40.3501 13.4013V20H37.9077V13.7791C37.9077 13.0864 37.7277 12.5444 37.3679 12.1531C37.0125 11.7617 36.52 11.5661 35.8903 11.5661C35.4629 11.5661 35.0829 11.6605 34.75 11.8494C34.4216 12.0339 34.163 12.3015 33.9741 12.6523C33.7897 13.0032 33.6974 13.4283 33.6974 13.9276ZM45.2453 20.2092C44.5886 20.2092 43.9971 20.0922 43.4708 19.8583C42.9491 19.6199 42.5352 19.2691 42.2294 18.8058C41.928 18.3424 41.7773 17.7712 41.7773 17.092C41.7773 16.5072 41.8853 16.0237 42.1012 15.6413C42.3171 15.259 42.6117 14.9531 42.985 14.7237C43.3584 14.4943 43.779 14.3211 44.2468 14.2042C44.7191 14.0827 45.2071 13.995 45.7109 13.9411C46.3181 13.8781 46.8107 13.8219 47.1885 13.7724C47.5664 13.7184 47.8407 13.6374 48.0117 13.5295C48.1871 13.417 48.2748 13.2438 48.2748 13.0099V12.9695C48.2748 12.4612 48.1241 12.0676 47.8228 11.7887C47.5214 11.5098 47.0873 11.3704 46.5206 11.3704C45.9223 11.3704 45.4478 11.5008 45.0969 11.7617C44.7505 12.0226 44.5166 12.3307 44.3952 12.6861L42.1147 12.3622C42.2946 11.7325 42.5915 11.2062 43.0053 10.7834C43.4191 10.3561 43.9251 10.0367 44.5234 9.82528C45.1216 9.60938 45.7829 9.50142 46.5071 9.50142C47.0064 9.50142 47.5034 9.5599 47.9982 9.67685C48.493 9.7938 48.945 9.98722 49.3544 10.2571C49.7637 10.5225 50.0921 10.8846 50.3394 11.3434C50.5913 11.8022 50.7173 12.3757 50.7173 13.0639V20H48.3693V18.5763H48.2883C48.1399 18.8642 47.9307 19.1341 47.6608 19.386C47.3954 19.6334 47.0603 19.8336 46.6555 19.9865C46.2552 20.1349 45.7851 20.2092 45.2453 20.2092ZM45.8796 18.4144C46.3699 18.4144 46.7949 18.3177 47.1548 18.1243C47.5146 17.9264 47.7913 17.6655 47.9847 17.3416C48.1826 17.0178 48.2816 16.6647 48.2816 16.2823V15.0611C48.2051 15.1241 48.0747 15.1825 47.8902 15.2365C47.7103 15.2905 47.5079 15.3377 47.283 15.3782C47.0581 15.4187 46.8354 15.4547 46.615 15.4862C46.3946 15.5176 46.2034 15.5446 46.0415 15.5671C45.6772 15.6166 45.351 15.6976 45.0632 15.81C44.7753 15.9225 44.5481 16.0799 44.3817 16.2823C44.2153 16.4802 44.1321 16.7366 44.1321 17.0515C44.1321 17.5013 44.2962 17.8409 44.6246 18.0703C44.953 18.2997 45.3713 18.4144 45.8796 18.4144ZM57.7783 9.63636V11.5256H51.8206V9.63636H57.7783ZM53.2915 7.15341H55.7339V16.8828C55.7339 17.2112 55.7834 17.4631 55.8824 17.6385C55.9858 17.8094 56.1208 17.9264 56.2872 17.9893C56.4536 18.0523 56.6381 18.0838 56.8405 18.0838C56.9934 18.0838 57.1328 18.0726 57.2588 18.0501C57.3892 18.0276 57.4882 18.0073 57.5557 17.9893L57.9672 19.8988C57.8368 19.9438 57.6501 19.9933 57.4072 20.0472C57.1688 20.1012 56.8765 20.1327 56.5301 20.1417C55.9184 20.1597 55.3673 20.0675 54.877 19.8651C54.3868 19.6581 53.9977 19.3388 53.7098 18.907C53.4264 18.4751 53.287 17.9354 53.2915 17.2876V7.15341ZM65.8565 15.6413V9.63636H68.299V20H65.9307V18.158H65.8228C65.5889 18.7383 65.2043 19.2128 64.669 19.5817C64.1382 19.9505 63.4837 20.1349 62.7056 20.1349C62.0264 20.1349 61.4259 19.9843 60.9041 19.6829C60.3868 19.377 59.982 18.9339 59.6896 18.3537C59.3972 17.7689 59.251 17.0627 59.251 16.2351V9.63636H61.6935V15.8572C61.6935 16.514 61.8734 17.0357 62.2333 17.4226C62.5931 17.8094 63.0654 18.0028 63.6502 18.0028C64.01 18.0028 64.3586 17.9151 64.696 17.7397C65.0333 17.5643 65.31 17.3034 65.5259 16.957C65.7463 16.6062 65.8565 16.1676 65.8565 15.6413ZM70.2406 20V9.63636H72.6089V11.3636H72.7168C72.9057 10.7654 73.2296 10.3043 73.6884 9.98047C74.1517 9.65211 74.6802 9.48793 75.274 9.48793C75.4089 9.48793 75.5596 9.49467 75.726 9.50817C75.897 9.51716 76.0387 9.53291 76.1511 9.5554V11.8022C76.0477 11.7662 75.8835 11.7347 75.6586 11.7077C75.4382 11.6763 75.2245 11.6605 75.0176 11.6605C74.5723 11.6605 74.1719 11.7572 73.8166 11.9506C73.4657 12.1396 73.1891 12.4027 72.9867 12.7401C72.7843 13.0774 72.6831 13.4665 72.6831 13.9073V20H70.2406ZM80.0005 20.2092C79.3438 20.2092 78.7523 20.0922 78.226 19.8583C77.7042 19.6199 77.2904 19.2691 76.9845 18.8058C76.6831 18.3424 76.5325 17.7712 76.5325 17.092C76.5325 16.5072 76.6404 16.0237 76.8563 15.6413C77.0722 15.259 77.3669 14.9531 77.7402 14.7237C78.1135 14.4943 78.5341 14.3211 79.0019 14.2042C79.4742 14.0827 79.9623 13.995 80.4661 13.9411C81.0733 13.8781 81.5658 13.8219 81.9437 13.7724C82.3215 13.7184 82.5959 13.6374 82.7668 13.5295C82.9423 13.417 83.03 13.2438 83.03 13.0099V12.9695C83.03 12.4612 82.8793 12.0676 82.5779 11.7887C82.2765 11.5098 81.8425 11.3704 81.2757 11.3704C80.6775 11.3704 80.2029 11.5008 79.8521 11.7617C79.5057 12.0226 79.2718 12.3307 79.1504 12.6861L76.8698 12.3622C77.0497 11.7325 77.3466 11.2062 77.7604 10.7834C78.1743 10.3561 78.6803 10.0367 79.2786 9.82528C79.8768 9.60938 80.538 9.50142 81.2622 9.50142C81.7615 9.50142 82.2585 9.5599 82.7533 9.67685C83.2481 9.7938 83.7002 9.98722 84.1095 10.2571C84.5188 10.5225 84.8472 10.8846 85.0946 11.3434C85.3465 11.8022 85.4724 12.3757 85.4724 13.0639V20H83.1244V18.5763H83.0435C82.895 18.8642 82.6859 19.1341 82.416 19.386C82.1506 19.6334 81.8155 19.8336 81.4107 19.9865C81.0103 20.1349 80.5403 20.2092 80.0005 20.2092ZM80.6347 18.4144C81.125 18.4144 81.5501 18.3177 81.9099 18.1243C82.2698 17.9264 82.5464 17.6655 82.7398 17.3416C82.9378 17.0178 83.0367 16.6647 83.0367 16.2823V15.0611C82.9603 15.1241 82.8298 15.1825 82.6454 15.2365C82.4655 15.2905 82.263 15.3377 82.0381 15.3782C81.8132 15.4187 81.5906 15.4547 81.3702 15.4862C81.1498 15.5176 80.9586 15.5446 80.7967 15.5671C80.4323 15.6166 80.1062 15.6976 79.8183 15.81C79.5304 15.9225 79.3033 16.0799 79.1369 16.2823C78.9704 16.4802 78.8872 16.7366 78.8872 17.0515C78.8872 17.5013 79.0514 17.8409 79.3798 18.0703C79.7081 18.2997 80.1264 18.4144 80.6347 18.4144ZM89.8009 6.18182V20H87.3584V6.18182H89.8009Z" fill="#8BC63E"/>
<path d="M96.2631 20.2024C95.2285 20.2024 94.3402 19.9753 93.598 19.521C92.8603 19.0666 92.2913 18.4392 91.8909 17.6385C91.4951 16.8333 91.2972 15.9067 91.2972 14.8587C91.2972 13.8061 91.4996 12.8772 91.9044 12.0721C92.3093 11.2624 92.8805 10.6327 93.6182 10.1829C94.3604 9.72857 95.2375 9.50142 96.2496 9.50142C97.0908 9.50142 97.8352 9.65661 98.4829 9.96697C99.1351 10.2728 99.6547 10.7069 100.042 11.2692C100.428 11.8269 100.649 12.4792 100.703 13.2259H98.3682C98.2738 12.7266 98.0489 12.3105 97.6935 11.9776C97.3427 11.6403 96.8726 11.4716 96.2833 11.4716C95.7841 11.4716 95.3455 11.6065 94.9677 11.8764C94.5898 12.1418 94.2952 12.5241 94.0838 13.0234C93.8769 13.5227 93.7734 14.121 93.7734 14.8182C93.7734 15.5244 93.8769 16.1316 94.0838 16.6399C94.2907 17.1437 94.5808 17.5328 94.9542 17.8072C95.332 18.0771 95.7751 18.212 96.2833 18.212C96.6432 18.212 96.9648 18.1445 97.2482 18.0096C97.5361 17.8701 97.7767 17.67 97.9701 17.4091C98.1636 17.1482 98.2962 16.8311 98.3682 16.4577H100.703C100.644 17.1909 100.428 17.8409 100.055 18.4077C99.6817 18.9699 99.1734 19.4107 98.5302 19.7301C97.8869 20.045 97.1312 20.2024 96.2631 20.2024ZM106.659 20.2024C105.647 20.2024 104.77 19.9798 104.028 19.5344C103.285 19.0891 102.71 18.4661 102.3 17.6655C101.895 16.8648 101.693 15.9292 101.693 14.8587C101.693 13.7881 101.895 12.8503 102.3 12.0451C102.71 11.2399 103.285 10.6147 104.028 10.1694C104.77 9.72408 105.647 9.50142 106.659 9.50142C107.671 9.50142 108.548 9.72408 109.29 10.1694C110.033 10.6147 110.606 11.2399 111.011 12.0451C111.42 12.8503 111.625 13.7881 111.625 14.8587C111.625 15.9292 111.42 16.8648 111.011 17.6655C110.606 18.4661 110.033 19.0891 109.29 19.5344C108.548 19.9798 107.671 20.2024 106.659 20.2024ZM106.672 18.2457C107.221 18.2457 107.68 18.0951 108.049 17.7937C108.418 17.4878 108.692 17.0785 108.872 16.5657C109.056 16.0529 109.149 15.4817 109.149 14.8519C109.149 14.2177 109.056 13.6442 108.872 13.1314C108.692 12.6141 108.418 12.2025 108.049 11.8967C107.68 11.5908 107.221 11.4379 106.672 11.4379C106.11 11.4379 105.642 11.5908 105.269 11.8967C104.9 12.2025 104.624 12.6141 104.439 13.1314C104.259 13.6442 104.169 14.2177 104.169 14.8519C104.169 15.4817 104.259 16.0529 104.439 16.5657C104.624 17.0785 104.9 17.4878 105.269 17.7937C105.642 18.0951 106.11 18.2457 106.672 18.2457ZM113.128 20V9.63636H115.462V11.3974H115.584C115.8 10.8036 116.157 10.3403 116.657 10.0075C117.156 9.6701 117.752 9.50142 118.445 9.50142C119.146 9.50142 119.738 9.67235 120.219 10.0142C120.705 10.3516 121.047 10.8126 121.245 11.3974H121.353C121.582 10.8216 121.969 10.3628 122.513 10.021C123.062 9.6746 123.712 9.50142 124.463 9.50142C125.417 9.50142 126.195 9.80279 126.798 10.4055C127.4 11.0083 127.702 11.8877 127.702 13.0437V20H125.253V13.4215C125.253 12.7783 125.082 12.3082 124.74 12.0114C124.398 11.71 123.98 11.5593 123.485 11.5593C122.896 11.5593 122.434 11.7437 122.102 12.1126C121.773 12.4769 121.609 12.9515 121.609 13.5362V20H119.214V13.3203C119.214 12.785 119.052 12.3577 118.728 12.0384C118.409 11.719 117.99 11.5593 117.473 11.5593C117.122 11.5593 116.803 11.6493 116.515 11.8292C116.227 12.0046 115.998 12.2543 115.827 12.5781C115.656 12.8975 115.57 13.2708 115.57 13.6982V20H113.128ZM129.61 20V9.63636H131.944V11.3974H132.066C132.282 10.8036 132.639 10.3403 133.138 10.0075C133.638 9.6701 134.234 9.50142 134.926 9.50142C135.628 9.50142 136.22 9.67235 136.701 10.0142C137.187 10.3516 137.529 10.8126 137.726 11.3974H137.834C138.064 10.8216 138.451 10.3628 138.995 10.021C139.544 9.6746 140.194 9.50142 140.945 9.50142C141.898 9.50142 142.677 9.80279 143.279 10.4055C143.882 11.0083 144.184 11.8877 144.184 13.0437V20H141.734V13.4215C141.734 12.7783 141.563 12.3082 141.222 12.0114C140.88 11.71 140.461 11.5593 139.967 11.5593C139.377 11.5593 138.916 11.7437 138.583 12.1126C138.255 12.4769 138.091 12.9515 138.091 13.5362V20H135.696V13.3203C135.696 12.785 135.534 12.3577 135.21 12.0384C134.89 11.719 134.472 11.5593 133.955 11.5593C133.604 11.5593 133.285 11.6493 132.997 11.8292C132.709 12.0046 132.479 12.2543 132.309 12.5781C132.138 12.8975 132.052 13.2708 132.052 13.6982V20H129.61ZM150.679 20.2024C149.64 20.2024 148.743 19.9865 147.987 19.5547C147.236 19.1184 146.658 18.5021 146.253 17.706C145.849 16.9053 145.646 15.9629 145.646 14.8789C145.646 13.8129 145.849 12.8772 146.253 12.0721C146.663 11.2624 147.234 10.6327 147.967 10.1829C148.7 9.72857 149.562 9.50142 150.551 9.50142C151.19 9.50142 151.793 9.60488 152.36 9.81179C152.931 10.0142 153.435 10.3291 153.871 10.7564C154.312 11.1837 154.658 11.728 154.91 12.3892C155.162 13.0459 155.288 13.8286 155.288 14.7372V15.4862H146.793V13.8398H152.947C152.942 13.372 152.841 12.956 152.643 12.5916C152.445 12.2228 152.168 11.9326 151.813 11.7212C151.462 11.5098 151.053 11.4041 150.585 11.4041C150.086 11.4041 149.647 11.5256 149.269 11.7685C148.891 12.0069 148.597 12.3217 148.385 12.7131C148.179 13.0999 148.073 13.525 148.068 13.9883V15.4254C148.068 16.0282 148.179 16.5455 148.399 16.9773C148.619 17.4046 148.927 17.733 149.323 17.9624C149.719 18.1873 150.182 18.2997 150.713 18.2997C151.069 18.2997 151.39 18.2502 151.678 18.1513C151.966 18.0478 152.216 17.8971 152.427 17.6992C152.638 17.5013 152.798 17.2562 152.906 16.9638L155.187 17.2202C155.043 17.8229 154.768 18.3492 154.363 18.799C153.963 19.2443 153.45 19.5907 152.825 19.8381C152.2 20.081 151.485 20.2024 150.679 20.2024ZM156.784 20V9.63636H159.152V11.3636H159.26C159.449 10.7654 159.773 10.3043 160.232 9.98047C160.695 9.65211 161.224 9.48793 161.817 9.48793C161.952 9.48793 162.103 9.49467 162.27 9.50817C162.44 9.51716 162.582 9.53291 162.695 9.5554V11.8022C162.591 11.7662 162.427 11.7347 162.202 11.7077C161.982 11.6763 161.768 11.6605 161.561 11.6605C161.116 11.6605 160.715 11.7572 160.36 11.9506C160.009 12.1396 159.733 12.4027 159.53 12.7401C159.328 13.0774 159.227 13.4665 159.227 13.9073V20H156.784ZM167.841 20.2024C166.807 20.2024 165.918 19.9753 165.176 19.521C164.438 19.0666 163.869 18.4392 163.469 17.6385C163.073 16.8333 162.875 15.9067 162.875 14.8587C162.875 13.8061 163.078 12.8772 163.482 12.0721C163.887 11.2624 164.459 10.6327 165.196 10.1829C165.938 9.72857 166.816 9.50142 167.828 9.50142C168.669 9.50142 169.413 9.65661 170.061 9.96697C170.713 10.2728 171.233 10.7069 171.62 11.2692C172.006 11.8269 172.227 12.4792 172.281 13.2259H169.946C169.852 12.7266 169.627 12.3105 169.272 11.9776C168.921 11.6403 168.451 11.4716 167.861 11.4716C167.362 11.4716 166.924 11.6065 166.546 11.8764C166.168 12.1418 165.873 12.5241 165.662 13.0234C165.455 13.5227 165.351 14.121 165.351 14.8182C165.351 15.5244 165.455 16.1316 165.662 16.6399C165.869 17.1437 166.159 17.5328 166.532 17.8072C166.91 18.0771 167.353 18.212 167.861 18.212C168.221 18.212 168.543 18.1445 168.826 18.0096C169.114 17.8701 169.355 17.67 169.548 17.4091C169.742 17.1482 169.874 16.8311 169.946 16.4577H172.281C172.222 17.1909 172.006 17.8409 171.633 18.4077C171.26 18.9699 170.751 19.4107 170.108 19.7301C169.465 20.045 168.709 20.2024 167.841 20.2024ZM178.304 20.2024C177.265 20.2024 176.368 19.9865 175.612 19.5547C174.861 19.1184 174.283 18.5021 173.878 17.706C173.473 16.9053 173.271 15.9629 173.271 14.8789C173.271 13.8129 173.473 12.8772 173.878 12.0721C174.288 11.2624 174.859 10.6327 175.592 10.1829C176.325 9.72857 177.187 9.50142 178.176 9.50142C178.815 9.50142 179.418 9.60488 179.984 9.81179C180.556 10.0142 181.06 10.3291 181.496 10.7564C181.937 11.1837 182.283 11.728 182.535 12.3892C182.787 13.0459 182.913 13.8286 182.913 14.7372V15.4862H174.418V13.8398H180.571C180.567 13.372 180.466 12.956 180.268 12.5916C180.07 12.2228 179.793 11.9326 179.438 11.7212C179.087 11.5098 178.678 11.4041 178.21 11.4041C177.711 11.4041 177.272 11.5256 176.894 11.7685C176.516 12.0069 176.222 12.3217 176.01 12.7131C175.804 13.0999 175.698 13.525 175.693 13.9883V15.4254C175.693 16.0282 175.804 16.5455 176.024 16.9773C176.244 17.4046 176.552 17.733 176.948 17.9624C177.344 18.1873 177.807 18.2997 178.338 18.2997C178.694 18.2997 179.015 18.2502 179.303 18.1513C179.591 18.0478 179.841 17.8971 180.052 17.6992C180.263 17.5013 180.423 17.2562 180.531 16.9638L182.812 17.2202C182.668 17.8229 182.393 18.3492 181.988 18.799C181.588 19.2443 181.075 19.5907 180.45 19.8381C179.825 20.081 179.11 20.2024 178.304 20.2024Z" fill="#008E9A"/>
<path d="M1.35938 14.8828C1.06622 14.2869 1.08788 13.5802 1.42285 13L5.8457 5.33984L5.91602 5.22656C6.28552 4.67492 6.90739 4.33991 7.57715 4.33984H16.4229C17.0926 4.33991 17.7145 4.67492 18.084 5.22656L18.1543 5.33984L22.5771 13C22.9121 13.5802 22.9338 14.2869 22.6406 14.8828L22.5771 15L18.1543 22.6602C17.7971 23.2788 17.1373 23.6601 16.4229 23.6602H7.57715C6.86273 23.6601 6.20295 23.2788 5.8457 22.6602L1.42285 15L1.35938 14.8828Z" stroke="#008F9B" stroke-width="2" stroke-linejoin="round"/>
<path d="M12 0.5C12.2149 0.5 12.4014 0.592104 12.5342 0.676758C12.6762 0.767327 12.8173 0.888831 12.9541 1.02441C13.2288 1.29678 13.5338 1.67475 13.8506 2.11816C14.4867 3.00865 15.2115 4.2199 15.8936 5.52637C16.576 6.83365 17.2234 8.24981 17.7012 9.55469C18.1735 10.8448 18.5 12.0788 18.5 13C18.5 16.5899 15.5899 19.5 12 19.5C8.41015 19.5 5.5 16.5899 5.5 13C5.5 12.0788 5.82651 10.8448 6.29883 9.55469C6.77658 8.24981 7.42395 6.83365 8.10645 5.52637C8.78853 4.2199 9.51326 3.00865 10.1494 2.11816C10.4662 1.67475 10.7712 1.29678 11.0459 1.02441C11.1827 0.888831 11.3238 0.767327 11.4658 0.676758C11.5986 0.592104 11.7851 0.5 12 0.5Z" stroke="white"/>
<path d="M12 2.19727C12.173 2.3846 12.3861 2.64894 12.6299 2.99023C13.2138 3.80754 13.9027 4.95413 14.5635 6.21973C15.2232 7.48341 15.8414 8.8405 16.292 10.0713C16.7535 11.332 17 12.3572 17 13C17 15.7614 14.7614 18 12 18C9.23858 18 7 15.7614 7 13C7 12.3572 7.24647 11.332 7.70801 10.0713C8.15862 8.8405 8.77677 7.48341 9.43652 6.21973C10.0973 4.95413 10.7862 3.80754 11.3701 2.99023C11.6139 2.64894 11.827 2.3846 12 2.19727Z" stroke="#008F9B" stroke-width="2"/>
<rect x="11" y="3" width="2" height="21" fill="#008F9B"/>
<rect x="9" y="15" width="2" height="11" fill="white"/>
</svg>
