<svg width="24" height="25" viewBox="0 0 24 25" fill="none" xmlns="http://www.w3.org/2000/svg">
<path d="M15 2.5V3.9C15 4.46005 15 4.74008 14.891 4.95399C14.7951 5.14215 14.6422 5.29513 14.454 5.39101C14.2401 5.5 13.9601 5.5 13.4 5.5H10.6C10.0399 5.5 9.75992 5.5 9.54601 5.39101C9.35785 5.29513 9.20487 5.14215 9.10899 4.95399C9 4.74008 9 4.46005 9 3.9V2.5M8.2 22.5H15.8C16.9201 22.5 17.4802 22.5 17.908 22.282C18.2843 22.0903 18.5903 21.7843 18.782 21.408C19 20.9802 19 20.4201 19 19.3V5.7C19 4.57989 19 4.01984 18.782 3.59202C18.5903 3.21569 18.2843 2.90973 17.908 2.71799C17.4802 2.5 16.9201 2.5 15.8 2.5H8.2C7.0799 2.5 6.51984 2.5 6.09202 2.71799C5.71569 2.90973 5.40973 3.21569 5.21799 3.59202C5 4.01984 5 4.5799 5 5.7V19.3C5 20.4201 5 20.9802 5.21799 21.408C5.40973 21.7843 5.71569 22.0903 6.09202 22.282C6.51984 22.5 7.07989 22.5 8.2 22.5Z" stroke="#6B777D" stroke-width="2" stroke-linecap="round" stroke-linejoin="round"/>
</svg>
