<svg width="126" height="34" viewBox="0 0 126 34" fill="none" xmlns="http://www.w3.org/2000/svg">
<g opacity="0.85">
<path d="M111.091 0C111.494 3.8792 115.04 12.552 126 16.2095C119.821 16.4866 108.19 13.6326 111.091 0Z" fill="#F6D548"/>
<path d="M0 31.2837C1.67515 31.8886 3.38672 32.3167 5.18932 32.1717C6.69332 32.0514 8.10263 31.6622 9.28252 30.6822C9.6989 30.3687 10.0321 29.963 10.2545 29.499C10.4768 29.035 10.5818 28.5261 10.5607 28.0147C10.5714 27.5597 10.45 27.111 10.2104 26.72C9.97084 26.3289 9.62276 26.0113 9.20604 25.8035L5.06187 23.6454C4.1114 23.1501 3.20099 22.6335 2.51273 21.7738C2.00106 21.1908 1.65985 20.485 1.52469 19.7302C1.38954 18.9753 1.46539 18.199 1.74434 17.4824C2.16798 16.2042 3.09664 15.1416 4.32626 14.5283C5.47542 13.9116 6.7549 13.5594 8.06621 13.4987C9.29018 13.4182 10.5195 13.5281 11.7078 13.8242C12.1048 13.9339 12.3196 14.1143 12.3014 14.5318C12.2832 14.9493 12.2614 15.3526 12.2395 15.8373C11.8207 15.7276 11.5112 15.6356 11.2162 15.5684C9.10408 15.1085 7.03199 15.0519 5.09828 16.184C4.6759 16.4094 4.30487 16.7155 4.00758 17.084C3.71029 17.4525 3.4929 17.8756 3.36851 18.3279C3.1318 19.2407 3.25198 20.0969 4.04949 20.7089C4.88844 21.3578 5.77309 21.9489 6.69696 22.4779C7.78945 23.1005 9.01303 23.5392 10.0946 24.1902C12.6765 25.7327 12.8732 28.5949 11.7115 30.6433C11.4639 31.0906 11.1415 31.4947 10.7574 31.8391C9.3702 33.1107 7.5636 33.8629 5.65909 33.9618C3.74782 34.0955 1.82776 33.877 0 33.3179L0 31.2837Z" fill="#2C3643"/>
<path d="M88.9244 33.252C88.3053 33.2775 87.6852 33.2702 87.0669 33.2302C86.8219 33.1669 86.6116 33.0133 86.4799 32.8017C86.1084 32.2206 85.7369 31.6105 85.3951 31.004C84.5258 29.4883 83.6589 27.9702 82.7945 26.4497C82.6125 26.1229 82.423 25.8723 81.9698 25.9813C80.1606 26.4134 78.3142 26.319 76.4752 26.3009H74.874C74.8406 26.6858 74.7848 27.0272 74.7848 27.3541C74.7848 28.9774 74.7848 30.6008 74.7848 32.2242C74.7848 32.5366 74.7514 32.8453 74.7291 33.2084H72.9905C72.8084 31.5741 72.931 29.9399 72.9087 28.2983C72.8864 26.6568 72.9087 25.0515 72.9087 23.4245V13.6951C73.0685 13.5897 73.1168 13.5316 73.1651 13.5316C76.0442 13.4626 78.9309 13.3246 81.7543 14.0364C83.0918 14.3706 84.392 14.7882 85.4954 15.7397C88.1517 18.0386 87.8731 22.433 85.4694 24.4232L84.3957 25.3275C85.8855 27.9206 87.3604 30.5064 88.9244 33.252ZM74.8071 19.8146C74.8071 21.0893 74.8071 22.3568 74.8071 23.6424C74.8071 24.3869 74.874 24.4523 75.617 24.4596C76.9842 24.4596 78.355 24.514 79.7036 24.4596C81.2899 24.3833 82.8466 24.0964 84.1245 23.0831C84.5484 22.7706 84.8846 22.3583 85.1016 21.8846C85.526 20.7585 85.5431 19.5242 85.1499 18.3873C84.9597 17.9335 84.651 17.5365 84.2546 17.236C83.3763 16.5373 82.3327 16.0653 81.2194 15.8632C79.4125 15.5157 77.5735 15.3538 75.7322 15.3802C74.8517 15.3802 74.7997 15.4383 74.7923 16.3426C74.7997 17.4684 74.8071 18.6415 74.8071 19.8037V19.8146Z" fill="#2C3643"/>
<path d="M47.6844 24.9614C47.8417 24.0227 47.738 23.0695 47.7559 22.1271C47.7738 21.1848 47.7559 20.2023 47.7559 19.2418V13.5258H49.4787C49.5211 13.7674 49.5497 14.0113 49.5645 14.2563C49.5645 20.3436 49.5645 26.4369 49.5645 32.5364C49.5526 32.781 49.5288 33.0248 49.493 33.2669H47.7702C47.5164 28.2777 45.3397 24.1359 42.3802 20.374C40.1713 17.569 39.3635 16.8604 38.3484 16.3783C38.2734 18.2812 38.3234 20.1293 38.3163 21.9774C38.3091 23.8255 38.3163 25.7065 38.3163 27.5728V33.2413H36.597C36.4326 32.5985 36.379 14.7311 36.547 13.566C36.871 13.4655 37.214 13.4463 37.5468 13.5098C37.8796 13.5734 38.1926 13.7179 38.4592 13.9312C39.6218 14.7224 40.6885 15.6517 41.6368 16.6997C43.3849 18.5399 44.9332 20.5678 46.2547 22.748C46.6121 23.3142 46.8838 23.9205 47.1983 24.5085C47.2912 24.6802 47.3913 24.8482 47.4878 25.0162L47.6844 24.9614Z" fill="#2C3643"/>
<path d="M16.8249 13.4731H18.6714C18.694 13.8382 18.7278 14.1741 18.7278 14.5099C18.7278 18.7667 18.7278 23.0234 18.7278 27.2874C18.7278 28.9084 19.3408 30.2701 20.7962 31.1353C21.658 31.6782 22.6379 32.0192 23.6587 32.1314C24.6795 32.2435 25.7131 32.1237 26.678 31.7815C27.6306 31.4844 28.4769 30.9312 29.1188 30.1861C29.8051 29.4015 30.1799 28.4045 30.1755 27.3751C30.1755 23.1183 30.1755 18.858 30.1755 14.5976V13.5024H31.9882C32.031 13.7193 32.0587 13.9389 32.0709 14.1595C32.0709 18.6499 32.0709 23.1402 32.0709 27.6306C32.0689 28.3911 31.9116 29.1437 31.6082 29.8449C31.3048 30.546 30.8614 31.1819 30.3034 31.7158C28.942 33.0702 27.2948 33.9354 25.2941 33.9865C23.7221 34.023 22.1614 34.0413 20.7323 33.2564C18.269 31.9239 16.7309 30.062 16.7647 27.1816C16.8099 22.9541 16.7647 18.7265 16.7647 14.499C16.7647 14.185 16.8023 13.8711 16.8249 13.4731Z" fill="#2C3643"/>
<path d="M54.6668 15.339V13.6641C55.2775 13.4643 67.043 13.3953 68.3764 13.5842C68.5896 14.0928 68.5209 14.6269 68.4162 15.2736C68.1198 15.2954 67.8163 15.3317 67.5128 15.3354C66.2119 15.3354 64.9111 15.3354 63.6102 15.3354C63.2994 15.3354 62.9887 15.3717 62.5587 15.3971C62.5081 16.9231 62.5406 18.3908 62.537 19.8586C62.5334 21.3264 62.537 22.816 62.537 24.2983V33.1014C61.948 33.363 61.3879 33.2504 60.7303 33.1923C60.7122 32.7999 60.6833 32.4329 60.6797 32.066V16.3127C60.6797 15.3717 60.6435 15.3426 59.6968 15.339C58.367 15.339 57.0373 15.339 55.7219 15.339H54.6668Z" fill="#2C3643"/>
<path d="M113.653 33.2667H112.054C111.949 31.18 112.177 29.1226 111.783 27.1204C111.152 26.911 103.534 26.8706 102.562 27.069C102.129 29.0712 102.386 31.1102 102.284 33.2447H100.713C100.466 30.5601 100.585 27.8526 101.065 25.2026H113.22C113.794 27.8368 113.741 30.5077 113.653 33.2667Z" fill="#2C3643"/>
<path d="M107.187 16.2279C106.158 17.2978 105.313 18.5339 104.687 19.8854C104.083 21.2168 103.576 22.5879 103.015 23.9663H101.23C102.165 19.9407 104.228 16.2748 107.172 13.4097C110.127 16.2662 112.196 19.9335 113.125 23.9626H111.272C110.372 21.1914 109.326 18.46 107.187 16.2279Z" fill="#D6373D"/>
</g>
<path d="M93.4066 13.4731C93.825 13.4731 94.1311 13.4731 94.4371 13.4731C94.6812 13.4731 94.9292 13.4987 95.1306 13.5097C95.1926 13.5644 95.2159 13.5827 95.2352 13.6046C95.2546 13.6265 95.2856 13.6448 95.2933 13.6703C95.3268 13.751 95.3477 13.8359 95.3553 13.9223C95.3553 20.1587 95.3553 26.3963 95.3553 32.6352C95.3527 32.7796 95.3384 32.9236 95.3127 33.066C95.2816 33.1374 95.2412 33.2048 95.1926 33.2669H93.3989C93.3485 33.0258 93.3149 32.7818 93.2981 32.5366C93.2981 26.4511 93.2981 20.3656 93.2981 14.2801C93.317 14.0093 93.3533 13.7398 93.4066 13.4731Z" fill="#2C3643"/>
</svg>
