<svg width="24" height="25" viewBox="0 0 24 25" fill="none" xmlns="http://www.w3.org/2000/svg">
<g id="arrow_back_ios_new">
<mask id="mask0_6112_12549" style="mask-type:alpha" maskUnits="userSpaceOnUse" x="0" y="0" width="24" height="25">
<rect id="Bounding box" y="0.781982" width="24" height="24" fill="#D9D9D9"/>
</mask>
<g mask="url(#mask0_6112_12549)">
<path id="arrow_back_ios_new_2" d="M9.5502 12.782L16.9002 20.132C17.1502 20.382 17.271 20.6736 17.2627 21.007C17.2544 21.3403 17.1252 21.632 16.8752 21.882C16.6252 22.132 16.3335 22.257 16.0002 22.257C15.6669 22.257 15.3752 22.132 15.1252 21.882L7.4252 14.207C7.2252 14.007 7.0752 13.782 6.9752 13.532C6.8752 13.282 6.8252 13.032 6.8252 12.782C6.8252 12.532 6.8752 12.282 6.9752 12.032C7.0752 11.782 7.2252 11.557 7.4252 11.357L15.1252 3.65697C15.3752 3.40697 15.671 3.28614 16.0127 3.29447C16.3544 3.3028 16.6502 3.43197 16.9002 3.68197C17.1502 3.93197 17.2752 4.22364 17.2752 4.55697C17.2752 4.8903 17.1502 5.18197 16.9002 5.43197L9.5502 12.782Z" fill="#ABABAB"/>
</g>
</g>
</svg>
