<svg width="24" height="25" viewBox="0 0 24 25" fill="none" xmlns="http://www.w3.org/2000/svg">
<g id="arrow_forward_ios">
<mask id="mask0_6112_12553" style="mask-type:alpha" maskUnits="userSpaceOnUse" x="0" y="0" width="24" height="25">
<rect id="Bounding box" y="0.781982" width="24" height="24" fill="#D9D9D9"/>
</mask>
<g mask="url(#mask0_6112_12553)">
<path id="arrow_forward_ios_2" d="M14.4746 12.782L7.12462 5.43198C6.87462 5.18198 6.75379 4.88615 6.76212 4.54448C6.77046 4.20282 6.89962 3.90698 7.14962 3.65698C7.39962 3.40698 7.69546 3.28198 8.03712 3.28198C8.37879 3.28198 8.67462 3.40698 8.92462 3.65698L16.5996 11.357C16.7996 11.557 16.9496 11.782 17.0496 12.032C17.1496 12.282 17.1996 12.532 17.1996 12.782C17.1996 13.032 17.1496 13.282 17.0496 13.532C16.9496 13.782 16.7996 14.007 16.5996 14.207L8.89962 21.907C8.64962 22.157 8.35796 22.2778 8.02462 22.2695C7.69129 22.2612 7.39962 22.132 7.14962 21.882C6.89962 21.632 6.77462 21.3361 6.77462 20.9945C6.77462 20.6528 6.89962 20.357 7.14962 20.107L14.4746 12.782Z" fill="#ABABAB"/>
</g>
</g>
</svg>
