<svg width="24" height="24" viewBox="0 0 24 24" fill="none" xmlns="http://www.w3.org/2000/svg">
<g id="4. Icons / Navigation / menu">
<path id="&#240;&#159;&#148;&#185; Icon Color" fill-rule="evenodd" clip-rule="evenodd" d="M4 18H20C20.55 18 21 17.55 21 17C21 16.45 20.55 16 20 16H4C3.45 16 3 16.45 3 17C3 17.55 3.45 18 4 18ZM4 13H20C20.55 13 21 12.55 21 12C21 11.45 20.55 11 20 11H4C3.45 11 3 11.45 3 12C3 12.55 3.45 13 4 13ZM3 6.99997C3 7.54997 3.45 7.99997 4 7.99997H20C20.55 7.99997 21 7.54997 21 6.99997C21 6.44997 20.55 5.99997 20 5.99997H4C3.45 5.99997 3 6.44997 3 6.99997Z" fill="#969696"/>
</g>
</svg>
