<?xml version="1.0" encoding="UTF-8"?> <svg xmlns="http://www.w3.org/2000/svg" width="61" height="60" viewBox="0 0 61 60" fill="none"><g id="appium-seeklogo.com 1" clip-path="url(#clip0_2460_871)"><g id="Group"><path id="Vector" d="M47.5866 5.92372C40.3999 -0.280324 24.4984 -3.3534 12.5818 5.55345C1.40245 13.0474 0.849609 26.7451 0.849609 26.7451C2.75372 34.2391 10.309 41.426 24.8668 37.9247C23.1469 27.8508 26.5178 2.36108 47.5866 5.92372Z" fill="#00ACD2"></path><path id="Vector_2" d="M40.1 30.2879C32.2358 36.8144 8.29809 46.7732 0.848984 26.7456C-0.930471 36.0715 4.00751 51.5933 17.6791 57.46C29.7589 63.3946 42.3477 56.5215 42.3477 56.5215C47.8855 51.1254 50.4111 41.1447 40.1 30.2879Z" fill="#C8E9EB"></path><path id="Vector_3" d="M25.8965 21.1341C35.4806 24.6815 55.9682 40.0565 42.3484 56.5214C51.3145 53.3993 61.8285 41.454 60.0734 26.6807C59.1731 13.2519 47.5868 5.92417 47.5868 5.92417C40.145 3.82627 30.1432 6.77607 25.8965 21.1341Z" fill="#662D91"></path></g></g><defs><clipPath id="clip0_2460_871"><rect width="59.7665" height="60" fill="white" transform="translate(0.5)"></rect></clipPath></defs></svg> 