<?xml version="1.0" encoding="UTF-8"?> <svg xmlns="http://www.w3.org/2000/svg" width="53" height="60" viewBox="0 0 53 60" fill="none"><g id="cucumber-seeklogo.com 1" clip-path="url(#clip0_2460_883)"><g id="Group"><path id="Vector" d="M26.3534 0C11.8126 0 0.0449219 11.8002 0.0449219 26.3813C0.0449219 39.219 9.22203 49.8858 21.3327 52.2591V59.811C37.0777 57.4306 51.019 44.8975 52.0593 28.4454C52.6855 18.5427 47.7617 8.43317 39.4574 3.52421C38.9819 3.24316 38.4989 2.96414 38.0014 2.71868C37.4945 2.46857 36.9739 2.2248 36.445 2.01384C36.2771 1.9434 36.1125 1.87951 35.9429 1.81245C35.4809 1.64144 35.0147 1.44886 34.5371 1.30899C31.9628 0.458146 29.2108 0 26.3534 0Z" fill="#00A818"></path><path id="Vector_2" d="M31.804 9.74766C30.9022 9.65496 29.9526 9.96963 29.2886 10.7566C28.8056 11.4024 28.5037 12.0279 28.1818 12.6737C27.2158 14.9338 27.5378 17.3553 28.9867 19.1311C31.2406 18.6467 33.1523 17.2039 34.1182 14.9438C34.4402 14.2981 34.6213 13.4707 34.6213 12.825C34.722 11.1098 33.307 9.90216 31.804 9.74766ZM20.082 9.899C18.612 10.0393 17.2144 11.2107 17.2144 12.825C17.2144 13.4707 17.3955 14.2981 17.7175 14.9438C18.6834 17.2039 20.7461 18.6467 22.9999 19.1311C24.2878 17.3553 24.6199 14.9338 23.6539 12.6737C23.332 12.0279 23.0301 11.3923 22.5471 10.908C21.8831 10.121 20.964 9.81482 20.082 9.899ZM12.1835 17.6681C9.64483 17.7987 8.51091 20.9976 10.6239 22.6624C11.2678 23.1467 11.8917 23.4999 12.5356 23.8228C14.7895 24.7914 17.3955 24.4584 19.3274 23.1669C18.8444 21.0683 17.2043 19.1411 14.9505 18.1725C14.1455 17.8497 13.4915 17.6681 12.6866 17.6681C12.5054 17.6479 12.3527 17.6593 12.1835 17.6681ZM36.9859 27.455C35.5112 27.4267 34.0176 27.8586 32.8102 28.6658C33.2932 30.7644 34.9332 32.6916 37.1871 33.6602C37.992 33.983 38.6461 34.1647 39.451 34.1647C42.3488 34.3261 43.7675 30.7342 41.5137 29.1198C40.8697 28.6355 40.2459 28.3328 39.6019 28.01C38.7567 27.6467 37.8707 27.4721 36.9859 27.455ZM15.0008 27.6064C14.116 27.6234 13.2299 27.7981 12.3847 28.1613C11.5798 28.4842 10.9559 28.8373 10.473 29.3216C8.3801 31.0974 9.78876 34.4774 12.6866 34.316C13.4915 34.316 14.3065 34.1344 14.9505 33.8115C17.2043 32.8429 18.8041 30.9158 19.1261 28.8171C17.9187 28.01 16.4755 27.578 15.0008 27.6064ZM23.1509 32.5503C20.897 33.0346 18.9853 34.4774 18.0193 36.7375C17.6973 37.3833 17.5162 38.1602 17.5162 38.8059C17.3552 41.5503 21.0882 43.0234 22.6981 40.9247C23.181 40.279 23.4829 39.6534 23.8049 39.0077C24.7708 36.9091 24.4388 34.4875 23.1509 32.5503ZM29.1376 32.7017C27.8497 34.4774 27.5177 36.899 28.4836 39.159C28.8056 39.8048 29.1075 40.4404 29.5904 40.9247C31.3613 42.862 35.0842 41.4292 34.9232 39.0077C34.9232 38.362 34.7421 37.5346 34.4201 36.8889C33.4542 34.6288 31.3915 33.186 29.1376 32.7017Z" fill="white"></path></g></g><defs><clipPath id="clip0_2460_883"><rect width="52.0678" height="60" fill="white" transform="translate(0.0449219)"></rect></clipPath></defs></svg> 