<?xml version="1.0" encoding="UTF-8"?> <svg xmlns="http://www.w3.org/2000/svg" width="61" height="60" viewBox="0 0 61 60" fill="none"><g id="postman-icon-svgrepo-com 1" clip-path="url(#clip0_2460_893)"><g id="Group"><path id="Vector" d="M59.7996 33.8093C61.8992 17.3723 50.2913 2.34498 33.8842 0.245363C17.4772 -1.85426 2.38991 9.75365 0.290285 26.1607C-1.80934 42.5677 9.79857 57.625 26.2056 59.7546C42.6427 61.8543 57.6699 50.2464 59.7996 33.8093Z" fill="#FF6C37"></path><g id="Group_2"><path id="Vector_2" d="M40.8736 19.2617L28.2158 31.9194L24.6465 28.35C37.0942 15.9023 38.324 16.9821 40.8736 19.2617Z" fill="white"></path><path id="Vector_3" d="M28.2157 32.2195C28.1257 32.2195 28.0657 32.1895 28.0057 32.1295L24.4064 28.5601C24.2864 28.4401 24.2864 28.2602 24.4064 28.1402C37.0641 15.4825 38.3839 16.6823 41.0534 19.0818C41.1134 19.1418 41.1434 19.2018 41.1434 19.2918C41.1434 19.3818 41.1134 19.4418 41.0534 19.5018L28.3957 32.1295C28.3657 32.1895 28.2757 32.2195 28.2157 32.2195ZM25.0663 28.3502L28.2157 31.4996L40.4235 19.2918C38.2039 17.3122 36.7042 16.7123 25.0663 28.3502Z" fill="#FF6C37"></path><path id="Vector_4" d="M31.8459 35.549L28.3965 32.0996L41.0542 19.4419C44.4436 22.8613 39.3745 28.4103 31.8459 35.549Z" fill="white"></path><path id="Vector_5" d="M31.8443 35.8486C31.7543 35.8486 31.6944 35.8186 31.6344 35.7586L28.185 32.3092C28.125 32.2492 28.125 32.1892 28.125 32.0993C28.125 32.0093 28.155 31.9493 28.215 31.8893L40.8727 19.2316C40.9927 19.1116 41.1726 19.1116 41.2926 19.2316C42.0725 19.9515 42.4924 20.9713 42.4624 22.0211C42.4024 25.3505 38.6231 29.5797 32.0843 35.7586C31.9943 35.8186 31.9043 35.8486 31.8443 35.8486ZM28.8149 32.0993C30.7345 34.0489 31.5444 34.8288 31.8443 35.1287C36.8834 30.3296 41.7725 25.4105 41.8025 22.0211C41.8325 21.2412 41.5326 20.4614 41.0227 19.8615L28.8149 32.0993Z" fill="#FF6C37"></path><path id="Vector_6" d="M24.707 28.4399L27.2566 30.9895C27.3166 31.0495 27.3166 31.1094 27.2566 31.1694C27.2266 31.1994 27.2266 31.1994 27.1966 31.1994L21.9175 32.3392C21.6476 32.3692 21.4076 32.1892 21.3476 31.9193C21.3177 31.7693 21.3776 31.6194 21.4676 31.5294L24.5271 28.4699C24.5871 28.4099 24.677 28.3799 24.707 28.4399Z" fill="white"></path><path id="Vector_7" d="M21.8267 32.6391C21.3768 32.6391 21.0469 32.2791 21.0469 31.8292C21.0469 31.6193 21.1369 31.4093 21.2868 31.2593L24.3463 28.1999C24.5262 28.0499 24.7662 28.0499 24.9462 28.1999L27.4957 30.7494C27.6757 30.8994 27.6757 31.1693 27.4957 31.3493C27.4357 31.4093 27.3757 31.4393 27.2858 31.4693L22.0067 32.6091C21.9467 32.6091 21.8867 32.6391 21.8267 32.6391ZM24.6162 28.7698L21.6768 31.7093C21.6168 31.7692 21.5868 31.8592 21.6468 31.9492C21.6768 32.0392 21.7667 32.0692 21.8567 32.0392L26.8058 30.9594L24.6162 28.7698Z" fill="#FF6C37"></path><path id="Vector_8" d="M47.5632 12.2428C45.6435 10.3831 42.5541 10.4431 40.6944 12.3927C38.8348 14.3424 38.8948 17.4018 40.8444 19.2615C42.4341 20.7912 44.8337 21.0612 46.7233 19.9214L43.304 16.502L47.5632 12.2428Z" fill="white"></path><path id="Vector_9" d="M44.202 20.9114C41.3526 20.9114 39.043 18.6018 39.043 15.7523C39.043 12.9028 41.3526 10.5933 44.202 10.5933C45.5218 10.5933 46.8116 11.1032 47.7714 12.033C47.8314 12.093 47.8614 12.153 47.8614 12.243C47.8614 12.3329 47.8314 12.3929 47.7714 12.4529L43.7221 16.5022L46.9016 19.6816C47.0215 19.8016 47.0215 19.9816 46.9016 20.1015C46.8716 20.1315 46.8716 20.1315 46.8416 20.1615C46.0617 20.6414 45.1319 20.9114 44.202 20.9114ZM44.202 11.2231C41.6825 11.2231 39.6429 13.2628 39.6729 15.7823C39.6729 18.3019 41.7125 20.3415 44.232 20.3115C44.9219 20.3115 45.6118 20.1615 46.2417 19.8316L43.0922 16.7122C43.0322 16.6522 43.0023 16.5922 43.0023 16.5022C43.0023 16.4122 43.0322 16.3522 43.0922 16.2922L47.1115 12.273C46.3017 11.5831 45.2818 11.2231 44.202 11.2231Z" fill="#FF6C37"></path><path id="Vector_10" d="M47.652 12.3329L47.592 12.2729L43.3027 16.5022L46.6921 19.8916C47.0221 19.6816 47.352 19.4417 47.622 19.1717C49.5416 17.282 49.5416 14.2226 47.652 12.3329Z" fill="white"></path><path id="Vector_11" d="M46.7232 20.2214C46.6333 20.2214 46.5733 20.1914 46.5133 20.1314L43.0939 16.712C43.0339 16.652 43.0039 16.592 43.0039 16.502C43.0039 16.4121 43.0339 16.3521 43.0939 16.2921L47.3531 12.0329C47.4731 11.9129 47.6531 11.9129 47.773 12.0329L47.863 12.0928C49.8727 14.1025 49.8727 17.3419 47.893 19.3815C47.5931 19.6815 47.2631 19.9514 46.9032 20.1614C46.8132 20.1914 46.7532 20.2214 46.7232 20.2214ZM43.7238 16.502L46.7532 19.5315C46.9932 19.3815 47.2331 19.1716 47.4131 18.9916C49.1228 17.2819 49.2128 14.4924 47.5631 12.6927L43.7238 16.502Z" fill="#FF6C37"></path><path id="Vector_12" d="M41.3843 19.8016C40.6644 19.0818 39.4946 19.0818 38.7748 19.8016L27.4668 31.1096L29.3565 32.9992L41.3243 22.5011C42.1042 21.8413 42.1641 20.6715 41.5043 19.8916C41.4443 19.8616 41.4143 19.8316 41.3843 19.8016Z" fill="white"></path><path id="Vector_13" d="M29.3263 33.2993C29.2363 33.2993 29.1764 33.2693 29.1164 33.2093L27.2267 31.3197C27.1067 31.1997 27.1067 31.0197 27.2267 30.8998L38.5347 19.5918C39.3745 18.752 40.7243 18.752 41.5641 19.5918C42.404 20.4316 42.404 21.7814 41.5641 22.6213C41.5341 22.6512 41.5041 22.6812 41.4741 22.7112L29.5063 33.2093C29.4763 33.2693 29.4163 33.2993 29.3263 33.2993ZM27.8866 31.1097L29.3563 32.5795L41.1142 22.2613C41.7741 21.7214 41.8341 20.7316 41.2942 20.0717C40.7543 19.4118 39.7644 19.3518 39.1046 19.8917C39.0746 19.9217 39.0446 19.9517 38.9846 19.9817L27.8866 31.1097Z" fill="#FF6C37"></path><path id="Vector_14" d="M18.7979 43.9773C18.6779 44.0372 18.6179 44.1572 18.6479 44.2772L19.1578 46.4368C19.2778 46.7368 19.0978 47.0967 18.7679 47.1867C18.5279 47.2767 18.258 47.1867 18.108 47.0067L14.8086 43.7373L25.5767 32.9692L29.296 33.0292L31.8155 35.5488C31.2156 36.0587 27.5863 39.568 18.7979 43.9773Z" fill="white"></path><path id="Vector_15" d="M18.5576 47.4868C18.3177 47.4868 18.0777 47.3968 17.9278 47.2168L14.6583 43.9474C14.5984 43.8874 14.5684 43.8274 14.5684 43.7374C14.5684 43.6475 14.5984 43.5875 14.6583 43.5275L25.4264 32.7594C25.4864 32.6994 25.5764 32.6694 25.6364 32.6694L29.3557 32.7294C29.4457 32.7294 29.5057 32.7594 29.5657 32.8194L32.0852 35.339C32.1452 35.3989 32.1752 35.4889 32.1752 35.5789C32.1752 35.6689 32.1452 35.7289 32.0552 35.7889L31.8452 35.9688C28.6658 38.7583 24.3466 41.5478 18.9776 44.2174L19.4875 46.347C19.5775 46.7369 19.3975 47.1568 19.0376 47.3668C18.8576 47.4568 18.7076 47.4868 18.5576 47.4868ZM15.2582 43.7374L18.3477 46.7969C18.4377 46.9469 18.6176 47.0068 18.7676 46.9169C18.9176 46.8269 18.9776 46.6469 18.8876 46.4969L18.3777 44.3373C18.3177 44.0674 18.4377 43.8274 18.6776 43.7074C23.9867 41.0379 28.2759 38.2784 31.4253 35.5489L29.2057 33.3293L25.7563 33.2693L15.2582 43.7374Z" fill="#FF6C37"></path><path id="Vector_16" d="M12.258 46.3168L14.8375 43.7373L18.6768 47.5766L12.5579 47.1567C12.288 47.1267 12.108 46.8867 12.138 46.6168C12.138 46.4968 12.168 46.3768 12.258 46.3168Z" fill="white"></path><path id="Vector_17" d="M18.6775 47.8464L12.5286 47.4265C12.0787 47.3965 11.7787 47.0066 11.8087 46.5567C11.8387 46.3767 11.8987 46.1967 12.0487 46.0767L14.6282 43.4972C14.7482 43.3772 14.9281 43.3772 15.0481 43.4972L18.8874 47.3365C18.9774 47.4265 19.0074 47.5465 18.9474 47.6665C18.8874 47.7864 18.7974 47.8464 18.6775 47.8464ZM14.8382 44.1571L12.4686 46.5267C12.3786 46.5867 12.3786 46.7366 12.4686 46.7966C12.4986 46.8266 12.5286 46.8566 12.5886 46.8566L17.8976 47.2165L14.8382 44.1571Z" fill="#FF6C37"></path><path id="Vector_18" d="M24.5265 34.3492C24.3465 34.3492 24.2266 34.1992 24.2266 34.0493C24.2266 33.9593 24.2566 33.8993 24.3165 33.8393L27.226 30.9298C27.346 30.8098 27.526 30.8098 27.6459 30.9298L29.5356 32.8195C29.6256 32.9095 29.6556 32.9995 29.6256 33.1194C29.5956 33.2094 29.5056 33.2994 29.3856 33.3294L24.5865 34.3492C24.5565 34.3492 24.5265 34.3492 24.5265 34.3492ZM27.436 31.5597L25.4563 33.5394L28.6958 32.8495L27.436 31.5597Z" fill="#FF6C37"></path><path id="Vector_19" d="M29.2954 33.0291L25.996 33.749C25.7561 33.809 25.5161 33.659 25.4561 33.419C25.4261 33.2691 25.4561 33.1191 25.5761 32.9991L27.4058 31.1694L29.2954 33.0291Z" fill="white"></path><path id="Vector_20" d="M25.9354 34.0493C25.5155 34.0493 25.1855 33.7193 25.1855 33.2994C25.1855 33.0894 25.2755 32.9095 25.3955 32.7595L27.2252 30.9298C27.3452 30.8098 27.5251 30.8098 27.6451 30.9298L29.5348 32.8195C29.6247 32.9095 29.6547 32.9995 29.6247 33.1194C29.5948 33.2094 29.5048 33.2994 29.3848 33.3294L26.0854 34.0493C26.0254 34.0493 25.9654 34.0493 25.9354 34.0493ZM27.4351 31.5597L25.8154 33.1794C25.7554 33.2394 25.7554 33.2994 25.7854 33.3594C25.8154 33.4194 25.8754 33.4494 25.9654 33.4494L28.7249 32.8495L27.4351 31.5597Z" fill="#FF6C37"></path><path id="Vector_21" d="M47.6817 15.2124C47.6217 15.0324 47.4118 14.9424 47.2318 15.0024C47.0518 15.0624 46.9618 15.2723 47.0218 15.4523C47.0218 15.4823 47.0518 15.5123 47.0518 15.5423C47.2318 15.9022 47.1718 16.3522 46.9318 16.6821C46.8119 16.8321 46.8419 17.042 46.9618 17.162C47.1118 17.282 47.3218 17.252 47.4418 17.102C47.8917 16.5321 47.9817 15.8122 47.6817 15.2124Z" fill="#FF6C37"></path></g></g></g><defs><clipPath id="clip0_2460_893"><rect width="60" height="60" fill="white" transform="translate(0.0449219)"></rect></clipPath></defs></svg> 