<?xml version="1.0" encoding="UTF-8"?> <svg xmlns="http://www.w3.org/2000/svg" width="58" height="60" viewBox="0 0 58 60" fill="none"><g id="selenium"><path id="Vector" d="M52.3709 0.000769075C52.5174 -0.00848962 52.6564 0.0664337 52.7293 0.193913C52.8021 0.321392 52.7961 0.479212 52.7137 0.600754L37.8855 20.7431C37.7768 20.8658 37.6208 20.936 37.4569 20.936C37.2931 20.936 37.1371 20.8658 37.0284 20.7431L31.7999 14.9147C31.6722 14.7821 31.4913 14.7147 31.308 14.7313C31.1247 14.748 30.9588 14.847 30.8571 15.0004L27.6858 19.0289C27.5854 19.2557 27.6184 19.5194 27.7715 19.7146L37.1998 29.4857C37.3085 29.6084 37.4645 29.6786 37.6284 29.6786C37.7922 29.6786 37.9483 29.6084 38.0569 29.4857L56.5708 8.65769C56.6801 8.54022 56.8495 8.50032 56.9997 8.55666C57.1499 8.613 57.2513 8.75445 57.2564 8.91483V59.5707C57.2635 59.6864 57.2207 59.7995 57.1387 59.8815C57.0568 59.9635 56.9436 60.0063 56.8279 59.9992H0.42932C0.313629 60.0063 0.200453 59.9635 0.118494 59.8815C0.0365351 59.7995 -0.00633392 59.6864 0.000759191 59.5707V0.42933C-0.00633392 0.313639 0.0365351 0.200463 0.118494 0.118504C0.200453 0.036545 0.313629 -0.00632404 0.42932 0.000769075H52.3709ZM37.7998 34.1999C35.2481 34.155 32.7888 35.1549 30.9923 36.9676C29.1957 38.7803 28.218 41.2484 28.2858 43.7997C28.2858 49.7138 32.5714 53.4851 38.1426 53.4851C40.7217 53.5493 43.2507 52.7665 45.3425 51.2566C45.5364 51.0805 45.5728 50.7893 45.4282 50.5709L43.8854 48.2567C43.7119 48.0578 43.4167 48.0209 43.1997 48.171C41.8587 49.0868 40.2804 49.593 38.6569 49.6281C35.657 49.6281 33.7713 47.7424 33.4285 45.5139C33.4347 45.4219 33.5079 45.3487 33.5999 45.3425H46.5424C46.8184 45.3238 47.038 45.1041 47.0567 44.8282V44.3139C47.0567 38.3141 43.2854 34.1999 37.7998 34.1999ZM25.0287 30.9428C22.4253 28.8149 19.1313 27.7168 15.7718 27.8572C9.94336 27.8572 6.34345 31.2857 6.34345 35.3999C6.34345 44.7425 20.5717 41.7426 20.5717 46.1139C20.5717 47.4853 19.2003 48.8567 16.2861 48.8567C13.5183 48.8795 10.848 47.8359 8.82911 45.9425C8.70858 45.8298 8.54529 45.7746 8.38111 45.791C8.21693 45.8074 8.06781 45.8938 7.97199 46.0282L5.74347 49.1138C5.59887 49.3322 5.63527 49.6234 5.82918 49.7995C8.14341 51.9423 11.4005 53.3994 15.9432 53.3994C22.6288 53.3994 25.8858 49.9709 26.0572 45.5139C26.0572 36.257 11.829 38.9141 11.829 34.9713C11.829 33.5142 13.1147 32.4857 15.3432 32.4857C17.7998 32.452 20.1924 33.2697 22.1145 34.7999C22.2275 34.8925 22.373 34.9356 22.5182 34.9194C22.6634 34.9033 22.796 34.8293 22.8859 34.7142L25.1144 31.7142C25.207 31.6012 25.2501 31.4557 25.2339 31.3105C25.2178 31.1653 25.1438 31.0328 25.0287 30.9428ZM37.8855 37.9712C40.2168 37.8408 42.2293 39.5875 42.4283 41.914C42.422 42.006 42.3488 42.0792 42.2568 42.0854H33.5142C33.4222 42.0792 33.349 42.006 33.3428 41.914C33.6294 39.6332 35.5871 37.9341 37.8855 37.9712Z" fill="#2CB134"></path></g></svg> 