<?xml version="1.0" encoding="UTF-8"?> <svg xmlns="http://www.w3.org/2000/svg" width="61" height="60" viewBox="0 0 61 60" fill="none"><path id="Vector" d="M12.4396 25.5624C12.4822 23.3364 13.3964 21.2159 14.9858 19.6568C16.5751 18.0976 18.7127 17.2241 20.9391 17.2241C23.1655 17.2241 25.3031 18.0976 26.8924 19.6568C28.4817 21.2159 29.396 23.3364 29.4386 25.5624C29.4386 26.3809 29.1134 27.1659 28.5347 27.7447C27.9559 28.3235 27.1709 28.6486 26.3524 28.6486C25.5339 28.6486 24.7489 28.3235 24.1701 27.7447C23.5914 27.1659 23.2662 26.3809 23.2662 25.5624C23.2662 24.9456 23.0212 24.3541 22.5851 23.918C22.1489 23.4819 21.5574 23.2369 20.9406 23.2369C20.3239 23.2369 19.7324 23.4819 19.2962 23.918C18.8601 24.3541 18.6151 24.9456 18.6151 25.5624C18.6151 26.3809 18.2899 27.1659 17.7112 27.7447C17.1324 28.3235 16.3474 28.6486 15.5289 28.6486C14.7104 28.6486 13.9254 28.3235 13.3466 27.7447C12.7678 27.1659 12.4396 26.3809 12.4396 25.5624ZM47.669 39.8587C47.6694 40.2649 47.5897 40.6672 47.4344 41.0426C47.2791 41.4179 47.0514 41.759 46.7641 42.0463C46.4769 42.3335 46.1358 42.5613 45.7604 42.7165C45.3851 42.8718 44.9827 42.9515 44.5765 42.9511H15.9341C15.114 42.9511 14.3274 42.6253 13.7475 42.0453C13.1675 41.4654 12.8417 40.6788 12.8417 39.8587C12.8417 39.0385 13.1675 38.2519 13.7475 37.672C14.3274 37.092 15.114 36.7662 15.9341 36.7662H44.5641C45.3837 36.7679 46.1693 37.0942 46.7489 37.6738C47.3285 38.2534 47.6548 39.039 47.6565 39.8587M34.2736 27.3081C33.8178 26.6278 33.6504 25.7945 33.8082 24.9909C33.966 24.1874 34.4361 23.4792 35.1153 23.0218L42.2634 18.1867C42.5981 17.9466 42.9774 17.776 43.3791 17.685C43.7808 17.5939 44.1966 17.5843 44.6021 17.6566C45.0075 17.7289 45.3944 17.8817 45.7398 18.106C46.0852 18.3303 46.3822 18.6216 46.6132 18.9625C46.8442 19.3035 47.0045 19.6873 47.0848 20.0913C47.165 20.4953 47.1634 20.9112 47.0802 21.3146C46.997 21.718 46.8338 22.1006 46.6003 22.4398C46.3668 22.7791 46.0677 23.0681 45.7206 23.2899L38.5507 28.1249C38.0462 28.4747 37.4468 28.6618 36.833 28.6611C36.3269 28.6625 35.8282 28.5399 35.3804 28.3041C34.9326 28.0682 34.5494 27.7263 34.2643 27.3081M53.8694 46.3054C53.8695 46.5948 53.8125 46.8815 53.7018 47.1489C53.5911 47.4164 53.4287 47.6594 53.2241 47.8641L47.9028 53.1854C47.6981 53.3901 47.455 53.5524 47.1876 53.6631C46.9202 53.7738 46.6335 53.8308 46.3441 53.8307H13.7271C13.4376 53.8308 13.151 53.7738 12.8835 53.6631C12.6161 53.5524 12.3731 53.3901 12.1684 53.1854L6.86884 47.8641C6.6642 47.6594 6.50188 47.4164 6.39116 47.1489C6.28044 46.8815 6.22348 46.5948 6.22355 46.3054V13.7164C6.22348 13.427 6.28044 13.1403 6.39116 12.8729C6.50188 12.6055 6.6642 12.3624 6.86884 12.1577L12.1684 6.8395C12.3731 6.63486 12.6161 6.47255 12.8835 6.36183C13.151 6.2511 13.4376 6.19415 13.7271 6.19421H46.3534C46.6429 6.19415 46.9295 6.2511 47.197 6.36183C47.4644 6.47255 47.7074 6.63486 47.9121 6.8395L53.2335 12.1577C53.4381 12.3624 53.6004 12.6055 53.7111 12.8729C53.8219 13.1403 53.8788 13.427 53.8788 13.7164L53.8694 46.3054ZM58.3958 8.60394L51.4472 1.6522C50.3963 0.600082 48.9721 0.00617121 47.485 0H12.5986C11.1107 0.00204333 9.68409 0.59264 8.63015 1.64285L1.68778 8.60394C0.637828 9.65422 0.0470558 11.0779 0.044922 12.563V47.4495C0.0447519 48.1864 0.189749 48.9162 0.471632 49.5971C0.753514 50.278 1.16676 50.8967 1.68778 51.4179L8.63015 58.3696C9.68669 59.4144 11.1127 60.0002 12.5986 60H47.485C48.9716 60.0036 50.3988 59.4173 51.4534 58.3696L58.3958 51.4179C58.9191 50.8983 59.3338 50.2799 59.6158 49.5987C59.8978 48.9174 60.0416 48.1868 60.0387 47.4495V12.5755C60.0416 11.8381 59.8978 11.1075 59.6158 10.4263C59.3338 9.74498 58.9191 9.12659 58.3958 8.60705" fill="white"></path></svg> 