<svg preserveAspectRatio="none" width="180" height="24" viewBox="0 0 180 24" fill="none" xmlns="http://www.w3.org/2000/svg">
<path d="M168.402 13.7408C168.157 13.7526 167.909 13.7593 167.668 13.7795C167.512 13.7921 167.446 13.7451 167.342 13.7192C167.307 13.7103 167.27 13.6929 167.238 13.6944C166.995 13.7063 166.752 13.7203 166.509 13.7342C166.434 13.7733 166.387 13.8263 166.273 13.8438C166.161 13.8603 166.03 13.8578 165.906 13.8648C165.742 13.873 165.578 13.8813 165.415 13.8885C165.333 13.8921 165.266 13.9105 165.238 13.9473C165.233 13.9535 165.287 13.9701 165.317 13.98C165.416 14.013 165.512 14.0502 165.621 14.0762C165.725 14.101 165.854 14.0661 165.965 14.0973C166.215 14.1676 166.217 14.1666 166.408 14.1578C166.572 14.1496 166.736 14.1403 166.899 14.1351C166.931 14.1337 166.968 14.15 167.003 14.1589C167.107 14.1838 167.173 14.237 167.327 14.2202C167.444 14.2069 167.573 14.2063 167.694 14.2003C167.795 14.2324 167.889 14.2685 167.998 14.2944C168.099 14.3192 168.129 14.3375 168.074 14.3665C168.024 14.3936 167.955 14.4036 167.863 14.4039C167.781 14.4034 167.699 14.4111 167.618 14.4147C167.575 14.417 167.536 14.4184 167.496 14.4207C167.34 14.4291 167.34 14.4291 167.056 14.3572C166.944 14.3291 166.818 14.3629 166.711 14.336C166.64 14.318 166.578 14.2919 166.509 14.2729C166.479 14.2651 166.432 14.2631 166.395 14.2645C166.271 14.2693 166.147 14.2721 166.028 14.2833C165.944 14.291 165.894 14.3191 165.903 14.3484C165.906 14.3598 165.965 14.3776 166 14.3793C166.079 14.3829 166.163 14.37 166.24 14.3787C166.314 14.3874 166.391 14.4097 166.445 14.4336C166.556 14.4835 166.683 14.4434 166.789 14.4579C166.901 14.4735 166.992 14.5168 167.098 14.5438C167.126 14.5505 167.178 14.5411 167.22 14.5388C167.341 14.5339 167.463 14.5301 167.584 14.5252C167.686 14.5572 167.794 14.5863 167.886 14.6223C168.051 14.6878 168.229 14.7151 168.445 14.6892C168.567 14.6749 168.686 14.6835 168.782 14.7258C168.88 14.7692 168.995 14.7673 169.121 14.7614C169.237 14.7554 169.357 14.7348 169.475 14.7662C169.732 14.8355 169.735 14.8387 170.04 14.8197C170.132 14.8142 170.201 14.8135 170.27 14.8387C170.334 14.8617 170.403 14.8817 170.47 14.9038C170.592 14.8989 170.716 14.894 170.837 14.888C170.993 14.8796 171.08 14.8958 171.116 14.9547C171.138 14.9904 171.148 15.0227 171.202 15.0477C171.266 15.078 171.336 15.0783 171.43 15.0718C171.519 15.0663 171.584 15.0561 171.621 15.0195C171.636 15.0042 171.666 14.9902 171.694 14.9783C171.716 14.9694 171.751 14.9555 171.771 14.958C171.808 14.9629 171.857 14.9752 171.869 14.989C171.99 15.1169 171.99 15.1179 172.113 15.1566C172.249 15.1997 172.39 15.2388 172.513 15.2868C172.624 15.3295 172.736 15.314 172.858 15.3163C172.949 15.3181 173.008 15.3462 173.001 15.3731C172.996 15.3885 172.961 15.4107 172.931 15.4122C172.688 15.4282 172.442 15.4411 172.197 15.4509C172.167 15.4524 172.13 15.433 172.096 15.423C172.027 15.403 171.965 15.3727 171.891 15.3651C171.816 15.3574 171.729 15.3713 171.648 15.3749C171.566 15.3785 171.479 15.3903 171.405 15.3806C171.33 15.3709 171.271 15.3396 171.202 15.3185C171.17 15.3086 171.126 15.2942 171.098 15.2968C170.917 15.3182 170.784 15.2814 170.655 15.2332C170.628 15.2234 170.581 15.2162 170.546 15.2176C170.259 15.2297 169.974 15.245 169.686 15.2591C169.57 15.2652 169.476 15.227 169.452 15.1653C169.439 15.1308 169.415 15.0961 169.415 15.0619C169.416 14.9996 169.28 14.9627 169.181 14.9681C169.017 14.9753 168.851 14.9804 168.69 14.9928C168.559 15.0027 168.447 14.9881 168.358 14.949C168.255 14.9045 168.136 14.9105 168.017 14.9196C167.927 14.9262 167.902 14.9599 167.906 15.0462C167.911 15.1158 167.868 15.1368 167.707 15.1451C167.504 15.1556 167.298 15.1662 167.092 15.1736C167.06 15.1751 167.023 15.1567 166.991 15.1468C166.922 15.1267 166.86 15.0954 166.786 15.0878C166.712 15.0791 166.625 15.093 166.543 15.0976C166.461 15.1012 166.374 15.1141 166.3 15.1054C166.226 15.0967 166.164 15.0643 166.097 15.0433C166.065 15.0334 166.026 15.0191 165.993 15.0206C165.83 15.0257 165.666 15.035 165.503 15.0432C165.319 15.0521 165.319 15.0521 165.06 14.9828C164.941 14.9514 164.822 14.9719 164.705 14.978C164.581 14.9839 164.465 14.9858 164.369 14.9424C164.304 14.9142 164.233 14.8962 164.156 14.8999C163.95 14.9084 163.747 14.92 163.541 14.9285C163.506 14.9299 163.459 14.9238 163.432 14.9139C163.301 14.8678 163.173 14.8311 162.989 14.8493C162.83 14.8649 162.659 14.8626 162.501 14.8772C162.414 14.8849 162.374 14.9173 162.391 14.9436C162.401 14.9573 162.453 14.9738 162.487 14.9745C162.567 14.9771 162.653 14.9632 162.728 14.9709C162.881 14.9863 162.957 15.0749 163.158 15.0549C163.277 15.0427 163.401 15.0399 163.525 15.0382C163.557 15.0378 163.592 15.0582 163.626 15.0692C163.725 15.0991 163.812 15.1371 163.955 15.1212C164.074 15.109 164.201 15.1073 164.322 15.1014C164.516 15.0916 164.516 15.0926 164.765 15.1608C164.884 15.1932 165.003 15.1716 165.12 15.1666C165.206 15.1631 165.288 15.1543 165.358 15.1702C165.464 15.194 165.54 15.2453 165.672 15.2447C165.795 15.244 165.917 15.2318 166.041 15.229C166.118 15.2274 166.19 15.2454 166.251 15.2746C166.315 15.3039 166.385 15.3177 166.469 15.3131C166.59 15.3071 166.714 15.2992 166.838 15.2964C166.873 15.296 166.913 15.3061 166.945 15.315C167.014 15.3351 167.081 15.3581 167.147 15.3792C167.269 15.3753 167.393 15.3756 167.512 15.3655C167.603 15.3579 167.668 15.3633 167.742 15.3855C167.836 15.4153 167.912 15.4666 168.066 15.4457C168.143 15.4358 168.232 15.4406 168.309 15.4317C168.403 15.4201 168.468 15.4265 168.534 15.4589C168.66 15.5205 168.819 15.5246 168.982 15.505C169.161 15.4835 169.295 15.5152 169.428 15.5634C169.569 15.6139 169.569 15.6128 169.677 15.7301C169.708 15.7639 169.8 15.7813 169.877 15.7765C170.006 15.7687 170.117 15.776 170.211 15.8173C170.31 15.8617 170.429 15.8588 170.55 15.8498C170.711 15.8373 170.873 15.827 171.003 15.8897C171.067 15.92 171.137 15.9286 171.224 15.923C171.469 15.9091 171.717 15.9025 171.957 15.8843C172.104 15.8726 172.188 15.9074 172.286 15.9373C172.42 15.9783 172.566 16.0154 172.565 16.0974C172.565 16.1109 172.599 16.1271 172.629 16.1381C172.693 16.1611 172.762 16.1811 172.829 16.2032C172.928 16.2362 173.024 16.264 173.161 16.25C173.28 16.2389 173.406 16.2372 173.528 16.2302C173.649 16.2232 173.761 16.2201 173.869 16.2617C173.995 16.3087 174.129 16.3539 174.272 16.3899C174.373 16.4157 174.508 16.3778 174.616 16.4121C174.683 16.4331 174.747 16.4572 174.819 16.4752C174.849 16.483 174.896 16.4787 174.935 16.4774C175.017 16.4749 175.101 16.4734 175.181 16.4645C175.273 16.4549 175.342 16.4583 175.411 16.4835C175.475 16.5066 175.539 16.5379 175.614 16.5456C175.725 16.5571 175.849 16.518 175.96 16.5678C176.017 16.5928 176.089 16.617 176.163 16.6257C176.237 16.6344 176.324 16.6205 176.403 16.6231C176.438 16.6238 176.48 16.6412 176.5 16.6551C176.512 16.6626 176.495 16.682 176.477 16.692C176.455 16.704 176.422 16.72 176.39 16.7215C176.145 16.7354 175.899 16.7462 175.654 16.7591C175.507 16.7667 175.507 16.7667 175.213 16.6956C175.144 16.6787 175.067 16.6803 174.98 16.6859C174.864 16.693 174.745 16.7083 174.624 16.6873C174.466 16.6137 174.27 16.6036 174.062 16.6266C173.975 16.6363 173.895 16.6348 173.831 16.6138C173.695 16.5718 173.552 16.5327 173.431 16.4836C173.337 16.4455 173.293 16.4415 173.253 16.4905C173.24 16.5059 173.227 16.5222 173.23 16.5368C173.244 16.589 173.271 16.6403 173.285 16.6925C173.29 16.7071 173.27 16.7234 173.258 16.7387C173.217 16.7815 173.165 16.7774 173.079 16.7394C172.993 16.7014 172.889 16.6755 172.75 16.6894C172.631 16.7017 172.502 16.6971 172.383 16.7103C172.199 16.7296 172.071 16.6939 171.94 16.6468C171.913 16.6369 171.866 16.6308 171.831 16.6322C171.462 16.6489 171.095 16.6688 170.725 16.6855C170.646 16.6892 170.574 16.6722 170.513 16.643C170.449 16.6138 170.377 16.5978 170.297 16.6015C169.97 16.617 169.643 16.6303 169.316 16.651C169.182 16.6598 169.075 16.6443 168.984 16.6062C168.915 16.5778 168.851 16.5683 168.764 16.5697C168.67 16.571 168.603 16.5801 168.555 16.6093C168.51 16.6375 168.542 16.6557 168.641 16.6805C168.748 16.7075 168.846 16.7415 168.948 16.7726C169.029 16.77 169.111 16.7633 169.191 16.7658C169.225 16.7665 169.257 16.7858 169.292 16.7969C169.391 16.8289 169.482 16.8607 169.623 16.8469C169.743 16.8346 169.869 16.834 169.99 16.827C170.159 16.8188 170.159 16.8188 170.431 16.8895C170.5 16.9074 170.574 16.9078 170.664 16.9002C170.741 16.8944 170.82 16.9105 170.874 16.9427C170.896 16.9556 170.889 16.9762 170.841 17.0438C170.84 17.0946 170.893 17.0728 170.91 17.0399C170.938 16.9927 170.886 16.9761 170.787 17.0002C170.717 17.0175 170.682 17.0438 170.699 17.0659C170.709 17.0775 170.756 17.093 170.841 17.0438C171.06 16.9857 171.226 16.9817 171.384 16.9681C171.479 16.9606 171.538 16.9659 171.612 16.9943C171.701 17.0282 171.79 17.0642 171.936 17.0504C172.095 17.0348 172.263 17.036 172.425 17.0235C172.573 17.0119 172.65 17.059 172.744 17.0878C172.857 17.1222 172.984 17.0883 173.088 17.109C173.197 17.1298 173.273 17.177 173.399 17.1877C173.583 17.1632 173.699 17.2174 173.837 17.2543C173.946 17.2824 174.075 17.262 174.192 17.2529C174.323 17.2429 174.432 17.2565 174.523 17.2956C174.627 17.3402 174.744 17.3331 174.863 17.326C175.14 17.3107 175.15 17.3077 175.311 17.3679C175.427 17.4117 175.538 17.3952 175.655 17.3922C175.756 17.4222 175.855 17.4542 175.961 17.4812C175.989 17.4879 176.041 17.4786 176.083 17.4763C176.204 17.4703 176.328 17.4644 176.45 17.4585C176.532 17.4549 176.619 17.441 176.693 17.4486C176.767 17.4573 176.829 17.4886 176.895 17.5096C176.962 17.5307 177.031 17.5517 177.096 17.5737C177.194 17.6068 177.288 17.6345 177.427 17.6216C177.546 17.6105 177.67 17.6087 177.794 17.6018C177.95 17.5934 177.945 17.5964 178.235 17.6643C178.39 17.7015 178.552 17.6631 178.71 17.662C178.79 17.6615 178.866 17.6744 178.921 17.7056C178.943 17.7184 178.935 17.739 178.942 17.7568C178.533 17.7769 178.122 17.7928 177.718 17.8193C177.561 17.8297 177.48 17.7908 177.396 17.758C177.258 17.7055 177.074 17.7746 176.943 17.7077C176.864 17.6678 176.75 17.6438 176.614 17.6599C176.534 17.6687 176.45 17.666 176.368 17.6738C176.16 17.6926 175.969 17.6899 175.804 17.6151C175.747 17.5891 175.666 17.5741 175.606 17.549C175.537 17.5218 175.47 17.5059 175.389 17.5095C175.019 17.5273 174.652 17.5451 174.285 17.565C174.253 17.5664 174.221 17.5814 174.193 17.5923C174.124 17.62 174.146 17.6432 174.257 17.6641C174.294 17.671 174.324 17.6851 174.358 17.6961C174.425 17.7171 174.487 17.7495 174.561 17.7582C174.635 17.7669 174.722 17.754 174.804 17.7504C174.886 17.7468 174.973 17.7329 175.047 17.7406C175.121 17.7493 175.183 17.7806 175.252 17.8006C175.284 17.8106 175.324 17.8269 175.356 17.8265C175.519 17.8234 175.681 17.8151 175.844 17.809C175.946 17.8389 176.032 17.8811 176.153 17.8928C176.23 17.9005 176.312 17.8907 176.391 17.8943C176.426 17.896 176.47 17.9124 176.487 17.9262C176.497 17.9347 176.465 17.9549 176.44 17.9648C176.345 18.0024 176.217 17.9926 176.1 18.0028C175.974 18.0138 175.86 18.0075 175.763 17.9652C175.699 17.9369 175.627 17.921 175.548 17.9247C175.342 17.9342 175.139 17.9458 174.933 17.9532C174.899 17.9546 174.857 17.9445 174.824 17.9366C174.565 17.8683 174.565 17.8662 174.381 17.8761C174.111 17.8906 174.111 17.8906 173.931 17.8321C173.896 17.8211 173.859 17.8007 173.83 17.8011C173.542 17.8122 173.257 17.8232 172.972 17.8416C172.877 17.847 172.813 17.8458 172.744 17.8175C172.685 17.7935 172.616 17.7662 172.541 17.7585C172.465 17.7508 172.38 17.7648 172.298 17.7684C172.217 17.772 172.13 17.7838 172.058 17.7741C171.984 17.7643 171.92 17.7341 171.855 17.7121C171.789 17.689 171.717 17.6886 171.625 17.6951C171.342 17.7135 171.34 17.7104 171.061 17.6406C171.028 17.6327 170.986 17.6236 170.952 17.625C170.746 17.6335 170.543 17.6451 170.337 17.6536C170.257 17.6573 170.181 17.6423 170.127 17.6111C170.104 17.5983 170.112 17.5776 170.098 17.5369C170.08 17.5272 170.1 17.5442 170.105 17.5599C170.142 17.5585 170.187 17.5614 170.214 17.5537C170.283 17.5353 170.318 17.51 170.301 17.4879C170.291 17.4763 170.244 17.4608 170.215 17.4603C170.16 17.4592 170.113 17.4811 170.098 17.5369C169.941 17.5681 169.775 17.5722 169.614 17.5856C169.52 17.5942 169.46 17.5879 169.386 17.5594C169.297 17.5245 169.206 17.4906 169.059 17.5043C168.901 17.5199 168.732 17.5198 168.569 17.5312C168.38 17.5441 168.299 17.4491 168.141 17.4482C167.977 17.4471 167.813 17.4615 167.65 17.4708C167.506 17.4784 167.506 17.4784 167.209 17.4052C167.1 17.3782 166.971 17.412 166.865 17.384C166.793 17.366 166.732 17.3399 166.662 17.321C166.633 17.3131 166.586 17.3122 166.549 17.3136C166.343 17.322 166.135 17.3263 165.936 17.3453C165.71 17.3679 165.54 17.3356 165.379 17.2712C165.176 17.2787 164.97 17.2809 164.769 17.2968C164.623 17.3085 164.539 17.2726 164.44 17.2427C164.406 17.2327 164.376 17.2165 164.339 17.2117C164.302 17.2068 164.257 17.2142 164.217 17.2166C164.054 17.2248 163.885 17.2267 163.727 17.2424C163.531 17.2624 163.457 17.1759 163.306 17.1626C163.204 17.2115 163.149 17.2799 162.948 17.2812C162.784 17.2822 162.621 17.2957 162.457 17.3039C162.375 17.3075 162.294 17.3122 162.212 17.3158C162.08 17.3226 162.018 17.3619 162.045 17.4246C162.059 17.4592 162.071 17.4937 162.083 17.5281C162.107 17.5898 162.045 17.6405 161.941 17.6458C161.653 17.6599 161.368 17.6752 161.081 17.6872C161.004 17.6909 160.929 17.6719 160.868 17.6426C160.804 17.6134 160.732 17.5995 160.653 17.6032C160.365 17.6174 160.08 17.6326 159.792 17.6447C159.76 17.6461 159.718 17.6349 159.686 17.626C159.617 17.606 159.55 17.5829 159.483 17.5619C159.32 17.5681 159.159 17.5712 158.997 17.5805C158.737 17.5941 158.737 17.5952 158.547 17.5344C158.512 17.5234 158.478 17.503 158.446 17.5034C158.322 17.5052 158.2 17.5132 158.076 17.5201C157.712 17.5401 157.712 17.5401 157.605 17.5069C157.509 17.4759 157.423 17.439 157.276 17.4528C157.118 17.4684 156.949 17.4713 156.785 17.4785C156.664 17.4835 156.542 17.4894 156.421 17.4891C156.389 17.4896 156.354 17.4692 156.32 17.4581C156.221 17.424 156.125 17.3962 155.988 17.4112C155.909 17.4201 155.824 17.4205 155.743 17.4241C155.529 17.4345 155.529 17.4345 155.181 17.3655C155.146 17.3586 155.104 17.3505 155.069 17.353C154.782 17.3661 154.497 17.3813 154.209 17.3934C154.174 17.3948 154.132 17.3878 154.098 17.3819C153.707 17.3141 153.707 17.3141 153.29 17.3351C153.131 17.3425 153.126 17.3465 152.961 17.2883C152.887 17.263 152.825 17.2504 152.738 17.256C152.411 17.2745 152.081 17.2848 151.756 17.3075C151.61 17.3172 151.526 17.2844 151.427 17.2545C151.393 17.2445 151.356 17.223 151.326 17.2235C150.999 17.2368 150.671 17.2544 150.344 17.2678C150.314 17.2693 150.278 17.2478 150.243 17.2378C150.176 17.2178 150.112 17.1885 150.038 17.1809C149.961 17.1732 149.877 17.1871 149.792 17.1907C149.587 17.2002 149.587 17.1991 149.349 17.1333C149.317 17.1244 149.275 17.1122 149.243 17.1136C148.916 17.128 148.586 17.1393 148.261 17.1631C148.075 17.1761 147.949 17.1436 147.818 17.0974C147.791 17.0876 147.744 17.0825 147.709 17.0839C147.34 17.1006 146.973 17.1205 146.603 17.1373C146.527 17.141 146.452 17.1219 146.391 17.0937C146.292 17.0492 146.176 17.0522 146.052 17.0591C145.766 17.0754 145.764 17.0743 145.596 17.0212C145.561 17.0102 145.532 16.9961 145.495 16.9902C145.46 16.9844 145.415 16.9866 145.378 16.988C145.215 16.9952 145.051 17.0034 144.887 17.0117C144.724 17.0199 144.558 17.0229 144.396 17.0375C144.198 17.0554 144.104 16.9861 143.966 16.9523C143.763 16.9619 143.555 16.9662 143.354 16.9841C143.2 16.9977 143.128 16.9507 143.027 16.9248C142.993 16.9158 142.955 16.8975 142.923 16.8989C142.554 16.9146 142.184 16.9324 141.817 16.9533C141.728 16.9578 141.669 16.9483 141.595 16.922C141.429 16.8628 141.422 16.8647 141.144 16.8801C141.023 16.8871 140.906 16.8931 140.802 16.8486C140.711 16.8084 140.6 16.7969 140.468 16.8068C140.307 16.8192 140.141 16.8243 139.977 16.8316C139.814 16.8398 139.65 16.8522 139.487 16.8542C139.355 16.8569 139.276 16.8066 139.172 16.7797C139.14 16.7718 139.096 16.7699 139.059 16.7712C138.895 16.7774 138.726 16.7814 138.568 16.796C138.374 16.814 138.268 16.7549 138.132 16.7191C138.103 16.7112 138.053 16.7144 138.016 16.7168C137.728 16.7299 137.443 16.7451 137.155 16.7593C137.054 16.7293 136.95 16.7003 136.849 16.6703C136.685 16.6776 136.522 16.6858 136.358 16.693C136.234 16.6989 136.108 16.6996 135.991 16.7129C135.84 16.7307 135.766 16.6805 135.665 16.6547C135.63 16.6457 135.593 16.6274 135.561 16.6288C135.355 16.6362 135.149 16.6447 134.946 16.6584C134.752 16.6723 134.677 16.5774 134.518 16.5754C134.354 16.5733 134.186 16.5835 134.027 16.5991C133.844 16.6174 133.715 16.5817 133.584 16.5345C133.557 16.5246 133.51 16.5185 133.475 16.52C133.269 16.5284 133.066 16.5401 132.86 16.5485C132.826 16.5499 132.784 16.5439 132.749 16.537C132.358 16.4682 132.358 16.4672 132.187 16.4763C132.066 16.4823 131.942 16.4903 131.818 16.4931C131.783 16.4945 131.741 16.4843 131.709 16.4754C131.452 16.4071 131.452 16.4061 131.266 16.4149C131.102 16.4232 130.938 16.4314 130.775 16.4397C130.673 16.4097 130.57 16.3807 130.468 16.3507C130.265 16.3603 130.057 16.3666 129.856 16.3814C129.762 16.3879 129.7 16.3836 129.628 16.3563C129.539 16.3234 129.45 16.2854 129.302 16.3001C129.143 16.3157 128.974 16.3145 128.813 16.327C128.62 16.3419 128.541 16.246 128.385 16.244C128.222 16.2419 128.053 16.2521 127.894 16.2677C127.711 16.2859 127.582 16.2502 127.451 16.2031C127.424 16.1932 127.377 16.1871 127.343 16.1885C126.891 16.2099 126.443 16.2313 125.991 16.2547C125.714 16.2691 125.714 16.2701 125.186 16.2028C125.149 16.198 125.11 16.1931 125.072 16.1944C124.909 16.2006 124.74 16.2046 124.582 16.2192C124.388 16.2372 124.282 16.1791 124.146 16.1422C124.116 16.1344 124.069 16.1376 124.03 16.1389C123.906 16.1438 123.784 16.1508 123.66 16.1567C123.497 16.165 123.333 16.1732 123.169 16.1814C123.068 16.1525 122.964 16.1225 122.863 16.0935C122.66 16.1031 122.451 16.1063 122.251 16.1242C122.097 16.1379 122.025 16.0929 121.924 16.066C121.889 16.057 121.852 16.0387 121.82 16.0391C121.451 16.0548 121.081 16.0715 120.714 16.0935C120.563 16.103 120.494 16.0549 120.393 16.0291C120.358 16.0212 120.319 16.0069 120.287 16.0084C120.041 16.0182 119.796 16.0311 119.55 16.0439C119.411 16.0516 119.411 16.0516 119.11 15.9815C119.075 15.9735 119.035 15.9655 119.001 15.9669C118.222 16.0037 117.446 16.0437 116.668 16.0805C116.588 16.0842 116.517 16.0672 116.455 16.038C116.391 16.0088 116.319 15.9928 116.24 15.9965C115.912 16.012 115.583 16.0253 115.258 16.046C115.124 16.0548 115.018 16.0393 114.926 16.0012C114.857 15.9728 114.793 15.9612 114.706 15.9658C114.542 15.9751 114.379 15.9823 114.215 15.9905C114.052 15.9988 113.888 16.007 113.724 16.0153C113.561 16.0235 113.395 16.0265 113.233 16.0411C113.035 16.059 112.939 15.9928 112.803 15.958C112.558 15.9688 112.312 15.9796 112.069 15.9916C111.742 16.007 111.414 16.0246 111.087 16.039C111.057 16.0405 111.021 16.0211 110.986 16.0111C110.885 15.9832 110.811 15.9454 110.659 15.9539C109.925 15.9947 109.187 16.0271 108.45 16.0668C108.296 16.0753 108.23 16.0293 108.126 16.0035C108.092 15.9955 108.052 15.9802 108.02 15.9817C107.611 15.9997 107.202 16.0209 106.793 16.041C106.626 16.0492 106.626 16.0492 106.35 15.9795C106.317 15.9716 106.275 15.9614 106.241 15.9628C105.708 15.9878 105.177 16.0149 104.644 16.0409C104.565 16.0446 104.493 16.0286 104.429 15.9994C104.367 15.9702 104.293 15.9532 104.216 15.9569C103.725 15.9806 103.232 16.0032 102.743 16.0301C102.612 16.0379 102.503 16.0265 102.409 15.9873C102.343 15.959 102.276 15.9463 102.192 15.9509C101.455 15.9875 100.719 16.022 99.9824 16.0618C99.841 16.0694 99.7421 16.0478 99.6533 16.0118C99.5817 15.9834 99.5198 15.977 99.4305 15.9795C99.3363 15.9828 99.2793 15.9931 99.2269 16.0233C99.1596 16.0624 99.117 16.1125 98.9584 16.1125C98.7948 16.1125 98.6287 16.1217 98.4675 16.1362C98.3137 16.1509 98.2423 16.1028 98.146 16.0729C98.0743 16.0518 98.0074 16.0474 97.9157 16.055C97.8313 16.0616 97.7791 16.0783 97.7293 16.1105C97.6196 16.179 97.6096 16.1788 97.4763 16.1316C97.4047 16.1063 97.3404 16.0864 97.2611 16.089C96.9338 16.1034 96.6065 16.1199 96.2793 16.1375C96.0908 16.1473 96.0884 16.1493 95.9476 16.0947C95.8785 16.0674 95.8117 16.0537 95.7299 16.0583C94.8299 16.1032 93.9299 16.146 93.0299 16.1939C92.891 16.2016 92.7971 16.178 92.6983 16.145C92.6661 16.134 92.6341 16.1188 92.597 16.114C92.5598 16.1091 92.5177 16.1124 92.478 16.1137C91.8235 16.1457 91.1664 16.1755 90.5143 16.2127C90.3655 16.2213 90.2866 16.1865 90.1853 16.1576C90.1507 16.1476 90.1211 16.1325 90.0839 16.1276C90.0468 16.1238 90.0021 16.1302 89.9625 16.1325C89.3079 16.1645 88.6509 16.1943 87.9988 16.2315C87.8426 16.2399 87.7761 16.195 87.6748 16.1702C87.6402 16.1613 87.6032 16.145 87.5709 16.1464C87.3652 16.1539 87.1619 16.1655 86.9561 16.175C86.4652 16.1998 85.9742 16.2224 85.4833 16.2482C85.2948 16.2581 85.214 16.1641 85.0554 16.1652C84.8497 16.1664 84.6463 16.1832 84.4405 16.1938C84.2769 16.202 84.1133 16.2093 83.9496 16.2185C83.7884 16.2268 83.7884 16.2268 83.3876 16.1589C83.353 16.153 83.311 16.1449 83.2763 16.1464C82.7035 16.1737 82.1284 16.2009 81.5581 16.2314C81.4267 16.2382 81.3177 16.2309 81.2239 16.1907C81.1573 16.1624 81.088 16.1476 81.0062 16.1522C80.1459 16.1947 79.288 16.2373 78.4277 16.2788C78.3954 16.2802 78.3534 16.269 78.3213 16.2601C78.2521 16.2401 78.1854 16.217 78.1187 16.196C78.0689 16.2189 78.0043 16.2395 77.9718 16.2658C77.9269 16.3013 77.8673 16.3105 77.7731 16.3149C77.6789 16.3193 77.6195 16.3161 77.5454 16.2877C77.4565 16.2527 77.3651 16.225 77.2188 16.2325C76.3188 16.2805 75.4187 16.3223 74.5187 16.3692C74.37 16.3767 74.3011 16.3297 74.1972 16.3038C74.1626 16.2959 74.123 16.2837 74.0908 16.2852C73.7214 16.3019 73.3545 16.3207 72.985 16.3385C71.9611 16.3892 70.9372 16.4369 69.9156 16.4918C69.7297 16.5017 69.6035 16.4734 69.4727 16.4262C69.4455 16.4163 69.3985 16.4102 69.3638 16.4116C67.9307 16.4815 66.4976 16.5523 65.067 16.6232C64.9902 16.6269 64.916 16.6089 64.8543 16.5807C64.7902 16.5515 64.7185 16.5366 64.6391 16.5402C63.9846 16.5722 63.33 16.6042 62.6755 16.6372C62.5119 16.6454 62.5093 16.6464 62.3413 16.5933C62.3068 16.5823 62.2698 16.5618 62.2425 16.5634C62.1855 16.5675 62.1307 16.5924 62.0907 16.6269C62.0507 16.6635 61.9887 16.6726 61.8969 16.6781C61.8027 16.6836 61.7408 16.6793 61.6692 16.653C61.5778 16.6201 61.4939 16.5883 61.3451 16.5958C59.4632 16.6923 57.5814 16.7835 55.6996 16.8789C55.5483 16.8863 55.4793 16.8414 55.3755 16.8156C55.3409 16.8076 55.3063 16.7966 55.2692 16.7938C55.2296 16.7909 55.1874 16.7963 55.1477 16.7987C52.0783 16.95 49.0088 17.1023 45.9394 17.2536C45.7559 17.2625 45.7584 17.2625 45.5568 17.3541C45.5319 17.3651 45.4995 17.38 45.4648 17.3814C44.5251 17.4296 43.583 17.4758 42.6408 17.5219C42.2317 17.542 41.8226 17.5631 41.4136 17.5822C41.2673 17.5887 41.2673 17.5887 40.9168 17.694C40.887 17.7028 40.8522 17.7146 40.8175 17.716C39.1811 17.7974 37.5447 17.8789 35.9058 17.9582C35.7769 17.964 35.6727 17.9807 35.6127 18.0294C35.5703 18.0638 35.5156 18.0835 35.4337 18.0882C34.2883 18.1449 33.1428 18.2026 31.9949 18.2572C31.8586 18.2639 31.7765 18.2914 31.7091 18.3337C31.6867 18.3478 31.6667 18.364 31.6344 18.3737C31.6046 18.3825 31.56 18.3848 31.5228 18.3871C30.5409 18.4356 29.5591 18.4862 28.5748 18.5315C28.4286 18.538 28.3687 18.5752 28.2965 18.6143C28.2715 18.6273 28.254 18.6456 28.2217 18.6543C28.1894 18.662 28.1423 18.6611 28.1027 18.6624C27.2845 18.7026 26.4663 18.7439 25.6481 18.7841C25.4896 18.7758 25.4543 18.8354 25.3772 18.8702C25.3498 18.8821 25.3298 18.8983 25.2976 18.906C25.2628 18.9136 25.2181 18.9117 25.176 18.913C24.5214 18.945 23.8669 18.98 23.2099 19.0088C23.0587 19.0152 23.0284 19.0676 22.9463 19.1023C22.9189 19.1132 22.8915 19.1303 22.8593 19.1328C22.4502 19.155 22.0411 19.1751 21.632 19.1942C21.4956 19.2009 21.4956 19.1998 21.2543 19.2979C21.2269 19.3088 21.1946 19.3206 21.1599 19.3231C20.5474 19.3548 19.9326 19.3844 19.3177 19.4151C19.2384 19.4187 19.1836 19.4426 19.1436 19.4771C19.1037 19.5116 19.0465 19.5333 18.9671 19.537C18.4762 19.5617 17.9852 19.5875 17.4943 19.6092C17.358 19.6148 17.2686 19.639 17.2086 19.6846C17.1637 19.719 17.109 19.7356 17.0222 19.7401C16.5313 19.7639 16.0404 19.7907 15.5471 19.8102C15.4033 19.8157 15.3286 19.8496 15.2687 19.892C15.2213 19.9264 15.1666 19.9378 15.0749 19.9422C14.1749 19.985 13.2725 20.0277 12.3749 20.0768C12.2236 20.0853 12.1472 20.0475 12.0483 20.0196C11.9074 19.9805 11.7765 19.9386 11.7773 19.8576C11.7774 19.8452 11.7355 19.8298 11.7058 19.8189C11.4861 19.7368 11.4861 19.7368 11.4522 19.6531C11.4329 19.6019 11.4111 19.5496 11.3942 19.4974C11.3628 19.4116 11.2837 19.3883 11.0556 19.3995C10.9738 19.4031 10.892 19.4087 10.8102 19.4113C10.6887 19.4162 10.5974 19.3802 10.5757 19.3175C10.5636 19.283 10.5491 19.2485 10.5371 19.214C10.661 19.2081 10.6585 19.207 10.8778 19.0857C10.97 19.0346 10.97 19.0346 10.7946 18.9782C10.7279 18.9572 10.6637 18.9342 10.592 18.9141C10.5599 18.9052 10.5178 18.8992 10.4831 18.9006C10.2774 18.9091 10.0741 18.9197 9.87075 18.9303C9.54347 18.9468 9.54343 18.9467 9.21245 18.8345C9.18528 18.8257 9.14331 18.8093 9.14835 18.8011C9.17597 18.7632 9.24303 18.7479 9.32731 18.7454C9.45125 18.7415 9.57276 18.7335 9.69425 18.7276C9.77606 18.724 9.85788 18.7193 9.9397 18.7157C10.0169 18.6778 10.0966 18.6409 10.1688 18.6018C10.2834 18.5418 10.2834 18.5397 10.1277 18.4931C10.0289 18.4621 9.92262 18.4341 9.8213 18.4052C9.69981 18.4111 9.57584 18.4181 9.45436 18.423C9.30065 18.4293 9.2389 18.4084 9.19991 18.3402C9.1658 18.2804 9.20842 18.2304 9.32747 18.2202C9.449 18.2101 9.5631 18.204 9.62556 18.1523C9.68552 18.1026 9.78976 18.0849 9.91864 18.0832C10.0004 18.0817 10.0823 18.076 10.1641 18.0714C10.2707 18.0652 10.3282 18.0133 10.3065 17.9538C10.2945 17.9151 10.27 17.8825 10.1735 17.8723C9.74519 17.8277 9.74019 17.8286 9.5278 17.7539C9.50804 17.7473 9.49339 17.7284 9.50091 17.7192C9.51345 17.7039 9.54094 17.6815 9.5707 17.679C9.85586 17.6617 10.141 17.6465 10.4261 17.6364C10.5203 17.633 10.5897 17.6271 10.6223 17.5893C10.6674 17.5373 10.6481 17.4881 10.5617 17.4501C10.5346 17.4382 10.4901 17.4228 10.4603 17.4233C10.1331 17.4356 9.8083 17.4532 9.48106 17.4655C9.45131 17.467 9.397 17.4484 9.38474 17.4346C9.36021 17.4093 9.39767 17.3768 9.4845 17.367C9.59863 17.3537 9.71509 17.3549 9.7924 17.3045C9.89966 17.2329 10.0316 17.168 10.1512 17.0997C10.1712 17.0876 10.2037 17.0644 10.1963 17.0622C10.1345 17.0381 10.0628 17.0191 9.99863 16.9961C9.88997 16.9576 9.89044 16.9068 9.91569 16.8585C9.9359 16.8195 10.0104 16.8053 10.1021 16.8071C10.1417 16.8079 10.1913 16.8088 10.2236 16.8001C10.308 16.7789 10.3356 16.7504 10.2937 16.7278C10.269 16.7149 10.2246 16.6964 10.1948 16.6979C9.66428 16.7218 9.13122 16.7447 8.60305 16.7771C8.44684 16.7865 8.37542 16.7457 8.28154 16.7158C8.2099 16.6926 8.14304 16.683 8.05369 16.6969C7.9693 16.7098 7.88765 16.6999 7.83595 16.6647C7.79411 16.6358 7.86865 16.6134 8.06961 16.5903C8.10683 16.5858 8.14896 16.5835 8.17632 16.5737C8.46482 16.4672 8.46482 16.4661 8.66318 16.4555C8.85657 16.4457 8.85663 16.4447 8.9588 16.3864C9.00615 16.3593 9.05841 16.3323 9.10329 16.3041C9.12075 16.2931 9.15072 16.2729 9.14087 16.2665C9.08667 16.2332 9.01239 16.2245 8.9256 16.2301C8.73216 16.244 8.50439 16.2251 8.40184 16.3217C8.36184 16.3583 8.29979 16.3675 8.21053 16.372C7.31302 16.4148 6.41544 16.4618 5.51547 16.5025C5.36919 16.509 5.30196 16.5461 5.24456 16.5875C5.19466 16.6219 5.14004 16.6312 5.04582 16.6356C4.95161 16.64 4.87721 16.6417 4.82304 16.6064C4.79103 16.585 4.81857 16.5565 4.89319 16.5288C5.00013 16.4894 4.98081 16.4371 4.9466 16.3877C4.92213 16.355 4.84555 16.3307 4.76377 16.3312C4.64232 16.333 4.52579 16.3422 4.42461 16.2987C4.36537 16.2737 4.29119 16.2556 4.22449 16.2336C4.09607 16.1886 3.96765 16.1425 3.7865 16.167C3.66272 16.1542 3.57637 16.1152 3.47754 16.0842C3.312 16.0333 3.29721 16.0257 3.41663 15.9772C3.55098 15.9227 3.44763 15.846 3.52251 15.7914C3.60238 15.7327 3.71195 15.6819 3.80913 15.6278C3.83404 15.6137 3.85648 15.6006 3.8814 15.5866C3.82462 15.5647 3.77285 15.5378 3.70609 15.522C3.61956 15.5016 3.57518 15.4779 3.58076 15.4137C3.56351 15.404 3.57066 15.428 3.59042 15.4346C3.61266 15.4413 3.66726 15.4372 3.69458 15.4304C3.76415 15.412 3.79906 15.3868 3.78192 15.3646C3.77212 15.353 3.72523 15.3376 3.69549 15.337C3.64098 15.336 3.59369 15.3579 3.57828 15.4136C3.30036 15.4508 3.0127 15.466 2.72513 15.477C2.69538 15.4785 2.65843 15.4571 2.62385 15.446C2.51022 15.4085 2.51019 15.4096 2.17581 15.3927C2.14113 15.391 2.09422 15.3756 2.07702 15.3607C2.00578 15.296 2.00895 15.2265 1.97492 15.1584C2.03977 15.1161 2.10455 15.0748 2.17187 15.0335C2.3065 14.95 2.48072 14.8776 2.5857 14.7852C2.5639 14.7339 2.53466 14.6825 2.64408 14.6431C2.9543 14.5972 2.95184 14.5972 3.03657 14.549C3.27828 14.4125 3.51751 14.275 3.76911 14.1408C3.83636 14.1057 3.83657 14.086 3.71779 14.0682C3.68066 14.0633 3.64098 14.0615 3.60131 14.0628C3.47736 14.0676 3.35329 14.0839 3.23193 14.0774C3.11055 14.072 3.0218 14.0246 2.92296 13.9946C2.82166 13.9636 2.72037 13.9316 2.61908 13.8995C2.5026 13.9004 2.38589 13.9272 2.26989 13.8782C2.18105 13.8402 2.06981 13.8121 1.96852 13.78C2.0461 13.7026 2.19041 13.6452 2.30259 13.5779C2.40479 13.5165 2.4072 13.5176 2.68022 13.4741C2.80928 13.4538 2.85503 13.3374 2.74634 13.301C2.61543 13.257 2.47708 13.2159 2.34367 13.1739C2.22719 13.1748 2.10801 13.2005 1.99697 13.1516C1.9106 13.1147 1.8117 13.0889 1.66786 13.0996C1.42483 13.1177 1.17695 13.1243 0.931479 13.1383C0.847177 13.1429 0.755516 13.1369 0.718694 13.1009C0.69416 13.0756 0.766352 13.0427 0.848187 13.037C0.972173 13.029 1.08378 13.0188 1.14623 12.9681C1.2062 12.9173 1.31536 12.9039 1.44427 12.8991C1.47897 12.8977 1.51877 12.886 1.53623 12.8739C1.62602 12.8154 1.72564 12.7655 1.9164 12.7712C1.99589 12.752 2.03824 12.7269 2.0137 12.7015C1.99897 12.6877 1.94713 12.6691 1.91738 12.6706C1.71163 12.677 1.50589 12.6834 1.30501 12.6982C1.21078 12.7047 1.13887 12.7053 1.07971 12.6731C1.03779 12.6515 1.06036 12.6239 1.13994 12.5953C1.20957 12.5707 1.2297 12.541 1.22509 12.5057C1.2135 12.4234 1.13939 12.3981 0.901481 12.3987C0.730479 12.3996 0.688487 12.3853 0.65201 12.314C0.642261 12.2972 0.61775 12.2739 0.635205 12.2628C0.742434 12.1943 0.812664 12.1085 1.01368 12.0792C1.09309 12.0682 1.1773 12.0699 1.22711 12.0439C1.27693 12.0178 1.32185 11.9876 1.37414 11.9626C1.43886 11.9327 1.4837 11.9046 1.45416 11.8843C1.40495 11.848 1.32572 11.8434 1.23393 11.8541C1.15454 11.8629 1.07029 11.8623 0.988464 11.867C0.842169 11.8755 0.723529 11.8463 0.70663 11.8003C0.660728 11.679 0.612323 11.5587 0.571375 11.4375C0.566562 11.4229 0.579098 11.4044 0.599041 11.3924C0.668842 11.3501 0.743606 11.3101 0.815874 11.2689C0.900591 11.2218 1.03432 11.2337 1.14838 11.2266C1.30956 11.2162 1.3095 11.2172 1.52603 11.1218C1.61066 11.084 1.7567 11.1024 1.84376 11.0688C1.87112 11.0579 1.91343 11.04 1.9061 11.0295C1.89632 11.0158 1.84689 11.0045 1.80979 10.9975C1.77516 10.9906 1.73308 10.9867 1.69588 10.9891C1.24465 11.0105 0.795883 11.034 0.34466 11.0543C0.2678 11.058 0.183779 11.0335 0.156838 11.0009C0.129877 10.9702 0.13764 10.934 0.133018 10.8997C0.205286 10.8586 0.287403 10.8207 0.349791 10.7762C0.397211 10.7419 0.451881 10.7274 0.546054 10.7271C0.669969 10.7264 0.79151 10.7163 0.930352 10.7096C1.18951 10.5631 1.44377 10.4093 1.72274 10.2631C1.83484 10.2041 1.80823 10.1413 1.83117 10.0763C1.85406 10.0166 2.01996 10.0291 2.13163 10.0137C2.22097 10.0009 2.25098 9.96822 2.21652 9.94472C2.19683 9.93085 2.15241 9.91441 2.11772 9.91374C2.03596 9.91216 1.9541 9.91992 1.87229 9.92353C1.79047 9.92713 1.69636 9.9222 1.62929 9.93855C1.5647 9.95391 1.52222 9.98836 1.4798 10.0176C1.4324 10.0499 1.37039 10.0602 1.27622 10.0604C1.15479 10.0601 1.0333 10.0671 0.911823 10.072C0.778422 10.029 0.640026 9.98687 0.511601 9.94183C0.486905 9.93305 0.482156 9.90909 0.484785 9.89357C0.490135 9.8532 0.453222 9.82757 0.371651 9.80627C0.302437 9.78833 0.245678 9.76336 0.18146 9.74136C0.231287 9.7143 0.286079 9.68837 0.326015 9.65904C0.413352 9.59743 0.522828 9.55389 0.711112 9.55961C0.785838 9.52058 0.845771 9.47192 0.942674 9.44577C1.03461 9.42056 1.19045 9.45056 1.26042 9.39068C1.2954 9.36125 1.3478 9.32802 1.41482 9.31686C1.52155 9.29921 1.6602 9.31228 1.72271 9.25537C1.7602 9.22288 1.81498 9.19384 1.88691 9.18693C1.96877 9.17917 2.05301 9.17873 2.11266 9.16017C2.14498 9.15041 2.17983 9.13448 2.17997 9.11995C2.18006 9.11061 2.13069 9.09512 2.09606 9.08823C2.06392 9.08034 2.0218 9.07434 1.98462 9.07569C1.86067 9.07952 1.73916 9.08859 1.61521 9.09242C1.5805 9.09382 1.54094 9.08579 1.50384 9.07885C1.39498 9.06013 1.4026 9.03953 1.48969 9.00385C1.57676 8.96921 1.63919 8.9237 1.71146 8.88255C1.79082 8.87682 1.88988 8.88185 1.94458 8.86319C2.03657 8.8328 2.10143 8.78735 2.17615 8.74832C2.25798 8.74367 2.34223 8.74323 2.41915 8.7333C2.4514 8.72978 2.46651 8.70724 2.49389 8.69427C2.5437 8.66929 2.58622 8.63275 2.65324 8.62159C2.76244 8.60503 2.89616 8.61488 2.96114 8.55905C2.99863 8.52656 3.05593 8.49239 3.12533 8.49166C3.31863 8.49125 3.40095 8.43575 3.50059 8.38371C3.57531 8.34468 3.73369 8.3685 3.81585 8.32962C3.87061 8.30473 3.91059 8.27332 3.96534 8.24947C3.98774 8.23953 4.03485 8.23526 4.07205 8.23287C4.27537 8.22123 4.48112 8.21379 4.68446 8.20112C4.7167 8.19863 4.7466 8.18365 4.7715 8.17168C4.8238 8.14571 4.85634 8.10897 4.92093 8.09257C4.98552 8.07618 5.07718 8.07796 5.15652 8.0743C5.41187 8.06368 5.43167 8.0682 5.54899 7.98225C5.64384 7.91248 5.8738 7.96779 5.95137 7.89041C5.99642 7.84562 6.07851 7.80984 6.22474 7.80748C6.43046 7.8042 6.63382 7.78841 6.8396 7.7789C7.02307 7.77 7.0206 7.76995 7.21976 7.67728C7.30938 7.63542 7.44066 7.6442 7.5572 7.63815C7.68116 7.63225 7.79525 7.622 7.85522 7.57127C7.91518 7.52158 8.02434 7.50707 8.15078 7.50225C8.2673 7.49724 8.39859 7.50498 8.49067 7.46525C8.71464 7.36995 8.71217 7.36886 8.86837 7.3615C9.11383 7.34964 9.35927 7.33779 9.60473 7.3249C9.76837 7.31665 9.93935 7.31788 10.0932 7.29803C10.2048 7.28358 10.255 7.22643 10.3272 7.18735C10.5305 7.17572 10.7338 7.16408 10.9371 7.15348C11.2223 7.13824 11.5099 7.12513 11.7975 7.11098C11.9217 7.07394 11.94 6.98712 12.1481 6.98699C12.2721 6.98731 12.3936 6.97618 12.5176 6.97027C12.7233 6.95972 12.9267 6.94498 13.1324 6.94169C13.2886 6.93952 13.3163 6.88401 13.3984 6.85031C13.4258 6.83839 13.4508 6.82123 13.483 6.81874C13.8054 6.79592 14.1374 6.79612 14.4525 6.75966C14.4848 6.75614 14.5147 6.73492 14.5223 6.7195C14.5273 6.71129 14.4854 6.69492 14.4582 6.68713C14.4261 6.6782 14.384 6.66909 14.3493 6.67049C13.3254 6.72021 12.3014 6.77098 11.2774 6.8207C11.1336 6.82829 11.1337 6.82725 10.7832 6.93463C10.7534 6.9434 10.7185 6.9531 10.6813 6.95549C10.5177 6.96478 10.3516 6.96884 10.1904 6.98129C10.059 6.9912 9.95012 6.97663 9.85633 6.93745C9.78969 6.90917 9.72037 6.89954 9.6361 6.89998C9.54192 6.90127 9.4799 6.91149 9.42512 6.93845C9.35289 6.97546 9.31523 7.02454 9.16399 7.03199C8.46732 7.06314 7.77056 7.09947 7.07634 7.13378C6.97985 7.11738 6.933 7.09468 6.95803 7.06922C6.97304 7.05395 7.00299 7.03377 7.03274 7.03227C7.31789 7.01599 7.60548 7.00288 7.89061 6.98764C7.93029 6.98529 7.98477 6.98841 8.00717 6.97847C8.11664 6.93388 8.15707 6.8589 8.36277 6.85769C8.48173 6.85688 8.60327 6.84367 8.71738 6.83135C8.74963 6.82782 8.77959 6.8066 8.78717 6.79118C8.78973 6.78293 8.75023 6.76659 8.72057 6.75875C8.61185 6.72655 8.48516 6.76043 8.37634 6.73757C8.33925 6.72959 8.28728 6.7182 8.27997 6.7056C8.27513 6.69409 8.31743 6.67623 8.34728 6.66539C8.37463 6.65554 8.41187 6.64692 8.44906 6.64453C8.77635 6.62699 9.1037 6.60842 9.43094 6.59607C9.56481 6.59139 9.65919 6.56727 9.71912 6.52069C9.76406 6.48627 9.81875 6.46865 9.90304 6.46509C10.4758 6.43777 11.0485 6.40631 11.6237 6.38215C11.7675 6.37663 11.8422 6.34383 11.9021 6.30036C11.9495 6.26599 12.0041 6.25459 12.0959 6.25014C12.9165 6.21205 13.7322 6.16764 14.5528 6.13163C14.7041 6.12521 14.7491 6.08146 14.8263 6.04455C14.8537 6.03159 14.8712 6.01532 14.9059 6.00769C14.9407 6.00006 14.9853 6.00195 15.0274 6.00069C15.682 5.96873 16.3366 5.93366 16.9936 5.90486C17.1473 5.8985 17.1775 5.84718 17.2571 5.8124C17.2845 5.80151 17.3095 5.78332 17.3417 5.78083C17.8327 5.75504 18.3235 5.73133 18.8145 5.70658C19.1417 5.69008 19.469 5.67358 19.7963 5.65811C19.9574 5.65085 19.9574 5.64981 20.1764 5.55545C20.2013 5.54452 20.2362 5.5317 20.2684 5.52921C21.2106 5.48102 22.1502 5.4359 23.0924 5.38875C23.1717 5.38509 23.2289 5.36232 23.2689 5.3278C23.3089 5.29329 23.3662 5.27053 23.443 5.26683C24.1794 5.22918 24.9158 5.19258 25.6546 5.1581C25.7885 5.15239 25.8828 5.1293 25.9428 5.08376C25.9877 5.04934 26.0424 5.03172 26.1267 5.02816C26.8631 4.9926 27.5995 4.95391 28.3383 4.92046C28.4796 4.91386 28.5493 4.87992 28.6191 4.83976C28.644 4.82571 28.6641 4.80223 28.6938 4.80073C29.0608 4.77877 29.4253 4.75572 29.7947 4.74315C29.9484 4.73782 30.0009 4.69524 30.0632 4.65494C30.1131 4.62269 30.1702 4.61238 30.2644 4.61005C30.4701 4.60469 30.6735 4.59099 30.8743 4.57724C30.9041 4.5747 30.9415 4.55259 30.9441 4.53811C30.9493 4.51122 30.8925 4.49144 30.7984 4.48028C29.8166 4.52874 28.8323 4.57715 27.8505 4.62561C27.6893 4.63391 27.6893 4.63392 27.4703 4.72827C27.4455 4.73921 27.4106 4.75203 27.3759 4.75447C26.4337 4.80162 25.4941 4.84779 24.5519 4.89494C24.4726 4.8986 24.4154 4.92136 24.3754 4.95587C24.3354 4.99039 24.2781 5.01315 24.2013 5.01685C23.3013 5.06171 22.4013 5.1076 21.4988 5.1493C21.3649 5.15501 21.2706 5.17704 21.2106 5.22363C21.1657 5.25804 21.111 5.27567 21.0267 5.27923C20.1664 5.32071 19.3085 5.36533 18.4457 5.40468C18.3589 5.40819 18.2948 5.37685 18.3001 5.34893C18.3027 5.33445 18.34 5.31131 18.3698 5.30981C18.8186 5.28425 19.2649 5.25759 19.7161 5.24038C19.8674 5.235 19.9124 5.19021 19.9895 5.1533C20.0144 5.14029 20.0345 5.12303 20.0667 5.11639C20.1015 5.10876 20.1461 5.11067 20.1882 5.10941C21.2519 5.0563 22.3156 5.00216 23.3817 4.95325C23.5354 4.94585 23.5656 4.89557 23.6452 4.86079C23.6726 4.84886 23.6976 4.83067 23.7298 4.82922C24.0571 4.81064 24.3843 4.79518 24.7116 4.77971C25.2843 4.75136 25.8571 4.723 26.4323 4.69469C26.5984 4.68649 26.5984 4.68649 26.8124 4.59307C26.8373 4.58213 26.8722 4.56829 26.9044 4.56684C28.4193 4.49133 29.9342 4.41582 31.4491 4.34135C31.5284 4.33769 31.5856 4.31493 31.6256 4.28041C31.6656 4.24694 31.7228 4.22314 31.7997 4.2184C33.8476 4.11688 35.8931 4.0153 37.9411 3.91586C38.0749 3.90911 38.1693 3.88914 38.2292 3.84152C38.2717 3.80705 38.3289 3.78948 38.4132 3.78489C40.6644 3.67381 42.9157 3.56274 45.1694 3.45067C46.6843 3.3762 48.1992 3.29965 49.7141 3.22725C49.8529 3.2206 49.9275 3.18986 49.9973 3.14866C50.0198 3.13457 50.0423 3.11113 50.0721 3.10963C50.3969 3.08997 50.7217 3.07239 51.0465 3.0548C51.1478 3.08479 51.2491 3.11374 51.3505 3.14372C51.4276 3.10577 51.5024 3.06674 51.5796 3.0288C52.0705 3.0082 52.5541 2.97085 53.0498 2.96591C53.082 2.9655 53.1164 2.98589 53.151 2.99694C53.3808 3.06677 53.5122 3.06412 53.6592 2.97978C53.7116 2.94966 53.7564 2.92251 53.8358 2.91885C54.0812 2.90492 54.3292 2.89726 54.5722 2.88017C54.7036 2.8713 54.8125 2.88378 54.9063 2.92296C54.9729 2.95123 55.0422 2.964 55.1241 2.95935C55.5753 2.93695 56.0241 2.91553 56.4753 2.89105C56.5075 2.8896 56.5374 2.87253 56.5623 2.86056C56.6146 2.83458 56.6595 2.8064 56.7093 2.77934C56.7761 2.79828 56.8503 2.81321 56.9046 2.83709C56.9737 2.86541 57.0381 2.86665 57.1323 2.86121C58.9323 2.77046 60.7348 2.68288 62.5349 2.59109C62.6886 2.58368 62.7551 2.62857 62.8589 2.65341C62.8935 2.66238 62.9281 2.67342 62.9652 2.67622C63.0048 2.67906 63.047 2.67366 63.0867 2.67131C64.438 2.60405 65.7892 2.53782 67.1405 2.47056C67.319 2.46156 67.319 2.46156 67.5835 2.53103C67.6156 2.53995 67.6576 2.55011 67.6924 2.54767C68.3072 2.51909 68.9221 2.4874 69.5345 2.45774C69.6138 2.45408 69.6806 2.47198 69.7522 2.49723C69.893 2.54666 69.9028 2.54686 70.0076 2.48038C70.0574 2.44918 70.1097 2.43046 70.1915 2.4227C70.2808 2.41405 70.3527 2.41857 70.4219 2.43859C70.5207 2.46645 70.5922 2.51141 70.7434 2.50292C71.398 2.46681 72.055 2.43905 72.7071 2.40185C72.8559 2.39331 72.9348 2.43013 73.0337 2.45799C73.0683 2.468 73.1003 2.48315 73.1375 2.48698C73.1746 2.49081 73.2193 2.48441 73.2589 2.48206C74.0771 2.44185 74.8977 2.40273 75.7135 2.35832C75.8672 2.34988 75.9337 2.39578 76.0375 2.42063C76.0721 2.4296 76.1116 2.4449 76.1439 2.44345C76.6348 2.42078 77.1282 2.39606 77.6191 2.37132C77.7952 2.36227 77.7951 2.3633 78.0621 2.43178C78.0942 2.4407 78.1363 2.44982 78.171 2.44842C78.7437 2.4211 79.3189 2.39279 79.8916 2.36444C80.0677 2.35539 80.0677 2.35539 80.5751 2.41918C80.6122 2.42405 80.6518 2.43105 80.689 2.42969C81.3435 2.39773 82.0005 2.36685 82.6551 2.33177C82.7865 2.32498 82.8955 2.33539 82.9893 2.37456C83.0559 2.40284 83.1251 2.4156 83.2069 2.41096C83.9433 2.37435 84.6822 2.33987 85.4161 2.3001C85.5574 2.29246 85.6489 2.31705 85.7477 2.34906C85.7798 2.36006 85.8119 2.37522 85.849 2.38009C85.8861 2.38496 85.9283 2.38162 85.968 2.37927C86.7043 2.34267 87.4431 2.30922 88.1771 2.26842C88.3258 2.25988 88.4048 2.2967 88.5037 2.32456C88.5382 2.33457 88.5752 2.35396 88.605 2.3535C88.8925 2.34142 89.1801 2.33142 89.4653 2.311C89.619 2.29944 89.6855 2.34846 89.7893 2.3733C89.8239 2.38124 89.8634 2.39758 89.8957 2.39613C90.5105 2.36755 91.1254 2.3369 91.7379 2.30516C91.8246 2.30061 91.8889 2.31119 91.9581 2.33951C92.0494 2.3776 92.1558 2.39419 92.2897 2.38537C92.5749 2.36701 92.8624 2.35598 93.15 2.34182C93.3186 2.33367 93.3186 2.33367 93.8335 2.3976C93.8706 2.40247 93.9102 2.40946 93.9474 2.40811C94.4383 2.38439 94.9316 2.36177 95.4201 2.3349C95.5515 2.32706 95.6605 2.33851 95.7542 2.37769C95.8209 2.40596 95.8876 2.41867 95.9719 2.41408C96.4232 2.39167 96.872 2.36922 97.3232 2.34682C97.4869 2.33857 97.6506 2.32201 97.8141 2.32518C97.933 2.32851 98.0193 2.38 98.1256 2.40696C98.1552 2.4148 98.2049 2.40747 98.2445 2.40616C98.8173 2.37781 99.3924 2.35261 99.9627 2.31902C100.111 2.31048 100.19 2.34729 100.289 2.37515C100.324 2.38516 100.361 2.40456 100.391 2.4041C100.596 2.39666 100.8 2.38503 101.005 2.37552C101.251 2.36366 101.499 2.356 101.742 2.33787C101.94 2.32303 102.014 2.41474 102.172 2.42093C102.294 2.42639 102.418 2.41115 102.539 2.4052C102.785 2.39334 103.03 2.37941 103.276 2.36963C103.362 2.36612 103.429 2.35081 103.457 2.31398C103.462 2.30681 103.42 2.29044 103.393 2.28057C103.064 2.16835 103.064 2.16834 102.732 2.18475C102.526 2.1953 102.323 2.20589 102.117 2.21437C102.083 2.21577 102.043 2.2067 102.008 2.19981C101.909 2.18025 101.92 2.15969 102.004 2.12396C102.089 2.08824 102.154 2.04383 102.226 2.00268C102.327 2.03162 102.426 2.06051 102.527 2.08945C102.609 2.08585 102.691 2.08121 102.773 2.07761C103.182 2.05854 103.591 2.03843 104 2.02144C104.03 2.01994 104.067 2.04141 104.101 2.05246C104.2 2.08447 104.289 2.11213 104.433 2.1035C104.8 2.0805 105.169 2.06586 105.536 2.04701C105.697 2.03871 105.697 2.03871 105.979 2.10851C106.011 2.1164 106.053 2.12552 106.088 2.12411C106.458 2.10739 106.825 2.08855 107.194 2.07079C107.273 2.06713 107.35 2.08211 107.407 2.11331C107.429 2.12619 107.424 2.14684 107.516 2.31884C107.807 2.46251 108.008 2.45187 108.211 2.44335C108.298 2.43984 108.375 2.43614 108.432 2.41648C108.462 2.40565 108.499 2.38976 108.499 2.37627C108.5 2.36589 108.445 2.34823 108.411 2.34549C108.165 2.31999 107.932 2.35907 107.692 2.36376C107.58 2.36575 107.484 2.32756 107.465 2.26803C107.46 2.25133 107.453 2.23355 107.445 2.2168C107.438 2.20005 107.433 2.18232 107.426 2.16557C107.329 2.15851 107.272 2.17609 107.23 2.21055C107.195 2.23894 107.145 2.27118 107.078 2.28545C107.011 2.30076 106.919 2.29588 106.837 2.29949C106.758 2.30314 106.671 2.31495 106.597 2.30625C106.523 2.29651 106.463 2.26526 106.394 2.24524C106.362 2.23528 106.323 2.22103 106.29 2.22248C106.005 2.2346 105.723 2.24677 105.44 2.26413C105.291 2.27371 105.217 2.2287 105.123 2.19989C105.049 2.1777 104.975 2.18145 104.962 2.22894C104.929 2.34246 105.042 2.39239 105.295 2.37549C105.503 2.36084 105.692 2.36138 105.855 2.43511C105.877 2.44488 105.929 2.45004 105.961 2.44858C106.164 2.44006 106.365 2.42838 106.569 2.41986C106.606 2.4185 106.645 2.42342 106.68 2.42824C107.185 2.49405 107.185 2.4951 107.356 2.48595C107.438 2.48131 107.517 2.47765 107.511 2.31978C107.669 2.15367 107.917 2.14705 108.157 2.1268C108.314 2.11425 108.38 2.1612 108.481 2.18704C108.516 2.19601 108.553 2.21333 108.585 2.21188C109.118 2.18794 109.649 2.16188 110.18 2.13375C110.269 2.12925 110.333 2.13672 110.402 2.16504C110.491 2.20101 110.59 2.22472 110.731 2.215C111.014 2.19557 111.302 2.18557 111.589 2.17037C111.735 2.16283 111.736 2.16282 112.03 2.23286C112.062 2.24074 112.104 2.24986 112.139 2.24846C112.426 2.23638 112.711 2.22011 112.997 2.20694C113.076 2.20329 113.148 2.21921 113.209 2.24842C113.271 2.27764 113.345 2.2936 113.422 2.2899C113.71 2.27678 113.995 2.26155 114.28 2.24839C114.314 2.24698 114.357 2.25506 114.389 2.26295C114.69 2.33313 114.69 2.33312 114.829 2.32543C115.032 2.3138 115.241 2.31057 115.442 2.2937C115.638 2.27673 115.739 2.33888 115.872 2.37467C116.239 2.3579 116.608 2.34534 116.973 2.32333C117.122 2.31375 117.201 2.34953 117.299 2.37843C117.334 2.38844 117.368 2.40882 117.401 2.40841C117.525 2.40666 117.646 2.3976 117.768 2.39164C117.889 2.38569 118.013 2.37979 118.135 2.37384C118.273 2.40661 118.364 2.47895 118.562 2.45892C118.682 2.44669 118.808 2.44602 118.929 2.44007C119.051 2.43412 119.175 2.42822 119.296 2.42226C119.378 2.41866 119.462 2.41717 119.542 2.40937C119.688 2.39663 119.76 2.44887 119.863 2.47371C119.898 2.48165 119.937 2.49486 119.97 2.49341C120.215 2.48363 120.463 2.47597 120.704 2.45676C120.89 2.44167 121.016 2.47525 121.147 2.52138C121.174 2.53124 121.221 2.53734 121.255 2.53594C121.543 2.52386 121.828 2.50758 122.113 2.49441C122.19 2.49071 122.264 2.50875 122.326 2.53693C122.39 2.56619 122.462 2.58108 122.541 2.57743C122.826 2.56426 123.114 2.54907 123.399 2.5359C123.434 2.5345 123.476 2.54362 123.508 2.55254C123.785 2.62225 123.785 2.62328 123.948 2.614C123.988 2.61165 124.03 2.61038 124.07 2.60804C124.273 2.59744 124.484 2.59634 124.682 2.57527C124.911 2.55166 125.076 2.59016 125.237 2.65242C125.44 2.6439 125.648 2.64066 125.847 2.62374C125.995 2.61106 126.074 2.65202 126.173 2.67988C126.208 2.68989 126.245 2.70929 126.275 2.70779C126.562 2.69571 126.85 2.68571 127.132 2.66523C127.286 2.65368 127.353 2.70166 127.456 2.72754C127.491 2.73651 127.528 2.75177 127.56 2.75031C127.724 2.74518 127.888 2.73589 128.051 2.72764C128.242 2.71784 128.242 2.71887 128.494 2.78706C128.613 2.81946 128.732 2.79789 128.849 2.79288C128.973 2.78698 129.089 2.783 129.188 2.82747C129.249 2.85565 129.324 2.87369 129.4 2.87102C129.564 2.86485 129.73 2.85873 129.891 2.84628C130.02 2.83632 130.132 2.84677 130.225 2.88699C130.292 2.91526 130.361 2.9301 130.443 2.92546C130.81 2.90765 131.18 2.88884 131.546 2.87207C131.579 2.87062 131.623 2.88083 131.653 2.89074C131.722 2.91076 131.789 2.93281 131.855 2.95485C132.017 2.94863 132.183 2.9477 132.341 2.93624C132.51 2.92498 132.664 2.92276 132.794 2.98237C132.822 2.99535 132.861 3.01375 132.893 3.01334C133.017 3.01158 133.139 3.00356 133.26 2.99761C133.382 2.99165 133.506 2.98575 133.627 2.9798C133.768 3.00847 133.857 3.08491 134.055 3.06488C134.174 3.05266 134.3 3.05199 134.422 3.04604C134.543 3.04008 134.667 3.03314 134.789 3.02823C134.829 3.02692 134.873 3.02259 134.908 3.02741C134.945 3.03228 134.977 3.04744 135.009 3.05844C135.108 3.09045 135.199 3.12232 135.341 3.10741C135.46 3.09518 135.586 3.09452 135.708 3.08753C135.874 3.07932 135.874 3.07933 136.148 3.15002C136.259 3.17916 136.386 3.14632 136.492 3.17121C136.564 3.18817 136.626 3.2153 136.695 3.23429C136.725 3.24213 136.772 3.24615 136.806 3.24474C136.97 3.23857 137.136 3.23244 137.297 3.22C137.429 3.21009 137.538 3.22465 137.629 3.26378C137.696 3.29205 137.762 3.30476 137.847 3.30017C138.256 3.27903 138.665 3.26203 139.072 3.23772C139.21 3.22899 139.322 3.24879 139.398 3.28764C139.529 3.35451 139.715 3.28236 139.851 3.33688C139.935 3.37068 140.019 3.40967 140.173 3.39707C140.456 3.37556 140.743 3.36659 141.028 3.35342C141.129 3.38341 141.231 3.41339 141.335 3.44343C141.498 3.43518 141.662 3.42692 141.826 3.41971C141.947 3.41375 142.071 3.40681 142.192 3.4019C142.232 3.40059 142.274 3.39725 142.311 3.40316C142.348 3.40907 142.378 3.42314 142.413 3.43419C142.583 3.48834 142.583 3.48938 142.866 3.47409C142.987 3.46711 143.104 3.46313 143.205 3.50661C143.299 3.54682 143.41 3.55624 143.539 3.54732C143.782 3.53126 144.028 3.52045 144.276 3.51071C144.352 3.50701 144.424 3.52604 144.488 3.55427C144.584 3.59868 144.703 3.59683 144.825 3.58777C144.986 3.57636 145.145 3.5649 145.281 3.62565C145.308 3.63863 145.35 3.65707 145.379 3.65661C145.583 3.65224 145.788 3.65 145.987 3.63412C146.185 3.61824 146.281 3.68444 146.417 3.71821C146.62 3.70865 146.826 3.69914 147.03 3.68958C147.069 3.68724 147.116 3.67881 147.151 3.68467C147.297 3.70929 147.38 3.78875 147.581 3.76876C147.698 3.75753 147.824 3.75583 147.946 3.75506C147.978 3.75465 148.02 3.7731 148.042 3.78702C148.054 3.79452 148.042 3.814 148.027 3.82408C147.982 3.85228 147.927 3.87821 147.887 3.90753C147.882 3.91159 147.929 3.93117 147.956 3.94C148.023 3.95997 148.1 3.95835 148.189 3.95178C148.266 3.946 148.345 3.96206 148.399 3.99425C148.422 4.00713 148.414 4.02774 148.366 4.09531C148.366 4.14616 148.418 4.12433 148.436 4.09146C148.463 4.04425 148.411 4.02768 148.312 4.05171C148.243 4.06904 148.208 4.09536 148.225 4.11748C148.235 4.12909 148.281 4.14453 148.366 4.09531C148.585 4.03727 148.749 4.02903 148.912 4.02078C148.954 4.01848 149.004 4.00905 149.034 4.01586C149.14 4.04282 149.239 4.07484 149.343 4.10487C149.462 4.10094 149.573 4.08753 149.689 4.13025C149.852 4.19049 149.86 4.18544 150.018 4.1771C150.1 4.17245 150.182 4.16886 150.264 4.16525C150.346 4.16165 150.41 4.17845 150.482 4.20371C150.627 4.25531 150.64 4.25554 150.737 4.191C150.794 4.15164 150.834 4.13892 150.906 4.15899C151.143 4.22689 151.145 4.23108 151.349 4.21633C151.517 4.20403 151.676 4.20295 151.799 4.26449C151.883 4.30763 151.91 4.29882 151.978 4.25653C152.157 4.1448 152.239 4.14846 152.573 4.23794C152.728 4.28039 152.89 4.24097 153.049 4.23885C153.182 4.23729 153.276 4.26401 153.286 4.32958C153.293 4.37019 153.315 4.39968 153.404 4.4149C153.438 4.42076 153.48 4.42883 153.515 4.42743C153.721 4.41896 153.924 4.40836 154.13 4.39781C154.234 4.39256 154.292 4.3449 154.272 4.28018C154.251 4.21127 154.291 4.18712 154.439 4.17028C154.529 4.16059 154.601 4.16407 154.672 4.18414C154.751 4.20642 154.729 4.22467 154.659 4.26068C154.492 4.34878 154.512 4.40519 154.724 4.47261C154.798 4.49584 154.857 4.51672 154.874 4.54922C154.884 4.56602 154.874 4.58761 154.896 4.6005C155.017 4.67237 155.185 4.72026 155.373 4.7571C155.554 4.73259 155.678 4.78167 155.816 4.82171C155.925 4.85288 156.054 4.83047 156.17 4.82235C156.302 4.81348 156.411 4.82388 156.504 4.8641C156.571 4.89237 156.64 4.90616 156.722 4.90256C156.886 4.89431 157.052 4.89026 157.213 4.87677C157.352 4.86493 157.456 4.8877 157.542 4.92466C157.651 4.97139 157.773 4.94364 157.886 4.95207C158.04 4.96231 158.116 5.05615 158.317 5.03512C158.436 5.0229 158.56 5.02011 158.684 5.01836C158.716 5.01794 158.755 5.03635 158.783 5.04933C158.913 5.10894 159.067 5.1088 159.236 5.09546C159.352 5.0863 159.466 5.07813 159.58 5.11977C159.767 5.18982 159.975 5.25197 160.173 5.31702C160.199 5.36528 160.179 5.42092 160.32 5.45167C160.394 5.46764 160.463 5.49078 160.52 5.51575C160.589 5.54511 160.654 5.55362 160.743 5.54808C160.904 5.53667 161.073 5.53681 161.231 5.5212C161.378 5.50743 161.469 5.54346 161.558 5.57735C161.629 5.60468 161.696 5.61842 161.783 5.60142C161.873 5.58551 161.937 5.59816 162.008 5.62757C162.11 5.66793 162.117 5.66393 162.454 5.68187C162.489 5.68358 162.531 5.69995 162.55 5.71382C162.56 5.72128 162.538 5.74161 162.52 5.75165C162.498 5.76367 162.463 5.77752 162.431 5.78001C162.064 5.79989 161.694 5.81661 161.327 5.8365C161.29 5.83889 161.251 5.8454 161.223 5.85524C161.193 5.86608 161.156 5.88092 161.156 5.89545C161.156 5.90582 161.205 5.91924 161.24 5.92717C161.349 5.95315 161.478 5.91933 161.584 5.94837C161.656 5.9674 161.715 5.99345 161.787 6.01144C161.816 6.01928 161.863 6.01916 161.901 6.0178C162.025 6.01293 162.146 6.00491 162.27 6.00108C162.305 6.00071 162.344 6.01186 162.376 6.02079C162.614 6.08765 162.614 6.08765 162.819 6.07814C162.901 6.07453 162.988 6.06064 163.065 6.06835C163.139 6.07602 163.203 6.10528 163.27 6.12422C163.408 6.16426 163.539 6.20312 163.548 6.28425C163.553 6.31547 163.635 6.34403 163.716 6.34769C163.796 6.3513 163.88 6.34152 163.962 6.33688C164.155 6.32817 164.155 6.32817 164.405 6.39631C164.474 6.41529 164.548 6.4188 164.638 6.41015C164.672 6.40667 164.714 6.41164 164.752 6.41755C164.873 6.43546 164.873 6.45517 164.793 6.49099C164.681 6.54383 164.691 6.54922 165.002 6.60195C165.121 6.62189 165.213 6.65688 165.311 6.68785C165.472 6.73766 165.47 6.7376 165.362 6.79676C165.338 6.80977 165.315 6.82387 165.29 6.83792C165.218 6.877 165.16 6.91948 165.012 6.92075C164.848 6.92174 164.684 6.93518 164.521 6.94343C164.362 6.95178 164.32 6.97586 164.334 7.04671C164.35 7.13213 164.383 7.14209 164.668 7.14657C164.749 7.14815 164.821 7.15784 164.883 7.18706C164.853 7.21969 164.798 7.24458 164.719 7.24927C164.515 7.2609 164.31 7.27041 164.106 7.27997C163.943 7.28822 163.779 7.29647 163.615 7.30472C163.514 7.31002 163.449 7.36273 163.475 7.42344C163.49 7.45797 163.502 7.49246 163.514 7.52694C163.541 7.59595 163.592 7.61461 163.758 7.6147C163.801 7.61448 163.84 7.60694 163.88 7.60978C164.041 7.62016 164.117 7.70777 164.31 7.69387C164.472 7.68246 164.64 7.68261 164.799 7.667C164.945 7.65323 165.027 7.69218 165.128 7.72216C165.162 7.73217 165.199 7.7526 165.229 7.75213C165.435 7.7447 165.641 7.73727 165.842 7.72144C165.936 7.71496 165.993 7.72229 166.067 7.74863C166.245 7.81227 166.25 7.80925 166.515 7.7957C166.708 7.78491 166.711 7.78704 166.958 7.85513C167.027 7.87411 167.101 7.87555 167.191 7.86897C167.307 7.86085 167.429 7.84659 167.55 7.86451C167.587 7.86938 167.634 7.88275 167.646 7.89648C167.654 7.90596 167.619 7.92812 167.589 7.93481C167.371 7.98454 167.115 7.97027 166.877 7.98746C166.803 7.99224 166.729 7.97109 166.667 7.94187C166.603 7.91261 166.534 7.89986 166.449 7.90341C166.286 7.91166 166.12 7.91571 165.959 7.9292C165.82 7.94104 165.723 7.9153 165.627 7.88126C165.595 7.87026 165.558 7.84983 165.526 7.85024C165.159 7.8639 164.789 7.87751 164.425 7.89952C164.279 7.90914 164.195 7.87431 164.096 7.84437C164.061 7.83436 164.027 7.81398 163.994 7.81439C163.871 7.81614 163.749 7.82521 163.625 7.83111C163.174 7.85351 162.725 7.87597 162.274 7.89629C162.244 7.89779 162.207 7.87528 162.172 7.86527C162.106 7.8453 162.037 7.82631 161.967 7.80733C161.843 7.81323 161.722 7.82126 161.598 7.82509C161.509 7.82751 161.429 7.84051 161.416 7.8797C161.409 7.9055 161.49 7.93095 161.577 7.93055C161.661 7.93011 161.746 7.91928 161.815 7.93412C162.159 8.00719 162.159 8.00823 162.374 7.99891C162.563 7.9901 162.543 7.97934 162.709 8.03962C162.78 8.06592 162.844 8.0817 162.926 8.07705C163.13 8.06646 163.335 8.05591 163.541 8.04744C163.573 8.04598 163.615 8.05718 163.648 8.0661C163.89 8.13306 163.89 8.13513 164.091 8.12345C164.353 8.10986 164.363 8.10486 164.539 8.17156C164.66 8.2175 164.771 8.18956 164.888 8.18974C165.021 8.2328 165.167 8.27195 165.288 8.31996C165.431 8.37669 165.582 8.37027 165.746 8.35787C165.868 8.3488 165.987 8.34696 166.085 8.39142C166.179 8.43267 166.293 8.43904 166.422 8.43115C166.539 8.42407 166.658 8.40665 166.779 8.43183C166.811 8.43867 166.86 8.4552 166.858 8.46449C166.855 8.47897 166.823 8.49911 166.79 8.50471C166.562 8.54284 166.312 8.53696 166.071 8.55202C166.039 8.55451 165.997 8.54228 165.965 8.53336C165.896 8.51334 165.829 8.49025 165.762 8.46924C165.641 8.47312 165.517 8.47279 165.398 8.48294C165.306 8.49051 165.237 8.48814 165.17 8.46194C165.108 8.43791 165.042 8.40859 164.968 8.39989C164.893 8.39119 164.806 8.40508 164.725 8.40972C164.643 8.41437 164.549 8.40943 164.484 8.42478C164.42 8.44014 164.38 8.47569 164.337 8.50393C164.29 8.53519 164.225 8.54432 164.131 8.54562C164.044 8.54705 163.975 8.54155 163.911 8.51125C163.884 8.49827 163.847 8.48821 163.809 8.47919C163.775 8.47125 163.735 8.45907 163.703 8.46052C163.334 8.47724 162.967 8.4961 162.597 8.51386C162.414 8.52276 162.416 8.5228 162.035 8.4542C162.001 8.44834 161.959 8.44026 161.924 8.44166C161.718 8.45014 161.515 8.46074 161.309 8.47128C161.101 8.48178 161.103 8.47975 160.75 8.40752C160.685 8.39383 160.591 8.40861 160.514 8.40505C160.353 8.39674 160.275 8.30805 160.086 8.32101C159.925 8.33242 159.757 8.33227 159.595 8.34783C159.449 8.3616 159.365 8.32366 159.266 8.29372C159.232 8.28371 159.195 8.26224 159.165 8.26374C158.796 8.27942 158.429 8.29827 157.938 8.29189C157.817 8.28954 157.871 8.31239 157.95 8.32118C158.064 8.3348 158.101 8.31373 158.04 8.27103C157.996 8.24111 157.931 8.22532 157.879 8.23158C157.852 8.2352 157.817 8.25426 157.938 8.29189C158.067 8.33381 158.059 8.35545 158.081 8.36834C158.135 8.39949 158.212 8.41342 158.291 8.41081C158.415 8.40594 158.537 8.39792 158.661 8.39409C158.695 8.39268 158.738 8.40076 158.77 8.40969C159.042 8.4793 159.044 8.4835 159.334 8.4642C159.426 8.45872 159.493 8.46001 159.564 8.48112C159.663 8.51001 159.735 8.55705 159.886 8.54545C160.087 8.52962 160.293 8.52219 160.498 8.51476C160.531 8.51331 160.565 8.53265 160.602 8.54168C160.704 8.56855 160.777 8.61668 160.929 8.59989C161.045 8.58658 161.172 8.58486 161.296 8.58415C161.328 8.58373 161.377 8.6013 161.392 8.61507C161.421 8.63951 161.384 8.66682 161.3 8.6849C161.265 8.69253 161.218 8.68955 161.178 8.69189C161.014 8.70014 160.851 8.70942 160.687 8.7156C160.6 8.71911 160.519 8.7331 160.508 8.7713C160.501 8.7971 160.59 8.82165 160.674 8.8212C160.798 8.82049 160.922 8.81458 161.041 8.80339C161.252 8.78464 161.435 8.79441 161.605 8.86309C161.726 8.9111 161.719 8.89436 161.846 9.03175C161.878 9.06662 161.975 9.0716 162.059 9.07115C162.262 9.0699 162.356 9.08729 162.339 9.11912C162.316 9.15812 162.244 9.16917 162.152 9.17259C161.989 9.17772 161.825 9.18806 161.661 9.19631C161.622 9.19865 161.577 9.20401 161.54 9.20122C161.503 9.19842 161.468 9.1853 161.436 9.17534C161.367 9.15428 161.308 9.12303 161.233 9.11433C161.159 9.10563 161.072 9.11952 160.991 9.12416C160.909 9.12776 160.822 9.14165 160.748 9.13295C160.673 9.12425 160.612 9.09193 160.545 9.07195C160.513 9.06199 160.473 9.04669 160.441 9.0471C160.278 9.05224 160.114 9.06257 159.95 9.06978C159.749 9.07939 159.749 9.07939 159.507 9.01036C159.438 8.99034 159.366 8.98999 159.274 8.99651C159.076 9.00928 159.074 9.00611 158.712 8.93893C158.678 8.93203 158.636 8.92395 158.601 8.92639C158.232 8.94312 157.865 8.96196 157.498 8.97977C157.183 8.99547 157.183 8.99548 157.008 9.09589C156.879 9.17018 156.876 9.17013 157.002 9.20786C157.104 9.23888 157.195 9.28319 157.306 9.30091C157.41 9.31746 157.539 9.27326 157.653 9.32319C157.71 9.34816 157.784 9.37555 157.856 9.38109C157.97 9.38848 158.091 9.36073 158.2 9.4085C158.254 9.43238 158.336 9.45784 158.405 9.46022C158.526 9.46465 158.65 9.45043 158.772 9.44552C158.809 9.44416 158.851 9.44498 158.886 9.45084C158.923 9.45778 158.955 9.47086 158.987 9.48186C159.086 9.51906 159.192 9.53772 159.321 9.52257C159.532 9.49759 159.72 9.51577 159.883 9.58534C159.905 9.59511 159.96 9.59721 159.995 9.59373C160.084 9.58508 160.161 9.58552 160.228 9.60653C160.255 9.61536 160.294 9.63065 160.289 9.63989C160.282 9.65532 160.252 9.6755 160.219 9.68006C159.986 9.71083 159.736 9.71015 159.495 9.72418C159.463 9.72563 159.424 9.71136 159.391 9.7014C159.322 9.68138 159.263 9.64911 159.189 9.64041C159.115 9.6317 159.028 9.64351 158.946 9.64712C158.864 9.65073 158.777 9.66461 158.703 9.65695C158.629 9.64825 158.56 9.62096 158.5 9.59698C158.431 9.5697 158.364 9.5653 158.273 9.5739C158.154 9.58509 158.03 9.58476 157.908 9.58968C157.841 9.56867 157.775 9.54557 157.706 9.52555C157.673 9.51559 157.634 9.50341 157.599 9.50378C157.436 9.50892 157.272 9.5182 157.108 9.52645C156.945 9.5347 156.945 9.53471 156.668 9.465C156.636 9.45712 156.594 9.448 156.559 9.4494C156.353 9.45788 156.15 9.4695 155.944 9.47797C155.865 9.48162 155.793 9.46571 155.729 9.43645C155.667 9.40723 155.593 9.39023 155.516 9.39393C155.189 9.40939 154.862 9.42382 154.534 9.44343C154.403 9.45127 154.291 9.43977 154.203 9.40069C154.099 9.35613 153.982 9.36426 153.861 9.37021C153.586 9.38564 153.583 9.38455 153.408 9.32822C153.373 9.31717 153.339 9.29679 153.307 9.2972C153.021 9.30725 152.734 9.31622 152.451 9.33566C152.302 9.34627 152.223 9.30842 152.125 9.27952C152.09 9.26951 152.053 9.24908 152.023 9.25058C151.818 9.25801 151.612 9.26441 151.411 9.28128C151.21 9.29815 151.134 9.20016 150.983 9.19828C150.777 9.19534 150.574 9.21527 150.371 9.22587C150.207 9.23412 150.043 9.24236 149.88 9.25061C149.716 9.25886 149.552 9.26503 149.389 9.27536C149.302 9.28094 149.238 9.27036 149.166 9.24302C149.075 9.20701 148.966 9.17793 148.867 9.14488C148.716 9.09734 148.716 9.09733 148.533 9.10623C148.493 9.10858 148.451 9.10984 148.411 9.11218C148.111 9.12921 148.111 9.12714 147.731 9.05438C147.713 9.05093 147.669 9.06149 147.651 9.06945C147.599 9.09543 147.551 9.12356 147.504 9.15067C147.437 9.13277 147.356 9.12185 147.311 9.09713C147.186 9.02723 146.987 9.11575 146.858 9.04684C146.811 9.02103 146.73 8.99765 146.656 8.98999C146.579 8.98227 146.492 8.99513 146.413 8.99982C146.207 9.0114 146.207 9.01037 146.03 9.09932C145.94 9.14325 145.812 9.13245 145.695 9.14057C145.574 9.14964 145.457 9.15361 145.356 9.1091C145.265 9.06893 145.153 9.05744 145.022 9.06735C144.861 9.0798 144.695 9.08592 144.531 9.0921C144.496 9.0935 144.454 9.0875 144.419 9.0806C144.041 9.01204 144.041 9.01101 143.857 9.02095C143.776 9.0256 143.691 9.02603 143.612 9.03384C143.478 9.04785 143.377 9.0241 143.28 8.98902C143.248 8.97802 143.211 8.95759 143.179 8.95801C143.016 8.96003 142.854 8.96625 142.693 8.97248C142.569 8.97734 142.445 8.97909 142.326 8.99132C142.128 9.01135 142.032 8.94202 141.896 8.90826C141.693 8.91781 141.487 8.92318 141.284 8.93792C141.189 8.9444 141.127 8.9401 141.056 8.9138C140.964 8.8809 140.88 8.84399 140.732 8.85668C140.533 8.87359 140.325 8.87683 140.122 8.88535C139.986 8.85055 139.887 8.78325 139.691 8.80333C139.572 8.81555 139.446 8.81622 139.324 8.82217C139.161 8.83042 138.997 8.83764 138.834 8.84693C138.657 8.85598 138.66 8.85291 138.391 8.78646C138.235 8.74713 138.073 8.78447 137.915 8.78763C137.791 8.79042 137.728 8.83696 137.757 8.89875C137.787 8.96055 137.719 9.00699 137.605 9.01309C137.32 9.02729 137.032 9.04247 136.747 9.0546C136.713 9.056 136.671 9.04792 136.638 9.04004C136.334 8.96877 136.334 8.96981 136.198 8.97652C135.995 8.98815 135.786 8.99242 135.586 9.00825C135.447 9.01905 135.345 8.9953 135.256 8.9583C135.187 8.92997 135.123 8.9225 135.034 8.927C134.052 8.97754 133.07 9.02288 132.091 9.07554C131.944 9.08309 131.86 9.05137 131.762 9.02144C131.727 9.01143 131.695 8.99109 131.66 8.99042C131.579 8.98883 131.497 8.99659 131.415 9.00124C131.048 9.01904 130.681 9.04204 130.312 9.05357C130.155 9.05885 130.113 9.10577 130.045 9.14391C129.993 9.173 129.934 9.18429 129.842 9.18667C129.753 9.18909 129.688 9.18266 129.619 9.15433C129.53 9.11733 129.429 9.09357 129.29 9.10541C129.129 9.1189 128.965 9.123 128.799 9.13121C128.715 9.13476 128.65 9.15219 128.623 9.18902C128.618 9.19515 128.669 9.21173 128.699 9.22164C128.798 9.25469 128.892 9.29283 129.003 9.31678C129.117 9.34077 129.241 9.31826 129.36 9.31433C129.402 9.31307 129.442 9.30762 129.481 9.30942C129.518 9.31118 129.563 9.31724 129.59 9.3271C129.719 9.37629 129.855 9.41109 130.033 9.38653C130.187 9.40299 130.265 9.49065 130.461 9.47161C130.58 9.46042 130.704 9.4566 130.828 9.4538C130.86 9.45339 130.895 9.47274 130.929 9.48275C131.028 9.51061 131.107 9.55365 131.256 9.53889C131.415 9.52328 131.583 9.52343 131.744 9.51201C131.834 9.50544 131.898 9.51395 131.967 9.54227C132.056 9.57824 132.157 9.60614 132.296 9.59222C132.415 9.58 132.542 9.57933 132.663 9.57234C132.822 9.56399 132.822 9.56503 133.104 9.63483C133.136 9.64272 133.178 9.65184 133.213 9.65043C133.418 9.64196 133.622 9.63033 133.827 9.62185C133.907 9.6182 133.984 9.63318 134.038 9.66432C134.06 9.67721 134.052 9.69783 134.059 9.71561C133.65 9.73572 133.241 9.75167 132.835 9.77805C132.681 9.78856 132.612 9.74468 132.511 9.71884C132.476 9.70987 132.439 9.69151 132.407 9.69297C132.119 9.70504 131.834 9.7182 131.549 9.73552C131.46 9.74106 131.393 9.73561 131.326 9.70422C131.156 9.62101 130.947 9.66057 130.754 9.66824C130.605 9.67367 130.558 9.70493 130.575 9.77375C130.596 9.85512 130.685 9.88175 130.913 9.87164C130.995 9.86803 131.077 9.86234 131.159 9.85978C131.238 9.85716 131.31 9.87204 131.374 9.9013C131.436 9.93052 131.51 9.94648 131.587 9.94382C131.75 9.93764 131.916 9.93152 132.075 9.91903C132.206 9.90911 132.315 9.9216 132.407 9.96177C132.508 10.0063 132.627 9.99924 132.746 9.9922C133.024 9.97682 133.026 9.97791 133.199 10.0331C133.234 10.0442 133.268 10.0646 133.3 10.0642C133.585 10.0541 133.873 10.0462 134.153 10.0267C134.299 10.0171 134.383 10.0519 134.48 10.0808C134.514 10.0908 134.549 10.1122 134.581 10.1107C134.787 10.1033 134.993 10.0959 135.193 10.08C135.288 10.0725 135.345 10.0798 135.421 10.1062C135.604 10.171 135.609 10.169 135.869 10.1543C135.949 10.1497 136.035 10.1399 136.11 10.1497C136.184 10.1594 136.243 10.1907 136.312 10.2107C136.344 10.2196 136.384 10.2318 136.419 10.2304C136.582 10.2252 136.746 10.2159 136.91 10.2077C137.063 10.1993 137.063 10.2003 137.35 10.2702C137.466 10.2994 137.588 10.2789 137.704 10.2729C137.831 10.266 137.945 10.2682 138.041 10.3106C138.137 10.3529 138.254 10.3531 138.378 10.3472C138.494 10.3411 138.613 10.3206 138.732 10.3509C139.004 10.4205 139.004 10.4215 139.173 10.4124C139.418 10.3995 139.661 10.3876 139.909 10.3768C139.941 10.3753 139.983 10.3886 140.015 10.3975C140.085 10.4176 140.144 10.4498 140.218 10.4585C140.292 10.4683 140.379 10.4575 140.458 10.4528C140.714 10.438 140.731 10.4311 140.901 10.5029C141.045 10.5617 141.224 10.4842 141.357 10.5512C141.433 10.589 141.537 10.62 141.681 10.6052C141.8 10.5929 141.924 10.5912 142.048 10.5853C142.244 10.5756 142.244 10.5766 142.491 10.6437C142.523 10.6526 142.565 10.6638 142.597 10.6623C142.761 10.6572 142.927 10.6531 143.086 10.6375C143.272 10.6193 143.39 10.6611 143.529 10.7022C143.638 10.7344 143.767 10.7119 143.883 10.7038C144.01 10.6959 144.124 10.7012 144.217 10.7435C144.316 10.7869 144.433 10.784 144.557 10.7781C144.673 10.7731 144.792 10.7515 144.911 10.7829C145.165 10.8521 145.165 10.8521 145.351 10.8433C145.515 10.835 145.679 10.8257 145.842 10.8206C145.875 10.8192 145.914 10.8334 145.946 10.8434C146.015 10.8634 146.075 10.8957 146.149 10.9044C146.223 10.9131 146.31 10.9013 146.392 10.8977C146.474 10.8941 146.56 10.8802 146.635 10.8878C146.709 10.8955 146.778 10.9228 146.837 10.9468C146.906 10.9751 146.971 10.9794 147.065 10.9709C147.184 10.9597 147.308 10.959 147.43 10.9541C147.496 10.9751 147.565 10.9961 147.63 11.0192C147.696 11.0433 147.768 11.0426 147.86 11.0371C148.165 11.0181 148.167 11.0213 148.422 11.0906C148.538 11.1219 148.66 11.1003 148.776 11.0953C148.9 11.0894 149.017 11.0875 149.113 11.1309C149.207 11.1722 149.323 11.1796 149.447 11.1695C149.526 11.1628 149.611 11.1592 149.693 11.1577C149.73 11.1574 149.774 11.1624 149.801 11.1712C149.932 11.2173 150.061 11.2593 150.242 11.2348C150.4 11.2461 150.479 11.3328 150.67 11.3198C150.831 11.3084 151 11.3086 151.158 11.293C151.305 11.2792 151.408 11.3103 151.482 11.348C151.616 11.4149 151.805 11.3314 151.938 11.3973C152.014 11.4351 152.113 11.4661 152.262 11.4534C152.426 11.44 152.478 11.4627 152.524 11.529C152.551 11.5669 152.546 11.5969 152.496 11.625C152.446 11.6541 152.391 11.6479 152.313 11.6121C152.221 11.572 152.112 11.5626 151.981 11.5683C151.852 11.5741 151.773 11.5187 151.667 11.4959C151.561 11.472 151.434 11.5059 151.323 11.4757C151.061 11.4052 151.061 11.4052 150.882 11.4142C150.761 11.4202 150.634 11.4219 150.515 11.4341C150.374 11.449 150.282 11.4151 150.186 11.3842C150.151 11.3731 150.117 11.3527 150.087 11.3532C149.802 11.3632 149.515 11.3722 149.232 11.3927C149.083 11.4033 149.004 11.3644 148.905 11.3365C148.871 11.3265 148.834 11.3071 148.804 11.3086C148.558 11.3184 148.315 11.3324 148.07 11.3453C148.023 11.3724 147.97 11.3984 147.925 11.4276C147.878 11.4578 147.814 11.4701 147.719 11.4672C147.563 11.4642 147.409 11.5048 147.254 11.4468C147.093 11.3876 147.081 11.3905 146.925 11.401C146.726 11.4148 146.516 11.4065 146.329 11.4434C146.297 11.4501 146.262 11.4691 146.262 11.4836C146.26 11.4929 146.311 11.5074 146.344 11.5163C146.452 11.5434 146.579 11.5095 146.688 11.5375C146.759 11.5555 146.819 11.5816 146.89 11.6006C146.92 11.6084 146.965 11.6083 147.004 11.608C147.046 11.6078 147.086 11.6013 147.126 11.6031C147.163 11.6049 147.203 11.6118 147.232 11.6218C147.368 11.6638 147.511 11.7029 147.632 11.752C147.751 11.7999 147.863 11.771 147.982 11.7712C148.457 11.853 148.457 11.8541 148.776 11.8374C148.856 11.8338 148.938 11.8291 149.019 11.8317C149.054 11.8324 149.086 11.8517 149.121 11.8628C149.219 11.8958 149.313 11.9256 149.452 11.9117C149.571 11.8995 149.698 11.8988 149.819 11.8918C149.983 11.8836 149.983 11.8836 150.26 11.9543C150.329 11.9723 150.403 11.9716 150.493 11.9651C150.569 11.9593 150.649 11.9764 150.703 12.0075C150.725 12.0204 150.717 12.041 150.725 12.0588C150.479 12.0707 150.231 12.0773 149.993 12.0976C149.839 12.1102 149.77 12.0642 149.669 12.0384C149.635 12.0294 149.598 12.0111 149.565 12.0125C149.322 12.0234 149.079 12.0363 148.836 12.0524C148.807 12.0539 148.769 12.077 148.767 12.0915C148.761 12.1184 148.823 12.1455 148.912 12.1462C149.031 12.1475 149.148 12.1321 149.254 12.1767C149.343 12.2158 149.454 12.2345 149.586 12.2205C149.665 12.2127 149.749 12.2143 149.829 12.2075C150.039 12.1867 150.23 12.1956 150.388 12.2692C150.509 12.2902 150.628 12.2749 150.745 12.2678C150.832 12.2622 150.916 12.2566 150.978 12.2775C151.109 12.3216 151.237 12.3656 151.418 12.341C151.614 12.3739 151.762 12.438 151.925 12.491C152.001 12.5163 152.061 12.531 152.15 12.5171C152.187 12.5116 152.232 12.5125 152.272 12.5101C152.353 12.5065 152.44 12.4926 152.515 12.5003C152.589 12.509 152.65 12.5403 152.717 12.5603C152.749 12.5702 152.786 12.5865 152.818 12.5861C152.942 12.5833 153.064 12.5753 153.185 12.5693C153.307 12.5644 153.428 12.5595 153.55 12.5546C153.651 12.5835 153.755 12.6125 153.856 12.6415C154.02 12.6332 154.184 12.625 154.345 12.6177C154.526 12.6088 154.526 12.6098 154.785 12.6792C154.901 12.7105 155.025 12.6942 155.137 12.6829C155.323 12.6647 155.447 12.7065 155.578 12.7505C155.605 12.7594 155.654 12.7655 155.686 12.762C155.815 12.75 155.927 12.7635 156.021 12.8037C156.087 12.832 156.154 12.8458 156.236 12.8422C156.521 12.828 156.806 12.8127 157.091 12.8006C157.126 12.7992 157.165 12.8093 157.198 12.8182C157.45 12.8864 157.452 12.8896 157.638 12.8766C157.804 12.8652 157.958 12.862 158.089 12.9216C158.116 12.9346 158.158 12.953 158.188 12.9526C158.391 12.9461 158.597 12.9387 158.797 12.9249C158.889 12.9184 158.954 12.9228 159.025 12.948C159.117 12.9799 159.198 13.0178 159.349 13.0072C159.768 12.9769 159.771 12.9832 160.266 13.0644C160.3 13.0703 160.347 13.0629 160.387 13.0595C160.471 13.0507 160.533 13.0665 160.607 13.0918C160.773 13.1489 160.778 13.1459 160.937 13.1376C161.058 13.1306 161.184 13.131 161.303 13.1177C161.487 13.0984 161.608 13.1412 161.744 13.1823C161.853 13.2145 161.979 13.192 162.096 13.1849C162.222 13.177 162.336 13.1823 162.43 13.2236C162.494 13.2518 162.563 13.2677 162.645 13.2641C162.93 13.2509 163.215 13.2356 163.501 13.2225C163.535 13.2211 163.577 13.2302 163.609 13.2381C163.891 13.3079 163.891 13.311 164.172 13.2926C164.261 13.287 164.335 13.2864 164.402 13.3095C164.466 13.3315 164.535 13.3525 164.602 13.3735C164.723 13.3686 164.847 13.3689 164.966 13.3588C165.058 13.3512 165.122 13.3566 165.194 13.3798C165.288 13.4096 165.367 13.4599 165.516 13.4389C165.593 13.429 165.682 13.4339 165.759 13.425C165.85 13.4133 165.912 13.4228 165.984 13.4511C166.073 13.485 166.164 13.52 166.308 13.5062C166.467 13.4906 166.635 13.4907 166.797 13.4793C166.886 13.4727 166.948 13.4822 167.019 13.5106C167.108 13.5466 167.21 13.5703 167.348 13.5595C167.631 13.539 167.633 13.5443 167.908 13.615C167.977 13.6329 168.051 13.6323 168.141 13.6257C168.218 13.6199 168.297 13.637 168.351 13.6682C168.403 13.7024 168.397 13.723 168.402 13.7408ZM146.415 3.9548C146.333 3.95841 146.251 3.96305 146.133 3.87047C146.126 3.85476 146.131 3.83619 146.114 3.82236C146.074 3.79358 146.013 3.77266 145.938 3.76811C145.805 3.76137 145.643 3.79353 145.645 3.82056C145.648 3.84343 145.69 3.86396 145.771 3.88422C145.806 3.89215 145.833 3.90514 145.865 3.91406C145.959 3.93975 146.033 3.98789 146.169 3.96666C146.145 3.90185 146.157 3.93425 146.169 3.96666C146.157 4.00585 146.193 4.03459 146.283 4.04773C146.307 4.05132 146.345 4.04996 146.364 4.04412C146.441 4.02278 146.454 3.99189 146.398 3.90881C146.388 3.92211 146.395 3.94611 146.417 3.95277C146.44 3.95943 146.494 3.9553 146.521 3.94857C146.591 3.93019 146.626 3.90492 146.609 3.88279C146.599 3.87119 146.552 3.85575 146.522 3.85517C146.47 3.85417 146.423 3.87608 146.415 3.9548ZM166.332 16.3763C166.151 16.3925 165.943 16.3813 165.762 16.4182C165.729 16.4249 165.697 16.4429 165.694 16.4574C165.692 16.4667 165.741 16.4811 165.771 16.489C165.838 16.5069 165.912 16.5031 165.999 16.4996C166.13 16.4949 166.207 16.5441 166.308 16.5699C166.34 16.5778 166.382 16.5838 166.417 16.5824C166.618 16.5739 166.816 16.5642 167.017 16.5536C167.052 16.5511 167.089 16.5446 167.119 16.5358C167.218 16.5076 167.208 16.4877 167.112 16.463C167.006 16.4361 166.922 16.3929 166.813 16.3711C166.657 16.3401 166.498 16.3744 166.332 16.3763ZM152.254 16.8616C152.132 16.8675 152.013 16.8735 151.892 16.8795C151.852 16.8818 151.81 16.882 151.773 16.8854C151.696 16.8912 151.639 16.9119 151.601 16.9454C151.658 16.9735 151.727 16.9904 151.804 16.9888C151.926 16.9849 152.045 16.9737 152.166 16.973C152.297 16.9714 152.374 17.0195 152.475 17.0454C152.507 17.0533 152.547 17.0551 152.584 17.0568C152.767 17.0645 152.879 17.0127 152.845 16.9363C152.821 16.8767 152.727 16.8396 152.613 16.8446C152.494 16.8496 152.373 16.8555 152.254 16.8616ZM167.194 14.8591C167.224 14.842 167.257 14.8302 167.272 14.8149C167.317 14.7628 167.3 14.7231 167.218 14.68C167.12 14.6272 166.998 14.6591 166.887 14.6621C166.859 14.6626 166.829 14.6839 166.814 14.6971C166.804 14.7062 166.804 14.7259 166.819 14.7314C166.94 14.7753 167.068 14.8161 167.194 14.8591ZM145.73 11.3779C145.611 11.3839 145.49 11.3877 145.371 11.3968C145.341 11.3994 145.314 11.4186 145.296 11.4317C145.264 11.456 145.298 11.4909 145.4 11.496C145.516 11.5024 145.638 11.4871 145.759 11.4812C145.913 11.4738 146.005 11.4371 145.948 11.4028C145.894 11.3696 145.82 11.3619 145.73 11.3779ZM15.3285 6.63651C15.4079 6.63285 15.4897 6.63028 15.569 6.62455C15.6434 6.61873 15.7007 6.597 15.7382 6.56348C15.6765 6.5353 15.6072 6.51943 15.5304 6.52106C15.4089 6.52493 15.2899 6.53093 15.1709 6.53901C15.0965 6.5438 15.0245 6.56523 15.0068 6.60018C14.9892 6.62682 15.155 6.6456 15.3285 6.63651ZM135.275 8.79779C135.307 8.80775 135.339 8.82705 135.372 8.82768C135.451 8.82921 135.533 8.82457 135.607 8.81563C135.639 8.8121 135.664 8.7939 135.679 8.77966C135.689 8.77051 135.687 8.75387 135.672 8.74528C135.601 8.69408 135.313 8.70616 135.266 8.76232C135.261 8.7726 135.273 8.78633 135.275 8.79779ZM127.514 2.96424C127.521 2.98099 127.523 2.99764 127.533 3.01443C127.552 3.04595 127.607 3.06983 127.686 3.08693C127.748 3.06219 127.781 3.03376 127.778 3.00259C127.776 2.98594 127.769 2.96918 127.759 2.95238C127.74 2.92087 127.685 2.897 127.606 2.8799C127.544 2.9036 127.514 2.93208 127.514 2.96424ZM172.896 17.4416C172.874 17.4547 172.851 17.4677 172.827 17.4797C172.893 17.5111 172.955 17.5216 173.002 17.5059C173.032 17.4961 173.05 17.4809 173.072 17.4678C173.005 17.4364 172.946 17.427 172.896 17.4416ZM171.354 17.5529C171.386 17.5629 171.416 17.5759 171.45 17.5828C171.507 17.5943 171.559 17.5776 171.599 17.541C171.567 17.5311 171.538 17.518 171.503 17.5111C171.446 17.4997 171.394 17.5163 171.354 17.5529ZM172.332 17.3819C172.314 17.4065 172.349 17.4279 172.44 17.4473C172.463 17.4342 172.493 17.4224 172.508 17.4081C172.533 17.3847 172.491 17.3621 172.402 17.3438C172.377 17.3558 172.354 17.3688 172.332 17.3819ZM167.112 16.1621C167.095 16.1866 167.129 16.2081 167.221 16.2275C167.243 16.2144 167.273 16.2025 167.288 16.1883C167.313 16.1649 167.271 16.1423 167.182 16.124C167.157 16.136 167.135 16.149 167.112 16.1621ZM160.058 8.68163C160.036 8.69469 160.013 8.70775 159.988 8.71972C160.055 8.75111 160.117 8.76164 160.164 8.74595C160.194 8.73615 160.211 8.72092 160.234 8.70786C160.167 8.67647 160.108 8.66703 160.058 8.68163ZM153.27 4.65413C153.329 4.66254 153.379 4.64898 153.422 4.6114C153.389 4.60144 153.36 4.58841 153.325 4.58151C153.268 4.57003 153.216 4.58667 153.176 4.62326C153.208 4.63426 153.24 4.64421 153.27 4.65413ZM149.648 4.34013C149.625 4.35319 149.603 4.36625 149.578 4.37822C149.644 4.40961 149.706 4.42014 149.753 4.40445C149.783 4.39465 149.801 4.37942 149.823 4.36636C149.757 4.33498 149.697 4.32656 149.648 4.34013ZM125.076 2.91603C125.053 2.92908 125.031 2.94214 125.006 2.95412C125.072 2.9855 125.134 2.99604 125.182 2.98035C125.211 2.97054 125.229 2.95531 125.251 2.94226C125.185 2.91087 125.125 2.90246 125.076 2.91603ZM2.59755 8.98999C2.56543 8.98003 2.53334 8.97008 2.50371 8.95912C2.43159 8.98575 2.40904 9.01126 2.44849 9.03174C2.47315 9.04467 2.51021 9.05266 2.54233 9.06262C2.61694 9.03604 2.63452 9.01146 2.59755 8.98999Z" fill="#FBAE17"/>
</svg>
