<?xml version="1.0" encoding="UTF-8"?> <svg xmlns="http://www.w3.org/2000/svg" width="61" height="60" viewBox="0 0 61 60" fill="none"><g id="ansible 1" clip-path="url(#clip0_2785_11862)"><path id="Vector" d="M60.1592 30.0497C60.1592 46.6068 46.7323 60.0279 30.1674 60.0279C13.6041 60.0279 0.175781 46.6068 0.175781 30.0497C0.175781 13.4937 13.6041 0.0712891 30.1674 0.0712891C46.7321 0.0712891 60.1592 13.4937 60.1592 30.0497Z" fill="#1A1918"></path><path id="Vector_2" d="M30.6715 18.3837L38.4326 37.5308L26.7095 28.3003L30.6715 18.3839V18.3837ZM44.4591 41.9415L32.5209 13.2237C32.18 12.3955 31.4986 11.957 30.6715 11.957C29.8428 11.957 29.1118 12.3955 28.7709 13.2237L15.668 44.7235H20.1503L25.3372 31.7361L40.8166 44.2359C41.4389 44.739 41.8882 44.9667 42.472 44.9667C43.6414 44.9667 44.6637 44.0902 44.6637 42.8256C44.6637 42.6198 44.5908 42.2929 44.4591 41.9415Z" fill="white"></path></g><defs><clipPath id="clip0_2785_11862"><rect width="60.1948" height="60" fill="white"></rect></clipPath></defs></svg> 