<svg width="60" height="60" viewBox="0 0 60 60" fill="none" xmlns="http://www.w3.org/2000/svg">
<path d="M17.3455 25.2062C17.3455 25.9199 17.4227 26.4986 17.5577 26.923C17.712 27.3473 17.9049 27.8103 18.175 28.3118C18.2714 28.4661 18.31 28.6205 18.31 28.7555C18.31 28.9484 18.1943 29.1413 17.9435 29.3342L16.7282 30.1444C16.5546 30.2601 16.381 30.318 16.2267 30.318C16.0338 30.318 15.8409 30.2215 15.648 30.0479C15.3779 29.7586 15.1465 29.4499 14.9536 29.1413C14.7607 28.8134 14.5678 28.4469 14.3556 28.0032C12.851 29.7779 10.9606 30.6652 8.68435 30.6652C7.064 30.6652 5.77158 30.2022 4.82638 29.2763C3.88117 28.3504 3.39893 27.1159 3.39893 25.5727C3.39893 23.933 3.97762 22.602 5.1543 21.5989C6.33099 20.5959 7.89347 20.0943 9.88033 20.0943C10.5362 20.0943 11.2113 20.1522 11.9251 20.2487C12.6388 20.3451 13.3718 20.4994 14.1434 20.673V19.2649C14.1434 17.7988 13.8348 16.7765 13.2368 16.1785C12.6195 15.5805 11.5778 15.2912 10.0925 15.2912C9.41737 15.2912 8.72293 15.3683 8.00921 15.5419C7.29548 15.7155 6.60105 15.9277 5.9259 16.1978C5.61726 16.3328 5.38578 16.41 5.25075 16.4485C5.11573 16.4871 5.01928 16.5064 4.94212 16.5064C4.67206 16.5064 4.53703 16.3135 4.53703 15.9084V14.9632C4.53703 14.6546 4.57561 14.4231 4.67206 14.2881C4.76851 14.1531 4.94212 14.018 5.21217 13.883C5.88732 13.5358 6.69749 13.2464 7.6427 13.015C8.5879 12.7642 9.59098 12.6484 10.6519 12.6484C12.9474 12.6484 14.6256 13.1693 15.7059 14.2109C16.7668 15.2526 17.3069 16.8343 17.3069 18.9562V25.2062H17.3455ZM9.51382 28.1382C10.1504 28.1382 10.8062 28.0225 11.5007 27.791C12.1951 27.5595 12.8124 27.1351 13.3332 26.5564C13.6419 26.1899 13.8733 25.7849 13.9891 25.3219C14.1048 24.8589 14.182 24.2995 14.182 23.6437V22.8335C13.6226 22.6985 13.0246 22.5827 12.4073 22.5056C11.79 22.4284 11.192 22.3898 10.5941 22.3898C9.30163 22.3898 8.35643 22.6406 7.71986 23.1614C7.08329 23.6823 6.77465 24.4153 6.77465 25.3798C6.77465 26.2864 7.00613 26.9615 7.48838 27.4245C7.95134 27.9067 8.62648 28.1382 9.51382 28.1382ZM25.0036 30.2215C24.6564 30.2215 24.4249 30.1637 24.2706 30.0286C24.1163 29.9129 23.9812 29.6428 23.8655 29.2763L19.3324 14.3652C19.2166 13.9794 19.1588 13.7287 19.1588 13.5936C19.1588 13.285 19.3131 13.1114 19.6217 13.1114H21.5121C21.8786 13.1114 22.1294 13.1693 22.2644 13.3043C22.4187 13.42 22.5345 13.6901 22.6502 14.0566L25.8909 26.8265L28.9001 14.0566C28.9966 13.6708 29.1123 13.42 29.2667 13.3043C29.421 13.1886 29.691 13.1114 30.0382 13.1114H31.5814C31.9479 13.1114 32.1987 13.1693 32.353 13.3043C32.5074 13.42 32.6424 13.6901 32.7195 14.0566L35.7673 26.9808L39.1045 14.0566C39.2202 13.6708 39.3553 13.42 39.4903 13.3043C39.6446 13.1886 39.8954 13.1114 40.2426 13.1114H42.0366C42.3452 13.1114 42.5188 13.2657 42.5188 13.5936C42.5188 13.6901 42.4995 13.7865 42.4802 13.9023C42.4609 14.018 42.4224 14.1723 42.3452 14.3845L37.6963 29.2956C37.5806 29.6814 37.4456 29.9322 37.2912 30.0479C37.1369 30.1637 36.8862 30.2408 36.5582 30.2408H34.8993C34.5328 30.2408 34.282 30.1829 34.1277 30.0479C33.9734 29.9129 33.8384 29.6621 33.7612 29.2763L30.7713 16.8343L27.8006 29.257C27.7042 29.6428 27.5884 29.8936 27.4341 30.0286C27.2798 30.1637 27.0097 30.2215 26.6625 30.2215H25.0036ZM49.7911 30.7424C48.788 30.7424 47.7849 30.6266 46.8204 30.3951C45.856 30.1637 45.1036 29.9129 44.6021 29.6235C44.2935 29.4499 44.0813 29.257 44.0041 29.0834C43.927 28.9098 43.8884 28.7169 43.8884 28.5433V27.5595C43.8884 27.1544 44.0427 26.9615 44.3321 26.9615C44.4478 26.9615 44.5635 26.9808 44.6793 27.0194C44.795 27.058 44.9686 27.1351 45.1615 27.2123C45.8174 27.5017 46.5311 27.7331 47.2834 27.8875C48.055 28.0418 48.8073 28.1189 49.5789 28.1189C50.7942 28.1189 51.7394 27.9067 52.3952 27.4824C53.0511 27.058 53.3983 26.4407 53.3983 25.6498C53.3983 25.1097 53.2247 24.666 52.8775 24.2995C52.5303 23.933 51.8744 23.6051 50.9292 23.2965L48.1322 22.4284C46.724 21.9847 45.6823 21.3289 45.0458 20.4608C44.4092 19.6121 44.0813 18.6669 44.0813 17.6638C44.0813 16.8536 44.2549 16.1399 44.6021 15.5226C44.9493 14.9054 45.4123 14.3652 45.991 13.9409C46.5697 13.4972 47.2255 13.1693 47.9971 12.9378C48.7687 12.7063 49.5789 12.6099 50.4277 12.6099C50.852 12.6099 51.2957 12.6292 51.7201 12.687C52.1637 12.7449 52.5688 12.8221 52.9739 12.8992C53.3597 12.9957 53.7262 13.0921 54.0734 13.2078C54.4207 13.3236 54.6907 13.4393 54.8836 13.5551C55.1537 13.7094 55.3466 13.8637 55.4623 14.0373C55.5781 14.1916 55.6359 14.4038 55.6359 14.6739V15.5805C55.6359 15.9856 55.4816 16.1978 55.1923 16.1978C55.0379 16.1978 54.7872 16.1206 54.4592 15.9663C53.3597 15.4648 52.1252 15.214 50.7556 15.214C49.6561 15.214 48.788 15.3876 48.19 15.7541C47.592 16.1206 47.2834 16.68 47.2834 17.4709C47.2834 18.011 47.4763 18.474 47.8621 18.8405C48.2479 19.207 48.9616 19.5735 49.984 19.9014L52.7231 20.7695C54.112 21.2132 55.1151 21.8304 55.7131 22.6213C56.3111 23.4122 56.6004 24.3188 56.6004 25.3219C56.6004 26.1514 56.4268 26.9037 56.0989 27.5595C55.7517 28.2154 55.2887 28.7941 54.6907 29.257C54.0927 29.7393 53.379 30.0865 52.5495 30.3373C51.6815 30.6073 50.7749 30.7424 49.7911 30.7424Z" fill="white"/>
<path fill-rule="evenodd" clip-rule="evenodd" d="M53.4361 40.2141C47.0897 44.9015 37.8691 47.3899 29.941 47.3899C18.83 47.3899 8.81858 43.2812 1.25694 36.4525C0.658958 35.9124 1.19907 35.1794 1.9128 35.6038C10.0917 40.3491 20.1803 43.2233 30.6161 43.2233C37.6569 43.2233 45.3922 41.7573 52.5102 38.748C53.5711 38.2658 54.4777 39.4425 53.4361 40.2141Z" fill="#FF9900"/>
<path fill-rule="evenodd" clip-rule="evenodd" d="M56.0789 37.2053C55.2687 36.1636 50.7163 36.7037 48.6523 36.9545C48.035 37.0317 47.9386 36.4916 48.498 36.0865C52.1245 33.5402 58.0851 34.2732 58.7795 35.122C59.4739 35.99 58.5866 41.9506 55.1916 44.8055C54.6708 45.2492 54.1692 45.0177 54.4007 44.439C55.1723 42.5293 56.8891 38.2276 56.0789 37.2053Z" fill="#FF9900"/>
</svg>
