<?xml version="1.0" encoding="UTF-8"?> <svg xmlns="http://www.w3.org/2000/svg" width="66" height="39" viewBox="0 0 66 39" fill="none"><g id="aws-2" clip-path="url(#clip0_2544_998)"><path id="Vector" d="M18.8139 14.0464C18.8139 14.8423 18.8999 15.4876 19.0505 15.9608C19.2226 16.4341 19.4377 16.9503 19.7388 17.5096C19.8464 17.6817 19.8894 17.8538 19.8894 18.0043C19.8894 18.2195 19.7603 18.4346 19.4807 18.6497L18.1255 19.5531C17.9319 19.6822 17.7383 19.7467 17.5662 19.7467C17.3511 19.7467 17.136 19.6392 16.9209 19.4456C16.6198 19.1229 16.3617 18.7787 16.1465 18.4346C15.9314 18.0689 15.7163 17.6602 15.4797 17.1654C13.8019 19.1444 11.6939 20.1339 9.15561 20.1339C7.34873 20.1339 5.90752 19.6176 4.8535 18.5851C3.79948 17.5526 3.26172 16.176 3.26172 14.4551C3.26172 12.6267 3.90704 11.1425 5.21918 10.0239C6.53133 8.90538 8.27368 8.3461 10.4893 8.3461C11.2206 8.3461 11.9735 8.41063 12.7694 8.51819C13.5653 8.62574 14.3827 8.79782 15.2431 8.99142V7.42115C15.2431 5.78634 14.8989 4.64628 14.2321 3.97946C13.5438 3.31263 12.3822 2.98997 10.7259 2.98997C9.97302 2.98997 9.19864 3.07601 8.40274 3.26961C7.60685 3.4632 6.83247 3.69982 6.0796 4.00097C5.73543 4.15154 5.47731 4.23758 5.32673 4.2806C5.17616 4.32362 5.06861 4.34514 4.98256 4.34514C4.68142 4.34514 4.53084 4.13003 4.53084 3.67831V2.62429C4.53084 2.28012 4.57386 2.02199 4.68142 1.87142C4.78897 1.72085 4.98256 1.57027 5.28371 1.4197C6.03658 1.03251 6.94003 0.709849 7.99404 0.451722C9.04806 0.172085 10.1666 0.0430211 11.3497 0.0430211C13.9094 0.0430211 15.7809 0.623806 16.9855 1.78538C18.1685 2.94695 18.7708 4.71082 18.7708 7.07698V14.0464H18.8139ZM10.0806 17.316C10.7904 17.316 11.5218 17.1869 12.2962 16.9288C13.0705 16.6707 13.7589 16.1975 14.3397 15.5521C14.6838 15.1434 14.942 14.6917 15.071 14.1755C15.2001 13.6592 15.2861 13.0354 15.2861 12.304V11.4006C14.6623 11.25 13.9955 11.121 13.3072 11.0349C12.6188 10.9489 11.952 10.9059 11.2852 10.9059C9.84395 10.9059 8.78993 11.1855 8.08009 11.7663C7.37024 12.3471 7.02607 13.1645 7.02607 14.24C7.02607 15.251 7.28419 16.0039 7.82196 16.5201C8.33821 17.0579 9.09108 17.316 10.0806 17.316ZM27.3536 19.6392C26.9664 19.6392 26.7082 19.5746 26.5362 19.424C26.3641 19.295 26.2135 18.9938 26.0844 18.5851L21.0294 1.95746C20.9004 1.52725 20.8359 1.24761 20.8359 1.09704C20.8359 0.75287 21.0079 0.559275 21.3521 0.559275H23.4601C23.8688 0.559275 24.1485 0.623807 24.2991 0.774381C24.4711 0.903444 24.6002 1.20459 24.7293 1.61329L28.343 15.8533L31.6987 1.61329C31.8062 1.18308 31.9353 0.903444 32.1074 0.774381C32.2795 0.645317 32.5806 0.559275 32.9678 0.559275H34.6887C35.0974 0.559275 35.377 0.623807 35.5491 0.774381C35.7212 0.903444 35.8717 1.20459 35.9578 1.61329L39.3564 16.0254L43.0778 1.61329C43.2068 1.18308 43.3574 0.903444 43.508 0.774381C43.6801 0.645317 43.9597 0.559275 44.3469 0.559275H46.3474C46.6916 0.559275 46.8851 0.731359 46.8851 1.09704C46.8851 1.20459 46.8636 1.31214 46.8421 1.44121C46.8206 1.57027 46.7776 1.74236 46.6916 1.97897L41.5075 18.6066C41.3784 19.0369 41.2279 19.3165 41.0558 19.4456C40.8837 19.5746 40.6041 19.6607 40.2384 19.6607H38.3885C37.9798 19.6607 37.7001 19.5961 37.528 19.4456C37.356 19.295 37.2054 19.0153 37.1194 18.5851L33.7852 4.71081L30.4726 18.5636C30.365 18.9938 30.236 19.2735 30.0639 19.424C29.8918 19.5746 29.5907 19.6392 29.2035 19.6392H27.3536ZM54.9946 20.2199C53.8761 20.2199 52.7575 20.0909 51.682 19.8327C50.6065 19.5746 49.7676 19.295 49.2083 18.9723C48.8641 18.7787 48.6275 18.5636 48.5415 18.37C48.4554 18.1764 48.4124 17.9613 48.4124 17.7677V16.6707C48.4124 16.219 48.5845 16.0039 48.9071 16.0039C49.0362 16.0039 49.1653 16.0254 49.2943 16.0684C49.4234 16.1114 49.617 16.1975 49.8321 16.2835C50.5635 16.6062 51.3593 16.8643 52.1983 17.0364C53.0587 17.2085 53.8976 17.2945 54.758 17.2945C56.1132 17.2945 57.1672 17.0579 57.8986 16.5847C58.6299 16.1114 59.0171 15.4231 59.0171 14.5411C59.0171 13.9388 58.8235 13.4441 58.4363 13.0354C58.0491 12.6267 57.3178 12.261 56.2638 11.9169L53.1447 10.9489C51.5745 10.4541 50.4129 9.72278 49.703 8.7548C48.9932 7.80834 48.6275 6.75432 48.6275 5.63577C48.6275 4.73233 48.8211 3.93643 49.2083 3.2481C49.5955 2.55976 50.1117 1.95746 50.757 1.48423C51.4024 0.989486 52.1337 0.623807 52.9942 0.36568C53.8546 0.107553 54.758 0 55.7045 0C56.1777 0 56.6725 0.0215106 57.1457 0.0860423C57.6404 0.150574 58.0922 0.236616 58.5439 0.322659C58.9741 0.430211 59.3828 0.537764 59.77 0.666828C60.1572 0.795891 60.4583 0.924955 60.6734 1.05402C60.9746 1.2261 61.1897 1.39819 61.3187 1.59178C61.4478 1.76387 61.5123 2.00048 61.5123 2.30163V3.31263C61.5123 3.76435 61.3403 4.00097 61.0176 4.00097C60.8455 4.00097 60.5659 3.91492 60.2002 3.74284C58.9741 3.18356 57.5974 2.90393 56.0702 2.90393C54.8441 2.90393 53.8761 3.09752 53.2093 3.50622C52.5424 3.91492 52.1983 4.53873 52.1983 5.42066C52.1983 6.02296 52.4134 6.53921 52.8436 6.94792C53.2738 7.35662 54.0697 7.76532 55.2097 8.131L58.2642 9.09897C59.813 9.59372 60.9315 10.2821 61.5984 11.164C62.2652 12.0459 62.5879 13.0569 62.5879 14.1755C62.5879 15.1004 62.3943 15.9393 62.0286 16.6707C61.6414 17.4021 61.1251 18.0474 60.4583 18.5636C59.7915 19.1014 58.9956 19.4886 58.0706 19.7682C57.1027 20.0694 56.0917 20.2199 54.9946 20.2199Z" fill="white"></path><g id="Group"><path id="Vector_2" fill-rule="evenodd" clip-rule="evenodd" d="M59.0605 30.674C51.9835 35.901 41.7015 38.6759 32.8606 38.6759C20.4705 38.6759 9.30656 34.0941 0.874415 26.4794C0.207587 25.8771 0.809883 25.0597 1.60577 25.5329C10.7263 30.8245 21.9763 34.0296 33.6135 34.0296C41.4649 34.0296 50.0906 32.3948 58.028 29.0392C59.2111 28.5014 60.2221 29.8135 59.0605 30.674Z" fill="#FF9900"></path><path id="Vector_3" fill-rule="evenodd" clip-rule="evenodd" d="M62.0078 27.3186C61.1044 26.157 56.0279 26.7593 53.7262 27.0389C53.0379 27.125 52.9303 26.5227 53.5542 26.0709C57.5981 23.2316 64.2449 24.049 65.0193 24.9954C65.7937 25.9634 64.8042 32.6102 61.0183 35.7937C60.4375 36.2885 59.8783 36.0303 60.1364 35.385C60.9968 33.2555 62.9113 28.4586 62.0078 27.3186Z" fill="#FF9900"></path></g></g><defs><clipPath id="clip0_2544_998"><rect width="66" height="38.676" fill="white"></rect></clipPath></defs></svg> 