<?xml version="1.0" encoding="UTF-8"?> <svg xmlns="http://www.w3.org/2000/svg" width="50" height="60" viewBox="0 0 50 60" fill="none"><g id="aws-cloudformation 1" clip-path="url(#clip0_2785_11972)"><path id="Vector" d="M3.17383 41.4461L3.59264 41.9211L24.7476 47.912L24.8435 44.1985L10.0274 40.484L9.30236 40.2227L3.17383 41.4461Z" fill="#B7CA9D"></path><path id="Vector_2" d="M46.0974 41.446L24.492 48.6508L24.4277 44.1984L39.2436 40.4839L39.8894 39.7578L46.0974 41.446Z" fill="#B7CA9D"></path><path id="Vector_3" d="M24.4277 15.9954L39.2436 19.4452L45.7596 19.1364L46.0974 18.4839L25.4544 11.0605L24.4277 15.9954Z" fill="#3C4929"></path><path id="Vector_4" d="M10.0267 40.484L3.17316 41.4462L2.98242 40.7353V19.2319L3.17316 18.4834L9.36597 18.9435L10.0267 19.4454V40.484Z" fill="#759C3E"></path><path id="Vector_5" d="M24.8435 15.9949L10.0274 19.4446L3.17383 18.4834L3.43212 18.0783L24.7476 12.0176L24.8435 15.9949Z" fill="#3C4929"></path><path id="Vector_6" d="M24.6061 0.00390625L0 12.412L0.0117405 47.5251L24.6061 59.9266L24.9726 59.3707V0.724961L24.6061 0.00390625ZM17.4109 45.7149L3.17397 41.4463V18.4835L17.4109 14.2164V45.7149ZM39.243 40.4841L46.0968 41.4463L46.4808 40.7675V19.1359L46.0968 18.4835L39.243 19.4455V40.4841Z" fill="#4B612C"></path><path id="Vector_7" d="M24.6055 59.9266L49.2591 47.5258L49.2709 12.413L24.6055 0.00390625V59.9266ZM31.859 14.2164L46.0961 18.4835V41.4463L31.859 45.7149V14.2164Z" fill="#759C3E"></path></g><defs><clipPath id="clip0_2785_11972"><rect width="49.2715" height="60" fill="white"></rect></clipPath></defs></svg> 