<svg width="60" height="60" viewBox="0 0 60 60" fill="none" xmlns="http://www.w3.org/2000/svg">
<path fill-rule="evenodd" clip-rule="evenodd" d="M27.7563 37.0305H31.3347V22.9517H27.7563V37.0305Z" fill="white"/>
<path fill-rule="evenodd" clip-rule="evenodd" d="M40.2195 34.065C42.4934 34.065 44.164 32.1435 44.164 29.9865C44.164 27.8293 42.4841 25.926 40.2195 25.926C37.9456 25.926 36.2658 27.8293 36.2658 29.9865C36.2658 32.1435 37.9456 34.065 40.2195 34.065ZM40.2474 22.5C44.5352 22.5 47.988 25.7447 47.988 29.9593C47.988 34.1919 44.5075 37.5 40.2102 37.5C35.913 37.5 32.4326 34.2373 32.4326 30.0137C32.4326 25.7991 35.9596 22.5 40.2474 22.5ZM48.3995 32.7723L51.6828 32.0106C51.9186 33.7023 53.1793 34.3135 54.5034 34.3135C55.8187 34.3135 56.2994 33.5517 56.2994 32.9583C56.2994 32.48 56.0182 32.0106 55.0568 31.8246L53.0523 31.4437C50.6579 30.9921 48.9619 29.5217 48.9619 27.2632C48.9619 24.5707 51.4741 22.6752 54.313 22.6752C57.9682 22.6752 59.4738 24.9072 59.7369 26.7761L56.517 27.6618C56.3447 26.5103 55.6191 25.6779 54.2949 25.6779C53.152 25.6779 52.6079 26.4218 52.6079 26.9886C52.6079 27.458 52.8347 27.9984 53.6872 28.1578L55.7733 28.5475C58.5033 29.0612 59.9999 30.6909 59.9999 32.8077C59.9999 35.1106 57.9682 37.3249 54.4854 37.3249C50.8393 37.3249 48.8802 35.456 48.3995 32.7723Z" fill="white"/>
<path fill-rule="evenodd" clip-rule="evenodd" d="M3.85155 37.0305H0.000488281L6.36847 22.9517H10.2379L3.85155 37.0305Z" fill="#3B6BE3"/>
<path fill-rule="evenodd" clip-rule="evenodd" d="M17.3966 22.9424H12.961L17.8067 29.831L15.1104 33.6915L10.2527 22.9507H6.38281L12.7696 37.0299H16.8998L19.9168 32.5668L22.8982 37.0299H27.0735L22.0897 29.831L26.8729 22.9424H22.4966L19.9168 27.1125L17.3966 22.9424Z" fill="white"/>
</svg>
