<?xml version="1.0" encoding="UTF-8"?> <svg xmlns="http://www.w3.org/2000/svg" width="55" height="60" viewBox="0 0 55 60" fill="none"><g id="docker-4" clip-path="url(#clip0_2785_11956)"><g id="Group"><path id="Vector" d="M53.9496 25.3038C53.7982 25.1791 52.4349 24.1577 49.5064 24.1577C48.7491 24.1577 47.9664 24.2325 47.2091 24.357C46.6537 20.5451 43.4474 18.7015 43.3212 18.6019L42.5386 18.1533L42.0337 18.8759C41.4026 19.8476 40.9229 20.9438 40.6452 22.065C40.1151 24.2325 40.4432 26.2755 41.554 28.0194C40.216 28.7669 38.0449 28.9413 37.5905 28.9661H1.74161C0.807548 28.9661 0.0501621 29.7136 0.0501621 30.6354C-0.000263579 33.7248 0.529843 36.8141 1.61545 39.7291C2.85243 42.9181 4.69542 45.285 7.06852 46.7301C9.74454 48.3494 14.112 49.2713 19.0349 49.2713C21.2565 49.2713 23.4781 49.072 25.6745 48.6733C28.7292 48.1252 31.6577 47.0788 34.359 45.559C36.5727 44.2926 38.5675 42.6773 40.2664 40.7755C43.1192 37.6114 44.8107 34.0736 46.0476 30.9344H46.5525C49.6578 30.9344 51.5764 29.7136 52.6367 28.6672C53.3436 28.0194 53.8737 27.2222 54.2525 26.3253L54.4797 25.6775L53.9496 25.3038Z" fill="#0091E2"></path><path id="Vector_2" d="M5.0737 27.9447H9.87032C10.0976 27.9447 10.2996 27.7704 10.2996 27.5213V23.2858C10.2996 23.0616 10.1228 22.8623 9.87032 22.8623H5.0737C4.84651 22.8623 4.64453 23.0366 4.64453 23.2858V27.5213C4.66974 27.7704 4.84651 27.9448 5.0737 27.9448V27.9447ZM11.688 27.9447H16.4847C16.7119 27.9447 16.9139 27.7704 16.9139 27.5213V23.2858C16.9139 23.0616 16.7371 22.8623 16.4847 22.8623H11.6879C11.4607 22.8623 11.2588 23.0366 11.2588 23.2858V27.5213C11.2841 27.7704 11.4608 27.9448 11.6879 27.9448M18.4285 27.9448H23.2252C23.4524 27.9448 23.6544 27.7704 23.6544 27.5213V23.2858C23.6544 23.0616 23.4776 22.8623 23.2252 22.8623H18.4285C18.2013 22.8623 17.9993 23.0366 17.9993 23.2858V27.5213C17.9993 27.7704 18.1761 27.9448 18.4285 27.9448ZM25.0681 27.9448H29.8648C30.092 27.9448 30.294 27.7704 30.294 27.5213V23.2858C30.294 23.0616 30.1172 22.8623 29.8648 22.8623H25.0681C24.8409 22.8623 24.6389 23.0366 24.6389 23.2858V27.5213C24.6389 27.7704 24.8409 27.9448 25.0681 27.9448ZM11.688 21.8906H16.4846C16.7118 21.8906 16.9138 21.6914 16.9138 21.4671V17.2317C16.9138 17.0074 16.737 16.8081 16.4846 16.8081H11.6879C11.4607 16.8081 11.2588 16.9825 11.2588 17.2317V21.4671C11.2841 21.6913 11.4609 21.8906 11.688 21.8906ZM18.4285 21.8906H23.2252C23.4524 21.8906 23.6544 21.6914 23.6544 21.4671V17.2317C23.6544 17.0074 23.4776 16.8081 23.2252 16.8081H18.4285C18.2013 16.8081 17.9993 16.9825 17.9993 17.2317V21.4671C17.9993 21.6913 18.1761 21.8906 18.4285 21.8906ZM25.0681 21.8906H29.8648C30.092 21.8906 30.294 21.6914 30.294 21.4671V17.2317C30.294 17.0074 30.0919 16.8081 29.8648 16.8081H25.0681C24.8409 16.8081 24.6389 16.9825 24.6389 17.2317V21.4671C24.6389 21.6913 24.8409 21.8906 25.0681 21.8906ZM25.0681 15.8116H29.8648C30.092 15.8116 30.294 15.6372 30.294 15.388V11.1526C30.294 10.9283 30.0919 10.729 29.8648 10.729H25.0681C24.8409 10.729 24.6389 10.9034 24.6389 11.1526V15.388C24.6389 15.6122 24.8409 15.8116 25.0681 15.8116ZM31.7581 27.9448H36.5549C36.7821 27.9448 36.984 27.7704 36.984 27.5213V23.2858C36.984 23.0616 36.8074 22.8623 36.5549 22.8623H31.7582C31.531 22.8623 31.329 23.0366 31.329 23.2858V27.5213C31.3543 27.7704 31.531 27.9448 31.7582 27.9448" fill="#0091E2"></path></g></g><defs><clipPath id="clip0_2785_11956"><rect width="54.48" height="60" fill="white"></rect></clipPath></defs></svg> 