<?xml version="1.0" encoding="UTF-8"?> <svg xmlns="http://www.w3.org/2000/svg" width="51" height="60" viewBox="0 0 51 60" fill="none"><g id="elastic-logstash" clip-path="url(#clip0_2785_11989)"><g id="Elasticsearch"><path id="Vector" d="M28.4953 23.8096H17.7188C17.7703 24.0674 17.8734 24.3252 17.925 24.5314C18.2859 25.769 18.4922 27.058 18.5953 28.3986C18.6469 28.9143 18.6469 29.4815 18.6469 29.9971C18.6469 30.5127 18.6469 31.0799 18.5953 31.5955C18.4922 32.9362 18.2859 34.2252 17.925 35.4627C17.8734 35.7206 17.7703 35.9784 17.7188 36.1846H28.4953C31.8985 36.1846 34.6313 33.4002 34.6313 29.9971C34.6313 26.594 31.8985 23.8096 28.4953 23.8096Z" fill="#00A9E5"></path><path id="Vector_2" d="M18.5962 31.5955C18.6477 31.0799 18.6477 30.5127 18.6477 29.9971C18.6477 29.4815 18.6477 28.9143 18.5962 28.3986C18.493 27.058 18.2868 25.769 17.9258 24.5314C17.8743 24.2736 17.7712 24.0158 17.7196 23.8096H1.06484C0.446092 25.769 0.136719 27.8315 0.136719 29.9971C0.136719 32.1627 0.446092 34.2252 1.06484 36.1846H17.7196C17.7712 35.9268 17.8743 35.669 17.9258 35.4627C18.2868 34.2252 18.493 32.9362 18.5962 31.5955Z" fill="#2E2E2E"></path><path id="Vector_3" d="M30.3512 38.2471H16.9449C16.5324 39.1752 16.0684 40.0518 15.5528 40.8768C14.7793 42.1658 13.8512 43.3002 12.8199 44.383C12.459 44.744 12.0981 45.0533 11.7371 45.4143C11.0152 46.0846 10.1902 46.6518 9.36523 47.219C12.6137 49.3846 16.5324 50.6221 20.709 50.6221C27.8762 50.6221 34.1669 46.9612 37.8794 41.444C35.9716 39.4846 33.2903 38.2471 30.3512 38.2471Z" fill="#00BFB3"></path><path id="Vector_4" d="M15.5536 40.8768C16.0692 40.0518 16.5333 39.1752 16.9458 38.2471H1.83789C3.43633 41.908 6.06603 45.0533 9.41761 47.219C10.2426 46.6518 11.016 46.0846 11.7895 45.4143C12.1504 45.1049 12.5114 44.744 12.8723 44.383C13.852 43.3518 14.7801 42.1658 15.5536 40.8768Z" fill="#019B8F"></path><path id="Vector_5" d="M12.8196 15.6104C12.4586 15.2494 12.0977 14.94 11.7368 14.5791C11.0149 13.9088 10.1899 13.3416 9.36487 12.7744C6.06486 14.94 3.43516 18.0854 1.78516 21.7463H16.893C16.4805 20.8182 16.0165 19.9416 15.5008 19.1166C14.7789 17.8276 13.8508 16.6416 12.8196 15.6104Z" fill="#F9B110"></path><path id="Vector_6" d="M20.709 9.37207C16.5324 9.37207 12.6137 10.6096 9.36523 12.7752C10.1902 13.3424 10.9637 13.9096 11.7371 14.5799C12.0981 14.8893 12.459 15.2502 12.8199 15.6112C13.8512 16.694 14.7793 17.8283 15.5528 19.1174C16.0684 19.9424 16.5324 20.819 16.9449 21.7471H30.3512C33.2903 21.7471 35.9716 20.5096 37.8794 18.5502C34.1669 13.033 27.8762 9.37207 20.709 9.37207Z" fill="#FED10A"></path></g></g><defs><clipPath id="clip0_2785_11989"><rect width="50.3606" height="60" fill="white"></rect></clipPath></defs></svg> 