<svg width="60" height="60" viewBox="0 0 60 60" fill="none" xmlns="http://www.w3.org/2000/svg">
<g clip-path="url(#clip0_6112_13281)">
<path d="M35.2115 6.76403C32.6934 3.78611 30.5249 0.761682 30.0819 0.13353C30.0353 0.0870004 29.9653 0.0870004 29.9187 0.13353C29.4757 0.761682 27.3072 3.78611 24.789 6.76403C3.17463 34.2398 28.1933 52.7821 28.1933 52.7821L28.4031 52.9215C28.5896 55.7833 29.056 59.9011 29.056 59.9011H29.9886H30.9213C30.9213 59.9011 31.3876 55.8064 31.5742 52.9215L31.784 52.7588C31.8073 52.7588 56.826 34.2398 35.2115 6.76403ZM29.9886 52.3633C29.9886 52.3633 28.8695 51.4094 28.5663 50.9207V50.8743L29.9187 20.9556C29.9187 20.8626 30.0586 20.8626 30.0586 20.9556L31.4109 50.8743V50.9207C31.1078 51.4094 29.9886 52.3633 29.9886 52.3633Z" fill="#00ED64"/>
</g>
<defs>
<clipPath id="clip0_6112_13281">
<rect width="28.0156" height="59.8025" fill="white" transform="translate(15.9922 0.0986328)"/>
</clipPath>
</defs>
</svg>
