<svg width="60" height="60" viewBox="0 0 60 60" fill="none" xmlns="http://www.w3.org/2000/svg">
<path d="M38.5779 23.1001L33.3553 24.7993L28.8066 26.7945L27.5366 27.1292C27.2126 27.4382 26.8756 27.7471 26.4998 28.0561C26.0981 28.4036 25.7223 28.7126 25.4371 28.9443C25.1132 29.2017 24.6466 29.6651 24.4004 29.9612C24.0375 30.4118 23.7524 30.888 23.6358 31.2485C23.4155 31.905 23.5192 32.5744 23.9468 33.1922C24.4782 33.9775 25.5538 34.7756 26.7979 35.3162C27.4329 35.5994 28.5085 35.947 29.312 36.1529C30.6468 36.4876 33.2387 36.8609 34.6642 36.9124C34.9493 36.9253 35.3381 36.9253 35.351 36.9124C35.377 36.8867 35.6102 36.4748 35.8565 35.947C36.7377 34.1706 37.3597 32.4971 37.7096 31.0811C37.917 30.2187 38.0725 29.073 38.1891 27.7085C38.2151 27.3223 38.228 26.0479 38.2021 25.6231C38.1632 24.9151 38.0984 24.3487 38.0077 23.7823C37.9948 23.7051 37.9818 23.6279 37.9948 23.6279C38.0077 23.615 38.0596 23.6021 38.7075 23.4219L38.5779 23.1001ZM37.3857 23.7952C37.4375 23.7952 37.5541 25.0052 37.593 25.7647C37.606 25.9192 37.593 26.0351 37.593 26.0351C37.5671 26.0351 36.9321 25.6618 36.4656 25.3786C36.0768 25.134 35.3251 24.6319 35.2085 24.5418C35.1696 24.5161 35.1696 24.5161 35.4936 24.4002C36.0379 24.2071 37.3338 23.7952 37.3857 23.7952ZM34.716 24.6706C34.7549 24.6706 34.8456 24.722 35.0659 24.8508C35.8824 25.3528 36.9839 25.9707 37.4634 26.1767C37.606 26.241 37.6189 26.2153 37.2949 26.447C36.5822 26.9361 35.675 27.4124 34.5864 27.8887C34.3921 27.9788 34.2365 28.0432 34.2236 28.0432C34.2106 28.0432 34.2365 27.9402 34.2754 27.8244C34.5346 26.846 34.6901 25.8548 34.7031 25.0696C34.6772 24.6706 34.6772 24.6706 34.716 24.6706ZM34.1717 24.8765C34.1977 24.9023 34.1847 25.7776 34.1458 26.0222C34.081 26.5886 33.9644 27.1292 33.783 27.7342C33.7441 27.8758 33.7052 28.0046 33.6922 28.0046C33.6793 28.0303 33.135 27.5025 32.9536 27.2966C32.6425 26.949 32.4093 26.5886 32.2278 26.241C32.1371 26.0608 31.9946 25.7132 32.0075 25.7132C32.0723 25.6618 34.1588 24.8636 34.1717 24.8765ZM31.5928 25.8806C31.6188 25.8935 31.6447 25.9578 31.6576 26.0222C31.7872 26.3697 32.0723 26.8718 32.3186 27.1807C32.5907 27.5283 32.9406 27.9145 33.2257 28.159C33.3164 28.2363 33.4071 28.3135 33.4201 28.3264C33.446 28.3521 33.446 28.3521 32.811 28.5838C32.0594 28.867 31.2559 29.1502 30.3228 29.4463C30.1025 29.5235 29.8822 29.5879 29.6619 29.6651C29.623 29.678 29.636 29.6523 29.7396 29.4978C30.2062 28.7769 30.906 27.3738 31.2948 26.3697C31.3596 26.2024 31.4244 26.0222 31.4373 25.9836C31.4503 25.9321 31.4762 25.9063 31.528 25.8806C31.554 25.8935 31.5799 25.8806 31.5928 25.8806ZM30.8023 26.2024C30.8153 26.2153 30.6079 26.6272 30.4135 27.0134C30.0248 27.76 29.6101 28.4809 29.0528 29.3691C28.9621 29.5235 28.8714 29.6651 28.8584 29.678C28.8325 29.7038 28.8325 29.7038 28.7677 29.575C28.6381 29.3176 28.5215 28.97 28.4696 28.6611C28.4048 28.3521 28.4178 27.8244 28.4956 27.4897C28.5474 27.2451 28.5474 27.2451 28.664 27.1936C29.1435 26.949 30.7764 26.1895 30.8023 26.2024ZM37.606 26.4856V26.6529C37.606 27.5283 37.5153 28.7254 37.3727 29.6008C37.3468 29.7552 37.3338 29.884 37.3209 29.884C37.3209 29.884 37.2042 29.8582 37.0746 29.8196C36.4785 29.6394 35.8435 29.3691 35.2603 29.0473C34.8715 28.8413 34.3143 28.4937 34.3402 28.4809C34.3402 28.4809 34.5087 28.3907 34.7031 28.2878C35.4806 27.8887 36.2193 27.451 36.8673 27.0262C37.1135 26.8718 37.4764 26.6015 37.5541 26.5371L37.606 26.4856ZM27.8217 27.6441C27.8346 27.6441 27.8346 27.6699 27.8087 27.8115C27.7957 27.9145 27.7698 28.1076 27.7698 28.2363C27.7439 28.8027 27.8346 29.2275 28.1197 29.8067C28.1975 29.9612 28.2623 30.1028 28.2623 30.1028C28.2364 30.1286 25.6186 30.888 24.8021 31.1069C24.5559 31.1712 24.3486 31.2356 24.3226 31.2356C24.2967 31.2485 24.2967 31.2356 24.2967 31.1712C24.3874 30.592 24.8281 29.8454 25.4501 29.2017C25.8648 28.7769 26.1888 28.5323 26.746 28.2105C27.1478 28.0046 27.7569 27.657 27.8217 27.6441C27.8087 27.6441 27.8087 27.6441 27.8217 27.6441ZM33.9774 28.7383C33.9774 28.7383 34.081 28.7898 34.1847 28.8542C35.0271 29.3433 36.2064 29.7939 37.2042 30.0256L37.2949 30.0513L37.1654 30.1157C36.634 30.4118 34.9104 31.1197 33.148 31.7762C32.8888 31.8664 32.6425 31.9693 32.5907 31.9822C32.5389 32.008 32.5 32.008 32.5 32.008C32.5 32.008 32.5648 31.8664 32.6555 31.699C33.148 30.7851 33.6404 29.6651 33.8996 28.8928C33.9514 28.8027 33.9774 28.7383 33.9774 28.7383ZM33.3553 28.9443C33.3553 28.9443 33.3294 29.0344 33.2905 29.1245C32.9406 29.9483 32.5 30.8494 31.9168 31.8664C31.7743 32.1238 31.6447 32.3298 31.6447 32.3298C31.6447 32.3298 31.528 32.2654 31.3855 32.1753C30.5431 31.6604 29.8044 31.0425 29.325 30.4246L29.2602 30.3345L29.623 30.2315C30.906 29.884 32.0075 29.5107 33.0961 29.0473C33.2128 28.9958 33.3423 28.9443 33.3553 28.9443ZM37.2561 30.2959C37.2561 30.386 37.0617 31.197 36.8932 31.7762C36.7507 32.2654 36.634 32.6516 36.4137 33.3338C36.323 33.6299 36.2323 33.8745 36.2323 33.8745C36.2323 33.8745 36.2064 33.8745 36.1804 33.8616C35.0141 33.6557 33.9514 33.3596 32.9665 32.9605C32.6944 32.8447 32.2926 32.6773 32.2667 32.6516C32.2538 32.6387 32.5 32.5357 32.7981 32.407C34.5994 31.6218 36.4526 30.7464 37.1006 30.3603C37.1783 30.3216 37.2431 30.2959 37.2561 30.2959ZM28.2493 30.6048C28.2623 30.6177 27.7569 31.3257 27.0571 32.304C26.8108 32.6516 26.5257 33.0506 26.4221 33.1922C26.3184 33.3467 26.1499 33.5784 26.0592 33.72L25.8907 33.9775L25.7093 33.823C25.5019 33.6557 25.1391 33.2823 24.9706 33.0764C24.6337 32.6516 24.4004 32.2139 24.3097 31.8149C24.2708 31.6218 24.2708 31.5317 24.3097 31.5188C24.3745 31.5059 25.4242 31.2613 26.4091 31.0296C26.9534 30.9009 27.5884 30.7593 27.8217 30.6949C28.0549 30.6435 28.2364 30.6048 28.2493 30.6048ZM28.7547 30.7979L28.8843 30.9395C29.4545 31.5703 30.0377 32.0337 30.7375 32.4456C30.8671 32.51 30.9578 32.5744 30.9449 32.5872C30.919 32.613 28.5085 33.4626 27.381 33.8359C26.759 34.0547 26.2406 34.2349 26.2277 34.2349L26.1499 34.1834L26.0851 34.1319L26.2017 33.9646C26.5776 33.4368 27.0441 32.8447 28.0549 31.6347L28.7547 30.7979ZM31.9039 33.0378C31.9039 33.0378 32.0853 33.1021 32.2926 33.1794C32.811 33.3725 33.2128 33.4883 33.757 33.6299C34.4309 33.7973 35.4029 33.9646 35.9731 34.0161C36.0638 34.029 36.1027 34.029 36.0897 34.0418C36.0638 34.0547 35.4806 34.2478 35.053 34.3894C34.3791 34.5954 32.3056 35.2132 30.6079 35.6895C30.2969 35.7796 30.0248 35.8569 30.0118 35.8569C29.9729 35.8697 29.8433 35.8311 29.8433 35.8183C29.8433 35.8054 29.934 35.6895 30.0507 35.5608C30.6209 34.8914 31.1781 34.1319 31.6576 33.4239C31.7872 33.1922 31.9039 33.0378 31.9039 33.0378ZM31.2041 33.0506C31.2041 33.0506 30.9319 33.5012 30.4395 34.2735C30.2321 34.5954 29.9988 34.9687 29.9081 35.0974C29.8304 35.2261 29.7137 35.4192 29.6489 35.5351L29.5323 35.741L29.4675 35.7281C29.3249 35.6895 28.3271 35.342 28.0679 35.239C27.7439 35.1103 27.407 34.9558 27.1478 34.8142C26.8368 34.6468 26.435 34.3894 26.4739 34.3894C26.4869 34.3894 27.0182 34.2349 27.6791 34.0676C29.4027 33.6042 30.3617 33.3338 30.9967 33.1279C31.1004 33.0764 31.2041 33.0506 31.2041 33.0506ZM36.1156 34.1963C36.1416 34.2349 35.4936 35.9985 35.2603 36.552C35.2085 36.6807 35.1955 36.7065 35.1567 36.7065C35.0919 36.7065 34.1588 36.5777 33.6015 36.4876C32.6166 36.3332 30.9708 36.05 30.5561 35.9599L30.4654 35.9341L31.0485 35.8054C32.3186 35.5222 32.9147 35.3677 33.5367 35.1875C34.3143 34.9558 35.0789 34.6597 35.8565 34.2993C35.9861 34.2478 36.0897 34.1963 36.1156 34.1963Z" fill="url(#paint0_linear_6112_13266)"/>
<path d="M33.1884 11.0129C33.0977 11.0001 31.6981 11.5021 30.791 11.8625C29.5728 12.3517 28.6268 12.828 28.0436 13.2399C27.8233 13.3944 27.5511 13.6647 27.5122 13.7677C27.4993 13.8063 27.4863 13.8578 27.4863 13.8964L28.0177 14.3984L29.2747 14.7975L32.2683 15.3253L35.6896 15.9045L35.7285 15.6085H35.7026L35.249 15.5441L35.1583 15.3896C34.6917 14.5787 34.1734 13.5617 33.8753 12.8795C33.642 12.3517 33.4217 11.7338 33.3051 11.2961C33.2403 11.0258 33.2273 11.0129 33.1884 11.0129ZM33.1236 11.206C33.1366 11.206 33.1496 11.3219 33.1625 11.4506C33.2273 12.0041 33.3569 12.5319 33.5513 13.0983C33.6939 13.536 33.6939 13.5102 33.5254 13.4587C33.1236 13.3429 31.3223 13.0339 30.0134 12.8537C29.8061 12.828 29.6246 12.8022 29.6246 12.7894C29.6117 12.7765 30.5707 12.2745 30.9854 12.0814C31.5296 11.8368 33.02 11.2318 33.1236 11.206ZM29.3136 12.9696L29.4691 13.0211C30.3115 13.3043 32.4109 13.7033 33.5772 13.7934C33.7068 13.8063 33.8234 13.8192 33.8234 13.8192C33.8234 13.8192 33.7198 13.8835 33.5772 13.9479C33.02 14.2311 32.3979 14.5658 31.9703 14.8361C31.8407 14.9133 31.724 14.9777 31.7111 14.9777C31.6981 14.9777 31.6074 14.9648 31.5296 14.952L31.3741 14.9262L30.9854 14.54C30.2855 13.8707 29.7413 13.3558 29.5339 13.1498L29.3136 12.9696ZM29.1581 13.0854L29.7153 13.7806C30.0134 14.1667 30.3244 14.5272 30.3892 14.6173C30.454 14.6945 30.5059 14.7717 30.5059 14.7717C30.4929 14.7846 29.7024 14.6301 29.2877 14.54C28.86 14.4371 28.6786 14.3984 28.4194 14.3083L28.1991 14.244V14.1925C28.1991 13.935 28.536 13.536 29.1062 13.1369L29.1581 13.0854ZM33.8882 14.0251C33.9012 14.0251 33.9271 14.0638 33.966 14.1667C34.0956 14.4628 34.5233 15.248 34.6269 15.4025C34.6528 15.454 34.7176 15.454 34.1604 15.3639C32.8256 15.1451 32.3979 15.0807 32.3979 15.0678C32.3979 15.0678 32.4368 15.0421 32.4886 15.0035C32.9033 14.7717 33.318 14.4885 33.6939 14.1796C33.7846 14.1024 33.8623 14.038 33.8882 14.0251Z" fill="url(#paint1_linear_6112_13266)"/>
<path d="M27.5371 13.7031C27.5371 13.7031 27.4464 13.8447 27.5371 14.0507C27.5889 14.1794 27.7444 14.3339 27.9129 14.4884C27.9129 14.4884 29.6754 16.1875 29.8827 16.4321C30.8547 17.552 31.2824 18.6462 31.3212 20.1523C31.3471 21.1306 31.1657 21.9802 30.6992 22.9714C29.8827 24.7478 28.1462 26.7174 25.4766 28.8928L25.8653 28.7641C26.1116 28.571 26.4615 28.3779 27.265 27.9403C29.1311 26.9233 31.2176 25.9965 33.7835 25.0439C37.4769 23.6665 43.5549 22.0446 47.015 21.5168L47.3779 21.4653L47.326 21.3752C47.015 20.8861 46.7947 20.59 46.5355 20.2682C45.7839 19.3285 44.8637 18.5819 43.7363 17.9511C42.1941 17.0886 40.1854 16.4193 37.6454 15.9172C37.1659 15.8271 36.1162 15.6469 35.2609 15.5182C33.4466 15.235 32.2802 15.0419 30.9972 14.823C30.5307 14.7458 29.8439 14.63 29.3903 14.527C29.157 14.4755 28.7034 14.3725 28.3406 14.2438C28.0296 14.1537 27.6278 14.0378 27.5371 13.7031ZM28.5609 14.6943C28.5609 14.6943 28.6257 14.7201 28.7164 14.7458C28.8719 14.7973 29.0663 14.8617 29.2866 14.9132C29.4551 14.9646 29.6365 15.0033 29.805 15.0548C30.0383 15.1191 30.2456 15.1706 30.2456 15.1706C30.2715 15.1964 30.6733 16.4707 30.8029 16.947C30.8547 17.1272 30.8936 17.2946 30.8936 17.2946C30.8936 17.2946 30.8417 17.2302 30.7899 17.1401C30.3234 16.3291 29.5976 15.5182 28.7553 14.8488C28.6386 14.7587 28.5609 14.6943 28.5609 14.6943ZM30.5048 15.2221C30.5307 15.2221 30.6085 15.235 30.7121 15.2607C31.386 15.4152 32.5912 15.634 33.3558 15.7627C33.4854 15.7885 33.5891 15.8014 33.5891 15.8142C33.5891 15.8271 33.5373 15.8529 33.4854 15.8786C33.3558 15.943 32.8245 16.2519 32.656 16.3678C32.2154 16.6638 31.8266 16.9728 31.5415 17.256L31.3342 17.4619C31.3342 17.4619 31.3083 17.3976 31.2953 17.3075C31.1528 16.7668 30.8547 15.9558 30.5825 15.3894C30.5307 15.3122 30.4918 15.2221 30.5048 15.2221C30.4918 15.2221 30.4918 15.2221 30.5048 15.2221ZM33.9131 15.8657C33.939 15.8786 33.9779 16.0073 34.0557 16.3034C34.1982 16.8698 34.263 17.5134 34.25 18.1056C34.2371 18.2729 34.2371 18.4274 34.2241 18.4403L34.2112 18.4789L34.0038 18.4145C33.5762 18.2858 32.8893 18.0798 32.3061 17.9125C31.9692 17.8224 31.697 17.7451 31.697 17.7323C31.697 17.7065 32.1895 17.2174 32.3969 17.0371C32.7986 16.6896 33.8872 15.8529 33.9131 15.8657ZM34.1852 15.9043C34.1982 15.8915 35.8181 16.1747 36.5568 16.3163C37.1011 16.4192 37.9046 16.5866 37.9564 16.6123C37.9823 16.6252 37.8916 16.6638 37.6324 16.7797C36.5957 17.2431 35.8181 17.6679 35.0406 18.1699C34.8332 18.2987 34.6647 18.4145 34.6647 18.4145C34.6647 18.4145 34.6518 18.2987 34.6518 18.1699C34.6518 17.4233 34.4963 16.6767 34.2241 16.0331C34.2112 15.9687 34.1852 15.9172 34.1852 15.9043ZM38.3841 16.7282C38.397 16.7411 38.3452 17.0629 38.2934 17.2431C38.1508 17.8224 37.762 18.6977 37.2955 19.5087C37.2177 19.6503 37.14 19.7661 37.127 19.779C37.1141 19.779 37.0104 19.7275 36.8937 19.6503C36.4402 19.38 35.9088 19.1354 35.3516 18.9037C35.1961 18.8393 35.0535 18.7878 35.0535 18.7749C35.0276 18.7492 36.2976 17.9125 36.9715 17.5134C37.5028 17.1916 38.3711 16.7153 38.3841 16.7282ZM38.6821 16.7797C38.721 16.7797 39.4338 16.9728 39.8096 17.0886C40.7427 17.359 41.8053 17.7451 42.4922 18.0669L42.7773 18.1957L42.5699 18.2472C40.8723 18.6333 39.4208 19.0839 38.0212 19.6503C37.9046 19.7018 37.8009 19.7404 37.8009 19.7404C37.7879 19.7404 37.8268 19.6503 37.8787 19.5344C38.3063 18.6462 38.5785 17.7194 38.6433 16.9213C38.6692 16.844 38.6821 16.7797 38.6821 16.7797ZM31.5286 18.4145C31.5415 18.4016 32.0858 18.5304 32.3839 18.6205C32.8375 18.7492 33.7835 19.0581 33.7835 19.0839C33.7835 19.0839 33.6798 19.174 33.5502 19.2898C33.0319 19.7146 32.5394 20.1652 31.9433 20.7445C31.7618 20.9118 31.6193 21.0534 31.6063 21.0534C31.5934 21.0534 31.5934 21.0277 31.5934 21.0019C31.6841 20.3454 31.6582 19.4958 31.5415 18.6333C31.5415 18.5046 31.5286 18.4145 31.5286 18.4145ZM43.0624 18.4274C43.0754 18.4403 42.8032 18.8393 42.6477 19.071C42.4144 19.4057 42.0645 19.8562 41.274 20.8346C40.8593 21.3495 40.3928 21.9416 40.2373 22.1347C40.0817 22.3278 39.9522 22.4951 39.9392 22.4951C39.9392 22.4951 39.8874 22.4308 39.8226 22.3407C39.3819 21.6842 38.8506 21.1049 38.2286 20.59C38.1119 20.487 37.9823 20.384 37.9305 20.3583C37.8916 20.3325 37.8527 20.2939 37.8527 20.2939C37.8527 20.281 38.5266 19.9978 39.032 19.7919C39.9262 19.4314 41.1444 18.9938 42.0516 18.7234C42.544 18.5561 43.0624 18.4145 43.0624 18.4274ZM43.3734 18.5046C43.3864 18.5046 43.4901 18.5432 43.5937 18.6205C44.5527 19.1611 45.4988 19.8691 46.2374 20.59C46.4448 20.7959 46.9632 21.3237 46.9502 21.3366C46.9502 21.3366 46.7688 21.3495 46.5614 21.3623C44.9026 21.4911 42.7773 21.8386 40.7297 22.3278C40.5872 22.3535 40.4705 22.3921 40.4576 22.3921C40.4446 22.3921 40.6001 22.2377 40.7945 22.0575C41.9997 20.9118 42.544 20.1781 43.192 18.8908C43.2827 18.672 43.3605 18.5175 43.3734 18.5046C43.3605 18.5046 43.3605 18.5046 43.3734 18.5046ZM34.574 19.3928C34.6259 19.4057 35.1442 19.6503 35.533 19.8305C35.8829 20.0107 36.4272 20.2939 36.4531 20.3068C36.4531 20.3068 36.2717 20.4098 36.0384 20.5256C35.2997 20.8989 34.6647 21.2465 33.9909 21.6455C33.7965 21.7614 33.641 21.8515 33.641 21.8515C33.628 21.8515 33.628 21.8386 33.7317 21.6455C34.0816 21.0019 34.3667 20.2295 34.5351 19.4829C34.5481 19.4314 34.5611 19.3928 34.574 19.3928ZM34.0686 19.4958C34.0816 19.5087 33.952 19.985 33.8613 20.2553C33.7057 20.7573 33.4206 21.3752 33.1615 21.8515C33.0967 21.9674 33.0059 22.1218 32.9541 22.2119L32.8504 22.3664L32.6301 22.1604C32.3709 21.9159 32.1636 21.7614 31.8914 21.6198C31.7878 21.5683 31.697 21.5168 31.697 21.5039C31.697 21.4782 32.3709 20.8603 32.8893 20.4226C33.2651 20.1008 34.0557 19.4829 34.0686 19.4958ZM37.2048 20.7702L37.3992 20.8989C37.8398 21.1821 38.3582 21.5683 38.7599 21.903C38.9802 22.0832 39.4208 22.4694 39.5115 22.5724L39.5634 22.6239L39.2394 22.714C37.4251 23.216 36.0384 23.6537 34.4056 24.2458C34.2241 24.3102 34.0686 24.3617 34.0557 24.3617C34.0297 24.3617 34.0168 24.3874 34.4185 24.0141C35.4553 23.0615 36.3883 22.006 37.0752 20.989L37.2048 20.7702ZM36.3754 20.9762C36.3883 20.989 35.844 21.7356 35.5201 22.1733C35.1313 22.6882 34.4444 23.5378 33.9779 24.0913C33.7835 24.323 33.615 24.5161 33.6021 24.5161C33.5891 24.5161 33.5891 24.4646 33.5891 24.3745C33.5891 23.8982 33.4725 23.3962 33.2522 22.9585C33.1615 22.7783 33.1485 22.7397 33.1615 22.714C33.2392 22.6496 34.3796 21.9931 35.1183 21.6069C35.5978 21.3495 36.3624 20.9633 36.3754 20.9762ZM31.386 22.1862C31.399 22.1862 31.4897 22.2377 31.5934 22.2892C31.8396 22.4308 32.0729 22.5852 32.2673 22.7397C32.2802 22.7526 32.1765 22.8298 32.034 22.9328C31.6582 23.2031 31.088 23.6279 30.764 23.8854C30.4141 24.1557 30.4011 24.1686 30.44 24.1042C30.6992 23.7052 30.8288 23.4863 30.9713 23.2031C31.088 22.9457 31.2176 22.6496 31.3083 22.3793C31.3342 22.2763 31.3731 22.1862 31.386 22.1862ZM32.7208 23.2289C32.7468 23.2289 32.7597 23.2546 32.8764 23.422C33.0967 23.7566 33.2781 24.2072 33.317 24.5676L33.3299 24.6449L32.7856 24.8508C31.8137 25.2241 30.9195 25.5974 30.3234 25.8678C30.1549 25.945 29.8568 26.0866 29.6624 26.1767C29.468 26.2797 29.3125 26.344 29.3125 26.344C29.3125 26.344 29.4292 26.2539 29.5847 26.1381C30.764 25.2885 31.7878 24.3488 32.5524 23.422C32.6301 23.319 32.7079 23.2289 32.7208 23.2289ZM32.1118 23.3705C32.1247 23.3833 31.6711 23.8982 31.3731 24.2072C30.6085 24.9795 29.8568 25.5846 28.9237 26.1767C28.8071 26.2539 28.7034 26.3183 28.6905 26.3312C28.6646 26.344 28.7034 26.3054 29.1052 25.8678C29.3644 25.5846 29.5588 25.3529 29.792 25.0697C29.9475 24.8766 29.9735 24.8508 30.1808 24.6964C30.751 24.2587 32.0858 23.3576 32.1118 23.3705Z" fill="url(#paint2_radial_6112_13266)"/>
<path d="M15.0064 39.6158C14.9286 39.6158 14.8638 39.6287 14.786 39.6287C13.3087 39.7059 12.3238 40.3495 11.7406 41.6111C11.2481 42.7438 11.3 44.2371 11.7406 45.3699C12.259 46.4898 13.1013 47.0819 14.5009 47.3007C14.799 47.3522 14.9934 47.5067 15.5766 48.1761L16.2893 48.9999H17.5723L16.717 48.1503C16.2505 47.6869 15.8617 47.275 15.8617 47.2364C15.8617 47.1978 16.0431 47.1205 16.2634 47.0562C16.9891 46.8373 17.5853 46.2838 18 45.4342C18.3369 44.752 18.3888 44.546 18.4406 43.6964C18.5702 41.1734 17.2354 39.6029 15.0064 39.6158ZM16.1338 46.2066C15.5118 46.5026 14.6046 46.567 14.0085 46.3482C13.3994 46.1293 12.8033 45.4986 12.5311 44.7777C12.2331 43.9925 12.2719 42.5508 12.6218 41.9071C13.1661 40.8773 13.8919 40.401 14.9416 40.401C16.4967 40.401 17.3909 41.3536 17.5075 43.13C17.5982 44.6232 17.0928 45.7432 16.1338 46.2066ZM38.3073 41.7655C37.763 41.7655 37.3612 41.9844 37.0761 42.4092L36.8558 42.7438V41.8685H35.9227V47.1334H36.8558V45.4471C36.8558 43.9024 36.8688 43.7222 37.0891 43.3102C37.3872 42.731 37.9055 42.4478 38.398 42.5765L38.7349 42.6666V41.7526L38.3073 41.7655ZM32.8384 41.714C32.657 41.714 32.4626 41.7398 32.2682 41.7784C31.0241 42.1002 30.3243 43.2845 30.3632 44.5074C30.3632 45.5243 30.5576 46.0392 31.063 46.5799C32.0738 47.4037 32.9939 47.4681 34.238 47.0304C34.4454 46.9403 34.6786 46.8373 34.6786 46.8373V46.0135L34.238 46.2452C33.2402 46.6829 32.4756 46.6829 31.8665 46.168C31.4777 45.7818 31.3092 45.3055 31.2315 44.7777H34.9897V44.0697C34.9897 42.6151 34.1084 41.7012 32.8384 41.714ZM31.3222 44.0311C31.3222 44.0311 31.4647 43.13 31.9701 42.7696C32.2164 42.6022 32.5015 42.5121 32.7866 42.5121C33.0717 42.5121 33.3438 42.6022 33.5771 42.7825C34.0436 43.1429 34.1344 44.0311 34.1344 44.0311H31.3222ZM8.85067 43.0785C7.83984 42.4735 7.38626 42.0358 7.45106 41.5209C7.60657 40.0921 9.382 40.2852 10.3669 40.8258L10.3799 39.8604C10.3799 39.8604 9.83558 39.6287 9.05802 39.6158C7.86576 39.6029 7.0882 39.9891 6.72533 40.7872C6.194 41.9586 6.66054 42.8468 8.37117 43.8251C9.33016 44.3787 9.75782 44.855 9.75782 45.3827C9.75782 46.464 8.44893 46.8373 7.0882 46.168C6.80309 46.0264 6.56982 45.9105 6.55686 45.9105C6.50503 46.2194 6.53094 46.9532 6.53094 46.9532C6.53094 46.9532 6.94564 47.1205 7.56769 47.2493C9.12281 47.5582 10.5224 46.8373 10.665 45.6659C10.7687 44.5589 10.3669 43.9796 8.85067 43.0785ZM46.5624 41.714C46.3809 41.714 46.1866 41.7398 45.9922 41.7784C44.7481 42.1002 44.0483 43.2845 44.0871 44.5074C44.0871 45.5243 44.2815 46.0392 44.7869 46.567C45.7978 47.3909 46.7179 47.4681 47.9749 47.0176C48.1823 46.9274 48.4156 46.8245 48.4156 46.8245V46.0006L47.9749 46.2323C46.9641 46.67 46.2125 46.67 45.6034 46.1551C45.2146 45.7689 45.0461 45.3055 44.9684 44.7648H48.7136V44.0568C48.7136 42.6022 47.8324 41.6883 46.5624 41.714ZM45.0332 44.0182C45.0332 44.0182 45.1757 43.1171 45.6811 42.7567C45.9274 42.5765 46.2125 42.4993 46.4846 42.4993C46.7568 42.4993 47.0419 42.5894 47.2751 42.7696C47.7417 43.13 47.8324 44.0182 47.8324 44.0182H45.0332ZM27.9527 43.0914C26.9419 42.4864 26.5013 42.0487 26.5531 41.5338C26.7087 40.105 28.4841 40.298 29.469 40.8387L29.482 39.8732C29.482 39.8732 28.9377 39.6415 28.1601 39.6287C26.9678 39.6158 26.1903 40.002 25.8274 40.8001C25.2961 41.9715 25.7756 42.8597 27.4733 43.838C28.4322 44.3915 28.8469 44.8678 28.8469 45.3827C28.8469 46.464 27.538 46.8502 26.1773 46.168C25.9052 46.0264 25.6589 45.9105 25.646 45.9105C25.5941 46.2194 25.6201 46.9532 25.6201 46.9532C25.6201 46.9532 26.0348 47.1205 26.6568 47.2493C28.2119 47.5582 29.6115 46.8373 29.7541 45.6659C29.8707 44.5718 29.469 43.9925 27.9527 43.0914ZM52.0312 41.7526C51.4869 41.7526 51.0722 41.9715 50.8001 42.3963L50.5798 42.731V41.8556H49.6467V47.1205H50.5798V45.4471C50.5798 43.9024 50.5927 43.7222 50.813 43.3102C51.1111 42.731 51.6295 42.4478 52.1219 42.5894L52.4589 42.6795V41.7655L52.0312 41.7526ZM20.54 43.0657V39.7059H19.6069V47.1334H23.5595V46.2581H20.553L20.54 43.0657ZM42.2728 44.1083L41.4953 46.1036L40.7566 44.0955L40.0049 41.8685H39.046C39.668 43.6192 40.3419 45.4085 41.0287 47.1334C41.3268 47.1463 41.6249 47.1334 41.9229 47.1334L42.9726 44.5203L44.0353 41.8556H43.1152C43.1022 41.8685 42.7005 42.9241 42.2728 44.1083ZM22.7172 37.6849C22.8727 37.6849 22.9893 37.6334 23.093 37.5304C23.1967 37.4274 23.2485 37.3116 23.2485 37.1571C23.2485 37.0026 23.1967 36.8868 23.093 36.7838C22.9893 36.6937 22.8727 36.6422 22.7172 36.6422C22.5617 36.6422 22.4321 36.6937 22.3414 36.7967C22.2377 36.8997 22.1858 37.0284 22.1858 37.17C22.1858 37.3245 22.2377 37.4532 22.3414 37.5433C22.4321 37.6334 22.5617 37.6849 22.7172 37.6849ZM22.3802 36.8224C22.4709 36.7323 22.5746 36.6937 22.7172 36.6937C22.8468 36.6937 22.9634 36.7323 23.0541 36.8224C23.1448 36.9125 23.1967 37.0155 23.1967 37.1571C23.1967 37.2858 23.1448 37.4017 23.0541 37.4918C22.9634 37.5819 22.8468 37.6205 22.7172 37.6205C22.5876 37.6205 22.4709 37.5819 22.3802 37.4918C22.2895 37.4017 22.2377 37.2858 22.2377 37.1571C22.2506 37.0284 22.2895 36.9125 22.3802 36.8224ZM22.6005 37.2086H22.6653C22.7042 37.2086 22.7561 37.2472 22.782 37.3245L22.8597 37.4918H22.9764L22.8856 37.3116C22.8468 37.2344 22.8079 37.1957 22.769 37.1829C22.8208 37.17 22.8597 37.1571 22.8986 37.1185C22.9245 37.0928 22.9375 37.0413 22.9375 37.0026C22.9375 36.9512 22.9245 36.9125 22.8856 36.8739C22.8468 36.8353 22.782 36.8224 22.6913 36.8224H22.4969V37.4918H22.5876L22.6005 37.2086ZM22.6005 36.8997H22.6913C22.7561 36.8997 22.7949 36.9125 22.8208 36.9254C22.8468 36.9383 22.8468 36.964 22.8468 37.0155C22.8468 37.0928 22.7949 37.1314 22.7042 37.1314H22.6005V36.8997ZM7.0882 37.1442C7.0882 36.9125 7.07524 36.7323 7.07524 36.6293C7.10116 36.7452 7.12708 36.8353 7.15299 36.8997L8.06015 38.8949H8.21566L9.12281 36.8739C9.14873 36.8224 9.17465 36.7323 9.20057 36.6165H9.21353C9.20057 36.8224 9.18761 36.9898 9.18761 37.1314V38.8949H9.49864V36.2689H9.10986L8.2675 38.1097C8.24158 38.1869 8.18974 38.2899 8.1379 38.4315H8.12494C8.11199 38.3543 8.06015 38.2513 8.00831 38.1226L7.19187 36.2818H6.77717V38.9078H7.07524L7.0882 37.1442ZM10.1596 37.1571H10.4317V38.7919H10.1596V37.1571ZM10.2892 36.5521C10.341 36.5521 10.3928 36.5392 10.4317 36.5006C10.4706 36.462 10.4965 36.4234 10.4965 36.359C10.4965 36.3075 10.4835 36.256 10.4317 36.2174C10.3928 36.1788 10.341 36.1659 10.2892 36.1659C10.2373 36.1659 10.1855 36.1788 10.1466 36.2174C10.1077 36.256 10.0818 36.3075 10.0818 36.359C10.0818 36.4234 10.0948 36.462 10.1466 36.5006C10.1855 36.5392 10.2373 36.5521 10.2892 36.5521ZM12.3238 38.8177V38.5345C12.1812 38.6375 12.0257 38.7018 11.8572 38.7018C11.6628 38.7018 11.5073 38.6375 11.3907 38.5087C11.2741 38.38 11.2093 38.2127 11.2093 37.9938C11.2093 37.7621 11.2741 37.5819 11.3907 37.4532C11.5073 37.3245 11.6758 37.2601 11.8572 37.2601C12.0128 37.2601 12.1683 37.3116 12.3108 37.4017V37.0799C12.1812 37.0155 12.0387 36.9898 11.8702 36.9898C11.5721 36.9898 11.3259 37.0799 11.1574 37.273C10.989 37.4532 10.8982 37.7106 10.8982 38.0196C10.8982 38.2899 10.976 38.5216 11.1445 38.689C11.3129 38.8692 11.5333 38.9593 11.7924 38.9593C12.0128 38.9464 12.1812 38.9078 12.3238 38.8177ZM13.0884 37.9552C13.0884 37.7364 13.1402 37.569 13.2309 37.4403C13.3216 37.3373 13.4124 37.273 13.542 37.273C13.6456 37.273 13.7234 37.2858 13.7752 37.3373V37.0284C13.7363 37.0155 13.6715 37.0026 13.5938 37.0026C13.4901 37.0026 13.3864 37.0413 13.3087 37.1056C13.218 37.1829 13.1402 37.2858 13.1013 37.4274H13.0884V37.0413H12.7903V38.9207H13.0884V37.9552ZM14.8249 38.9464C15.11 38.9464 15.3433 38.8563 15.5118 38.6761C15.6802 38.4959 15.771 38.2513 15.771 37.9552C15.771 37.6463 15.6932 37.4146 15.5377 37.2344C15.3822 37.0541 15.1619 36.9769 14.8768 36.9769C14.5917 36.9769 14.3584 37.067 14.1899 37.2215C14.0085 37.4017 13.9178 37.6592 13.9178 37.981C13.9178 38.2642 13.9955 38.4959 14.164 38.6761C14.3195 38.8563 14.5398 38.9464 14.8249 38.9464ZM14.3973 37.4274C14.5139 37.3116 14.6694 37.2472 14.8508 37.2472C15.0452 37.2472 15.1878 37.3116 15.3044 37.4274C15.4081 37.5562 15.4729 37.7364 15.4729 37.9681C15.4729 38.1998 15.4211 38.38 15.3174 38.4959C15.2137 38.6246 15.0582 38.689 14.8638 38.689C14.6694 38.689 14.5139 38.6246 14.3973 38.4959C14.2806 38.3671 14.2288 38.1998 14.2288 37.9681C14.2158 37.7364 14.2677 37.5562 14.3973 37.4274ZM17.0799 38.7919C17.1965 38.689 17.2613 38.5602 17.2613 38.4058C17.2613 38.2642 17.2094 38.1483 17.1187 38.0582C17.041 37.981 16.9373 37.9166 16.7688 37.8522C16.6263 37.7879 16.5356 37.7364 16.4837 37.6978C16.4319 37.6463 16.406 37.5948 16.406 37.5047C16.406 37.4274 16.4319 37.3631 16.4967 37.3245C16.5615 37.273 16.6392 37.2472 16.7429 37.2472C16.9114 37.2472 17.041 37.2858 17.1706 37.376V37.0799C17.0539 37.0155 16.9114 36.9898 16.7688 36.9898C16.5744 36.9898 16.406 37.0413 16.2893 37.1442C16.1597 37.2472 16.1079 37.376 16.1079 37.5304C16.1079 37.672 16.1468 37.7879 16.2245 37.8651C16.2893 37.9424 16.406 38.0067 16.5615 38.0711C16.717 38.1354 16.8207 38.1998 16.8725 38.2513C16.9243 38.3028 16.9503 38.3543 16.9503 38.4315C16.9503 38.6117 16.8336 38.7018 16.5874 38.7018C16.406 38.7018 16.2375 38.6375 16.0949 38.5216V38.8434C16.2245 38.9207 16.3801 38.9593 16.5615 38.9593C16.7818 38.9464 16.9632 38.8949 17.0799 38.7919ZM18.5183 36.9898C18.2332 36.9898 18 37.0799 17.8315 37.2344C17.6501 37.4146 17.5594 37.672 17.5594 37.9938C17.5594 38.277 17.6371 38.5087 17.8056 38.689C17.974 38.8692 18.1944 38.9593 18.4795 38.9593C18.7646 38.9593 18.9978 38.8692 19.1663 38.689C19.3348 38.5087 19.4255 38.2642 19.4255 37.9681C19.4255 37.6592 19.3477 37.4274 19.1922 37.2472C19.0238 37.067 18.8034 36.9898 18.5183 36.9898ZM19.1145 37.9681C19.1145 38.1998 19.0626 38.38 18.959 38.4959C18.8553 38.6246 18.6998 38.689 18.5054 38.689C18.311 38.689 18.1555 38.6246 18.0388 38.4959C17.9222 38.3671 17.8704 38.1998 17.8704 37.9681C17.8704 37.7235 17.9352 37.5433 18.0518 37.4146C18.1684 37.2987 18.324 37.2344 18.5054 37.2344C18.6868 37.2344 18.8423 37.2987 18.946 37.4146C19.0626 37.5433 19.1145 37.7235 19.1145 37.9681ZM19.9309 38.9078H20.229V37.2858H20.6696V37.0284H20.229V36.7452C20.229 36.4877 20.3327 36.3461 20.54 36.3461C20.6178 36.3461 20.6826 36.359 20.7344 36.3976V36.1273C20.6826 36.1016 20.6048 36.1016 20.5141 36.1016C20.3456 36.1016 20.216 36.1531 20.1123 36.256C19.9827 36.3719 19.918 36.5264 19.918 36.7452V37.0541H19.594V37.3116H19.918L19.9309 38.9078ZM21.175 38.3929C21.175 38.7533 21.3435 38.9464 21.6675 38.9464C21.7841 38.9464 21.8748 38.9335 21.9526 38.8821V38.6246C21.9007 38.6632 21.8359 38.689 21.7582 38.689C21.6545 38.689 21.5897 38.6632 21.5379 38.6117C21.499 38.5602 21.4731 38.4701 21.4731 38.3414V37.2858H21.9526V37.0284H21.4731V36.4749C21.3694 36.5135 21.2657 36.5392 21.175 36.565V37.0155H20.851V37.273H21.175V38.3929ZM53.6382 41.8556C53.5345 41.7655 53.4179 41.714 53.2624 41.714C53.1068 41.714 52.9772 41.7655 52.8865 41.8685C52.7829 41.9715 52.731 42.1002 52.731 42.2418C52.731 42.3963 52.7829 42.5121 52.8865 42.6151C52.9902 42.7052 53.1198 42.7567 53.2624 42.7567C53.4179 42.7567 53.5345 42.7052 53.6382 42.6022C53.7419 42.4993 53.7937 42.3834 53.7937 42.2289C53.8066 42.0745 53.7419 41.9457 53.6382 41.8556ZM53.5993 42.5636C53.5086 42.6537 53.4049 42.6923 53.2624 42.6923C53.1328 42.6923 53.0161 42.6537 52.9254 42.5636C52.8347 42.4735 52.7829 42.3577 52.7829 42.2289C52.7829 42.1002 52.8217 41.9844 52.9125 41.8942C53.0032 41.8041 53.1068 41.7655 53.2494 41.7655C53.379 41.7655 53.4956 41.8041 53.5863 41.8942C53.6771 41.9844 53.7289 42.1002 53.7289 42.2289C53.7289 42.3577 53.69 42.4735 53.5993 42.5636ZM53.3272 42.2547C53.379 42.2418 53.4179 42.2161 53.4567 42.1903C53.4827 42.1646 53.4956 42.1131 53.4956 42.0745C53.4956 42.023 53.4827 41.9844 53.4438 41.9457C53.4049 41.9071 53.3401 41.8942 53.2494 41.8942H53.055V42.5636H53.1457V42.2804H53.2105C53.2494 42.2804 53.2883 42.319 53.3272 42.3963L53.4049 42.5636H53.5215L53.4308 42.3834C53.392 42.3062 53.3531 42.2676 53.3272 42.2547ZM53.2624 42.1903H53.1587V41.9715H53.2494C53.3142 41.9715 53.3531 41.9844 53.379 41.9972C53.4049 42.0101 53.4049 42.0358 53.4049 42.0873C53.3919 42.1646 53.3531 42.1903 53.2624 42.1903ZM36.3763 36.9512H36.467V36.2818H36.6873V36.1917H36.156V36.2818H36.3763V36.9512ZM36.8817 36.4491V36.2947C36.8817 36.3333 36.8947 36.359 36.9077 36.3719L37.1668 36.9512H37.2057L37.4649 36.3719C37.4779 36.359 37.4779 36.3333 37.4908 36.2947V36.9512H37.5815V36.1917H37.4779L37.2446 36.7195C37.2446 36.7323 37.2187 36.7709 37.2057 36.8224H37.1928C37.1928 36.7967 37.1798 36.7709 37.1539 36.7323L36.9206 36.2045H36.804V36.964H36.8947L36.8817 36.4491Z" fill="white"/>
<defs>
<linearGradient id="paint0_linear_6112_13266" x1="27.4578" y1="34.35" x2="29.3399" y2="33.2304" gradientUnits="userSpaceOnUse">
<stop stop-color="#909CA9"/>
<stop offset="1" stop-color="#EDEDEE"/>
</linearGradient>
<linearGradient id="paint1_linear_6112_13266" x1="27.5017" y1="13.4635" x2="29.0214" y2="13.4635" gradientUnits="userSpaceOnUse">
<stop stop-color="#939FAB"/>
<stop offset="1" stop-color="#DCDEE1"/>
</linearGradient>
<radialGradient id="paint2_radial_6112_13266" cx="0" cy="0" r="1" gradientUnits="userSpaceOnUse" gradientTransform="translate(35.1621 20.3771) rotate(-171.514) scale(1.95903 3.89395)">
<stop stop-color="#EE352C"/>
<stop offset="1" stop-color="#A91D22"/>
</radialGradient>
</defs>
</svg>
