<svg width="60" height="60" viewBox="0 0 60 60" fill="none" xmlns="http://www.w3.org/2000/svg">
<path d="M30 45.7899C46.5685 45.7899 60 38.7206 60 30.0002C60 21.2798 46.5685 14.2104 30 14.2104C13.4315 14.2104 0 21.2798 0 30.0002C0 38.7206 13.4315 45.7899 30 45.7899Z" fill="#8993BE"/>
<path fill-rule="evenodd" clip-rule="evenodd" d="M8.42529 39.3496L11.7131 22.5209H19.3155C22.6031 22.7288 24.247 24.3907 24.247 27.2996C24.247 32.2858 20.343 35.1944 16.8497 34.9866H13.1515L12.3295 39.3496H8.42529ZM13.9732 31.8704L15.0007 25.6374H17.6719C19.1102 25.6374 20.1375 26.2607 20.1375 27.5072C19.9322 31.0393 18.2883 31.6625 16.439 31.8704H13.9732ZM23.4832 34.9866L26.7708 18.1582H30.675L29.853 22.5209H33.5515C36.8393 22.7288 38.0721 24.3907 37.6612 26.4685L36.2229 34.9866H32.1133L33.5517 27.2996C33.757 26.2607 33.757 25.6374 32.3189 25.6374H29.2366L27.3874 34.9866H23.4832ZM35.9597 39.3496L39.2472 22.5209H46.8499C50.1377 22.7288 51.7816 24.3907 51.7816 27.2996C51.7816 32.2858 47.8774 35.1944 44.3843 34.9866H40.6856L39.8637 39.3496H35.9597ZM41.5073 31.8704L42.5348 25.6374H45.2062C46.6446 25.6374 47.6719 26.2607 47.6719 27.5072C47.4665 31.0393 45.8226 31.6625 43.9734 31.8704H41.5076H41.5073Z" fill="#232531"/>
</svg>
