<svg width="60" height="60" viewBox="0 0 60 60" fill="none" xmlns="http://www.w3.org/2000/svg">
<path d="M59.622 30.3657C60.1705 29.8173 60.0786 28.772 59.622 28.2029L56.728 25.3088L43.7905 12.7595C43.242 12.211 42.3889 12.211 41.728 12.7595C41.1795 13.3079 40.9667 14.3532 41.728 14.9223L55.3217 28.2329C55.8702 28.7813 55.8702 29.8267 55.3217 30.3957L41.4374 44.1638C40.8889 44.7123 40.8889 45.7576 41.4374 46.3267C41.9858 46.8751 43.0311 46.7832 43.4999 46.3267L56.4374 33.5017L59.622 30.3657ZM0.377659 30.3657C-0.170778 29.8173 -0.0789034 28.772 0.377659 28.2029L3.27172 25.3088L16.2092 12.7595C16.7577 12.211 17.6108 12.211 18.2717 12.7595C18.8202 13.3079 19.033 14.3532 18.2717 14.9223L4.95922 28.2348C4.41079 28.7832 4.41079 29.8285 4.95922 30.3976L18.553 44.1657C19.1014 44.7142 19.1014 45.7595 18.553 46.3285C18.0045 46.877 16.9592 46.7851 16.4905 46.3285L3.27172 33.6938L0.377659 30.3657Z" fill="#3999C6"/>
<path d="M32.4212 21.0141L44.6059 2.34375H26.3293L16.4902 30.0938L28.4902 30.1847L19.1087 57.66L44.9996 21.0169L32.4212 21.0141Z" fill="#FCD116"/>
<path opacity="0.3" d="M45.0022 21.0141H32.4209L44.6066 2.34375H35.0412L24.9284 25.4006L36.9284 25.4916L19.1094 57.6478L45.0022 21.0141Z" fill="#FF8C00"/>
</svg>
