<svg width="60" height="60" viewBox="0 0 60 60" fill="none" xmlns="http://www.w3.org/2000/svg">
<path d="M53.4332 30.0048C53.4332 26.8805 49.5452 23.9197 43.5842 22.0835C44.9598 15.9696 44.3485 11.1053 41.6546 9.54795C41.0336 9.18265 40.3076 9.00961 39.5147 9.00961V11.1534C39.9541 11.1534 40.3076 11.2399 40.6037 11.4033C41.9029 12.1531 42.4665 15.0082 42.0271 18.6805C41.922 19.5841 41.7501 20.5358 41.5399 21.5068C39.6676 21.0453 37.6232 20.6896 35.4739 20.4589C34.1842 18.6805 32.8468 17.0655 31.4999 15.6523C34.6141 12.7395 37.5373 11.1437 39.5243 11.1437V9C36.8972 9 33.4582 10.8842 29.981 14.1527C26.5037 10.9034 23.0647 9.03845 20.4376 9.03845V11.1822C22.4151 11.1822 25.3478 12.7684 28.4621 15.6619C27.1247 17.0751 25.7873 18.6805 24.5167 20.4589C22.3578 20.6896 20.3135 21.0453 18.4411 21.5164C18.2214 20.555 18.059 19.6226 17.9444 18.7285C17.4954 15.0563 18.0494 12.2012 19.3391 11.4417C19.6257 11.2687 19.9982 11.1918 20.4376 11.1918V9.04807C19.6352 9.04807 18.9092 9.2211 18.2787 9.5864C15.5943 11.1437 14.9925 15.9984 16.3777 22.0932C10.4358 23.9389 6.56689 26.8901 6.56689 30.0048C6.56689 33.1291 10.4549 36.0899 16.4159 37.9261C15.0403 44.0401 15.6517 48.9043 18.3456 50.4617C18.9665 50.827 19.6925 51 20.495 51C23.122 51 26.561 49.1158 30.0383 45.8473C33.5155 49.0966 36.9545 50.9615 39.5816 50.9615C40.384 50.9615 41.11 50.7885 41.7405 50.4232C44.4249 48.8659 45.0267 44.0112 43.6415 37.9165C49.5643 36.0803 53.4332 33.1195 53.4332 30.0048ZM40.9954 23.5928C40.6419 24.8329 40.2025 26.1115 39.7058 27.39C39.3141 26.621 38.9033 25.8519 38.4543 25.0829C38.0149 24.3138 37.5468 23.564 37.0787 22.8334C38.4352 23.0352 39.744 23.2852 40.9954 23.5928ZM36.6202 33.8309C35.8751 35.1286 35.1108 36.3591 34.318 37.5031C32.8946 37.6281 31.4521 37.6954 30.0001 37.6954C28.5576 37.6954 27.1151 37.6281 25.7013 37.5127C24.9084 36.3687 24.1346 35.1479 23.3895 33.8597C22.6635 32.6004 22.0043 31.3218 21.4025 30.0336C21.9948 28.7455 22.6635 27.4573 23.3799 26.198C24.1251 24.9002 24.8893 23.6697 25.6822 22.5257C27.1055 22.4008 28.548 22.3335 30.0001 22.3335C31.4425 22.3335 32.885 22.4008 34.2988 22.5161C35.0917 23.6601 35.8655 24.881 36.6106 26.1691C37.3367 27.4285 37.9958 28.707 38.5976 29.9952C37.9958 31.2834 37.3367 32.5715 36.6202 33.8309ZM39.7058 32.5811C40.2216 33.8693 40.6611 35.1575 41.0241 36.4072C39.7726 36.7148 38.4543 36.9744 37.0883 37.1762C37.5564 36.436 38.0245 35.6766 38.4639 34.8979C38.9033 34.1289 39.3141 33.3502 39.7058 32.5811ZM30.0192 42.8384C29.1308 41.9155 28.2423 40.8869 27.3635 39.7622C28.2232 39.8006 29.1021 39.8295 29.9905 39.8295C30.8885 39.8295 31.7769 39.8103 32.6462 39.7622C31.7864 40.8869 30.898 41.9155 30.0192 42.8384ZM22.9118 37.1762C21.5553 36.9744 20.2466 36.7244 18.9952 36.4168C19.3486 35.1767 19.7881 33.8981 20.2848 32.6196C20.6765 33.3886 21.0872 34.1577 21.5362 34.9268C21.9852 35.6958 22.4437 36.4456 22.9118 37.1762ZM29.9714 17.1712C30.8598 18.0941 31.7482 19.1227 32.6271 20.2474C31.7673 20.209 30.8885 20.1801 30.0001 20.1801C29.1021 20.1801 28.2137 20.1994 27.3444 20.2474C28.2041 19.1227 29.0925 18.0941 29.9714 17.1712ZM22.9023 22.8334C22.4342 23.5736 21.9661 24.333 21.5267 25.1117C21.0872 25.8808 20.6765 26.6498 20.2848 27.4189C19.7689 26.1307 19.3295 24.8425 18.9665 23.5928C20.2179 23.2948 21.5362 23.0352 22.9023 22.8334ZM14.2569 34.8691C10.8752 33.4175 8.68763 31.5141 8.68763 30.0048C8.68763 28.4955 10.8752 26.5825 14.2569 25.1405C15.0785 24.7848 15.9765 24.4676 16.9031 24.1696C17.4476 26.0538 18.1641 28.0149 19.0525 30.024C18.1736 32.0236 17.4667 33.975 16.9318 35.8496C15.986 35.5516 15.088 35.2248 14.2569 34.8691ZM19.3964 48.6063C18.0972 47.8565 17.5336 45.0014 17.973 41.3291C18.0781 40.4255 18.25 39.4738 18.4602 38.5029C20.3326 38.9643 22.3769 39.32 24.5263 39.5507C25.8159 41.3291 27.1533 42.9441 28.5003 44.3573C25.386 47.2701 22.4629 48.8659 20.4759 48.8659C20.046 48.8563 19.683 48.7697 19.3964 48.6063ZM42.0558 41.2811C42.5048 44.9533 41.9507 47.8084 40.6611 48.5679C40.3745 48.7409 40.0019 48.8178 39.5625 48.8178C37.585 48.8178 34.6523 47.2316 31.5381 44.3381C32.8755 42.9249 34.2129 41.3195 35.4834 39.5411C37.6424 39.3104 39.6867 38.9547 41.559 38.4836C41.7787 39.4546 41.9507 40.387 42.0558 41.2811ZM45.7336 34.8691C44.9121 35.2248 44.0141 35.542 43.0875 35.84C42.543 33.9558 41.8265 31.9947 40.9381 29.9856C41.817 27.986 42.5239 26.0346 43.0588 24.16C44.0046 24.458 44.9025 24.7848 45.7432 25.1405C49.1249 26.5921 51.3125 28.4955 51.3125 30.0048C51.3029 31.5141 49.1153 33.4271 45.7336 34.8691Z" fill="#61DAFB"/>
<path d="M29.9897 34.3978C32.4008 34.3978 34.3553 32.4309 34.3553 30.0046C34.3553 27.5782 32.4008 25.6113 29.9897 25.6113C27.5786 25.6113 25.624 27.5782 25.624 30.0046C25.624 32.4309 27.5786 34.3978 29.9897 34.3978Z" fill="#61DAFB"/>
</svg>
