<svg width="60" height="60" viewBox="0 0 60 60" fill="none" xmlns="http://www.w3.org/2000/svg">
<path d="M0.430603 33.3121C0.145269 32.2387 0 31.1238 0 30.0009C0 24.8748 3.11663 20.1877 7.7559 18.3394L8.36416 19.9655C4.3708 21.5569 1.68866 25.5895 1.68866 30.0009C1.68866 30.9685 1.81316 31.9268 2.05829 32.8503L0.430603 33.3121Z" fill="#69D3A7"/>
<path d="M21.4041 25.0486C19.5986 21.4684 16.045 19.2439 12.1321 19.2439C10.7456 19.2439 9.39805 19.5197 8.1296 20.0617L7.48242 18.4516C8.95707 17.8212 10.5212 17.5 12.1321 17.5C16.6779 17.5 20.805 20.0831 22.9021 24.2429L21.4041 25.0486Z" fill="url(#paint0_linear_6112_13220)"/>
<path d="M8.50936 27.4217C9.48857 27.4217 10.2862 27.9611 10.696 28.9019L10.7285 28.9756L12.373 28.3987L12.338 28.3117C11.7012 26.7096 10.2343 25.7139 8.50936 25.7139C7.2967 25.7139 6.31097 26.1154 5.49648 26.9399C4.68718 27.7589 4.27734 28.7895 4.27734 30.0034C4.27734 31.2067 4.68718 32.2319 5.49648 33.051C6.31097 33.8755 7.2967 34.277 8.50936 34.277C10.2343 34.277 11.7012 33.2812 12.338 31.6805L12.373 31.5935L10.7259 31.0153L10.6947 31.0916C10.3277 32.0164 9.51063 32.5692 8.50936 32.5692C7.82715 32.5692 7.25129 32.3229 6.79476 31.8384C6.33303 31.3472 6.09958 30.7302 6.09958 30.0048C6.09958 29.274 6.32785 28.6691 6.79476 28.1551C7.24999 27.6679 7.82715 27.4217 8.50936 27.4217Z" fill="white"/>
<path d="M28.7749 26.9412C28.0162 26.1274 27.0693 25.7139 25.959 25.7139C24.8567 25.7139 23.9488 26.1194 23.2588 26.9184V25.8718H21.4819V37.2763H23.2588V33.0724C23.9488 33.8714 24.8553 34.277 25.959 34.277C27.0693 34.277 28.0174 33.8634 28.7761 33.0483C29.5232 32.2292 29.9005 31.2053 29.9005 30.0034C29.8993 28.7895 29.5218 27.7603 28.7749 26.9412ZM27.3819 31.8357C26.9267 32.3216 26.3495 32.5665 25.6686 32.5665C24.9774 32.5665 24.417 32.3269 23.954 31.8357C23.4923 31.3445 23.2588 30.7275 23.2588 30.0021C23.2588 29.2553 23.4858 28.6503 23.954 28.1524C24.4157 27.6599 24.976 27.4217 25.6686 27.4217C26.3508 27.4217 26.9267 27.6679 27.3819 28.1524C27.8398 28.6396 28.0615 29.2446 28.0615 30.0021C28.0615 30.749 27.8384 31.3486 27.3819 31.8357Z" fill="white"/>
<path d="M32.7935 26.8543V25.8719H31.0166V34.1178H32.7935V29.4655C32.7935 28.72 33.084 28.1498 33.6573 27.7711C34.2266 27.395 34.9102 27.3254 35.7468 27.5609L35.8543 27.5917V25.8277L35.7881 25.8116C34.6651 25.5346 33.538 25.9334 32.7935 26.8543Z" fill="white"/>
<path d="M40.4628 25.7139C39.2918 25.7139 38.2982 26.1261 37.5097 26.9399C36.7107 27.7643 36.3062 28.7949 36.3062 30.0034C36.3062 31.2067 36.7159 32.2319 37.5253 33.051C38.3397 33.8755 39.3254 34.277 40.5381 34.277C42.1814 34.277 43.5937 33.415 44.3175 31.9709L44.359 31.8879L42.8558 31.2L42.8194 31.2736C42.3837 32.1436 41.5471 32.6629 40.5849 32.6629C39.3346 32.6629 38.3773 31.8745 38.118 30.6446H44.5639L44.5717 30.5656C44.7118 29.2352 44.3798 28.0815 43.5873 27.1353C42.7987 26.1917 41.7469 25.7139 40.4628 25.7139ZM38.1711 29.1723C38.4864 28.0467 39.3761 27.3266 40.4628 27.3266C41.5795 27.3266 42.4693 28.0467 42.7573 29.1723H38.1711Z" fill="white"/>
<path d="M49.3193 29.2163C48.3506 29.029 47.514 28.8657 47.514 28.1697C47.514 27.617 48.0833 27.2315 48.8978 27.2315C49.7967 27.2315 50.2895 27.6303 50.4049 28.4508L50.4179 28.5431L52.1946 28.159L52.1818 28.076C51.9431 26.6185 50.685 25.7124 48.8991 25.7124C48.003 25.7124 47.2441 25.952 46.645 26.4244C46.0328 26.8942 45.7229 27.5072 45.7229 28.2487C45.7229 29.3221 46.3817 30.1278 47.488 30.4035C47.7747 30.4731 48.0781 30.5293 48.3712 30.5855C49.4725 30.793 50.5126 30.9897 50.5126 31.7553C50.5126 32.3455 49.8484 32.7564 48.8991 32.7564C47.9329 32.7564 47.3999 32.3576 47.2689 31.5358L47.2545 31.4448L45.479 31.8289L45.4932 31.9132C45.7513 33.3922 47.0238 34.2755 48.8978 34.2755C49.8498 34.2755 50.6656 34.0306 51.3193 33.5488C51.9729 33.0723 52.3037 32.458 52.3037 31.7232C52.3037 29.7959 50.6501 29.4747 49.3193 29.2163Z" fill="white"/>
<path d="M57.016 29.2163C56.0472 29.029 55.2108 28.8657 55.2108 28.1697C55.2108 27.617 55.7801 27.2315 56.5945 27.2315C57.4934 27.2315 57.9863 27.6303 58.1017 28.4508L58.1145 28.5431L59.8914 28.159L59.8784 28.076C59.6399 26.6185 58.3818 25.7124 56.5959 25.7124C55.6996 25.7124 54.9409 25.952 54.3418 26.4244C53.7295 26.8942 53.4195 27.5072 53.4195 28.2487C53.4195 29.3221 54.0785 30.1278 55.1848 30.4035C55.4714 30.4731 55.7749 30.5293 56.068 30.5855C57.1691 30.793 58.2092 30.9897 58.2092 31.7553C58.2092 32.3455 57.5452 32.7564 56.5959 32.7564C55.6297 32.7564 55.0965 32.3576 54.9656 31.5358L54.9513 31.4448L53.1758 31.8289L53.19 31.9132C53.4481 33.3922 54.7204 34.2755 56.5945 34.2755C57.5466 34.2755 58.3624 34.0306 59.016 33.5488C59.6697 33.0723 60.0005 32.458 60.0005 31.7232C60.0005 29.7959 58.3468 29.4747 57.016 29.2163Z" fill="white"/>
<path d="M18.8095 25.8716L16.4658 31.9975L14.1066 25.8716H12.1768L15.4853 34.2326L13.1313 40.1296L14.8187 40.4762L20.6331 25.8716H18.8095Z" fill="white"/>
<path d="M13.4337 39.3694L13.0226 40.3975C12.9409 40.6009 12.7541 40.7387 12.544 40.748C12.4052 40.7534 12.2652 40.7575 12.1238 40.7575C7.28479 40.7548 3.0035 37.2307 1.94258 32.375L0.29541 32.7591C0.890721 35.4828 2.38483 37.9548 4.50279 39.7216C6.64539 41.5082 9.34439 42.4946 12.1056 42.5C12.1095 42.5 12.1303 42.5 12.1303 42.5C12.2924 42.5 12.4532 42.4961 12.614 42.4893C13.4804 42.4518 14.2547 41.8911 14.5854 41.06L15.1224 39.7162L13.4337 39.3694Z" fill="url(#paint1_linear_6112_13220)"/>
<defs>
<linearGradient id="paint0_linear_6112_13220" x1="10.8697" y1="16.693" x2="20.3981" y2="26.552" gradientUnits="userSpaceOnUse">
<stop offset="0.0939" stop-color="#58D09E"/>
<stop offset="0.9883" stop-color="#58D09E" stop-opacity="0"/>
</linearGradient>
<linearGradient id="paint1_linear_6112_13220" x1="-0.129308" y1="35.6884" x2="17.538" y2="40.2406" gradientUnits="userSpaceOnUse">
<stop offset="0.0774" stop-color="#58D09E"/>
<stop offset="0.7617" stop-color="white"/>
</linearGradient>
</defs>
</svg>
