<?xml version="1.0" encoding="UTF-8"?> <svg xmlns="http://www.w3.org/2000/svg" width="60" height="60" viewBox="0 0 60 60" fill="none"><g id="git-icon 1" clip-path="url(#clip0_2785_11929)"><path id="Vector" d="M58.8684 27.3271L32.6719 1.13199C31.1641 -0.37668 28.7173 -0.37668 27.2077 1.13199L21.7678 6.57184L28.6685 13.4725C30.2721 12.9307 32.111 13.2942 33.3893 14.5725C34.6737 15.8589 35.0346 17.7136 34.4796 19.3223L41.13 25.9729C42.739 25.4186 44.5955 25.7772 45.8805 27.0644C47.6766 28.8597 47.6766 31.7695 45.8805 33.566C44.0841 35.3627 41.1743 35.3627 39.3769 33.566C38.0259 32.2136 37.6922 30.2296 38.3761 28.5654L32.1741 22.3633L32.1734 38.6845C32.623 38.9068 33.0336 39.2004 33.3893 39.554C35.1853 41.3493 35.1853 44.2593 33.3893 46.0572C31.5928 47.853 28.6816 47.853 26.8877 46.0572C25.0917 44.2593 25.0917 41.3496 26.8877 39.5543C27.3181 39.1236 27.8296 38.7826 28.3927 38.5509V22.0776C27.8288 21.8474 27.317 21.5062 26.8877 21.0743C25.527 19.7154 25.1998 17.7187 25.897 16.0479L19.0945 9.24465L1.13203 27.206C-0.377344 28.7161 -0.377344 31.1632 1.13203 32.6721L27.3291 58.8677C28.8373 60.3766 31.2837 60.3766 32.7938 58.8677L58.8682 32.7937C60.3771 31.2843 60.3773 28.8358 58.8684 27.3271Z" fill="#DE4C36"></path></g><defs><clipPath id="clip0_2785_11929"><rect width="60" height="60" fill="white"></rect></clipPath></defs></svg> 