<svg width="48" height="48" viewBox="0 0 48 48" fill="none" xmlns="http://www.w3.org/2000/svg">
<rect width="48" height="48" rx="12" fill="#FFC132"/>
<g clip-path="url(#clip0_6112_13421)">
<path d="M24.9998 18.9998L20.6998 14.6998C20.2482 14.2504 19.637 13.998 18.9998 13.998C18.3627 13.998 17.7514 14.2504 17.2998 14.6998L14.6998 17.2998C14.2504 17.7514 13.998 18.3627 13.998 18.9998C13.998 19.637 14.2504 20.2482 14.6998 20.6998L18.9998 24.9998M20 17.9998L22 15.9998M30 27.9998L32 25.9998M29 22.9998L33.3 27.2998C34.24 28.2398 34.24 29.7598 33.3 30.6998L30.7 33.2998C29.76 34.2398 28.24 34.2398 27.3 33.2998L23 28.9998M27 16.9998L31 20.9998M33.1739 18.8116C33.7026 18.2831 33.9997 17.5661 33.9998 16.8185C33.9999 16.0709 33.703 15.3539 33.1744 14.8251C32.6459 14.2964 31.9289 13.9994 31.1813 13.9993C30.4337 13.9992 29.7166 14.2961 29.1879 14.8246L15.8419 28.1736C15.6098 28.4051 15.438 28.6902 15.3419 29.0036L14.0209 33.3556C13.9951 33.4421 13.9931 33.534 14.0153 33.6215C14.0374 33.709 14.0829 33.7889 14.1467 33.8527C14.2106 33.9164 14.2906 33.9617 14.3781 33.9837C14.4656 34.0057 14.5575 34.0036 14.6439 33.9776L18.9969 32.6576C19.3101 32.5624 19.5951 32.3917 19.8269 32.1606L33.1739 18.8116Z" stroke="black" stroke-width="2" stroke-linecap="round" stroke-linejoin="round"/>
</g>
<defs>
<clipPath id="clip0_6112_13421">
<rect width="24" height="24" fill="white" transform="translate(12 12)"/>
</clipPath>
</defs>
</svg>
