<svg width="48" height="48" viewBox="0 0 48 48" fill="none" xmlns="http://www.w3.org/2000/svg">
<rect width="48" height="48" rx="12" fill="#FFC132"/>
<path d="M24 27.0002L21 24.0002M24 27.0002C25.3968 26.469 26.7369 25.799 28 25.0002M24 27.0002V32.0002C24 32.0002 27.03 31.4502 28 30.0002C29.08 28.3802 28 25.0002 28 25.0002M21 24.0002C21.5321 22.6197 22.2022 21.2963 23 20.0502C24.1652 18.1872 25.7876 16.6533 27.713 15.5943C29.6384 14.5354 31.8027 13.9866 34 14.0002C34 16.7202 33.22 21.5002 28 25.0002M21 24.0002L16 24.0003C16 24.0003 16.55 20.9703 18 20.0003C19.62 18.9203 23 20.0003 23 20.0003M16.5 28.5003C15 29.7603 14.5 33.5003 14.5 33.5003C14.5 33.5003 18.24 33.0003 19.5 31.5003C20.21 30.6603 20.2 29.3703 19.41 28.5903C19.0213 28.2193 18.5093 28.005 17.9722 27.9883C17.4352 27.9717 16.9109 28.1541 16.5 28.5003Z" stroke="black" stroke-width="2" stroke-linecap="round" stroke-linejoin="round"/>
</svg>
