<svg width="48" height="48" viewBox="0 0 48 48" fill="none" xmlns="http://www.w3.org/2000/svg">
<rect width="48" height="48" rx="12" fill="#FFC132"/>
<path d="M22.0649 24.4929L15.8849 25.8109C15.645 25.863 15.3943 25.8185 15.1869 25.6871C14.9796 25.5558 14.8323 25.348 14.7769 25.1089L14.2399 22.9589C14.1768 22.6999 14.2126 22.4266 14.3404 22.1926C14.4683 21.9586 14.6788 21.7808 14.9309 21.6939L28.4349 17.2539M25.5601 23.747L29.8921 22.823M28 33L24.895 26.79M18.1582 20.6331L19.2722 25.0891M20 33L23.105 26.79M28.4849 17.9401C28.3564 17.4256 28.4375 16.8811 28.7103 16.4263C28.9832 15.9716 29.4255 15.6438 29.9399 15.5151L31.0299 15.2431C31.2871 15.179 31.5591 15.2195 31.7864 15.3558C32.0136 15.4921 32.1775 15.7131 32.2419 15.9701L33.7569 22.0301C33.8214 22.2874 33.781 22.5597 33.6447 22.7872C33.5083 23.0147 33.2872 23.1787 33.0299 23.2431L31.9399 23.5151C31.4254 23.6437 30.8809 23.5626 30.4262 23.2897C29.9714 23.0169 29.6436 22.5746 29.5149 22.0601L28.4849 17.9401ZM26 25C26 26.1046 25.1046 27 24 27C22.8954 27 22 26.1046 22 25C22 23.8954 22.8954 23 24 23C25.1046 23 26 23.8954 26 25Z" stroke="black" stroke-width="2" stroke-linecap="round" stroke-linejoin="round"/>
</svg>
