<?xml version="1.0" encoding="UTF-8"?> <svg xmlns="http://www.w3.org/2000/svg" width="62" height="60" viewBox="0 0 62 60" fill="none"><g id="kubernets" clip-path="url(#clip0_2785_11962)"><path id="Vector" d="M19.7927 59.0162C18.3589 59.0162 17.005 58.3796 16.089 57.2256L2.15066 39.9161C1.23462 38.762 0.876302 37.29 1.23462 35.8572L6.21267 14.2502C6.5312 12.8177 7.48703 11.6636 8.80141 11.0271L28.9526 1.3972C29.5899 1.07918 30.3068 0.919922 31.0236 0.919922C31.7405 0.919922 32.4571 1.07893 33.0944 1.39744L53.2459 10.9873C54.56 11.6239 55.5158 12.7779 55.8344 14.2105L60.8124 35.8174C61.1312 37.25 60.8124 38.7223 59.8966 39.8763L45.9578 57.1858C45.0418 58.2999 43.6878 58.9764 42.2541 58.9764L19.7932 59.0162H19.7927Z" fill="#326DE6"></path><path id="Vector_2" d="M30.9843 1.91427C31.542 1.91427 32.0995 2.03353 32.6172 2.27229L52.7686 11.8622C53.804 12.3795 54.6004 13.3345 54.8394 14.4488L59.8175 36.0557C60.0962 37.2098 59.8175 38.4036 59.0608 39.3186L45.1222 56.6284C44.4054 57.5434 43.2902 58.0607 42.1354 58.0607H19.7936C18.6386 58.0607 17.5236 57.5434 16.8067 56.6284L2.86819 39.3186C2.15132 38.4036 1.87233 37.2098 2.11153 36.0557L7.08959 14.4488C7.36833 13.2948 8.12499 12.3397 9.16039 11.8622L29.3121 2.23278C29.8298 2.03377 30.427 1.91451 30.9845 1.91451L30.9843 1.91427ZM30.9843 0.0439453C30.148 0.0439453 29.3118 0.242952 28.5151 0.600971L8.36394 10.2309C6.77082 10.9869 5.65585 12.3795 5.25751 14.0905L0.279453 35.6977C-0.118647 37.4088 0.279453 39.1596 1.39466 40.5524L15.3332 57.8619C16.4086 59.2147 18.0413 59.9708 19.7538 59.9708H42.0954C43.8079 59.9708 45.4408 59.2147 46.516 57.8619L60.4548 40.5522C61.5697 39.1994 61.9681 37.4088 61.5697 35.6975L56.5917 14.0905C56.1936 12.3795 55.0784 10.9869 53.4855 10.2309L33.4136 0.600731C32.657 0.242952 31.8207 0.0439453 30.9843 0.0439453Z" fill="white"></path><path id="Vector_3" d="M51.1745 34.3449C51.1347 34.3449 51.1347 34.3449 51.1745 34.3449H51.1347C51.0949 34.3449 51.0552 34.3449 51.0552 34.3052C50.9756 34.3052 50.896 34.2654 50.8162 34.2654C50.5375 34.2256 50.2985 34.1859 50.0595 34.1859C49.9399 34.1859 49.8206 34.1859 49.6612 34.1459H49.6214C48.7852 34.0664 48.1081 33.9869 47.4708 33.7879C47.1921 33.6684 47.1125 33.5094 47.0327 33.3501C47.0327 33.3104 46.9929 33.3104 46.9929 33.2706L46.4752 33.1116C46.7198 31.2397 46.6254 29.3391 46.1965 27.5006C45.7616 25.6468 45.0069 23.8829 43.9663 22.2879L44.3646 21.9299V21.8504C44.3646 21.6514 44.4044 21.4524 44.5635 21.2533C45.0415 20.8156 45.639 20.4576 46.3558 20.0198C46.4752 19.9403 46.5946 19.9005 46.7142 19.8208C46.9531 19.7015 47.1523 19.5823 47.3912 19.423C47.431 19.3833 47.5106 19.3435 47.5904 19.264C47.6302 19.224 47.67 19.224 47.67 19.1843C48.2275 18.7067 48.3471 17.911 47.9487 17.3934C47.7496 17.1149 47.3912 16.9559 47.0327 16.9559C46.7144 16.9559 46.4354 17.0752 46.1567 17.2742L46.0771 17.3537C45.9975 17.3934 45.9575 17.4732 45.8779 17.5129C45.6788 17.7119 45.5194 17.871 45.3602 18.07C45.2807 18.1495 45.2011 18.269 45.0815 18.3485C44.5238 18.9455 44.0061 19.423 43.4884 19.781C43.369 19.8605 43.2496 19.9005 43.13 19.9005C43.0505 19.9005 42.9707 19.9005 42.8911 19.8605H42.8115L42.3334 20.179C41.8157 19.622 41.2582 19.1445 40.7007 18.667C38.3001 16.7921 35.4111 15.6457 32.3773 15.3641L32.3375 14.8468L32.2579 14.7673C32.1383 14.6478 31.9792 14.5286 31.9391 14.25C31.8993 13.6133 31.9792 12.897 32.0587 12.1012V12.0615C32.0587 11.942 32.0985 11.7829 32.1383 11.6634C32.1781 11.4249 32.2179 11.1859 32.2579 10.9074V10.5494C32.2579 9.83311 31.7002 9.23633 31.0233 9.23633C30.7046 9.23633 30.386 9.39534 30.1471 9.6341C29.9084 9.87286 29.7888 10.1911 29.7888 10.5494V10.8677C29.7888 11.1462 29.8285 11.3849 29.9081 11.6237C29.9479 11.7432 29.9479 11.8624 29.9877 12.0217V12.0615C30.0673 12.8572 30.1869 13.5735 30.1073 14.2103C30.0675 14.4888 29.9081 14.6081 29.7888 14.7276L29.7092 14.8071L29.6692 15.3243C28.9523 15.4039 28.2354 15.4834 27.5186 15.6426C24.4521 16.3191 21.7441 17.8712 19.6335 20.0993L19.2351 19.8208H19.1556C19.076 19.8208 18.9962 19.8605 18.9166 19.8605C18.797 19.8605 18.6777 19.8208 18.5581 19.7413C18.0404 19.3833 17.5227 18.8657 16.9652 18.269C16.8856 18.1895 16.806 18.07 16.6864 17.9905C16.527 17.7914 16.3677 17.6322 16.1685 17.4334C16.1287 17.3934 16.0491 17.3539 15.9696 17.2742C15.9298 17.2344 15.89 17.2344 15.89 17.1947C15.6432 16.991 15.3338 16.8785 15.0137 16.8762C14.6552 16.8762 14.2969 17.0354 14.0977 17.3139C13.6994 17.8312 13.819 18.627 14.3764 19.1045C14.4162 19.1045 14.4162 19.1445 14.456 19.1445C14.5356 19.1843 14.5756 19.2638 14.6552 19.3035C14.8941 19.4625 15.0933 19.582 15.3323 19.7015C15.4519 19.7413 15.5712 19.8208 15.6908 19.9005C16.4074 20.3381 17.005 20.6963 17.4829 21.1341C17.682 21.3329 17.682 21.5319 17.682 21.7309V21.8104L18.0801 22.1686C18.0006 22.2879 17.921 22.3676 17.881 22.4869C15.8897 25.6305 15.1331 29.3312 15.6508 32.9921L15.1331 33.1511C15.1331 33.1911 15.0933 33.1911 15.0933 33.2306C15.0137 33.3899 14.8941 33.5491 14.6552 33.6684C14.0579 33.8674 13.341 33.9471 12.5048 34.0266H12.4648C12.3454 34.0266 12.186 34.0266 12.0667 34.0664C11.8277 34.0664 11.5888 34.1061 11.31 34.1459C11.2305 34.1459 11.1509 34.1859 11.0711 34.1859C11.0313 34.1859 10.9915 34.1859 10.9515 34.2256C10.2346 34.3847 9.79648 35.0612 9.91608 35.6977C10.0357 36.255 10.5534 36.6132 11.1904 36.6132C11.31 36.6132 11.3896 36.6132 11.5092 36.5733C11.549 36.5733 11.5888 36.5733 11.5888 36.5335C11.6683 36.5335 11.7479 36.4937 11.8275 36.4937C12.1065 36.4142 12.3056 36.3347 12.5446 36.2152C12.664 36.1755 12.7833 36.0957 12.9029 36.0562H12.9427C13.6994 35.7775 14.3764 35.5387 15.0137 35.4592H15.0933C15.3323 35.4592 15.4916 35.5785 15.611 35.6582C15.6508 35.6582 15.6508 35.698 15.6906 35.698L16.2483 35.6185C17.2041 38.5628 19.036 41.1892 21.4653 43.0993C22.0228 43.5368 22.5803 43.8951 23.1778 44.2533L22.9388 44.7704C22.9388 44.8104 22.9786 44.8103 22.9786 44.8499C23.0582 45.0091 23.1378 45.2081 23.0582 45.4866C22.8195 46.0837 22.4609 46.6804 22.0228 47.357V47.3967C21.9432 47.5162 21.8637 47.5957 21.7841 47.715C21.6247 47.914 21.5051 48.113 21.3457 48.3518C21.3059 48.3915 21.2661 48.471 21.2264 48.5508C21.2264 48.5905 21.1866 48.6303 21.1866 48.6303C20.868 49.3068 21.107 50.0628 21.7043 50.3413C21.8634 50.4208 22.0228 50.4608 22.1822 50.4608C22.6601 50.4608 23.138 50.1423 23.377 49.7046C23.377 49.6648 23.4168 49.6251 23.4168 49.6251C23.4565 49.5456 23.4963 49.466 23.5361 49.4261C23.6557 49.1475 23.6955 48.9485 23.7751 48.7098L23.8947 48.3518C24.1734 47.556 24.3726 46.9192 24.7309 46.3622C24.89 46.1234 25.0894 46.0837 25.2486 46.0039C25.2884 46.0039 25.2884 46.0039 25.3282 45.9642L25.6071 45.4469C27.3594 46.1234 29.2711 46.4814 31.1825 46.4814C32.3375 46.4814 33.5322 46.3622 34.6475 46.0837C35.3492 45.9269 36.0408 45.7275 36.7183 45.4866L36.957 45.9244C36.997 45.9244 36.997 45.9244 37.0368 45.9642C37.236 46.0039 37.3951 46.0837 37.5545 46.3224C37.873 46.8794 38.112 47.556 38.3907 48.312V48.3518L38.5103 48.7098C38.5899 48.9485 38.6297 49.1873 38.749 49.4261C38.7891 49.5056 38.8288 49.5456 38.8686 49.6251C38.8686 49.6648 38.9087 49.7046 38.9087 49.7046C39.1474 50.1821 39.6253 50.4608 40.1032 50.4608C40.2626 50.4608 40.422 50.4208 40.5811 50.3413C40.8598 50.1823 41.0988 49.9433 41.1786 49.6251C41.2582 49.3068 41.2582 48.9485 41.099 48.6303C41.099 48.5905 41.059 48.5905 41.059 48.5508C41.0192 48.4713 40.9794 48.3917 40.9397 48.3518C40.8201 48.113 40.6609 47.914 40.5015 47.715C40.422 47.5957 40.3424 47.5162 40.2628 47.397V47.357C39.8244 46.6804 39.4261 46.0837 39.2272 45.4866C39.1476 45.2081 39.2272 45.0491 39.267 44.8501C39.267 44.8103 39.3068 44.8104 39.3068 44.7706L39.1076 44.2931C41.2184 43.0595 43.0105 41.3085 44.3646 39.1599C45.0815 38.0456 45.639 36.812 46.0371 35.5785L46.515 35.658C46.555 35.658 46.555 35.6182 46.5946 35.6182C46.7539 35.5387 46.8735 35.4194 47.1125 35.4194H47.1921C47.8294 35.499 48.5062 35.7375 49.2631 36.0162H49.3029C49.4222 36.056 49.5416 36.1355 49.6612 36.1752C49.9002 36.2947 50.0993 36.3742 50.3781 36.454C50.4576 36.454 50.5372 36.4937 50.617 36.4937C50.6568 36.4937 50.6966 36.4937 50.7364 36.5335C50.856 36.5733 50.9356 36.5733 51.0552 36.5733C51.6524 36.5733 52.1701 36.1755 52.3295 35.6582C52.3295 35.1807 51.8914 34.5439 51.1745 34.3451V34.3449ZM32.7356 32.3951L30.9833 33.2309L29.231 32.3951L28.7932 30.525L29.9877 29.0129H31.9391L33.1339 30.525L32.7358 32.3951H32.7356ZM43.13 28.2569C43.439 29.5727 43.5331 30.9298 43.4088 32.2756L37.3155 30.525C36.758 30.366 36.4395 29.8087 36.5589 29.2517C36.5987 29.0924 36.6785 28.9332 36.7978 28.8139L41.6167 24.4765C42.2936 25.5908 42.8113 26.8643 43.13 28.2569ZM39.7051 22.0891L34.4881 25.7898C34.0499 26.0683 33.4524 25.9886 33.0941 25.551C32.9748 25.4315 32.935 25.2723 32.895 25.1133L32.5366 18.627C35.2489 18.939 37.7755 20.1593 39.7051 22.0891ZM28.1559 18.8258C28.594 18.7462 28.9921 18.6667 29.4302 18.5872L29.0719 24.9538C29.0321 25.5108 28.594 25.9883 27.9965 25.9883C27.8373 25.9883 27.6382 25.9486 27.5186 25.8691L22.222 22.0891C23.8549 20.4576 25.8859 19.343 28.1559 18.8258ZM20.3103 24.4762L25.0494 28.6942C25.4875 29.0524 25.5273 29.7287 25.169 30.1665C25.0494 30.3255 24.8903 30.445 24.6911 30.485L18.5183 32.2756C18.2793 29.5697 18.8766 26.8241 20.3103 24.4762ZM19.2349 35.26L25.5674 34.1854C26.0851 34.1457 26.563 34.5039 26.6823 35.0212C26.7221 35.2597 26.7221 35.459 26.6425 35.658L24.2132 41.5072C21.983 40.0747 20.1907 37.8861 19.2349 35.26ZM33.7712 43.1785C32.8552 43.3776 31.9391 43.4968 30.9833 43.4968C29.5896 43.4968 28.2354 43.2583 26.9613 42.8603L30.1073 37.17C30.4258 36.8118 30.9435 36.6528 31.3816 36.8915C31.5676 37.0053 31.7299 37.1539 31.8596 37.329L34.926 42.8603C34.5676 42.9795 34.1693 43.0593 33.771 43.1785H33.7712ZM41.5369 37.6476C40.5413 39.2391 39.2269 40.5124 37.7139 41.5072L35.2049 35.4985C35.0853 35.0212 35.2845 34.5039 35.7624 34.2649C35.9216 34.1854 36.1207 34.1457 36.3199 34.1457L42.6919 35.2202C42.453 36.0955 42.0546 36.8915 41.5369 37.6476Z" fill="white"></path></g><defs><clipPath id="clip0_2785_11962"><rect width="61.7284" height="60" fill="white"></rect></clipPath></defs></svg> 