<svg width="22" height="19" viewBox="0 0 22 19" fill="none" xmlns="http://www.w3.org/2000/svg">
<g id="logo">
<path id="Vector" d="M17.9758 9.49942C17.9775 10.7047 17.7215 11.8965 17.2248 12.9951L13.7227 9.49942L17.2213 6.00757C17.7211 7.10392 17.9785 8.29489 17.9758 9.49942Z" stroke="#FFC132" stroke-width="1.8"/>
<path id="Vector_2" d="M12.9569 1.75093L1.69443 12.9919C1.19568 11.8952 0.939516 10.7041 0.943403 9.49972C0.943121 8.38348 1.16321 7.27816 1.5911 6.2468C2.01898 5.21544 2.64626 4.27834 3.43713 3.48902C4.22799 2.69971 5.16693 2.07365 6.20028 1.64662C7.23363 1.2196 8.34116 0.99993 9.4596 1.00025C10.6656 0.999349 11.8579 1.25531 12.9569 1.75093Z" stroke="#FFC132" stroke-width="1.8"/>
<path id="Vector_3" d="M17.2193 6.00811C16.3674 4.11742 14.8515 2.60338 12.9578 1.75171L1.69531 12.9927C2.54863 14.8827 4.06564 16.3957 5.95999 17.2459" stroke="#FFC132" stroke-width="1.8"/>
<path id="Vector_4" d="M13.7105 17.9999H9.45958C8.25261 18.0022 7.05934 17.7448 5.96094 17.2454L9.45958 13.7571L13.7105 17.9999Z" stroke="#FFC132" stroke-width="1.8"/>
<path id="Vector_5" d="M20.2216 17.9995H13.7103L6.65913 10.9617C6.53925 10.8418 6.45767 10.6893 6.42462 10.5232C6.39161 10.3572 6.40861 10.185 6.47355 10.0286C6.53845 9.87219 6.64836 9.73843 6.78937 9.64432C6.93037 9.55021 7.09617 9.4999 7.26584 9.49976H13.721L17.2234 12.9954L20.8144 16.5759C20.9311 16.6927 21.0105 16.8415 21.0425 17.0034C21.0745 17.1652 21.0578 17.3329 20.9944 17.4853C20.9309 17.6377 20.8237 17.7679 20.6861 17.8594C20.5485 17.9509 20.3869 17.9997 20.2216 17.9995Z" stroke="#FFC132" stroke-width="1.8"/>
</g>
</svg>
