<?xml version="1.0" encoding="UTF-8"?> <svg xmlns="http://www.w3.org/2000/svg" width="105" height="66" viewBox="0 0 105 66" fill="none"><g id="microsoft-sql-server-1" clip-path="url(#clip0_2544_961)"><path id="Vector" d="M67.8562 21.0161L58.8036 23.9673L50.9192 27.4328L48.7178 28.0141C48.1562 28.5507 47.5722 29.0873 46.9208 29.6238C46.2244 30.2275 45.573 30.7641 45.0788 31.1665C44.5172 31.6137 43.7086 32.4186 43.2818 32.9328C42.6528 33.7153 42.1586 34.5425 41.9565 35.1686C41.5746 36.3088 41.7543 37.4714 42.4956 38.5446C43.4166 39.9084 45.281 41.2946 47.4374 42.2336C48.5381 42.7255 50.4025 43.3291 51.7952 43.6868C54.1089 44.2681 58.6015 44.9165 61.0724 45.006C61.5666 45.0283 62.2404 45.0283 62.2629 45.006C62.3078 44.9612 62.7122 44.2458 63.139 43.3291C64.6664 40.2438 65.7446 37.3373 66.3511 34.8779C66.7106 33.3799 66.9801 31.3901 67.1823 29.0202C67.2272 28.3494 67.2497 26.136 67.2047 25.3982C67.1374 24.1686 67.025 23.1848 66.8678 22.2011C66.8453 22.0669 66.8229 21.9328 66.8453 21.9328C66.8678 21.9104 66.9576 21.8881 68.0808 21.5751L67.8562 21.0161ZM65.7896 22.2234C65.8794 22.2234 66.0816 24.3251 66.149 25.6442C66.1714 25.9125 66.149 26.1137 66.149 26.1137C66.1041 26.1137 65.0034 25.4653 64.1947 24.9734C63.5208 24.5486 62.218 23.6767 62.0158 23.5202C61.9484 23.4755 61.9484 23.4755 62.51 23.2742C63.4534 22.9389 65.6997 22.2234 65.7896 22.2234ZM61.1622 23.7438C61.2296 23.7438 61.3869 23.8332 61.7687 24.0568C63.1839 24.9287 65.0932 26.0019 65.9244 26.3596C66.1714 26.4714 66.1939 26.4267 65.6323 26.8291C64.3969 27.6787 62.8245 28.506 60.9376 29.3332C60.6007 29.4897 60.3311 29.6015 60.3086 29.6015C60.2862 29.6015 60.3311 29.4226 60.3985 29.2214C60.8477 27.5222 61.1173 25.8007 61.1398 24.4368C61.0948 23.7438 61.0948 23.7438 61.1622 23.7438ZM60.2188 24.1015C60.2637 24.1462 60.2412 25.6665 60.1739 26.0913C60.0615 27.0751 59.8594 28.0141 59.5449 29.0649C59.4775 29.3108 59.4101 29.5344 59.3877 29.5344C59.3652 29.5791 58.4218 28.6625 58.1073 28.3047C57.5682 27.7011 57.1638 27.0751 56.8494 26.4714C56.6921 26.1584 56.445 25.5547 56.4675 25.5547C56.5798 25.4653 60.1963 24.0791 60.2188 24.1015ZM55.7487 25.8454C55.7936 25.8677 55.8385 25.9795 55.861 26.0913C56.0856 26.695 56.5798 27.5669 57.0066 28.1035C57.4783 28.7072 58.0848 29.3779 58.579 29.8027C58.7362 29.9368 58.8935 30.071 58.9159 30.0934C58.9609 30.1381 58.9609 30.1381 57.8602 30.5405C56.5573 31.0324 55.1646 31.5242 53.5473 32.0385C53.1654 32.1726 52.7836 32.2844 52.4017 32.4186C52.3343 32.4409 52.3568 32.3962 52.5365 32.1279C53.3451 30.8759 54.5581 28.4389 55.232 26.695C55.3443 26.4043 55.4567 26.0913 55.4791 26.0242C55.5016 25.9348 55.5465 25.8901 55.6364 25.8454C55.6813 25.8677 55.7262 25.8454 55.7487 25.8454ZM54.3784 26.4043C54.4009 26.4267 54.0415 27.1421 53.7046 27.8129C53.0307 29.1096 52.3119 30.3616 51.346 31.9043C51.1887 32.1726 51.0315 32.4186 51.009 32.4409C50.9641 32.4856 50.9641 32.4856 50.8518 32.262C50.6271 31.8149 50.425 31.2112 50.3351 30.6747C50.2228 30.1381 50.2453 29.2214 50.38 28.6401C50.4699 28.2153 50.4699 28.2153 50.6721 28.1259C51.5032 27.7011 54.3335 26.382 54.3784 26.4043ZM66.1714 26.8962V27.1868C66.1714 28.7072 66.0142 30.7864 65.7671 32.3068C65.7222 32.5751 65.6997 32.7986 65.6773 32.7986C65.6773 32.7986 65.4751 32.7539 65.2505 32.6868C64.2172 32.3738 63.1165 31.9043 62.1057 31.3454C61.4318 30.9877 60.4659 30.384 60.5108 30.3616C60.5108 30.3616 60.8028 30.2051 61.1398 30.0263C62.4875 29.3332 63.7679 28.573 64.8911 27.8352C65.3179 27.5669 65.9468 27.0974 66.0816 26.9856L66.1714 26.8962ZM49.212 28.9084C49.2344 28.9084 49.2344 28.9531 49.1895 29.199C49.1671 29.3779 49.1221 29.7133 49.1221 29.9368C49.0772 30.9206 49.2344 31.6584 49.7286 32.6645C49.8634 32.9328 49.9757 33.1787 49.9757 33.1787C49.9308 33.2234 45.3933 34.5425 43.9781 34.9226C43.5513 35.0344 43.1919 35.1462 43.147 35.1462C43.1021 35.1686 43.1021 35.1462 43.1021 35.0344C43.2593 34.0283 44.0231 32.7316 45.1013 31.6137C45.8201 30.8759 46.3817 30.4511 47.3476 29.8921C48.0439 29.5344 49.0997 28.9307 49.212 28.9084C49.1895 28.9084 49.1895 28.9084 49.212 28.9084ZM59.8818 30.8088C59.8818 30.8088 60.0615 30.8982 60.2413 31.01C61.7013 31.8596 63.7455 32.6421 65.4751 33.0446L65.6323 33.0893L65.4077 33.2011C64.4867 33.7153 61.4992 34.945 58.4442 36.0852C57.995 36.2417 57.5682 36.4206 57.4783 36.4429C57.3885 36.4877 57.3211 36.4877 57.3211 36.4877C57.3211 36.4877 57.4334 36.2417 57.5906 35.9511C58.4442 34.3637 59.2978 32.4186 59.7471 31.0771C59.8369 30.9206 59.8818 30.8088 59.8818 30.8088ZM58.8036 31.1665C58.8036 31.1665 58.7587 31.323 58.6913 31.4795C58.0848 32.9104 57.3211 34.4755 56.3102 36.2417C56.0632 36.6889 55.8385 37.0466 55.8385 37.0466C55.8385 37.0466 55.6364 36.9348 55.3893 36.7783C53.9292 35.884 52.6488 34.8108 51.8177 33.7377L51.7054 33.5812L52.3343 33.4023C54.5581 32.7986 56.4675 32.1503 58.3544 31.3454C58.5565 31.256 58.7812 31.1665 58.8036 31.1665ZM65.5649 33.5141C65.5649 33.6706 65.228 35.0791 64.936 36.0852C64.6889 36.9348 64.4867 37.6055 64.1049 38.7905C63.9476 39.3047 63.7904 39.7295 63.7904 39.7295C63.7904 39.7295 63.7455 39.7295 63.7005 39.7072C61.6789 39.3494 59.8369 38.8352 58.1297 38.1421C57.658 37.9409 56.9617 37.6503 56.9167 37.6055C56.8943 37.5832 57.3211 37.4043 57.8377 37.1808C60.9601 35.8169 64.1723 34.2966 65.2954 33.6259C65.4302 33.5588 65.5425 33.5141 65.5649 33.5141ZM49.9533 34.0507C49.9757 34.073 49.0997 35.3027 47.8867 37.0019C47.4599 37.6055 46.9657 38.2986 46.786 38.5446C46.6063 38.8129 46.3143 39.2153 46.157 39.4612L45.865 39.9084L45.5505 39.6401C45.1911 39.3495 44.5622 38.7011 44.2701 38.3433C43.6861 37.6055 43.2818 36.8454 43.1245 36.1523C43.0572 35.8169 43.0572 35.6604 43.1245 35.6381C43.2369 35.6157 45.0563 35.1909 46.7635 34.7885C47.707 34.5649 48.8076 34.319 49.212 34.2072C49.6163 34.1177 49.9308 34.0507 49.9533 34.0507ZM50.8293 34.386L51.0539 34.632C52.0423 35.7275 53.0531 36.5324 54.2661 37.2478C54.4908 37.3596 54.648 37.4714 54.6255 37.4938C54.5806 37.5385 50.4025 39.0141 48.4482 39.6625C47.37 40.0425 46.4715 40.3555 46.449 40.3555L46.3143 40.2661L46.202 40.1767L46.4041 39.886C47.0555 38.9694 47.8642 37.9409 49.6163 35.8393L50.8293 34.386ZM56.2878 38.2763C56.2878 38.2763 56.6023 38.3881 56.9617 38.5222C57.8602 38.8576 58.5565 39.0588 59.5 39.3047C60.668 39.5954 62.3528 39.886 63.3411 39.9755C63.4984 39.9978 63.5658 39.9978 63.5433 40.0202C63.4984 40.0425 62.4875 40.3779 61.7463 40.6238C60.5782 40.9816 56.9841 42.0547 54.0415 42.882C53.5024 43.0385 53.0307 43.1726 53.0082 43.1726C52.9408 43.195 52.7162 43.1279 52.7162 43.1055C52.7162 43.0832 52.8734 42.882 53.0756 42.6584C54.064 41.4958 55.0299 40.1767 55.861 38.947C56.0856 38.5446 56.2878 38.2763 56.2878 38.2763ZM55.0748 38.2986C55.0748 38.2986 54.6031 39.0812 53.7495 40.4226C53.3901 40.9816 52.9857 41.6299 52.8285 41.8535C52.6937 42.0771 52.4916 42.4125 52.3792 42.6137L52.1771 42.9714L52.0648 42.949C51.8177 42.882 50.088 42.2783 49.6388 42.0995C49.0772 41.8759 48.4932 41.6076 48.0439 41.3616C47.5048 41.071 46.8085 40.6238 46.8758 40.6238C46.8983 40.6238 47.8193 40.3555 48.9649 40.0649C51.9524 39.26 53.6147 38.7905 54.7154 38.4328C54.8951 38.3433 55.0748 38.2986 55.0748 38.2986ZM63.5882 40.2885C63.6331 40.3555 62.51 43.4186 62.1057 44.3799C62.0158 44.6035 61.9934 44.6482 61.926 44.6482C61.8137 44.6482 60.1963 44.4247 59.2304 44.2681C57.5232 43.9999 54.6705 43.508 53.9516 43.3515L53.7944 43.3068L54.8052 43.0832C57.0066 42.5913 58.0399 42.323 59.1181 42.01C60.4659 41.6076 61.7912 41.0933 63.139 40.4673C63.3636 40.3779 63.5433 40.2885 63.5882 40.2885Z" fill="url(#paint0_linear_2544_961)"></path><path id="Vector_2" d="M58.5126 0.0223941C58.3553 3.63942e-05 55.9293 0.871987 54.3569 1.498C52.2454 2.3476 50.6056 3.17483 49.5948 3.89028C49.2129 4.15857 48.7412 4.62809 48.6738 4.80695C48.6514 4.87402 48.6289 4.96345 48.6289 5.03052L49.5499 5.90248L51.7288 6.59556L56.9177 7.51223L62.8479 8.51833L62.9153 8.0041H62.8704L62.0842 7.89231L61.9269 7.62402C61.1183 6.21548 60.2198 4.44922 59.7031 3.26426C59.2988 2.3476 58.9169 1.27443 58.7147 0.514263C58.6024 0.0447512 58.58 0.0223941 58.5126 0.0223941ZM58.4003 0.35776C58.4227 0.35776 58.4452 0.55898 58.4676 0.782557C58.58 1.74394 58.8046 2.6606 59.1415 3.64434C59.3886 4.40451 59.3886 4.35979 59.0966 4.27036C58.4003 4.06914 55.2779 3.53256 53.0092 3.21955C52.6498 3.17483 52.3353 3.13012 52.3353 3.10776C52.3128 3.0854 53.9751 2.21345 54.6939 1.87809C55.6373 1.45329 58.2206 0.402475 58.4003 0.35776ZM51.7962 3.42077L52.0657 3.5102C53.5258 4.00207 57.1648 4.69516 59.1865 4.85166C59.4111 4.87402 59.6133 4.89638 59.6133 4.89638C59.6133 4.89638 59.4335 5.00817 59.1865 5.11996C58.2206 5.61183 57.1423 6.19312 56.4011 6.66264C56.1764 6.79678 55.9743 6.90857 55.9518 6.90857C55.9293 6.90857 55.7721 6.88622 55.6373 6.86386L55.3678 6.81914L54.6939 6.14841C53.4809 4.98581 52.5374 4.0915 52.178 3.73378L51.7962 3.42077ZM51.5266 3.62199L52.4925 4.8293C53.0092 5.50004 53.5483 6.12605 53.6606 6.28256C53.7729 6.4167 53.8628 6.55085 53.8628 6.55085C53.8403 6.57321 52.4701 6.30491 51.7512 6.14841C51.01 5.96955 50.6955 5.90248 50.2462 5.74597L49.8644 5.63418V5.54475C49.8644 5.0976 50.4484 4.40451 51.4368 3.71142L51.5266 3.62199ZM59.7256 5.2541C59.748 5.2541 59.793 5.32117 59.8603 5.50004C60.085 6.01426 60.8262 7.37809 61.006 7.64638C61.0509 7.73581 61.1632 7.73581 60.1973 7.57931C57.8836 7.19922 57.1423 7.08743 57.1423 7.06508C57.1423 7.06508 57.2097 7.02036 57.2996 6.95329C58.0184 6.55085 58.7372 6.05898 59.3886 5.52239C59.5459 5.38825 59.6806 5.27646 59.7256 5.2541Z" fill="url(#paint1_linear_2544_961)"></path><path id="Vector_3" d="M48.7181 4.69531C48.7181 4.69531 48.5608 4.94125 48.7181 5.29897C48.8079 5.52255 49.0775 5.79084 49.3695 6.05913C49.3695 6.05913 52.4245 9.01035 52.7839 9.43515C54.4686 11.3803 55.2099 13.2807 55.2772 15.8965C55.3222 17.5957 55.0077 19.0713 54.199 20.7929C52.7839 23.8782 49.7738 27.299 45.1465 31.0774L45.8204 30.8538C46.2472 30.5185 46.8537 30.1831 48.2464 29.423C51.481 27.6567 55.0975 26.0469 59.5452 24.3925C65.9471 22.0002 76.4822 19.1831 82.4798 18.2665L83.1087 18.177L83.0189 18.0205C82.4798 17.1709 82.0979 16.6567 81.6486 16.0978C80.3458 14.4656 78.7509 13.1689 76.7967 12.0734C74.1236 10.5754 70.6418 9.41279 66.2391 8.54084C65.408 8.38434 63.5885 8.07133 62.106 7.84775C58.9611 7.35588 56.9395 7.02052 54.7157 6.64044C53.907 6.50629 52.7165 6.30507 51.9303 6.12621C51.5259 6.03678 50.7397 5.85791 50.1108 5.63434C49.5717 5.47783 48.8753 5.27661 48.7181 4.69531ZM50.4926 6.41686C50.4926 6.41686 50.605 6.46157 50.7622 6.50629C51.0318 6.59572 51.3687 6.70751 51.7506 6.79694C52.0426 6.88637 52.3571 6.95344 52.6491 7.04287C53.0534 7.15466 53.4128 7.24409 53.4128 7.24409C53.4577 7.28881 54.1541 9.50222 54.3787 10.3295C54.4686 10.6425 54.536 10.9331 54.536 10.9331C54.536 10.9331 54.4461 10.8213 54.3563 10.6648C53.5476 9.25629 52.2897 7.84775 50.8296 6.68515C50.6274 6.52865 50.4926 6.41686 50.4926 6.41686ZM53.8621 7.33352C53.907 7.33352 54.0418 7.35588 54.2215 7.4006C55.3896 7.66889 57.4786 8.04897 58.8039 8.27255C59.0285 8.31726 59.2082 8.33962 59.2082 8.36198C59.2082 8.38434 59.1184 8.42905 59.0285 8.47377C58.8039 8.58556 57.8829 9.12214 57.5909 9.32336C56.8272 9.83759 56.1533 10.3742 55.6591 10.866L55.2997 11.2238C55.2997 11.2238 55.2548 11.112 55.2323 10.9555C54.9852 10.0164 54.4686 8.60791 53.9969 7.62417C53.907 7.49003 53.8396 7.33352 53.8621 7.33352C53.8396 7.33352 53.8396 7.33352 53.8621 7.33352ZM59.7698 8.45141C59.8147 8.47377 59.8821 8.69735 60.0169 9.21157C60.264 10.1953 60.3763 11.3132 60.3539 12.3417C60.3314 12.6323 60.3314 12.9006 60.3089 12.923L60.2865 12.99L59.9271 12.8782C59.1858 12.6547 57.9952 12.2969 56.9844 12.0063C56.4004 11.8498 55.9287 11.7156 55.9287 11.6933C55.9287 11.6486 56.7822 10.799 57.1417 10.486C57.838 9.88231 59.7249 8.42905 59.7698 8.45141ZM60.2415 8.51848C60.264 8.49613 63.0719 8.98799 64.3522 9.23393C65.2957 9.41279 66.6884 9.70344 66.7782 9.74816C66.8232 9.77052 66.6659 9.83759 66.2167 10.0388C64.4196 10.8437 63.0719 11.5815 61.7241 12.4534C61.3647 12.677 61.0727 12.8782 61.0727 12.8782C61.0727 12.8782 61.0502 12.677 61.0502 12.4534C61.0502 11.1567 60.7806 9.85995 60.3089 8.74206C60.2865 8.63027 60.2415 8.54084 60.2415 8.51848ZM67.5195 9.94938C67.542 9.97173 67.4521 10.5307 67.3623 10.8437C67.1152 11.8498 66.4413 13.3701 65.6326 14.7786C65.4978 15.0246 65.3631 15.2258 65.3406 15.2482C65.3181 15.2482 65.1384 15.1587 64.9363 15.0246C64.1501 14.5551 63.2291 14.1303 62.2632 13.7278C61.9936 13.616 61.7465 13.5266 61.7465 13.5043C61.7016 13.4595 63.903 12.0063 65.0711 11.3132C65.992 10.7543 67.497 9.92702 67.5195 9.94938ZM68.0361 10.0388C68.1035 10.0388 69.339 10.3742 69.9904 10.5754C71.6077 11.0449 73.4497 11.7156 74.6402 12.2746L75.1344 12.4982L74.775 12.5876C71.8324 13.2583 69.3165 14.0408 66.8905 15.0246C66.6884 15.114 66.5087 15.1811 66.5087 15.1811C66.4862 15.1811 66.5536 15.0246 66.6435 14.8234C67.3847 13.2807 67.8564 11.6709 67.9688 10.2847C68.0137 10.1506 68.0361 10.0388 68.0361 10.0388ZM55.6366 12.8782C55.6591 12.8559 56.6026 13.0795 57.1192 13.236C57.9054 13.4595 59.5452 13.9961 59.5452 14.0408C59.5452 14.0408 59.3655 14.1973 59.1409 14.3986C58.2423 15.1364 57.3887 15.9189 56.3555 16.925C56.041 17.2156 55.7939 17.4616 55.7714 17.4616C55.749 17.4616 55.749 17.4169 55.749 17.3721C55.9062 16.2319 55.8613 14.7563 55.6591 13.2583C55.6591 13.0347 55.6366 12.8782 55.6366 12.8782ZM75.6286 12.9006C75.6511 12.923 75.1793 13.616 74.9098 14.0185C74.5055 14.5998 73.899 15.3823 72.5287 17.0815C71.8099 17.9758 71.0012 19.0043 70.7317 19.3396C70.4621 19.675 70.2375 19.9656 70.215 19.9656C70.215 19.9656 70.1252 19.8539 70.0129 19.6973C69.2491 18.5571 68.3282 17.551 67.2499 16.6567C67.0478 16.4778 66.8232 16.299 66.7333 16.2543C66.6659 16.2095 66.5985 16.1425 66.5985 16.1425C66.5985 16.1201 67.7666 15.6282 68.6426 15.2705C70.1926 14.6445 72.3041 13.8843 73.8765 13.4148C74.7301 13.1242 75.6286 12.8782 75.6286 12.9006ZM76.1677 13.0347C76.1902 13.0347 76.3699 13.1018 76.5496 13.236C78.2118 14.175 79.8516 15.4047 81.132 16.6567C81.4914 17.0144 82.3899 17.9311 82.3675 17.9534C82.3675 17.9534 82.053 17.9758 81.6936 17.9982C78.8183 18.2217 75.1344 18.8254 71.5853 19.675C71.3382 19.7197 71.136 19.7868 71.1136 19.7868C71.0911 19.7868 71.3607 19.5185 71.6976 19.2055C73.7866 17.2156 74.7301 15.9412 75.8532 13.7055C76.0105 13.3254 76.1452 13.0571 76.1677 13.0347C76.1452 13.0347 76.1452 13.0347 76.1677 13.0347ZM60.9154 14.5774C61.0053 14.5998 61.9038 15.0246 62.5777 15.3376C63.1842 15.6506 64.1276 16.1425 64.1725 16.1648C64.1725 16.1648 63.8581 16.3437 63.4537 16.5449C62.1733 17.1933 61.0727 17.7969 59.9046 18.49C59.5676 18.6912 59.2981 18.8478 59.2981 18.8478C59.2756 18.8478 59.2756 18.8254 59.4553 18.49C60.0618 17.3721 60.556 16.0307 60.848 14.7339C60.8705 14.6445 60.893 14.5774 60.9154 14.5774ZM60.0394 14.7563C60.0618 14.7786 59.8372 15.6059 59.68 16.0754C59.4104 16.9473 58.9162 18.0205 58.467 18.8478C58.3547 19.049 58.1974 19.3173 58.1076 19.4738L57.9279 19.7421L57.546 19.3843C57.0967 18.9595 56.7373 18.6912 56.2656 18.4453C56.0859 18.3559 55.9287 18.2665 55.9287 18.2441C55.9287 18.1994 57.0967 17.1262 57.9952 16.366C58.6467 15.8071 60.0169 14.7339 60.0394 14.7563ZM65.4754 16.9697L65.8123 17.1933C66.5761 17.6852 67.4746 18.3559 68.1709 18.9372C68.5528 19.2502 69.3165 19.9209 69.4738 20.0998L69.5636 20.1892L69.0021 20.3457C65.8573 21.2177 63.4537 21.9778 60.6234 23.0063C60.3089 23.1181 60.0394 23.2075 60.0169 23.2075C59.972 23.2075 59.9495 23.2522 60.6459 22.6039C62.4429 20.9494 64.0602 19.116 65.2508 17.3498L65.4754 16.9697ZM64.0378 17.3274C64.0602 17.3498 63.1168 18.6465 62.5552 19.4067C61.8813 20.301 60.6908 21.7766 59.8821 22.738C59.5452 23.1404 59.2532 23.4758 59.2307 23.4758C59.2082 23.4758 59.2082 23.3864 59.2082 23.2299C59.2082 22.4026 59.0061 21.5307 58.6242 20.7705C58.467 20.4575 58.4445 20.3904 58.467 20.3457C58.6017 20.2339 60.5785 19.0937 61.8589 18.423C62.69 17.9758 64.0153 17.3051 64.0378 17.3274ZM55.3896 19.4291C55.412 19.4291 55.5693 19.5185 55.749 19.6079C56.1758 19.8539 56.5801 20.1221 56.917 20.3904C56.9395 20.4128 56.7598 20.5469 56.5127 20.7258C55.8613 21.1953 54.8729 21.9331 54.3113 22.3803C53.7048 22.8498 53.6824 22.8721 53.7498 22.7604C54.199 22.0673 54.4236 21.6872 54.6707 21.1953C54.8729 20.7482 55.0975 20.2339 55.2548 19.7644C55.2997 19.5856 55.3671 19.4291 55.3896 19.4291ZM57.7032 21.24C57.7482 21.24 57.7706 21.2847 57.9728 21.5754C58.3547 22.1567 58.6691 22.9392 58.7365 23.5652L58.759 23.6994L57.8155 24.0571C56.1308 24.7055 54.5809 25.3538 53.5476 25.8234C53.2556 25.9575 52.7389 26.2034 52.402 26.3599C52.065 26.5388 51.7955 26.6506 51.7955 26.6506C51.7955 26.6506 51.9977 26.4941 52.2672 26.2929C54.3113 24.8173 56.0859 23.1852 57.4112 21.5754C57.546 21.3965 57.6808 21.24 57.7032 21.24ZM56.6475 21.486C56.6699 21.5083 55.8837 22.4026 55.3671 22.9392C54.0418 24.2807 52.7389 25.3315 51.1216 26.3599C50.9194 26.4941 50.7397 26.6059 50.7173 26.6282C50.6724 26.6506 50.7397 26.5835 51.4361 25.8234C51.8853 25.3315 52.2223 24.9291 52.6266 24.4372C52.8962 24.1018 52.9411 24.0571 53.3005 23.7888C54.2889 23.0286 56.6026 21.4636 56.6475 21.486Z" fill="url(#paint2_radial_2544_961)"></path><path id="Vector_4" d="M26.9971 49.7013C26.8623 49.7013 26.75 49.7237 26.6152 49.7237C24.0545 49.8578 22.3473 50.9757 21.3364 53.1668C20.4829 55.1342 20.5727 57.7277 21.3364 59.6952C22.235 61.6403 23.695 62.6688 26.121 63.0489C26.6377 63.1383 26.9746 63.4066 27.9855 64.5692L29.2209 66.0001H31.4447L29.9622 64.5245C29.1535 63.7196 28.4796 63.0042 28.4796 62.9371C28.4796 62.87 28.7941 62.7359 29.176 62.6241C30.4339 62.244 31.4672 61.2826 32.186 59.807C32.77 58.622 32.8599 58.2643 32.9498 56.7887C33.1744 52.4066 30.8607 49.679 26.9971 49.7013ZM28.9514 61.1485C27.8731 61.6627 26.3007 61.7745 25.2674 61.3944C24.2117 61.0143 23.1784 59.9188 22.7067 58.6668C22.19 57.3029 22.2574 54.7989 22.8639 53.681C23.8074 51.8924 25.0653 51.0651 26.8848 51.0651C29.5803 51.0651 31.1303 52.7196 31.3324 55.805C31.4897 58.3985 30.6136 60.3436 28.9514 61.1485ZM67.3853 53.4351C66.4419 53.4351 65.7455 53.8151 65.2514 54.5529L64.8695 55.1342V53.6139H63.2522V62.7582H64.8695V59.8294C64.8695 57.1464 64.892 56.8334 65.2738 56.118C65.7905 55.1119 66.689 54.62 67.5426 54.8436L68.1266 55.0001V53.4127L67.3853 53.4351ZM57.906 53.3456C57.5915 53.3456 57.2546 53.3903 56.9176 53.4574C54.7612 54.0164 53.5482 56.0733 53.6156 58.1973C53.6156 59.9635 53.9525 60.8578 54.8286 61.7968C56.5807 63.2277 58.1756 63.3395 60.332 62.5794C60.6914 62.4229 61.0957 62.244 61.0957 62.244V60.8131L60.332 61.2155C58.6023 61.9757 57.277 61.9757 56.2213 61.0814C55.5474 60.4107 55.2554 59.5834 55.1206 58.6668H61.6348V57.4371C61.6348 54.9107 60.1074 53.3233 57.906 53.3456ZM55.2778 57.37C55.2778 57.37 55.5249 55.805 56.401 55.179C56.8278 54.8883 57.322 54.7318 57.8161 54.7318C58.3103 54.7318 58.7821 54.8883 59.1864 55.2013C59.995 55.8273 60.1523 57.37 60.1523 57.37H55.2778ZM16.3272 55.7155C14.5751 54.6647 13.7889 53.9046 13.9012 53.0103C14.1708 50.5286 17.2482 50.8639 18.9554 51.8029L18.9778 50.1261C18.9778 50.1261 18.0344 49.7237 16.6866 49.7013C14.62 49.679 13.2723 50.3497 12.6433 51.7359C11.7223 53.7704 12.531 55.3131 15.4961 57.0123C17.1584 57.9737 17.8996 58.8009 17.8996 59.7176C17.8996 61.5956 15.6309 62.244 13.2723 61.0814C12.7781 60.8355 12.3738 60.6342 12.3513 60.6342C12.2614 61.1708 12.3064 62.4452 12.3064 62.4452C12.3064 62.4452 13.0252 62.7359 14.1034 62.9594C16.7989 63.496 19.2249 62.244 19.472 60.2094C19.6517 58.2867 18.9554 57.2806 16.3272 55.7155ZM81.6942 53.3456C81.3797 53.3456 81.0428 53.3903 80.7058 53.4574C78.5494 54.0164 77.3364 56.0733 77.4038 58.1973C77.4038 59.9635 77.7407 60.8578 78.6168 61.7745C80.3689 63.2054 81.9637 63.3395 84.1426 62.557C84.502 62.4005 84.9064 62.2216 84.9064 62.2216V60.7907L84.1426 61.1932C82.3905 61.9534 81.0877 61.9533 80.0319 61.059C79.358 60.3883 79.066 59.5834 78.9312 58.6444H85.423V57.4147C85.423 54.8883 83.8955 53.3009 81.6942 53.3456ZM79.0436 57.3477C79.0436 57.3477 79.2906 55.7826 80.1667 55.1566C80.5935 54.8436 81.0877 54.7094 81.5594 54.7094C82.0311 54.7094 82.5253 54.866 82.9296 55.179C83.7383 55.805 83.8955 57.3477 83.8955 57.3477H79.0436ZM49.4375 55.7379C47.6854 54.6871 46.9217 53.9269 47.0115 53.0326C47.2811 50.5509 50.3585 50.8863 52.0657 51.8253L52.0881 50.1485C52.0881 50.1485 51.1447 49.746 49.7969 49.7237C47.7303 49.7013 46.3825 50.372 45.7536 51.7582C44.8326 53.7928 45.6637 55.3355 48.6064 57.0346C50.2686 57.996 50.9874 58.8233 50.9874 59.7176C50.9874 61.5956 48.7187 62.2664 46.3601 61.0814C45.8884 60.8355 45.4616 60.6342 45.4391 60.6342C45.3493 61.1708 45.3942 62.4452 45.3942 62.4452C45.3942 62.4452 46.113 62.7359 47.1912 62.9594C49.8868 63.496 52.3127 62.244 52.5598 60.2094C52.762 58.309 52.0657 57.3029 49.4375 55.7379ZM91.1735 53.4127C90.2301 53.4127 89.5113 53.7928 89.0395 54.5306L88.6577 55.1119V53.5916H87.0403V62.7359H88.6577V59.8294C88.6577 57.1464 88.6801 56.8334 89.062 56.118C89.5787 55.1119 90.4772 54.62 91.3307 54.8659L91.9148 55.0225V53.4351L91.1735 53.4127ZM36.5887 55.6932V49.8578H34.9714V62.7582H41.8226V61.2379H36.6112L36.5887 55.6932ZM74.259 57.5042L72.9112 60.9696L71.6308 57.4818L70.328 53.6139H68.6657C69.7439 56.6546 70.912 59.7623 72.1025 62.7582C72.6192 62.7806 73.1358 62.7582 73.6525 62.7582L75.472 58.2196L77.3139 53.5916H75.7191C75.6966 53.6139 75.0002 55.4473 74.259 57.5042ZM40.3625 46.3477C40.6321 46.3477 40.8342 46.2582 41.0139 46.0794C41.1936 45.9005 41.2835 45.6993 41.2835 45.431C41.2835 45.1627 41.1936 44.9615 41.0139 44.7826C40.8342 44.6261 40.6321 44.5367 40.3625 44.5367C40.0929 44.5367 39.8683 44.6261 39.7111 44.805C39.5314 44.9838 39.4415 45.2074 39.4415 45.4534C39.4415 45.7216 39.5314 45.9452 39.7111 46.1017C39.8683 46.2582 40.0929 46.3477 40.3625 46.3477ZM39.7785 44.8497C39.9357 44.6932 40.1154 44.6261 40.3625 44.6261C40.5871 44.6261 40.7893 44.6932 40.9465 44.8497C41.1038 45.0062 41.1936 45.1851 41.1936 45.431C41.1936 45.6546 41.1038 45.8558 40.9465 46.0123C40.7893 46.1688 40.5871 46.2359 40.3625 46.2359C40.1379 46.2359 39.9357 46.1688 39.7785 46.0123C39.6212 45.8558 39.5314 45.6546 39.5314 45.431C39.5538 45.2074 39.6212 45.0062 39.7785 44.8497ZM40.1603 45.5204H40.2726C40.34 45.5204 40.4299 45.5875 40.4748 45.7216L40.6096 46.0123H40.8118L40.6545 45.6993C40.5871 45.5651 40.5197 45.4981 40.4524 45.4757C40.5422 45.4533 40.6096 45.431 40.677 45.3639C40.7219 45.3192 40.7444 45.2298 40.7444 45.1627C40.7444 45.0733 40.7219 45.0062 40.6545 44.9391C40.5871 44.872 40.4748 44.8497 40.3176 44.8497H39.9806V46.0123H40.1379L40.1603 45.5204ZM40.1603 44.9838H40.3176C40.4299 44.9838 40.4973 45.0062 40.5422 45.0285C40.5871 45.0509 40.5871 45.0956 40.5871 45.1851C40.5871 45.3192 40.4973 45.3863 40.34 45.3863H40.1603V44.9838ZM13.2723 45.4086C13.2723 45.0062 13.2498 44.6932 13.2498 44.5143C13.2947 44.7155 13.3397 44.872 13.3846 44.9838L14.957 48.4493H15.2265L16.7989 44.9391C16.8439 44.8497 16.8888 44.6932 16.9337 44.492H16.9562C16.9337 44.8497 16.9113 45.1403 16.9113 45.3863V48.4493H17.4504V43.8883H16.7765L15.3164 47.0855C15.2715 47.2196 15.1816 47.3985 15.0918 47.6444H15.0693C15.0468 47.5103 14.957 47.3314 14.8671 47.1078L13.452 43.9107H12.7332V48.4716H13.2498L13.2723 45.4086ZM18.596 45.431H19.0677V48.2704H18.596V45.431ZM18.8206 44.3802C18.9105 44.3802 19.0003 44.3578 19.0677 44.2907C19.1351 44.2237 19.18 44.1566 19.18 44.0448C19.18 43.9554 19.1575 43.8659 19.0677 43.7989C19.0003 43.7318 18.9105 43.7094 18.8206 43.7094C18.7308 43.7094 18.6409 43.7318 18.5735 43.7989C18.5061 43.8659 18.4612 43.9554 18.4612 44.0448C18.4612 44.1566 18.4837 44.2237 18.5735 44.2907C18.6409 44.3578 18.7308 44.3802 18.8206 44.3802ZM22.3473 48.3151V47.8233C22.1002 48.0021 21.8306 48.1139 21.5386 48.1139C21.2017 48.1139 20.9321 48.0021 20.7299 47.7786C20.5278 47.555 20.4155 47.2643 20.4155 46.8842C20.4155 46.4818 20.5278 46.1688 20.7299 45.9452C20.9321 45.7216 21.2241 45.6099 21.5386 45.6099C21.8082 45.6099 22.0777 45.6993 22.3248 45.8558V45.2968C22.1002 45.1851 21.8531 45.1403 21.5611 45.1403C21.0444 45.1403 20.6176 45.2968 20.3256 45.6322C20.0336 45.9452 19.8764 46.3924 19.8764 46.929C19.8764 47.3985 20.0111 47.8009 20.3032 48.0916C20.5952 48.4046 20.977 48.5611 21.4263 48.5611C21.8082 48.5387 22.1002 48.4716 22.3473 48.3151ZM23.6726 46.8172C23.6726 46.4371 23.7624 46.1464 23.9197 45.9229C24.0769 45.744 24.2342 45.6322 24.4588 45.6322C24.6385 45.6322 24.7733 45.6546 24.8631 45.744V45.2074C24.7957 45.1851 24.6834 45.1627 24.5486 45.1627C24.3689 45.1627 24.1892 45.2298 24.0545 45.3416C23.8972 45.4757 23.7624 45.6546 23.695 45.9005H23.6726V45.2298H23.1559V48.494H23.6726V46.8172ZM26.6826 48.5387C27.1768 48.5387 27.5811 48.3822 27.8731 48.0692C28.1652 47.7562 28.3224 47.3314 28.3224 46.8172C28.3224 46.2806 28.1876 45.8781 27.9181 45.5651C27.6485 45.2521 27.2666 45.118 26.7725 45.118C26.2783 45.118 25.8739 45.2745 25.5819 45.5428C25.2675 45.8558 25.1102 46.3029 25.1102 46.8619C25.1102 47.3538 25.245 47.7562 25.537 48.0692C25.8066 48.3822 26.1884 48.5387 26.6826 48.5387ZM25.9413 45.9005C26.1435 45.6993 26.4131 45.5875 26.7275 45.5875C27.0645 45.5875 27.3116 45.6993 27.5137 45.9005C27.6934 46.1241 27.8058 46.4371 27.8058 46.8395C27.8058 47.242 27.7159 47.555 27.5362 47.7562C27.3565 47.9798 27.0869 48.0916 26.75 48.0916C26.4131 48.0916 26.1435 47.9798 25.9413 47.7562C25.7392 47.5326 25.6493 47.242 25.6493 46.8395C25.6269 46.4371 25.7167 46.1241 25.9413 45.9005ZM30.5912 48.2704C30.7933 48.0916 30.9056 47.868 30.9056 47.5997C30.9056 47.3538 30.8158 47.1525 30.6585 46.996C30.5238 46.8619 30.3441 46.7501 30.052 46.6383C29.8049 46.5265 29.6477 46.4371 29.5579 46.37C29.468 46.2806 29.4231 46.1912 29.4231 46.0346C29.4231 45.9005 29.468 45.7887 29.5803 45.7216C29.6926 45.6322 29.8274 45.5875 30.0071 45.5875C30.2991 45.5875 30.5238 45.6546 30.7484 45.8111V45.2968C30.5462 45.1851 30.2991 45.1403 30.052 45.1403C29.7151 45.1403 29.4231 45.2298 29.2209 45.4086C28.9963 45.5875 28.9064 45.8111 28.9064 46.0794C28.9064 46.3253 28.9738 46.5265 29.1086 46.6607C29.2209 46.7948 29.4231 46.9066 29.6926 47.0184C29.9622 47.1302 30.1419 47.242 30.2317 47.3314C30.3216 47.4208 30.3665 47.5103 30.3665 47.6444C30.3665 47.9574 30.1644 48.1139 29.7376 48.1139C29.4231 48.1139 29.1311 48.0021 28.884 47.8009V48.3599C29.1086 48.494 29.3782 48.5611 29.6926 48.5611C30.0745 48.5387 30.389 48.4493 30.5912 48.2704ZM33.0845 45.1403C32.5903 45.1403 32.186 45.2968 31.894 45.5651C31.5795 45.8781 31.4223 46.3253 31.4223 46.8842C31.4223 47.3761 31.5571 47.7786 31.8491 48.0916C32.1411 48.4046 32.523 48.5611 33.0171 48.5611C33.5113 48.5611 33.9157 48.4046 34.2077 48.0916C34.4997 47.7786 34.6569 47.3538 34.6569 46.8395C34.6569 46.3029 34.5222 45.9005 34.2526 45.5875C33.9606 45.2745 33.5787 45.1403 33.0845 45.1403ZM34.1178 46.8395C34.1178 47.242 34.028 47.555 33.8483 47.7562C33.6686 47.9798 33.399 48.0916 33.0621 48.0916C32.7251 48.0916 32.4556 47.9798 32.2534 47.7562C32.0512 47.5326 31.9614 47.242 31.9614 46.8395C31.9614 46.4147 32.0737 46.1017 32.2759 45.8781C32.478 45.6769 32.7476 45.5651 33.0621 45.5651C33.3765 45.5651 33.6461 45.6769 33.8258 45.8781C34.028 46.1017 34.1178 46.4147 34.1178 46.8395ZM35.533 48.4716H36.0496V45.6546H36.8134V45.2074H36.0496V44.7155C36.0496 44.2684 36.2293 44.0225 36.5887 44.0225C36.7235 44.0225 36.8358 44.0448 36.9257 44.1119V43.6424C36.8358 43.5977 36.7011 43.5977 36.5438 43.5977C36.2518 43.5977 36.0272 43.6871 35.8475 43.866C35.6228 44.0672 35.5105 44.3355 35.5105 44.7155V45.2521H34.9489V45.6993H35.5105L35.533 48.4716ZM37.6894 47.5773C37.6894 48.2034 37.9814 48.5387 38.543 48.5387C38.7452 48.5387 38.9024 48.5164 39.0372 48.4269V47.9798C38.9473 48.0468 38.835 48.0916 38.7002 48.0916C38.5205 48.0916 38.4082 48.0468 38.3184 47.9574C38.251 47.868 38.2061 47.7115 38.2061 47.4879V45.6546H39.0372V45.2074H38.2061V44.246C38.0264 44.3131 37.8467 44.3578 37.6894 44.4025V45.1851H37.1278V45.6322H37.6894V47.5773ZM93.9589 53.5916C93.7792 53.4351 93.577 53.3456 93.3075 53.3456C93.0379 53.3456 92.8133 53.4351 92.6561 53.6139C92.4764 53.7928 92.3865 54.0164 92.3865 54.2623C92.3865 54.5306 92.4764 54.7318 92.6561 54.9107C92.8358 55.0672 93.0604 55.1566 93.3075 55.1566C93.577 55.1566 93.7792 55.0672 93.9589 54.8883C94.1386 54.7094 94.2285 54.5082 94.2285 54.2399C94.2509 53.9716 94.1386 53.7481 93.9589 53.5916ZM93.8915 54.8212C93.7343 54.9777 93.5546 55.0448 93.3075 55.0448C93.0829 55.0448 92.8807 54.9777 92.7235 54.8212C92.5662 54.6647 92.4764 54.4635 92.4764 54.2399C92.4764 54.0164 92.5437 53.8151 92.701 53.6586C92.8582 53.5021 93.0379 53.4351 93.285 53.4351C93.5097 53.4351 93.7118 53.5021 93.8691 53.6586C94.0263 53.8151 94.1161 54.0164 94.1161 54.2399C94.1161 54.4635 94.0488 54.6647 93.8915 54.8212ZM93.4198 54.2847C93.5097 54.2623 93.577 54.2176 93.6444 54.1729C93.6894 54.1281 93.7118 54.0387 93.7118 53.9716C93.7118 53.8822 93.6894 53.8151 93.622 53.7481C93.5546 53.681 93.4423 53.6586 93.285 53.6586H92.9481V54.8212H93.1053V54.3294H93.2176C93.285 54.3294 93.3524 54.3964 93.4198 54.5306L93.5546 54.8212H93.7567L93.5995 54.5082C93.5321 54.3741 93.4647 54.307 93.4198 54.2847ZM93.3075 54.1729H93.1278V53.7928H93.285C93.3973 53.7928 93.4647 53.8151 93.5097 53.8375C93.5546 53.8599 93.5546 53.9046 93.5546 53.994C93.5321 54.1281 93.4647 54.1729 93.3075 54.1729ZM64.0384 45.0733H64.1956V43.9107H64.5775V43.7542H63.6565V43.9107H64.0384V45.0733ZM64.9144 44.2013V43.933C64.9144 44.0001 64.9369 44.0448 64.9593 44.0672L65.4086 45.0733H65.476L65.9252 44.0672C65.9477 44.0448 65.9477 44.0001 65.9702 43.933V45.0733H66.1274V43.7542H65.9477L65.5434 44.6708C65.5434 44.6932 65.4985 44.7603 65.476 44.8497H65.4535C65.4535 44.805 65.4311 44.7603 65.3861 44.6932L64.9818 43.7765H64.7796V45.0956H64.9369L64.9144 44.2013Z" fill="white"></path></g><defs><linearGradient id="paint0_linear_2544_961" x1="48.5813" y1="40.5554" x2="51.8471" y2="38.6166" gradientUnits="userSpaceOnUse"><stop stop-color="#909CA9"></stop><stop offset="1" stop-color="#EDEDEE"></stop></linearGradient><linearGradient id="paint1_linear_2544_961" x1="48.6555" y1="4.27863" x2="51.2897" y2="4.27863" gradientUnits="userSpaceOnUse"><stop stop-color="#939FAB"></stop><stop offset="1" stop-color="#DCDEE1"></stop></linearGradient><radialGradient id="paint2_radial_2544_961" cx="0" cy="0" r="1" gradientUnits="userSpaceOnUse" gradientTransform="translate(61.9348 16.287) rotate(-171.497) scale(3.3958 6.76287)"><stop stop-color="#EE352C"></stop><stop offset="1" stop-color="#A91D22"></stop></radialGradient><clipPath id="clip0_2544_961"><rect width="104" height="66" fill="white" transform="translate(0.986328)"></rect></clipPath></defs></svg> 