<?xml version="1.0" encoding="UTF-8"?> <svg xmlns="http://www.w3.org/2000/svg" width="60" height="60" viewBox="0 0 60 60" fill="none"><g id="prometheus 1" clip-path="url(#clip0_2785_11984)"><path id="Vector" d="M29.8802 0.15918C13.3785 0.15918 0 13.5361 0 30.0385C0 46.5402 13.3785 59.918 29.8802 59.918C46.3819 59.918 59.76 46.5402 59.76 30.0385C59.76 13.5358 46.3815 0.15918 29.8802 0.15918ZM29.8802 56.0815C25.1853 56.0815 21.3787 52.9452 21.3787 49.0774H38.3818C38.3818 52.9445 34.5754 56.0815 29.8802 56.0815ZM43.9222 46.758H15.8369V41.6651H43.9227V46.7577H43.9222V46.758ZM43.8214 39.044H15.9169C15.824 38.9371 15.7293 38.8316 15.6396 38.7231C12.7648 35.2322 12.0876 33.41 11.4303 31.5528C11.4191 31.4916 14.9162 32.2671 17.396 32.825C17.396 32.825 18.672 33.1203 20.5376 33.4604C18.7464 31.3609 17.6827 28.6918 17.6827 25.9634C17.6827 19.9738 22.2767 14.7399 20.6193 10.5096C22.2324 10.6408 23.9575 13.9138 24.0742 19.0312C25.789 16.6613 26.5066 12.3339 26.5066 9.68063C26.5066 6.9333 28.3169 3.74198 30.1277 3.63296C28.5135 6.29322 30.5455 8.57367 32.3523 14.231C33.0298 16.356 32.9434 19.9323 33.4663 22.2001C33.64 17.4898 34.4498 10.6169 37.438 8.24429C36.1198 11.2323 37.6332 14.9715 38.6682 16.769C40.3382 19.6692 41.3504 21.8663 41.3504 26.022C41.3504 28.8083 40.3217 31.4314 38.5865 33.4821C40.5595 33.1119 41.9221 32.7781 41.9221 32.7781L48.33 31.528C48.3304 31.5276 47.3993 35.3567 43.8214 39.044Z" fill="#DA4E31"></path></g><defs><clipPath id="clip0_2785_11984"><rect width="59.76" height="60" fill="white"></rect></clipPath></defs></svg> 