<?xml version="1.0" encoding="UTF-8"?> <svg xmlns="http://www.w3.org/2000/svg" width="39" height="60" viewBox="0 0 39 60" fill="none"><g id="puppet-1 1" clip-path="url(#clip0_2785_11867)"><path id="Vector" d="M20.9355 21.0322H38.5539V38.6506H20.9355V21.0322Z" fill="#FFB600"></path><path id="Vector_2" d="M20.9355 21.0322H38.5539V38.6506H20.9355V21.0322Z" stroke="#FFB600" stroke-width="0.716848" stroke-miterlimit="10"></path><path id="Vector_3" d="M17.4856 42.0635H-0.132812V59.6818H17.4856V42.0635ZM11.6495 53.8091H5.77668V47.9363H11.6495V53.8091Z" fill="#FFB600"></path><path id="Vector_4" d="M17.4856 42.0635H-0.132812V59.6818H17.4856V42.0635ZM11.6495 53.8091H5.77668V47.9363H11.6495V53.8091Z" stroke="#FFB600" stroke-width="0.716848" stroke-miterlimit="10"></path><path id="Vector_5" d="M10.0469 14.2667L14.1476 10.166L24.7626 20.7811L20.6619 24.8818L10.0469 14.2667Z" fill="#FFB600"></path><path id="Vector_6" d="M10.0469 14.2667L14.1476 10.166L24.7626 20.7811L20.6619 24.8818L10.0469 14.2667Z" stroke="#FFB600" stroke-width="0.71684" stroke-miterlimit="10"></path><path id="Vector_7" d="M13.6328 41.8244L20.7183 34.7393L24.793 38.8139L17.7078 45.8994L13.6328 41.8244Z" fill="#FFB600"></path><path id="Vector_8" d="M13.6328 41.8244L20.7183 34.7393L24.793 38.8139L17.7078 45.8994L13.6328 41.8244Z" stroke="#FFB600" stroke-width="0.71684" stroke-miterlimit="10"></path><path id="Vector_9" d="M17.4856 0H-0.132812V17.6184H17.4856V0ZM11.6495 11.7456H5.77668V5.87279H11.6495V11.7456Z" fill="#FFB600"></path><path id="Vector_10" d="M17.4856 0H-0.132812V17.6184H17.4856V0ZM11.6495 11.7456H5.77668V5.87279H11.6495V11.7456Z" stroke="#FFB600" stroke-width="0.716848" stroke-miterlimit="10"></path></g><defs><clipPath id="clip0_2785_11867"><rect width="38.8889" height="60" fill="white"></rect></clipPath></defs></svg> 