<svg width="60" height="60" viewBox="0 0 60 60" fill="none" xmlns="http://www.w3.org/2000/svg">
<path d="M40.4163 40.118C42.409 39.9128 43.9208 38.2038 43.852 36.1527C43.7835 34.1019 42.0654 32.4611 40.0039 32.4611H39.8666C37.7361 32.5295 36.087 34.3069 36.1558 36.4261C36.2245 37.4517 36.6367 38.3404 37.2552 38.9556C34.9188 43.5362 31.3456 46.886 25.9856 49.6889C22.3436 51.6031 18.5642 52.2868 14.7849 51.8084C11.6925 51.3981 9.28741 50.031 7.77541 47.7747C5.5766 44.4249 5.37051 40.8015 7.22592 37.1782C8.53162 34.5803 10.5929 32.6661 11.8986 31.709C11.6238 30.8203 11.2114 29.3163 11.0053 28.2226C1.04123 35.4008 2.07208 45.1086 5.09566 49.6889C7.36324 53.1073 11.9674 55.2266 17.0524 55.2266C18.4267 55.2266 19.801 55.0897 21.1754 54.7481C29.9713 53.0389 36.6369 47.8431 40.4163 40.118ZM52.5106 31.6408C47.288 25.5563 39.5917 22.2065 30.7959 22.2065H29.6965C29.078 20.9759 27.7723 20.1554 26.3293 20.1554H26.1917C24.0617 20.2238 22.4126 22.0013 22.4811 24.1207C22.5499 26.1715 24.2678 27.8123 26.3293 27.8123H26.4666C27.9784 27.7439 29.2841 26.7868 29.8338 25.4879H31.0707C36.2933 25.4879 41.2409 26.9918 45.7077 29.9316C49.1434 32.1877 51.6173 35.1274 52.9915 38.6822C54.1597 41.5536 54.091 44.3565 52.854 46.7494C50.9301 50.3726 47.7004 52.3552 43.4399 52.3552C40.6911 52.3552 38.08 51.5347 36.7055 50.9195C35.9497 51.6031 34.5752 52.6969 33.6131 53.3808C36.5682 54.7479 39.5917 55.5 42.4778 55.5C49.0746 55.5 53.9536 51.8766 55.809 48.2533C57.8018 44.2881 57.6642 37.4517 52.5106 31.6408ZM17.6021 41.2799C17.6709 43.331 19.3888 44.9715 21.4503 44.9715H21.5878C23.7181 44.9033 25.3672 43.1257 25.2984 41.0065C25.2299 38.9554 23.5118 37.3149 21.4503 37.3149H21.313C21.1754 37.3149 20.9691 37.3149 20.832 37.3831C18.0145 32.7343 16.8464 27.6755 17.2587 22.2063C17.5334 18.1044 18.9078 14.5494 21.313 11.6096C23.3057 9.08012 27.1538 7.84958 29.7652 7.78138C37.0491 7.64456 40.1412 16.6686 40.3475 20.292C41.2408 20.4971 42.7526 20.9757 43.7835 21.3176C42.9587 10.2427 36.087 4.5 29.4904 4.5C23.3057 4.5 17.6021 8.94372 15.3344 15.5067C12.1735 24.2573 14.2349 32.6661 18.0831 39.2975C17.7397 39.7759 17.5334 40.5278 17.6021 41.2799Z" fill="#764ABC"/>
</svg>
