<svg width="60" height="60" viewBox="0 0 60 60" fill="none" xmlns="http://www.w3.org/2000/svg">
<path fill-rule="evenodd" clip-rule="evenodd" d="M50.1937 8.54292L51.4584 10.2423C51.7905 10.6908 51.7074 11.3337 51.268 11.6726L49.9251 12.7141C50.1693 13.377 50.3255 14.0846 50.389 14.8072L51.9174 15.0215C52.4643 15.0963 52.8452 15.6146 52.772 16.1727L52.4887 18.2907C52.4155 18.8489 51.9077 19.2426 51.3607 19.1628L49.6907 18.9286C49.3929 19.5914 49.012 20.1994 48.5627 20.7426L49.5003 21.9985C49.8323 22.447 49.7444 23.0899 49.305 23.4287L47.6398 24.7195C47.2003 25.0584 46.5704 24.9687 46.2384 24.5251L45.2178 23.1547C44.5635 23.4038 43.875 23.5633 43.162 23.6281L42.9521 25.1879C42.8788 25.7461 42.371 26.1348 41.8241 26.0601L39.7487 25.771C39.2018 25.6963 38.821 25.178 38.8942 24.6198L39.1237 22.9154C38.4791 22.6114 37.8785 22.2227 37.3463 21.7692L36.1157 22.7211C35.6762 23.06 35.0463 22.9752 34.7143 22.5267L33.4495 20.8273C33.1175 20.3788 33.2005 19.7359 33.64 19.3971L34.9828 18.3555C34.7387 17.6877 34.5824 16.985 34.5189 16.2624L32.9905 16.0481C32.4436 15.9734 32.0579 15.4551 32.136 14.8969L32.4192 12.7789C32.4973 12.2208 33.0003 11.8321 33.5472 11.9068L35.2172 12.141C35.5151 11.4832 35.896 10.8702 36.3403 10.327L35.4077 9.07118C35.0756 8.62764 35.1586 7.98477 35.5981 7.64589L37.2632 6.35515C37.7027 6.01627 38.3326 6.10099 38.6647 6.54951L39.6853 7.91998C40.3347 7.6708 41.0281 7.51133 41.7362 7.44655L41.9461 5.8867C42.0194 5.32854 42.5272 4.93484 43.0741 5.0096L45.1494 5.29864C45.6964 5.37339 46.0821 5.89168 46.004 6.44984L45.7745 8.15421C46.4239 8.4582 47.0197 8.84692 47.5568 9.3054L48.7874 8.35355C49.2268 8.00968 49.8568 8.0944 50.1937 8.54292ZM14.4885 38.4491V30.2263H18.6391C19.4106 30.2263 19.9966 30.2911 20.4019 30.4306C20.8072 30.5652 21.1393 30.8144 21.3834 31.1781C21.6325 31.5469 21.7594 31.9905 21.7594 32.5137C21.7594 32.9672 21.6617 33.3659 21.4713 33.6948C21.2809 34.0287 21.0172 34.2978 20.6851 34.5022C20.4752 34.6317 20.1822 34.7414 19.8111 34.8261C20.1089 34.9308 20.3238 35.0254 20.4556 35.1301C20.5484 35.1999 20.6802 35.3444 20.8512 35.5637C21.0221 35.7829 21.1393 35.9574 21.1979 36.077L22.4089 38.4541H19.5962L18.268 35.9474C18.0971 35.6235 17.9506 35.4092 17.8188 35.3145C17.6381 35.1899 17.433 35.1251 17.2084 35.1251H16.9886V38.4541H14.4885V38.4491ZM23.2683 52.7668H18.6196L17.9506 54.9995H13.7609L18.7563 41.4492H23.2488L28.2246 54.9995H23.9275L23.2683 52.7668ZM22.3991 49.8315L20.9488 44.9576L19.4937 49.8315H22.3991ZM29.1915 41.4492H36.0181C37.5074 41.4492 38.6207 41.808 39.3581 42.5306C40.0954 43.2533 40.4666 44.2849 40.4666 45.6155C40.4666 46.9859 40.0613 48.0574 39.2556 48.8298C38.4498 49.6023 37.2144 49.986 35.559 49.986H33.3079V54.9995H29.1915V41.4492ZM33.3079 47.2401H34.3187C35.1147 47.2401 35.6762 47.1006 35.9985 46.8165C36.3208 46.5374 36.4819 46.1736 36.4819 45.74C36.4819 45.3164 36.3403 44.9526 36.062 44.6586C35.7837 44.3646 35.2563 44.2151 34.4848 44.2151H33.3079V47.2401ZM42.1268 41.4492H46.2433V54.9995H42.1268V41.4492ZM16.9886 33.5653H18.0385C18.1508 33.5653 18.3705 33.5254 18.6977 33.4506C18.8637 33.4158 19.0005 33.331 19.103 33.1915C19.2104 33.052 19.2593 32.8925 19.2593 32.7131C19.2593 32.4489 19.1763 32.2396 19.0102 32.1001C18.8442 31.9556 18.5366 31.8858 18.0824 31.8858H16.9886V33.5653ZM22.8874 30.2263H29.5528V31.9805H25.3876V33.2912H29.2501V34.9656H25.3876V36.5853H29.6749V38.4441H22.8874V30.2263ZM30.2658 35.7281L32.6292 35.5786C32.678 35.9723 32.7854 36.2663 32.9417 36.4707C33.2005 36.7996 33.5667 36.969 34.0404 36.969C34.392 36.969 34.6703 36.8843 34.8608 36.7149C35.0512 36.5454 35.1489 36.3461 35.1489 36.1218C35.1489 35.9075 35.0561 35.7181 34.8754 35.5487C34.6947 35.3793 34.2699 35.2248 33.6009 35.0703C32.512 34.8211 31.7356 34.4872 31.2668 34.0736C30.798 33.66 30.5636 33.1317 30.5636 32.4888C30.5636 32.0652 30.6857 31.6665 30.925 31.2928C31.1643 30.919 31.5256 30.62 32.009 30.4057C32.4925 30.1914 33.1517 30.0868 33.9916 30.0868C35.0219 30.0868 35.8032 30.2811 36.3452 30.6748C36.8824 31.0685 37.2046 31.6865 37.3072 32.5436L34.9682 32.6882C34.9047 32.3144 34.7729 32.0403 34.5775 31.8758C34.3773 31.7064 34.099 31.6217 33.7523 31.6217C33.4642 31.6217 33.2445 31.6865 33.098 31.8111C32.9515 31.9356 32.8782 32.0901 32.8782 32.2695C32.8782 32.3991 32.9417 32.5137 33.0589 32.6234C33.1761 32.728 33.4495 32.8327 33.889 32.9274C34.978 33.1666 35.7593 33.4108 36.228 33.655C36.6968 33.8992 37.0435 34.2032 37.2535 34.567C37.4683 34.9258 37.5758 35.3344 37.5758 35.7829C37.5758 36.3112 37.4342 36.7946 37.146 37.2381C36.8628 37.6817 36.4624 38.0205 35.9497 38.2498C35.437 38.479 34.7924 38.5937 34.0111 38.5937C32.6438 38.5937 31.6916 38.3245 31.1643 37.7863C30.6369 37.2381 30.339 36.5554 30.2658 35.7281ZM37.9371 30.2263H45.5108V32.2596H42.9716V38.4491H40.4812V32.2596H37.9371V30.2263ZM29.5577 10.7108C28.6641 10.641 27.7607 10.651 26.8671 10.7407C24.1179 11.0098 21.4469 12.0314 19.2397 13.7806C16.6859 15.799 14.7473 18.819 14.0002 22.8208L13.7658 24.0716L12.545 24.2909C11.3486 24.5052 10.2792 24.7992 9.34169 25.173C8.43343 25.5318 7.62284 25.9753 6.91479 26.4986C6.34835 26.9172 5.86004 27.3857 5.44498 27.894C4.16072 29.4638 3.56499 31.4323 3.57964 33.4257C3.59429 35.449 4.23885 37.4923 5.43033 39.1717C5.87469 39.7947 6.38742 40.3678 6.97339 40.8661C7.56913 41.3695 8.23811 41.7881 8.99011 42.1021C9.41494 42.2815 9.86907 42.431 10.3427 42.5506V46.2832C9.36611 46.1038 8.46762 45.8347 7.62772 45.4809C6.51926 45.0124 5.53776 44.4094 4.67345 43.6719C3.85309 42.9742 3.13527 42.1818 2.52489 41.3196C0.898815 39.0272 0.0198578 36.2265 0.000325379 33.4357C-0.019207 30.615 0.840218 27.8093 2.6958 25.5368C3.29642 24.7992 4.00447 24.1215 4.81506 23.5234C5.7575 22.8257 6.83666 22.2377 8.05744 21.7543C8.89733 21.4204 9.79582 21.1413 10.7431 20.917C11.8174 16.5614 14.1076 13.2075 17.0521 10.8802C19.8062 8.7024 23.1218 7.43159 26.5351 7.0977C28.3272 6.92327 30.1437 7.00301 31.9211 7.34189C31.8821 7.50635 31.8479 7.6708 31.8284 7.84024L31.8235 7.87015C31.7893 8.15421 31.7746 8.43827 31.7893 8.72731C31.4133 8.87682 31.0617 9.08114 30.7443 9.33032L30.7297 9.34029C30.256 9.70409 29.8556 10.1725 29.5577 10.7108ZM55.3942 20.2792C55.6676 20.5333 55.9313 20.7974 56.1901 21.0815C56.7126 21.6546 57.2058 22.3025 57.6697 23.0251C59.2323 25.477 60.0331 28.7512 59.999 31.9556C59.9648 35.1002 59.1346 38.2299 57.4353 40.5322C56.3269 42.0323 54.9059 43.2582 53.2017 44.23C52.0346 44.8978 50.7211 45.451 49.2903 45.8995V42.0373C50.0618 41.7432 50.7797 41.4143 51.4389 41.0406C52.7231 40.308 53.773 39.4159 54.5592 38.3445C55.78 36.685 56.3806 34.3377 56.405 31.9307C56.4343 29.404 55.8288 26.8674 54.652 25.0235C54.315 24.4902 53.9439 24.0118 53.5533 23.5832C53.4019 23.4188 53.2505 23.2643 53.0942 23.1148C53.1187 22.8656 53.1284 22.6115 53.1138 22.3573C53.4898 22.2078 53.8414 22.0035 54.1588 21.7543L54.1734 21.7443C54.6764 21.3506 55.0963 20.8523 55.3942 20.2792ZM43.0107 11.3786C45.2618 11.6925 46.8341 13.8105 46.5265 16.1079C46.2188 18.4053 44.1435 20.015 41.8924 19.7011C39.6413 19.3871 38.0641 17.2691 38.3766 14.9717C38.6891 12.6743 40.7595 11.0646 43.0107 11.3786Z" fill="white"/>
</svg>
