<svg width="60" height="60" viewBox="0 0 60 60" fill="none" xmlns="http://www.w3.org/2000/svg">
<g clip-path="url(#clip0_6112_13275)">
<path d="M49.9727 3.71058e-07H10.0273C7.36787 3.71058e-07 4.8174 1.05644 2.93692 2.93692C1.05644 4.8174 0 7.36787 0 10.0273L0 49.9727C0 52.6321 1.05644 55.1826 2.93692 57.0631C4.8174 58.9436 7.36787 60 10.0273 60H49.9727C51.2896 60.0002 52.5936 59.7409 53.8102 59.2371C55.0269 58.7332 56.1323 57.9946 57.0635 57.0635C57.9946 56.1323 58.7332 55.0269 59.2371 53.8102C59.7409 52.5936 60.0002 51.2896 60 49.9727V10.0273C60.0004 8.71037 59.7412 7.4063 59.2375 6.18958C58.7337 4.97285 57.9951 3.86731 57.0639 2.93612C56.1327 2.00493 55.0272 1.26634 53.8104 0.762551C52.5937 0.258761 51.2896 -0.000357921 49.9727 3.71058e-07ZM49.0919 45.9313C49.0915 46.77 48.7581 47.5743 48.1649 48.1672C47.5717 48.7602 46.7673 49.0933 45.9286 49.0933H14.0783C13.6628 49.0934 13.2515 49.0118 12.8676 48.853C12.4837 48.6942 12.1349 48.4613 11.841 48.1677C11.5472 47.8741 11.314 47.5255 11.1549 47.1417C10.9957 46.758 10.9137 46.3467 10.9136 45.9313V14.0796C10.9134 13.664 10.9951 13.2524 11.1541 12.8683C11.3131 12.4843 11.5462 12.1353 11.8401 11.8414C12.134 11.5475 12.4829 11.3144 12.867 11.1555C13.251 10.9965 13.6626 10.9147 14.0783 10.9149H45.9272C46.3427 10.9149 46.7542 10.9968 47.1381 11.1558C47.522 11.3149 47.8707 11.548 48.1645 11.8419C48.4583 12.1358 48.6912 12.4847 48.8501 12.8687C49.009 13.2526 49.0907 13.6641 49.0905 14.0796V45.9313H49.0919Z" fill="white"/>
<path d="M23.6346 38.1823C23.1517 38.1808 22.6891 37.9877 22.3485 37.6453C22.008 37.303 21.8173 36.8394 21.8184 36.3565V23.6431C21.8184 22.6355 22.631 21.8174 23.6346 21.8174H36.367C37.3733 21.8174 38.1832 22.6355 38.1832 23.6431V36.3565C38.1832 37.3628 37.3733 38.1823 36.367 38.1823H23.6346Z" fill="white"/>
</g>
<defs>
<clipPath id="clip0_6112_13275">
<rect width="60" height="60" fill="white"/>
</clipPath>
</defs>
</svg>
