<svg width="60" height="60" viewBox="0 0 60 60" fill="none" xmlns="http://www.w3.org/2000/svg">
<path d="M4.21664 27.2964C4.21664 26.6456 4.74996 26.3952 5.63344 26.3952C6.9 26.3952 8.49996 26.7791 9.76664 27.4634V23.5414C8.38336 22.9907 7.01672 22.7737 5.63344 22.7737C2.25 22.7737 0 24.5428 0 27.4968C0 32.1028 6.33328 31.3686 6.33328 33.3546C6.33328 34.1222 5.66672 34.3726 4.73332 34.3726C3.35004 34.3726 1.58332 33.8051 0.183281 33.0375V37.0095C1.73332 37.677 3.3 37.9606 4.73332 37.9606C8.19996 37.9606 10.5833 36.2418 10.5833 33.2544C10.5667 28.2811 4.21664 29.1656 4.21664 27.2964ZM15.4833 19.4359L11.4166 20.3037L11.4 33.6716C11.4 36.1417 13.25 37.9606 15.7167 37.9606C17.0834 37.9606 18.0833 37.7104 18.6333 37.41V34.0221C18.1001 34.2391 15.4666 35.0067 15.4666 32.5368V26.6121H18.6333V23.0574H15.4666L15.4833 19.4359ZM23.8167 24.2924L23.55 23.0574H19.95V37.6602H24.1167V27.7638C25.0999 26.4787 26.7667 26.7124 27.2834 26.8959V23.0574C26.75 22.8571 24.8 22.49 23.8167 24.2924ZM28.3 23.0574H32.4833V37.6602H28.3V23.0574ZM28.3 21.7891L32.4833 20.8879V17.5L28.3 18.3845V21.7891ZM41.1833 22.7737C39.55 22.7737 38.5 23.5414 37.9167 24.0755L37.6999 23.0408H34.0334V42.5L38.2 41.6156L38.2167 36.8926C38.8167 37.3265 39.7 37.944 41.1667 37.944C44.15 37.944 46.8667 35.5408 46.8667 30.2504C46.85 25.4105 44.1 22.7737 41.1833 22.7737ZM40.1834 34.2724C39.2 34.2724 38.6166 33.922 38.2167 33.4881L38.2 27.2964C38.6333 26.8125 39.2333 26.4787 40.1834 26.4787C41.7 26.4787 42.75 28.1809 42.75 30.3672C42.75 32.6035 41.7166 34.2724 40.1834 34.2724ZM60 30.4173C60 26.1449 57.9333 22.7737 53.9834 22.7737C50.0166 22.7737 47.6166 26.145 47.6166 30.384C47.6166 35.4072 50.45 37.944 54.5166 37.944C56.5 37.944 58 37.4934 59.1333 36.8593V33.5214C58.0001 34.0889 56.7 34.4394 55.05 34.4394C53.4333 34.4394 52 33.8719 51.8167 31.9026H59.9667C59.9667 31.6855 60 30.8178 60 30.4173ZM51.7666 28.8318C51.7666 26.946 52.9167 26.1615 53.9667 26.1615C54.9833 26.1615 56.0667 26.946 56.0667 28.8318H51.7666Z" fill="#6772E5"/>
</svg>
