<svg width="60" height="60" viewBox="0 0 60 60" fill="none" xmlns="http://www.w3.org/2000/svg">
<path d="M30 14C22.9331 14 18.5166 17.5556 16.7497 24.6662C19.4 21.1106 22.4917 19.7777 26.0248 20.6663C28.0409 21.1733 29.4817 22.6456 31.077 24.2746C33.6749 26.9283 36.6818 29.9997 43.2503 29.9997C50.3166 29.9997 54.7338 26.444 56.5 19.3328C53.8503 22.8884 50.7586 24.2219 47.2248 23.3334C45.2094 22.8264 43.7686 21.3541 42.1734 19.725C39.5754 17.0713 36.5678 14 30 14ZM16.7497 29.9997C9.68344 29.9997 5.26622 33.5553 3.5 40.6666C6.14967 37.1109 9.24139 35.7774 12.7752 36.6666C14.7906 37.1743 16.2314 38.6459 17.8266 40.2743C20.4246 42.928 23.4322 46 30 46C37.0669 46 41.4834 42.4444 43.2503 35.3331C40.6 38.8887 37.5083 40.2223 33.9752 39.333C31.9591 38.8267 30.5183 37.3537 28.923 35.7254C26.3251 33.0716 23.3182 29.9997 16.7497 29.9997Z" fill="#06B6D4"/>
</svg>
