<?xml version="1.0" encoding="UTF-8"?> <svg xmlns="http://www.w3.org/2000/svg" width="60" height="60" viewBox="0 0 60 60" fill="none"><g id="travis-ci 1" clip-path="url(#clip0_2785_11938)"><path id="Vector" d="M59.6827 21.0381C59.6545 20.8193 59.621 20.6005 59.576 20.3864C59.5356 20.1614 59.484 19.9386 59.4213 19.7189L59.2547 19.4535C58.5682 18.9123 57.8276 18.5034 57.0757 18.142C56.4551 17.8479 55.8246 17.5915 55.1866 17.3552C53.4089 12.4023 50.3529 8.01053 46.3348 4.95045C42.1816 1.78755 37.2968 0.113281 32.2095 0.113281C27.1219 0.113281 22.2368 1.78755 18.0837 4.95068C14.0653 8.01053 11.0091 12.4025 9.23156 17.3566C8.59523 17.5919 7.96359 17.8491 7.34391 18.142C6.59062 18.5034 5.85047 18.9123 5.16398 19.4535L4.99687 19.7189C4.9371 19.9393 4.88542 20.1619 4.84195 20.3861C4.79883 20.6007 4.76648 20.8191 4.73555 21.0379C4.67438 21.4712 4.63262 21.9071 4.61039 22.3442C4.56634 23.2191 4.59213 24.0962 4.6875 24.9671C4.78056 25.8402 4.94232 26.7045 5.17125 27.5519C5.2914 27.9783 5.4318 28.3987 5.59195 28.8116C5.67258 29.0201 5.7607 29.2271 5.85844 29.4339C5.90672 29.5367 5.95922 29.6372 6.01312 29.7424C6.13242 29.9522 6.15422 29.9932 6.20438 30.0678L6.42984 30.2762C6.5768 30.352 6.69844 30.4096 6.83133 30.4729L7.21969 30.6477C7.29164 30.6774 7.35914 30.7066 7.4325 30.7362C5.66883 32.3731 3.75352 34.4995 2.09484 37.1277L0 40.4449L2.9407 37.8537C2.99062 37.81 5.45648 35.667 9.56883 33.2394L9.62648 33.7139C9.35742 33.8544 8.06437 34.5355 7.68 34.8584C7.04297 35.3894 7.01203 36.2136 7.18266 37.7512C7.27008 38.5393 7.56445 40.0692 7.96148 41.4719C8.64539 43.8857 9.14672 44.3125 9.58687 44.4125C9.78539 44.4602 10.0416 44.4821 10.3298 44.4821C11.1176 44.4821 12.1266 44.3282 12.7849 44.1287C13.5572 46.5394 14.651 48.7158 15.9846 50.6258C15.9202 50.6432 15.8566 50.6642 15.7922 50.6825C14.9902 50.3091 12.1856 49.0049 11.243 48.5795L9.27305 47.6892L10.4381 49.5155C10.523 49.6473 12.5341 52.7953 14.1759 54.9171C15.7118 56.8958 17.8146 58.9214 21.7826 58.9214C22.2602 58.9214 22.7599 58.8903 23.2748 58.8334C24.458 58.6969 25.3472 58.5899 26.0231 58.5028C30.1884 60.0392 34.7815 60.1338 39.1402 58.4758C40.2818 58.04 41.3793 57.4958 42.4179 56.8507C44.0984 56.4455 45.9366 56.006 46.8445 55.7498C46.9901 55.7103 47.1724 55.6667 47.362 55.6218C48.6272 55.3298 50.7417 54.8371 51.8691 52.573C53.0053 50.2886 54.858 46.7883 54.8775 46.7526L55.744 45.1197L54.0558 45.8564C53.9655 45.8976 51.8266 46.8326 50.7155 47.4173C51.4875 45.6329 51.9424 44.1558 52.1009 43.5885C52.7231 43.7391 53.6456 43.7198 54.3241 43.7198C54.6577 43.7198 55.0008 43.6614 55.2234 43.6045C55.6645 43.492 56.0051 43.1979 56.6454 40.7072C57.0183 39.2595 57.2857 37.6832 57.3591 36.8728C57.5009 35.296 57.4549 34.4508 56.8139 33.9175C56.4945 33.6525 55.557 33.1457 55.0802 32.8963C55.347 32.7818 55.4777 32.8154 55.488 32.8182L55.9207 31.1705C56.073 31.1051 56.2343 31.0395 56.4176 30.9689C56.6789 30.8644 56.9402 30.7607 57.2018 30.6475L57.5878 30.4727C57.7223 30.4094 57.8433 30.352 57.9905 30.276L58.2159 30.0675C58.2647 29.993 58.2909 29.952 58.3207 29.8951C58.4637 29.637 58.5141 29.5365 58.5616 29.4339C58.6594 29.2269 58.7461 29.0198 58.8281 28.8114C58.9882 28.3985 59.1283 27.9781 59.2481 27.5517C59.4774 26.7043 59.6394 25.84 59.7326 24.9669C59.8298 24.0963 59.8516 23.2194 59.808 22.3439C59.7869 21.9068 59.745 21.4712 59.6827 21.0381Z" fill="#0E0F0D"></path><path id="Vector_2" d="M34.937 54.9686C34.6182 55.0166 34.2995 55.0557 33.9845 55.0811C33.7794 55.0912 33.5642 55.1117 33.368 55.1117L33.2949 55.1135C33.541 54.563 33.728 54.1348 33.8689 53.8105C34.1572 54.1348 34.5237 54.5355 34.937 54.9686Z" fill="#E1C5A2"></path><path id="Vector_3" d="M34.5513 30.352C34.053 30.7581 33.528 31.1362 32.9812 31.4679L31.1575 32.5724C30.0138 32.7126 29.0209 32.9963 28.9642 33.0137C28.9309 33.0208 28.8995 33.0366 28.87 33.0544C28.7797 33.108 28.7124 33.1934 28.6813 33.294L26.8239 39.4372L16.8965 41.6535L13.7688 39.4548L12.8594 32.0576C14.6357 31.73 17.0102 31.3522 19.8625 31.0308C19.5516 31.4036 19.2568 31.7897 18.9789 32.1879L17.2809 34.6346L19.7537 32.9799C19.7913 32.954 21.3648 31.914 23.9406 30.6487C26.7466 30.4376 29.5594 30.3317 32.3732 30.3311C33.1138 30.3311 33.839 30.34 34.5513 30.3522V30.352ZM19.0989 38.6857C19.8044 38.3029 20.6013 38.3591 21.8488 38.3619C21.9817 38.3643 22.1202 38.3629 22.2637 38.3591C22.3867 38.3591 22.5098 38.3568 22.6403 38.353C23.9261 38.3401 24.9941 38.4622 24.9747 36.4373C24.9557 34.4123 24.059 32.7745 22.7741 32.7872C21.4898 32.7987 20.2462 34.4584 20.323 36.4825C20.3434 37.0095 20.4215 37.3905 20.5448 37.6641C19.4252 37.9467 19.1153 38.6419 19.0989 38.6857ZM51.7577 32.0333L50.8638 38.3231L47.7107 40.54L37.7962 39.4087L35.9462 33.2937C35.9261 33.227 35.8896 33.1665 35.8401 33.1175C35.7907 33.0686 35.7298 33.0328 35.6631 33.0135C35.6022 32.9949 34.3748 32.6427 33.0735 32.5298L33.3116 32.514C33.5167 32.4985 36.9358 32.0783 41.0198 30.6656C45.5409 31.0138 49.2339 31.5708 51.7577 32.0333ZM45.4232 37.8554C45.4103 37.8064 45.1382 36.9928 43.9448 37.1357C44.0816 36.8345 44.1435 36.4282 44.1002 35.8705C43.9427 33.8495 42.7703 32.2432 41.4869 32.2886C40.202 32.3333 39.3803 34.0088 39.4513 36.0366C39.5221 38.0596 40.5988 38.0457 41.8837 37.9996C43.6091 37.9667 44.5565 37.4349 45.4232 37.8554Z" fill="#A89983"></path><path id="Vector_4" d="M42.031 34.2173C42.0341 34.3919 41.968 34.5607 41.8472 34.6864C41.7265 34.8122 41.5609 34.8847 41.3869 34.8881C41.3008 34.8896 41.2152 34.8741 41.135 34.8424C41.0548 34.8107 40.9817 34.7635 40.9197 34.7034C40.8577 34.6433 40.8082 34.5715 40.7738 34.4922C40.7395 34.4129 40.7211 34.3275 40.7197 34.241C40.718 34.1546 40.7333 34.0687 40.7647 33.9881C40.7961 33.9076 40.843 33.8341 40.9027 33.7719C40.9625 33.7096 41.0338 33.6597 41.1128 33.6252C41.1917 33.5906 41.2767 33.572 41.3628 33.5705C41.4491 33.5686 41.5349 33.5838 41.6153 33.6154C41.6957 33.6469 41.769 33.6941 41.8311 33.7543C41.8932 33.8144 41.9429 33.8863 41.9772 33.9658C42.0115 34.0453 42.0298 34.1309 42.031 34.2175M23.6286 34.7019C23.6329 34.8763 23.5682 35.0454 23.4486 35.1719C23.329 35.2985 23.1643 35.3723 22.9906 35.3772C22.9042 35.3798 22.8182 35.3653 22.7374 35.3344C22.6566 35.3035 22.5827 35.2569 22.5199 35.1973C22.4571 35.1377 22.4066 35.0662 22.3714 34.987C22.3362 34.9078 22.3169 34.8223 22.3147 34.7356C22.3124 34.649 22.3272 34.5628 22.3582 34.482C22.3892 34.4012 22.4358 34.3273 22.4952 34.2646C22.5547 34.2018 22.626 34.1515 22.7048 34.1165C22.7837 34.0814 22.8687 34.0623 22.955 34.0603C23.129 34.0558 23.2978 34.1209 23.4241 34.2412C23.5504 34.3615 23.6239 34.5272 23.6286 34.7019Z" fill="white"></path><path id="Vector_5" d="M56.0857 34.8008C55.9307 34.6724 55.413 34.3754 54.9084 34.1016L54.0775 39.9483C54.0687 40.0047 54.0488 40.0587 54.0188 40.1072C53.9889 40.1557 53.9495 40.1977 53.9032 40.2307L52.7142 41.0654C52.686 41.2066 52.664 41.3245 52.6429 41.4348C53.811 41.7235 54.9457 40.8779 55.5827 40.2678C55.8773 39.1159 56.1339 37.7484 56.2225 36.7697C56.3582 35.2526 56.2382 34.9267 56.0857 34.8008ZM37.724 57.0131C36.9527 56.7378 36.2456 56.2884 35.6301 55.6777C35.5788 55.6252 35.53 55.5746 35.4785 55.5233C34.9968 55.6219 34.5098 55.6922 34.02 55.7336C33.8109 55.7431 33.6114 55.7609 33.3935 55.7609L33.071 55.7638L32.9468 55.7609C32.2094 56.8602 30.97 57.4644 29.9988 57.786C32.8839 58.2829 36.0585 57.5225 37.724 57.0131ZM12.3255 42.6943C12.2997 42.6061 12.2725 42.5188 12.2475 42.4303L10.7029 41.345C10.6553 41.3112 10.6152 41.2678 10.5853 41.2176C10.5553 41.1674 10.536 41.1115 10.5288 41.0534L9.77574 34.914C9.21839 35.2126 8.5741 35.581 8.40277 35.7252C8.25371 35.8488 8.14003 36.1636 8.30105 37.6263C8.42339 38.7263 8.80824 40.4158 9.20128 41.6819C9.98339 42.2826 11.1353 42.9155 12.3255 42.6943ZM35.4154 42.4141C35.3346 42.4048 35.2582 42.3719 35.1958 42.3195C35.1334 42.2671 35.0877 42.1975 35.0643 42.1193L33.1584 35.8139C32.8387 35.7721 32.5551 35.7485 32.3156 35.7485C32.0751 35.7485 31.7929 35.7721 31.4737 35.8139L29.621 41.9379C29.5993 42.0084 29.5594 42.072 29.5054 42.1221C29.4513 42.1722 29.385 42.207 29.3132 42.223L28.4273 42.4211C28.3523 42.7352 28.0973 43.1962 27.2758 43.4489C25.9502 43.8547 17.5584 46.3659 16.6014 46.2292C16.0427 46.1506 14.9796 45.5617 14.1932 45.0857C13.8785 44.3418 13.7043 43.8361 13.6645 43.7161V43.7138L13.6621 43.7161C13.7735 44.0427 14.8685 47.207 17.0934 50.3022C19.4786 49.5965 21.5388 48.9387 22.1976 48.7295C23.5392 46.6525 25.4507 44.5916 26.8082 44.5213C27.0474 44.5091 27.2869 44.5028 27.5264 44.5024C28.1915 44.5024 28.8264 44.5497 29.4159 44.6199C28.9153 44.1636 28.8126 43.6303 28.74 43.3933C28.74 43.3933 30.4736 44.7547 32.6789 44.4683C34.8876 44.1846 36.2578 42.9077 36.2578 42.9077L36.3011 42.515L35.4152 42.4141" fill="#E1C5A2"></path><path id="Vector_6" d="M37.2077 43.2119C36.7502 43.0931 36.4621 42.9037 36.2795 42.7061L36.257 42.9075C36.257 42.9075 36.2495 43.838 35.2891 44.5589C37.1385 43.9966 37.9033 43.806 38.4271 43.806C39.0037 43.806 39.2887 44.0476 39.5388 44.2599C39.5861 44.2994 39.6334 44.341 39.6902 44.3855C40.9038 45.3449 42.1145 46.308 43.3223 47.2748C43.9012 47.3418 45.7389 47.5529 46.8955 47.6587C47.5614 47.7211 48.1647 47.7714 48.7553 47.7714C48.9447 47.7714 49.1238 47.7649 49.2932 47.7533C49.903 46.5807 50.4646 45.2838 50.9643 43.8538C50.2804 44.3354 48.722 45.3895 47.9917 45.5252C47.042 45.7038 38.5471 43.5606 37.2077 43.2119Z" fill="#E1C5A2"></path><path id="Vector_7" d="M58.5836 21.1617C58.5671 20.9603 58.5462 20.7592 58.521 20.5587C58.5042 20.4154 58.483 20.2727 58.4575 20.1307C57.921 19.6778 57.311 19.2743 56.6763 18.9091C55.9889 18.5039 55.2691 18.1437 54.5341 17.8084C53.8056 17.4626 53.0556 17.1499 52.3031 16.8452C51.9267 16.691 51.5477 16.5432 51.1664 16.4017C50.7867 16.2528 50.4039 16.1139 50.0196 15.9735C50.8251 16.1078 51.6241 16.2928 52.4172 16.4972C52.9331 16.6294 53.4456 16.7798 53.9547 16.9407C50.3301 7.43368 41.6683 1.24316 32.2099 1.24316C22.7503 1.24316 14.0889 7.43391 10.4669 16.9407C10.9755 16.7798 11.4892 16.6294 12.0028 16.4972C12.795 16.2925 13.5946 16.1078 14.4016 15.9737C14.0149 16.1139 13.6328 16.2528 13.2513 16.4019C12.8708 16.5438 12.4924 16.6916 12.1164 16.8452C11.3634 17.1499 10.615 17.4626 9.88401 17.8084C9.15159 18.1437 8.43206 18.5039 7.7437 18.9091C7.10878 19.2743 6.50011 19.6778 5.96245 20.1307C5.93896 20.273 5.91786 20.4157 5.89917 20.5587C5.87492 20.7593 5.85375 20.9604 5.83566 21.1617C5.80241 21.5673 5.78521 21.974 5.78409 22.3809C5.77542 23.1957 5.8305 24.0107 5.93269 24.8161C6.04425 25.6248 6.19167 26.428 6.40987 27.2052C6.51561 27.5917 6.6395 27.9729 6.78112 28.3477C6.85261 28.5329 6.92972 28.7166 7.01034 28.8933C7.04995 28.9818 7.09097 29.0693 7.13362 29.1528L7.18566 29.2516C7.24495 29.2815 7.30753 29.3133 7.36612 29.3417L7.72612 29.5142C7.92722 29.6069 8.20566 29.7394 8.43558 29.8424C8.44847 29.8307 8.46136 29.8189 8.47167 29.8076L7.80323 27.2513C7.94526 27.2129 9.21464 26.8835 11.4023 26.4645C11.225 26.4313 11.0487 26.3937 10.8733 26.3515C10.3753 26.2264 9.88355 26.0749 9.40659 25.8819C9.17081 25.7815 8.93808 25.6725 8.71636 25.5464C8.49487 25.4179 8.27714 25.2737 8.10769 25.081C10.5107 25.8692 15.4778 25.513 19.8935 25.0542C23.9306 24.6361 27.9799 24.3662 32.0484 24.3571C36.116 24.3662 40.1667 24.6361 44.2017 25.0542C48.6192 25.513 53.586 25.8692 55.9889 25.081C55.8213 25.274 55.6021 25.4179 55.3825 25.5464C55.1589 25.6723 54.9257 25.7817 54.6899 25.8819C54.2135 26.0749 53.7236 26.2264 53.2249 26.3515C53.1508 26.3692 53.076 26.3847 53.0022 26.4014C55.4022 26.848 56.7986 27.2115 56.9467 27.251L56.3078 29.6862C56.4377 29.6297 56.568 29.5733 56.6931 29.514L57.0541 29.3415C57.1134 29.313 57.175 29.2813 57.2362 29.2514L57.2847 29.1526C57.3283 29.0691 57.3707 28.9815 57.4099 28.8931C57.4907 28.7166 57.5678 28.5326 57.6381 28.3474C57.7794 27.9725 57.9034 27.5913 58.0099 27.2049C58.2285 26.4278 58.376 25.6243 58.4859 24.8159C58.5902 24.0105 58.6453 23.1955 58.6378 22.3807C58.6365 21.9738 58.6185 21.5671 58.5839 21.1617" fill="#E0D896"></path><path id="Vector_8" d="M42.161 16.4322C42.198 17.5197 42.1716 19.4933 41.6665 21.3398C41.6461 21.4103 41.6489 21.484 41.6665 21.5522C41.0244 21.4848 40.3816 21.4252 39.738 21.3734C40.459 19.8558 40.6165 18.2399 40.6516 17.6703C41.2057 17.2757 41.7567 16.8012 42.161 16.4322ZM23.7689 17.6703C23.8024 18.2397 23.9599 19.8518 24.6806 21.3696C24.0377 21.4207 23.3948 21.48 22.7534 21.5485C22.7707 21.483 22.7721 21.4106 22.7534 21.34C22.2495 19.4963 22.2227 17.5228 22.2574 16.4325C22.6636 16.8012 23.2132 17.2757 23.7689 17.6703ZM50.0564 23.0587C50.0532 23.0771 50.0487 23.0951 50.043 23.1129C50.1136 23.1333 50.1827 23.154 50.2533 23.1771C50.8477 23.3726 51.4427 23.5771 52.0111 23.8406C51.0623 23.2218 50.4607 21.4367 50.1253 20.0721C50.2177 21.8583 50.0651 22.9912 50.0564 23.0587ZM21.4664 16.089L15.3295 17.8411C14.962 20.2375 15.0741 22.0675 15.1331 22.7025L15.1643 22.6837C15.1643 22.6837 15.3642 20.0735 15.7718 19.0716C15.9818 18.5573 17.2664 18.2293 18.2456 17.9943C19.2272 17.7604 20.7921 17.2913 21.0959 18.6745C21.2834 19.5293 21.5416 20.2401 21.7891 20.7643C21.3949 18.8639 21.42 17.0056 21.4664 16.089ZM42.9516 16.089C43.0017 17.0414 43.0249 19.01 42.5801 20.9864C42.859 20.4495 43.1686 19.6575 43.3845 18.6745C43.6877 17.2913 45.2527 17.7604 46.234 17.9945C47.2153 18.2296 48.4983 18.5573 48.7083 19.0716C49.0542 19.9196 49.2497 21.9186 49.3013 22.5134C49.3596 21.7489 49.4243 20.0309 49.0898 17.8409L42.9516 16.089ZM23.7202 16.6224C23.9363 16.7965 24.1591 16.9621 24.3881 17.1188C24.4952 17.1936 24.5609 17.3155 24.5632 17.4468C24.5646 17.4673 24.6105 19.497 25.5045 21.2254C25.5173 21.2513 25.5265 21.2795 25.5352 21.3064C27.7575 21.1546 29.9864 21.0932 32.2097 21.0918C34.4344 21.0932 36.6619 21.1588 38.883 21.3115C38.892 21.2821 38.9002 21.2536 38.9159 21.2254C39.8084 19.497 39.8564 17.4673 39.8564 17.4468C39.8579 17.382 39.8746 17.3185 39.9053 17.2615C39.936 17.2044 39.9797 17.1555 40.0329 17.1188C40.2531 16.9673 40.4675 16.8075 40.6755 16.6395L40.7037 16.5605C41.1682 12.0202 40.316 7.83621 39.7744 5.76902C39.7458 7.18259 39.412 19.2945 36.4181 19.2945H28.1545C24.9752 19.2945 24.7195 5.63867 24.7195 5.63867L24.5557 6.12359C24.0134 8.30113 23.269 12.3035 23.7202 16.6224ZM14.3759 23.1117C14.373 23.094 14.3681 23.0769 14.3641 23.0587C14.3543 22.9912 14.201 21.8569 14.2934 20.069C13.9577 21.4346 13.3545 23.2227 12.4043 23.8413C12.9727 23.5766 13.5703 23.3717 14.1656 23.1759C14.235 23.154 14.3063 23.1333 14.3759 23.1117Z" fill="#D7C184"></path><path id="Vector_9" d="M52.6426 41.4348C52.5922 41.7037 52.5336 41.9709 52.4668 42.2362C53.1484 42.3957 54.2626 42.5195 54.7953 42.415C55.0234 42.1663 55.318 41.3038 55.5823 40.2676C54.9453 40.8779 53.8105 41.7235 52.6426 41.4346M28.22 58.1808C29.8477 58.6283 31.5104 58.8224 33.1484 58.7135C34.7919 58.6012 36.9254 58.2453 39.1902 57.3222C38.6897 57.2857 38.1964 57.1818 37.7234 57.0133C36.058 57.5229 32.8836 58.2834 29.9984 57.7865C29.2344 58.0389 28.6358 58.1173 28.5774 58.1246C28.457 58.1384 28.3571 58.1551 28.22 58.181M12.4325 43.0606C12.395 42.939 12.3605 42.8164 12.3247 42.6943C11.1345 42.9154 9.98258 42.2825 9.20117 41.6823C9.4543 42.495 9.70953 43.1338 9.90055 43.3279C10.49 43.4314 11.7938 43.2498 12.4325 43.0606ZM14.1924 45.0857C14.9785 45.5617 16.0416 46.1508 16.6006 46.2292C17.5576 46.3656 25.9494 43.8547 27.275 43.4488C28.0963 43.1961 28.3517 42.7352 28.4267 42.4211L16.3198 45.1273C16.2899 45.1329 16.2596 45.1359 16.2291 45.1365H16.2277C16.1443 45.1365 16.0606 45.1106 15.9894 45.061L15.5178 44.7306L14.1036 43.7363V43.7342L13.5329 43.3342C13.5427 43.3667 13.5545 43.3989 13.565 43.4309C13.5973 43.5253 13.6292 43.6208 13.6634 43.7135V43.7159C13.7033 43.8359 13.8774 44.3417 14.1922 45.0852M51.3301 42.751C51.4074 42.4639 51.4834 42.1734 51.5525 41.88L51.1323 42.1764L50.0009 42.9717L48.7773 43.8328C48.7145 43.8763 48.6413 43.9025 48.5663 43.9081C48.5415 43.9097 48.5165 43.9092 48.4918 43.9065L36.3005 42.515L36.2799 42.7058C36.4623 42.9037 36.7503 43.0931 37.2076 43.2119C38.547 43.5606 47.0417 45.7035 47.9914 45.5247C48.7217 45.3892 50.2805 44.3351 50.9637 43.8535C50.9696 43.8368 50.9755 43.8206 50.9809 43.8041C51.1019 43.4546 51.2183 43.1036 51.3301 42.751Z" fill="#9F8F78"></path><path id="Vector_10" d="M38.4302 26.262C38.3341 26.3867 38.2291 26.5231 38.1162 26.6655C37.5373 27.4 36.7352 28.3369 35.7853 29.2562C34.6482 29.2203 33.5107 29.2023 32.373 29.2023C30.4402 29.2023 28.587 29.2533 26.8273 29.3383C29.3147 28.3035 32.3016 27.2918 35.5366 26.6848C36.4946 26.5015 37.46 26.3606 38.4302 26.262ZM23.8788 27.3793C22.9898 28.0056 21.9884 28.8037 21.0164 29.7731C18.8581 29.9893 16.7067 30.2705 14.5652 30.6163C17.3187 29.3465 20.4616 28.1764 23.8788 27.3793ZM54.2904 32.5379L53.277 39.6474L48.4268 43.059L35.7776 41.6151L33.8745 35.3198C33.8519 35.2449 33.8088 35.1779 33.7502 35.1263C33.6916 35.0748 33.6197 35.0407 33.5428 35.0281C33.0745 34.9521 32.6604 34.9152 32.3145 34.9152C31.9676 34.9152 31.5537 34.9521 31.0823 35.0281C31.0058 35.0415 30.9344 35.0758 30.8761 35.1272C30.8177 35.1787 30.7747 35.2454 30.7516 35.3198L28.8949 41.4619L16.3172 44.2712L11.3325 40.7662L10.3488 32.787C10.5657 32.6657 10.7829 32.5448 11.0004 32.4245C11.3095 32.3576 11.6566 32.2871 12.0405 32.2139L12.9663 39.7432C12.9792 39.8601 13.0448 39.9643 13.1412 40.0316L16.5713 42.444C16.6402 42.4917 16.7248 42.5188 16.8075 42.5188C16.8382 42.5188 16.8677 42.5145 16.9001 42.5084L27.2412 40.1989C27.2768 40.19 27.3114 40.1773 27.3443 40.161C27.4395 40.1093 27.5159 40.0215 27.547 39.9126L29.4105 33.7576C29.91 33.6293 31.1899 33.3282 32.3142 33.3282C33.4364 33.3282 34.7159 33.6293 35.2167 33.7576L37.0791 39.9126C37.1266 40.0716 37.2659 40.1878 37.4297 40.2067L47.7727 41.3864C47.8718 41.3981 47.974 41.3704 48.0562 41.3125L51.4875 38.9046C51.5798 38.8376 51.6434 38.7336 51.6593 38.6204L52.5752 32.1866C53.2629 32.3188 53.8378 32.44 54.2904 32.5379ZM55.5673 28.0786L54.6766 31.4692C52.8558 31.0659 48.8571 30.2747 43.4137 29.7422C45.1915 28.9811 47.0025 28.0275 48.6574 26.8327C51.8965 27.292 54.2747 27.7852 55.5673 28.0786ZM9.18164 28.0786L9.42914 29.0173C10.0327 28.5347 10.6538 28.0746 11.2912 27.6381C10.4191 27.8061 9.70781 27.959 9.18164 28.0786Z" fill="#6E6A67"></path><path id="Vector_11" d="M44.1052 26.1881C42.742 26.1105 41.3796 26.0451 40.0155 25.9884C39.8631 26.2143 39.7065 26.4373 39.5456 26.6573C38.8148 27.6497 37.3744 29.459 35.5277 31.0114C36.9171 30.5696 42.4287 28.7134 45.2203 26.2571C44.8487 26.2328 44.477 26.2098 44.1052 26.1881ZM34.1166 25.8267L34.1222 25.8253C33.4308 25.8164 32.7389 25.8088 32.0487 25.8063H32.0473C31.0303 25.8091 30.0159 25.822 28.999 25.8397L27.124 26.7319C27.1141 26.7358 27.1047 26.7411 27.0963 26.7476C26.8141 26.885 24.3527 28.132 22.0352 30.3566C22.238 30.2493 22.4529 30.1383 22.6744 30.0256C23.9419 29.1706 27.3223 27.146 32.5788 25.8117C33.0914 25.8147 33.6045 25.8178 34.1166 25.8267ZM22.5945 26.054C21.7263 26.0942 20.8577 26.139 19.9905 26.1881C18.9846 26.2446 17.982 26.3128 16.98 26.3886C16.4803 26.4272 15.9799 26.47 15.4845 26.5222C15.3405 26.5363 15.1999 26.5519 15.0591 26.57C13.7498 27.3556 8.73937 30.5133 5.29688 34.6458C5.35617 34.5741 5.41734 34.5032 5.47805 34.4324C11.8514 28.9739 18.8388 26.8493 22.5945 26.054ZM51.428 48.5014L51.3131 48.5606C50.674 48.898 49.8366 49.063 48.7542 49.063C48.1099 49.063 47.478 49.0089 46.7777 48.9453C45.3795 48.8169 43.0123 48.5374 42.9881 48.5329L42.8072 48.5138L42.664 48.3978C42.6422 48.3835 40.5696 46.7238 38.8938 45.4013C38.8254 45.3457 38.764 45.293 38.7077 45.2483C38.531 45.0966 38.531 45.0966 38.4255 45.0966C37.8877 45.0966 36.3251 45.5836 32.903 46.6478L32.693 46.7153L32.4851 46.636C32.4616 46.6302 30.2168 45.7944 27.5257 45.7944C27.3054 45.7944 27.0855 45.7998 26.8718 45.8104C26.6025 45.8243 25.0901 46.5457 23.1546 49.6173L23.0306 49.8154L22.808 49.8869C22.7756 49.8975 19.4461 50.9761 15.9145 51.9899L15.6867 52.0546L15.4688 51.9537C15.446 51.9459 14.067 51.3019 12.7526 50.6972C12.8494 50.7424 12.9469 50.7866 13.0439 50.8318C14.3414 51.956 16.826 54.1182 17.1019 54.4178C17.1401 54.4608 17.1933 54.5135 17.2566 54.5733C17.1926 54.5002 17.1303 54.4258 17.0695 54.35L17.0672 54.3476L17.0674 54.3479C17.6398 54.8926 18.2787 55.3634 18.9766 55.6946C19.3249 55.8589 19.6901 55.9862 20.0613 56.048C20.2486 56.0786 20.4302 56.0941 20.6198 56.0941C20.8118 56.0941 21.008 56.0885 21.2039 56.0789C21.9802 56.0389 22.7637 55.9791 23.5453 55.9031C24.3258 55.8325 25.107 55.7542 25.8867 55.6591C26.6655 55.5749 27.4444 55.4765 28.2164 55.3563C28.6031 55.2998 28.9875 55.2356 29.363 55.1521C29.5474 55.1083 29.7396 55.0601 29.8856 54.9942C30.019 54.9302 30.1805 54.8015 30.3225 54.6789C30.6131 54.4279 30.8937 54.1495 31.1714 53.8719C31.4498 53.5923 31.7236 53.308 31.9927 53.0192C32.4499 52.5386 32.8418 52.028 33.2845 51.5332C33.3413 51.4716 33.3991 51.4061 33.458 51.3426C33.458 51.3438 33.458 51.3438 33.4589 51.3438L33.4641 51.3497C33.5564 51.4163 33.6485 51.4838 33.7387 51.5548C34.2715 51.9536 34.8216 52.3854 35.3522 52.7581C36.0363 53.2406 36.7289 53.7242 37.4454 54.1265C37.6242 54.2265 37.8091 54.3199 37.9856 54.3785C38.0086 54.3869 38.0278 54.3909 38.0454 54.3935C38.0585 54.4015 38.1056 54.4091 38.111 54.4091C38.1459 54.4142 38.1926 54.4166 38.2376 54.4196C38.3341 54.4208 38.434 54.4166 38.5341 54.4119C38.9381 54.3836 39.348 54.3246 39.7584 54.2601C40.5776 54.1319 41.3991 53.9839 42.2156 53.8197C43.0341 53.6625 43.8516 53.494 44.6639 53.3126C45.4793 53.1385 46.2913 52.9489 47.0995 52.7437C47.5005 52.6353 47.902 52.5353 48.2599 52.3628C48.6255 52.192 48.9647 51.9576 49.2771 51.689C49.9076 51.1499 50.4375 50.4817 50.8779 49.754L50.8767 49.7563C51.093 49.3532 51.2774 48.9336 51.428 48.5014ZM36.15 9.83907H37.5912V6.90039H27.0537V9.83907H28.4951V8.34667H31.4747V17.4227H30.248V19.1073H34.3964V17.4227H33.1695V8.34667H36.15V9.83907Z" fill="#93232C"></path><path id="Vector_12" d="M47.0531 26.3873C47.0506 26.3856 47.0477 26.3848 47.0447 26.3847C46.448 26.3396 45.8512 26.2978 45.2541 26.2593L45.2198 26.2571C42.428 28.7135 36.9169 30.5696 35.5273 31.0115C35.5003 31.0346 35.4738 31.0576 35.4469 31.0802C37.2356 30.7569 39.9075 30.116 42.6806 28.8834C44.0445 28.2773 45.4327 27.5288 46.7531 26.6035C46.8551 26.5324 46.954 26.4581 47.0531 26.3873ZM32.5788 25.8115C27.3223 27.1456 23.9419 29.1702 22.6741 30.0252C23.8446 29.4274 25.0366 28.8733 26.2479 28.3641C26.394 28.3031 26.5403 28.2425 26.6869 28.1825C26.7328 28.1636 26.7783 28.1448 26.8245 28.1262C26.9461 28.0768 27.0691 28.0281 27.1927 27.9785C27.2616 27.9517 27.3295 27.9244 27.3989 27.8975C27.51 27.8538 27.6223 27.8105 27.7352 27.767C27.8198 27.7347 27.9045 27.7023 27.99 27.6705C28.0936 27.6305 28.1979 27.5914 28.3031 27.5528C28.4013 27.5164 28.5009 27.4804 28.5996 27.4446C28.6971 27.4089 28.7939 27.374 28.8921 27.3387C29.0039 27.2992 29.1166 27.2602 29.2301 27.2204C29.3196 27.1896 29.4087 27.1583 29.4987 27.1275C29.6313 27.0828 29.7649 27.038 29.8992 26.9938C29.973 26.9693 30.0462 26.9449 30.1202 26.9206C30.3302 26.8524 30.5426 26.7846 30.7563 26.719C31.2227 26.5752 31.6992 26.4381 32.1837 26.3061C32.8241 26.1307 33.4685 25.9709 34.1166 25.8266C33.6042 25.8179 33.0914 25.8148 32.5788 25.8115ZM22.5945 26.0541C18.8388 26.8494 11.8514 28.9739 5.47805 34.4325C5.41734 34.5033 5.35617 34.5739 5.29688 34.6459C8.53664 32.3848 14.1054 29.0241 20.9899 26.9795C21.2119 26.9136 21.4359 26.8494 21.6605 26.7858C22.8242 26.4584 24.0008 26.1788 25.1873 25.9478C24.3237 25.9786 23.4591 26.0146 22.5945 26.0541ZM52.6687 47.8986C52.6028 47.929 52.537 47.9598 52.4714 47.9911C52.4355 48.0076 52.4011 48.024 52.365 48.0405L52.2797 48.0812L52.1494 48.1436C52.1316 48.1528 52.1126 48.1612 52.0941 48.1709C52.0446 48.1944 51.9956 48.2172 51.948 48.241L51.9159 48.257C51.8637 48.2829 51.8116 48.308 51.7612 48.3332L51.7451 48.341C51.633 48.3965 51.5271 48.4501 51.428 48.501C51.2769 48.9337 51.092 49.3538 50.8751 49.7574L50.8774 49.7543C50.8762 49.7557 50.8751 49.7567 50.8744 49.7588C50.4347 50.4835 49.9052 51.1498 49.2764 51.6881C48.964 51.9568 48.6244 52.1911 48.2595 52.3619C47.9009 52.5344 47.4996 52.6342 47.0988 52.7429C46.2926 52.9466 45.4798 53.1381 44.663 53.3115C43.8496 53.4929 43.0336 53.6619 42.2152 53.8186C41.3981 53.9835 40.5771 54.1313 39.7573 54.2593C39.3473 54.3237 38.9377 54.3828 38.5331 54.4108C38.4346 54.4164 38.3358 54.419 38.2371 54.4186C38.1946 54.4167 38.1523 54.4132 38.1101 54.408C38.0878 54.4059 38.0658 54.4008 38.0449 54.3927C38.0244 54.3901 38.0042 54.385 37.9849 54.3774C37.808 54.3195 37.6237 54.2252 37.4447 54.1256C36.7284 53.7228 36.0354 53.2398 35.3512 52.7572C34.8216 52.3843 34.2703 51.9526 33.7378 51.5538L33.6914 51.6199L33.6947 51.6234C33.7277 51.6535 33.7612 51.6813 33.7943 51.7105L33.792 51.709C33.7676 51.6907 33.7444 51.6728 33.7216 51.6563L34.1681 52.1909C34.1695 52.1925 34.1864 52.2132 34.2192 52.2516C34.447 52.5203 35.4005 53.6306 36.5325 54.7581C37.3943 55.6157 38.434 56.0488 39.6267 56.0488C40.0338 56.0488 40.4618 55.9952 40.8942 55.8919C41.2941 55.7933 41.7293 55.6893 42.1751 55.5811C43.4972 55.2653 44.9618 54.9131 45.934 54.6597C45.9987 54.6425 46.0617 54.6263 46.1222 54.6101C46.2598 54.5736 46.3844 54.5402 46.496 54.5091C46.6861 54.4563 46.8775 54.4089 47.0702 54.3668C48.2491 54.0922 49.8616 53.7167 50.7155 51.9984C50.9715 51.4861 51.2301 50.9751 51.4912 50.4653C51.9189 49.6312 52.35 48.7989 52.7845 47.9683C52.7845 47.9678 52.785 47.9678 52.785 47.9678L52.8698 47.805L52.6687 47.8986ZM33.3612 51.6053L33.2845 51.5323C32.8416 52.0274 32.4495 52.5379 31.9927 53.0189C31.7236 53.3075 31.4498 53.5917 31.1714 53.8713C30.8937 54.1489 30.6129 54.4282 30.3225 54.6783C30.1802 54.8011 30.0188 54.9301 29.8856 54.9936C29.7398 55.0595 29.5474 55.1079 29.363 55.1515C28.988 55.2352 28.6031 55.2992 28.2164 55.3559C27.4446 55.4759 26.6655 55.575 25.8867 55.6585C25.107 55.7535 24.3258 55.8321 23.5453 55.9025C22.7639 55.9785 21.9802 56.0382 21.2039 56.0787C21.008 56.0876 20.8118 56.0938 20.6198 56.0938C20.4302 56.0938 20.2481 56.0787 20.0613 56.0474C19.6898 55.9858 19.3247 55.8582 18.9766 55.6943C18.2789 55.363 17.64 54.8919 17.0674 54.3475L17.0695 54.3494C17.1469 54.4449 17.232 54.5345 17.3133 54.6256C17.2936 54.6075 17.2748 54.5894 17.2566 54.5724C17.1933 54.5129 17.1401 54.4602 17.1016 54.4171C16.8255 54.1172 14.3407 51.9554 13.0437 50.8312C12.9466 50.7858 12.8491 50.7418 12.7523 50.6964C12.9976 51.0612 13.2453 51.4244 13.4953 51.786C13.8776 52.3402 14.2682 52.8886 14.667 53.4311C14.8387 53.6641 15.0131 53.8952 15.1901 54.1242C16.6003 55.946 18.3755 57.6294 21.7821 57.6294C22.2087 57.6294 22.6627 57.6031 23.1286 57.5502C23.2371 57.5384 23.3426 57.5262 23.4464 57.5137C23.5463 57.5024 23.6445 57.4913 23.7396 57.48C26.7019 57.1382 27.5145 56.9923 27.9654 56.9142C28.0821 56.894 28.1817 56.8763 28.2895 56.8603C28.3315 56.8544 28.3744 56.8476 28.4198 56.8415C28.4363 56.8401 29.438 56.7109 30.4172 56.2326C31.0922 55.9037 31.7559 55.4091 32.0805 54.6781C32.9004 52.837 33.067 52.397 33.0736 52.3805L33.3612 51.6053Z" fill="#731B2A"></path><path id="Vector_13" d="M41.3859 34.8882C41.5598 34.8846 41.7252 34.8121 41.8459 34.6864C41.9666 34.5607 42.0328 34.3922 42.03 34.2176C42.0288 34.1309 42.0104 34.0454 41.9761 33.9659C41.9417 33.8864 41.8921 33.8144 41.8299 33.7543C41.7677 33.6941 41.6943 33.6469 41.6139 33.6154C41.5335 33.5839 41.4476 33.5686 41.3613 33.5706C41.2752 33.5721 41.1901 33.5907 41.1111 33.6253C41.0321 33.6598 40.9607 33.7097 40.9009 33.7721C40.8412 33.8344 40.7942 33.908 40.7628 33.9885C40.7314 34.0691 40.7162 34.1551 40.718 34.2416C40.7212 34.4163 40.7933 34.5825 40.9186 34.7037C41.0439 34.825 41.212 34.8913 41.3859 34.8882ZM45.4221 37.8558C44.5554 37.4353 43.608 37.9675 41.8826 38C40.5977 38.0461 39.521 38.06 39.4502 36.0368C39.3792 34.0091 40.2009 32.3335 41.4855 32.2888C42.7692 32.2436 43.9413 33.8499 44.0988 35.8709C44.1424 36.4286 44.081 36.8349 43.9437 37.1361C45.1371 36.993 45.4092 37.8066 45.4221 37.8558ZM22.9898 35.3771C23.1636 35.3722 23.3283 35.2984 23.4479 35.1718C23.5674 35.0452 23.6322 34.8762 23.6278 34.7018C23.6232 34.5271 23.5497 34.3613 23.4234 34.2409C23.2971 34.1206 23.1283 34.0555 22.9542 34.06C22.8681 34.0623 22.7833 34.0817 22.7046 34.1169C22.6259 34.1522 22.5549 34.2027 22.4956 34.2655C22.4364 34.3283 22.39 34.4022 22.3592 34.483C22.3284 34.5637 22.3138 34.6498 22.3161 34.7363C22.3185 34.8228 22.3378 34.9079 22.3729 34.9869C22.408 35.0659 22.4583 35.1372 22.5208 35.1966C22.5834 35.2561 22.657 35.3026 22.7375 35.3336C22.818 35.3645 22.9037 35.3792 22.9898 35.3768V35.3771ZM24.9736 36.4375C24.9926 38.4623 23.9245 38.3405 22.639 38.3532C22.5084 38.3574 22.3854 38.359 22.2621 38.359C22.1189 38.363 21.9804 38.3647 21.8475 38.3621C20.5997 38.359 19.803 38.3033 19.0973 38.6859C19.1138 38.6421 19.4241 37.9471 20.5434 37.6636C20.4199 37.3899 20.3423 37.0092 20.322 36.4824C20.2448 34.4585 21.4887 32.7989 22.773 32.7871C24.0577 32.7744 24.9544 34.4124 24.9736 36.4375ZM49.3013 22.5137C49.2919 22.6383 49.2802 22.7627 49.2661 22.8869C48.7571 22.7491 48.2457 22.6204 47.7321 22.501C46.0352 22.1269 44.3175 21.8495 42.5913 21.6517C42.5318 21.6439 42.4711 21.6399 42.4102 21.6324C42.4219 21.6065 42.4324 21.5808 42.4402 21.5552C42.4917 21.366 42.5367 21.1766 42.5796 20.987C43.0245 19.0106 43.0012 17.0422 42.9511 16.0896L49.0894 17.8417C49.4238 20.0315 49.3589 21.7493 49.3013 22.5137ZM41.6663 21.3401C41.6456 21.4107 41.6484 21.4844 41.6663 21.5526C41.0241 21.4851 40.3812 21.4255 39.7376 21.3738C40.4585 19.8562 40.616 18.2403 40.6512 17.6707C41.2052 17.2761 41.756 16.8015 42.1605 16.4326C42.1976 17.5201 42.1711 19.4936 41.666 21.3401H41.6663ZM22.7529 21.5486C22.7702 21.4832 22.7716 21.4107 22.7529 21.3401C22.249 19.4962 22.2223 17.5229 22.257 16.4326C22.6629 16.8015 23.2125 17.2761 23.7684 17.6707C23.802 18.2401 23.9595 19.8522 24.6802 21.37C24.0373 21.4208 23.3946 21.4801 22.7529 21.5486ZM21.8259 21.6502C20.9648 21.7556 20.1028 21.8646 19.245 22.0074C18.3895 22.1545 17.5338 22.3107 16.6856 22.4998C16.1712 22.6198 15.6614 22.7469 15.1512 22.8855C15.1465 22.845 15.1402 22.7827 15.1329 22.7024C15.0738 22.0672 14.9618 20.2376 15.3293 17.841L21.4659 16.0886C21.4195 17.0055 21.3945 18.8636 21.7889 20.7637C21.8438 21.0277 21.9061 21.2917 21.9778 21.5542C21.9858 21.5801 21.9961 21.606 22.0073 21.6291C21.9457 21.6368 21.8866 21.6422 21.8257 21.65L21.8259 21.6502ZM52.5912 24.1381C52.5389 24.1129 52.4873 24.0873 52.4379 24.0628C52.362 24.0261 52.2778 23.9842 52.1815 23.9372C52.1225 23.9086 52.0654 23.8764 52.0104 23.8407C51.4425 23.5772 50.8472 23.373 50.2528 23.1772C50.1825 23.1542 50.1131 23.1335 50.0428 23.1128C50.0484 23.0951 50.0528 23.0771 50.0562 23.0589C50.0648 22.9913 50.2174 21.8582 50.1253 20.0722C50.0864 19.3094 50.0023 18.4276 49.8431 17.4585C49.8306 17.383 49.797 17.3127 49.7463 17.2556C49.6956 17.1984 49.6299 17.1569 49.5567 17.1356L48.6818 16.8872C48.4936 10.0908 45.7062 6.8971 45.619 6.79805C48.109 10.8214 48.0872 15.5927 48.0438 16.7046L42.6195 15.1567C42.6155 15.1567 42.612 15.1567 42.6068 15.1543C42.5839 15.1493 42.5606 15.1458 42.5372 15.144C42.532 15.144 42.5262 15.143 42.5173 15.143C42.4875 15.1416 42.4577 15.1441 42.4287 15.1506C42.4245 15.1506 42.4198 15.1546 42.4141 15.1546C42.3898 15.1597 42.3662 15.1678 42.3438 15.1788C42.3354 15.1828 42.3277 15.1882 42.3199 15.1906C42.3016 15.203 42.2838 15.2134 42.266 15.2263C42.262 15.2292 42.2566 15.2315 42.2529 15.2353C42.2475 15.239 42.2459 15.243 42.2426 15.2456C42.2374 15.251 42.2313 15.2546 42.2271 15.2586C42.222 15.264 42.0759 15.4075 41.8491 15.6225C41.865 15.1132 41.869 14.3337 41.8113 13.382L41.7938 13.1074C41.6231 10.7162 41.0602 7.35755 39.3776 4.41723C39.3921 4.45958 39.5585 4.94732 39.7737 5.76916C40.3151 7.83635 41.1677 12.0204 40.703 16.5606C40.7006 16.5813 40.6992 16.6018 40.6971 16.6227C40.6901 16.6286 40.6823 16.634 40.6751 16.6397C40.4669 16.8075 40.2525 16.9674 40.0322 17.1189C39.979 17.1557 39.9352 17.2046 39.9045 17.2616C39.8737 17.3186 39.8568 17.3821 39.8552 17.4469C39.8552 17.4674 39.8077 19.4972 38.9154 21.2256C38.8995 21.2538 38.8913 21.2823 38.8821 21.3117C36.6612 21.1587 34.4337 21.0936 32.209 21.0919C29.9855 21.0933 27.7568 21.1547 25.5345 21.3065C25.5255 21.2794 25.5166 21.2512 25.5038 21.2253C24.6098 19.4972 24.5639 17.4674 24.5625 17.4467C24.5613 17.382 24.5447 17.3186 24.5142 17.2616C24.4837 17.2046 24.4402 17.1557 24.3872 17.1189C24.1582 16.9624 23.9354 16.7967 23.7195 16.6225C23.268 12.3034 24.0129 8.30127 24.555 6.12349C24.8123 5.08966 25.0247 4.46475 25.0416 4.41699C22.6001 8.68172 22.5155 13.8276 22.5696 15.6223C22.3388 15.4073 22.1955 15.264 22.1918 15.2583C22.1876 15.2543 22.1801 15.2508 22.1749 15.2454L22.1663 15.2348C22.162 15.2313 22.1571 15.2289 22.152 15.2261C22.1347 15.2139 22.1167 15.2028 22.098 15.1929C22.0891 15.188 22.0826 15.1826 22.0723 15.1786C22.0516 15.1674 22.0292 15.1599 22.0059 15.1567C21.9994 15.1543 21.9945 15.1503 21.9902 15.1503C21.9607 15.1441 21.9304 15.1415 21.9002 15.1428C21.8927 15.1428 21.8848 15.1437 21.8773 15.1437C21.8552 15.1461 21.8339 15.1487 21.8109 15.1541C21.8055 15.1564 21.803 15.1565 21.7978 15.1565L16.3753 16.7044C16.3317 15.5922 16.3083 10.8209 18.7983 6.79781C18.712 6.89734 15.9251 10.0913 15.7355 16.8877L14.8648 17.1359C14.7908 17.1563 14.7242 17.1976 14.6729 17.2549C14.6216 17.3122 14.5878 17.3831 14.5755 17.4592C14.4333 18.3234 14.3389 19.1949 14.2929 20.0696C14.201 21.8578 14.3538 22.9918 14.3637 23.0593C14.3677 23.0772 14.3726 23.0946 14.3754 23.1123C14.306 23.1339 14.2345 23.1546 14.1652 23.1765C13.5698 23.3723 12.9724 23.5774 12.4041 23.8419C12.3524 23.8753 12.2989 23.9056 12.2438 23.9327L12.2348 23.9377C12.138 23.9847 12.0539 24.0266 11.978 24.0633L11.8446 24.1287C11.8165 24.1452 11.7874 24.1593 11.7598 24.176C12.1622 24.0174 12.5784 23.9017 12.9942 23.7991C13.4108 23.695 13.8302 23.6027 14.2519 23.5224C15.0963 23.3647 15.9427 23.2278 16.7944 23.1238C17.6437 23.0118 18.4966 22.9194 19.3509 22.8476C20.2055 22.7744 21.0586 22.7022 21.915 22.6525C25.3399 22.449 28.7737 22.3848 32.2087 22.3836C35.6449 22.386 39.0783 22.4401 42.5027 22.6514C43.3596 22.701 44.2125 22.7728 45.0684 22.8455C45.9239 22.9184 46.774 23.0121 47.6231 23.124C48.4751 23.2269 49.323 23.3631 50.1661 23.5217C50.5875 23.6014 51.0063 23.6939 51.4221 23.7991C51.8412 23.9019 52.2551 24.0177 52.6584 24.1762C52.6359 24.1626 52.613 24.1508 52.5912 24.1381Z" fill="#0E0F0D"></path><path id="Vector_14" d="M33.1703 8.34672V17.4227H34.3973V19.1074H30.2488V17.4227H31.4755V8.34672H28.4957V9.83936H27.055V6.90068H37.592V9.83936H36.1511V8.34649L33.1703 8.34672ZM38.677 10.9259V5.8125H25.9727V10.9259H29.5804V9.43326H30.3909V16.3341H29.167V20.1922H35.481V16.3336H34.2529V9.43279H35.0664V10.9257L38.677 10.9259Z" fill="#0E0F0D"></path></g><defs><clipPath id="clip0_2785_11938"><rect width="60" height="60" fill="white"></rect></clipPath></defs></svg> 