<svg width="60" height="60" viewBox="0 0 60 60" fill="none" xmlns="http://www.w3.org/2000/svg">
<rect width="60" height="60" fill="#007ACC"/>
<path d="M9.03271 18.9207V21.3657H16.8327V43.5657H22.3677V21.3657H30.1677V18.9657C30.1677 17.6157 30.1677 16.5207 30.1077 16.4907C30.1077 16.4457 25.3527 16.4307 19.5777 16.4307L9.07772 16.4757V18.9357L9.03271 18.9207ZM44.0877 16.4157C45.6177 16.7757 46.7877 17.4657 47.8377 18.5607C48.3927 19.1607 49.2177 20.2107 49.2777 20.4807C49.2777 20.5707 46.6827 22.3257 45.1077 23.3007C45.0477 23.3457 44.8077 23.0907 44.5677 22.7007C43.7877 21.5907 42.9927 21.1107 41.7477 21.0207C39.9477 20.9007 38.7477 21.8457 38.7477 23.4207C38.7477 23.9007 38.8377 24.1707 39.0177 24.5607C39.4227 25.3857 40.1727 25.8807 42.4977 26.9007C46.7877 28.7457 48.6477 29.9607 49.7727 31.7007C51.0477 33.6507 51.3327 36.7107 50.4777 39.0057C49.5177 41.5107 47.1777 43.2057 43.8327 43.7607C42.7827 43.9407 40.3827 43.9107 39.2577 43.7157C36.8577 43.2657 34.5627 42.0657 33.1527 40.5207C32.5977 39.9207 31.5327 38.3157 31.5927 38.2107L32.1627 37.8507L34.4127 36.5457L36.1077 35.5557L36.4977 36.0807C36.9927 36.8607 38.1027 37.9107 38.7477 38.2707C40.6977 39.2757 43.3077 39.1407 44.5977 37.9707C45.1527 37.4607 45.3927 36.9207 45.3927 36.1707C45.3927 35.4807 45.2877 35.1657 44.9427 34.6407C44.4627 33.9807 43.5027 33.4407 40.8027 32.2407C37.6977 30.9207 36.3777 30.0807 35.1477 28.7907C34.4427 28.0107 33.7977 26.7957 33.4977 25.7907C33.2727 24.9207 33.1977 22.7907 33.4077 21.9357C34.0527 18.9357 36.3177 16.8357 39.5577 16.2357C40.6077 16.0257 43.0827 16.1157 44.1177 16.3857L44.0877 16.4157Z" fill="white"/>
</svg>
